<svg width="31" height="31" viewBox="0 0 31 31" fill="none" xmlns="http://www.w3.org/2000/svg">
<ellipse cx="15.8322" cy="15.5" rx="15.0078" ry="15" fill="#F4F3FF"/>
<path d="M22.3935 11.9443C22.3855 11.3384 22.272 10.7385 22.0582 10.1715C21.8728 9.69318 21.5896 9.25882 21.2267 8.89612C20.8638 8.53343 20.4292 8.25038 19.9507 8.06506C19.3906 7.85494 18.799 7.74133 18.201 7.72906C17.431 7.69466 17.1868 7.68506 15.2322 7.68506C13.2776 7.68506 13.0271 7.68506 12.2627 7.72906C11.6649 7.74142 11.0735 7.85503 10.5138 8.06506C10.0352 8.25025 9.6005 8.53325 9.2376 8.89596C8.8747 9.25868 8.59155 9.6931 8.40626 10.1715C8.19562 10.7308 8.08219 11.3219 8.07089 11.9195C8.03647 12.6899 8.02606 12.9339 8.02606 14.8875C8.02606 16.8411 8.02606 17.0907 8.07089 17.8555C8.08289 18.4539 8.19575 19.0443 8.40626 19.6051C8.59186 20.0833 8.87522 20.5175 9.23824 20.8801C9.60126 21.2426 10.036 21.5255 10.5146 21.7107C11.0728 21.9292 11.6643 22.051 12.2635 22.0707C13.0343 22.1051 13.2784 22.1155 15.233 22.1155C17.1876 22.1155 17.4382 22.1155 18.2026 22.0707C18.8006 22.0589 19.3923 21.9455 19.9523 21.7355C20.4307 21.5499 20.8652 21.2668 21.228 20.9041C21.5909 20.5415 21.8741 20.1072 22.0598 19.6291C22.2703 19.0691 22.3831 18.4787 22.3951 17.8795C22.4296 17.1099 22.44 16.8659 22.44 14.9115C22.4384 12.9579 22.4384 12.7099 22.3935 11.9443V11.9443ZM15.2274 18.5819C13.1831 18.5819 11.5271 16.9267 11.5271 14.8835C11.5271 12.8403 13.1831 11.1851 15.2274 11.1851C16.2088 11.1851 17.15 11.5747 17.8439 12.2683C18.5379 12.9619 18.9277 13.9026 18.9277 14.8835C18.9277 15.8643 18.5379 16.805 17.8439 17.4986C17.15 18.1922 16.2088 18.5819 15.2274 18.5819V18.5819ZM19.075 11.9107C18.5972 11.9107 18.2122 11.5251 18.2122 11.0483C18.2122 10.9351 18.2345 10.823 18.2778 10.7184C18.3212 10.6138 18.3847 10.5188 18.4648 10.4387C18.5449 10.3587 18.6399 10.2952 18.7446 10.2519C18.8492 10.2086 18.9614 10.1863 19.0746 10.1863C19.1879 10.1863 19.3 10.2086 19.4047 10.2519C19.5093 10.2952 19.6044 10.3587 19.6845 10.4387C19.7645 10.5188 19.8281 10.6138 19.8714 10.7184C19.9148 10.823 19.9371 10.9351 19.9371 11.0483C19.9371 11.5251 19.5513 11.9107 19.075 11.9107Z" fill="#F5512B"/>
<path d="M15.2274 17.2855C16.5549 17.2855 17.6311 16.2099 17.6311 14.8831C17.6311 13.5563 16.5549 12.4807 15.2274 12.4807C13.8999 12.4807 12.8238 13.5563 12.8238 14.8831C12.8238 16.2099 13.8999 17.2855 15.2274 17.2855Z" fill="#F5512B"/>
</svg>
