<svg width="1200" height="520" viewBox="0 0 1200 520" fill="none" xmlns="http://www.w3.org/2000/svg">
<path d="M1200 258H424V311H1200V258Z" fill="#FF9933"/>
<path d="M768 325H0V377H768V325Z" fill="#138808"/>
<path style="mix-blend-mode:color-burn" d="M647.078 472.864C709.839 446.867 739.643 374.915 713.646 312.154C687.65 249.393 615.698 219.589 552.937 245.586C490.175 271.582 460.372 343.535 486.368 406.296C512.365 469.057 584.317 498.86 647.078 472.864Z" fill="url(#paint0_radial_6_9338)"/>
<path d="M600.35 406.868C650.432 406.868 691.031 366.269 691.031 316.188C691.031 266.107 650.432 225.508 600.35 225.508C550.269 225.508 509.67 266.107 509.67 316.188C509.67 366.269 550.269 406.868 600.35 406.868Z" fill="white"/>
<path d="M600.35 233.129C554.496 233.129 517.312 270.312 517.312 316.167C517.312 362.022 554.496 399.205 600.35 399.205C646.205 399.205 683.388 362.022 683.388 316.167C683.388 270.312 646.205 233.129 600.35 233.129ZM677.476 321.313C675.351 321.357 673.665 323.109 673.709 325.233C673.753 327.007 674.979 328.452 676.6 328.868C676.293 330.751 675.899 332.635 675.461 334.474L636.679 322.102L610.445 317.678C610.511 317.218 610.577 316.78 610.577 316.299L637.052 319.08L677.651 316.233C677.651 317.941 677.585 319.627 677.454 321.313H677.476ZM673.731 340.496C673.731 340.496 673.578 340.43 673.512 340.43C671.454 339.927 669.373 341.197 668.87 343.277C668.432 345.073 669.351 346.89 670.972 347.657C670.162 349.474 669.308 351.248 668.366 352.978L633.92 331.124L609.701 320.218C609.898 319.758 610.051 319.277 610.183 318.795L635.19 327.926L675.33 335.021C674.87 336.883 674.322 338.722 673.709 340.518L673.731 340.496ZM634.533 385.103C633.416 383.307 631.03 382.759 629.234 383.876C627.657 384.862 627.044 386.811 627.679 388.497C626.037 389.11 624.373 389.679 622.664 390.205L613.533 350.35L604.007 325.583C604.445 325.408 604.839 325.211 605.255 324.992L616.292 349.168L639.482 382.847C637.906 383.767 636.307 384.643 634.687 385.453C634.621 385.343 634.577 385.234 634.511 385.124L634.533 385.103ZM614.343 391.825C613.708 389.789 611.562 388.672 609.526 389.285C607.796 389.811 606.723 391.453 606.832 393.183C604.861 393.358 602.89 393.446 600.876 393.468L603.328 352.671L601.16 326.218C601.774 326.175 602.365 326.087 602.934 325.934L607.796 352.036L622.161 390.358C619.621 391.103 617.037 391.716 614.409 392.198C614.387 392.066 614.365 391.957 614.343 391.825ZM571.335 383.789C569.518 383.394 567.744 384.336 566.999 385.957C565.598 385.3 564.24 384.577 562.883 383.811L584.978 349.43L596.014 325.299C596.474 325.518 596.934 325.671 597.416 325.824L588.153 350.722L580.751 390.971C578.496 390.38 576.262 389.679 574.094 388.891C574.16 388.716 574.226 388.541 574.27 388.343C574.729 386.285 573.416 384.227 571.335 383.767V383.789ZM532.466 344.722C531.459 343.189 529.554 342.62 527.889 343.233C527.298 341.613 526.751 339.97 526.247 338.328L565.948 329.197L590.759 319.627C590.934 320.087 591.131 320.503 591.372 320.919L567.24 332.131L533.78 355.496C532.773 353.788 531.831 352.058 530.955 350.285C531.108 350.219 531.24 350.153 531.371 350.066C533.145 348.905 533.649 346.518 532.488 344.744L532.466 344.722ZM523.291 309.861C523.488 309.861 523.663 309.882 523.86 309.861C525.984 309.729 527.583 307.89 527.451 305.766C527.342 303.97 525.984 302.547 524.276 302.24C524.561 300.619 524.889 299.021 525.305 297.444L563.999 309.795L590.255 314.218C590.19 314.656 590.146 315.116 590.124 315.598L563.627 312.817L523.028 315.664C523.028 313.715 523.137 311.766 523.291 309.861ZM527.254 290.897C527.429 290.962 527.605 291.028 527.802 291.072C529.882 291.488 531.919 290.13 532.313 288.05C532.663 286.254 531.7 284.524 530.123 283.802C530.867 282.203 531.634 280.626 532.488 279.072L566.737 300.795L591.044 311.744C590.825 312.204 590.671 312.663 590.54 313.145L565.467 303.992L525.437 296.897C525.962 294.86 526.597 292.846 527.276 290.875L527.254 290.897ZM566.583 247.385C567.788 249.137 570.175 249.575 571.926 248.371C573.437 247.319 573.985 245.37 573.306 243.728C574.883 243.137 576.459 242.611 578.08 242.13L587.124 281.568L596.715 306.488C596.277 306.663 595.883 306.86 595.467 307.079L584.343 282.751L561.372 249.4C562.97 248.48 564.591 247.582 566.255 246.772C566.342 246.991 566.452 247.188 566.583 247.385ZM524.32 330.313C524.495 330.27 524.67 330.248 524.824 330.204C526.838 329.525 527.933 327.357 527.254 325.343C526.685 323.634 525.021 322.605 523.291 322.737C523.115 320.591 523.006 318.423 523.006 316.233L563.583 318.817L590.124 316.737C590.168 317.372 590.255 317.963 590.408 318.554L564.24 323.459L526.094 337.824C525.393 335.372 524.78 332.875 524.32 330.335V330.313ZM597.766 306.16L592.861 279.86L578.649 241.954C580.817 241.319 583.007 240.772 585.262 240.334C585.306 240.575 585.35 240.794 585.438 241.035C586.138 243.027 588.35 244.078 590.343 243.356C592.095 242.743 593.102 240.991 592.861 239.217C595.139 238.998 597.438 238.889 599.759 238.867L597.35 279.225L599.54 305.875C598.949 305.919 598.358 306.006 597.788 306.16H597.766ZM610.073 242.874C611.847 242.874 613.314 241.67 613.774 240.049C615.635 240.378 617.475 240.75 619.27 241.21L606.723 279.663L602.102 305.963C601.62 305.875 601.139 305.831 600.635 305.809L603.328 279.225L600.35 238.867C602.343 238.867 604.292 238.976 606.241 239.108C606.285 241.188 607.971 242.874 610.073 242.874ZM628.446 247.779C630.154 248.239 631.905 247.451 632.738 245.984C634.38 246.75 636 247.538 637.577 248.414L615.701 282.466L604.599 306.751C604.161 306.554 603.679 306.401 603.197 306.247L612.526 281.174L619.862 241.341C621.854 241.867 623.803 242.458 625.708 243.137C625.205 245.173 626.409 247.254 628.446 247.779ZM644.935 257.217C646.49 258.093 648.373 257.765 649.577 256.56C651.373 258.049 653.103 259.626 654.767 261.269L624.329 287.984L606.942 308.262C606.504 307.89 606.044 307.539 605.54 307.255L620.891 285.378L638.059 248.699C639.898 249.728 641.716 250.823 643.468 252.006C642.439 253.845 643.074 256.188 644.913 257.217H644.935ZM658.468 270.553C659.738 271.802 661.665 271.977 663.132 271.101C664.293 272.699 665.388 274.342 666.417 276.05L630.373 294.641L608.628 310.08C608.365 309.707 608.058 309.357 607.752 309.028L628.533 292.254L655.161 261.706C656.278 262.823 657.351 263.984 658.38 265.188C656.913 266.699 656.935 269.13 658.446 270.597L658.468 270.553ZM668.169 286.911C669.089 288.466 670.928 289.123 672.57 288.619C673.184 290.262 673.775 291.904 674.278 293.59L634.708 302.7L609.854 312.291C609.679 311.853 609.46 311.415 609.219 310.999L633.438 299.744L666.724 276.51C667.709 278.174 668.651 279.882 669.505 281.612C667.687 282.707 667.074 285.072 668.169 286.889V286.911ZM676.162 300.992C676.162 300.992 676.052 300.992 675.986 301.014C673.95 301.605 672.767 303.729 673.359 305.766C673.862 307.539 675.527 308.634 677.278 308.547C677.497 310.89 677.629 313.277 677.651 315.664L637.073 313.08L610.511 315.16C610.445 314.547 610.358 313.934 610.204 313.342L636.417 308.437L674.454 294.116C675.111 296.371 675.702 298.649 676.162 300.97V300.992ZM550.138 257.371C550.269 257.524 550.422 257.699 550.576 257.831C552.174 259.21 554.605 259.035 556.007 257.436C557.189 256.057 557.211 254.108 556.204 252.684C557.715 251.633 559.291 250.626 560.89 249.663L579.197 285.751L594.503 307.605C594.087 307.89 593.693 308.218 593.321 308.569L576.35 287.94L545.561 261.575C547.028 260.108 548.561 258.728 550.116 257.393L550.138 257.371ZM545.189 261.969L572.167 292.167L592.598 309.357C592.226 309.795 591.898 310.233 591.591 310.715L569.649 295.495L532.773 278.524C533.846 276.597 535.006 274.692 536.232 272.875C536.408 273.006 536.583 273.115 536.78 273.203C538.685 274.145 540.984 273.334 541.904 271.429C542.714 269.787 542.211 267.838 540.831 266.743C542.211 265.079 543.656 263.502 545.167 261.969H545.189ZM541.181 365.92C541.357 365.788 541.532 365.635 541.663 365.482C543.087 363.905 542.955 361.474 541.379 360.051C539.999 358.803 537.962 358.759 536.517 359.81C535.641 358.54 534.809 357.248 534.021 355.934L570.262 337.255L591.898 321.883C592.16 322.255 592.467 322.605 592.773 322.956L572.102 339.664L545.255 370.453C543.831 369.007 542.452 367.496 541.16 365.942L541.181 365.92ZM545.649 370.825L576.328 343.89L593.628 323.722C594.065 324.094 594.525 324.445 595.029 324.751L579.766 346.496L562.445 383.526C560.277 382.3 558.153 380.964 556.116 379.54C556.226 379.387 556.357 379.212 556.444 379.037C557.408 377.154 556.663 374.832 554.78 373.869C553.138 373.037 551.189 373.475 550.05 374.854C548.539 373.562 547.072 372.226 545.671 370.825H545.649ZM593.868 393.183C593.868 393.052 593.89 392.92 593.868 392.789C593.781 390.665 591.985 389.022 589.861 389.11C588.065 389.176 586.62 390.489 586.27 392.176C584.562 391.869 582.876 391.519 581.211 391.081L593.89 352.212L598.467 326.087C598.949 326.175 599.452 326.218 599.956 326.24L597.285 352.649L600.306 393.468C598.139 393.468 595.971 393.358 593.847 393.183H593.868ZM650.979 374.548C650.869 374.416 650.76 374.263 650.628 374.132C649.074 372.664 646.643 372.752 645.198 374.307C643.884 375.708 643.84 377.81 644.957 379.278C643.336 380.416 641.672 381.533 639.964 382.54L621.46 346.102L606.219 324.379C606.635 324.072 607.029 323.744 607.401 323.394L624.263 343.912L655.293 370.475C653.891 371.876 652.446 373.234 650.957 374.526L650.979 374.548ZM655.687 370.102L628.511 339.664L608.19 322.54C608.562 322.102 608.891 321.642 609.175 321.138L631.03 336.292L668.103 353.372C666.964 355.431 665.738 357.445 664.424 359.394C664.293 359.307 664.183 359.197 664.03 359.131C662.169 358.124 659.826 358.825 658.818 360.686C657.921 362.35 658.38 364.365 659.804 365.504C658.49 367.08 657.11 368.591 655.687 370.059V370.102Z" fill="#000080"/>
<path d="M457.005 38.4761H480.502V144.835H457.005V38.4761Z" fill="#00519E"/>
<path d="M496.4 38.4761H512.955L534.744 89.6958V38.4761H554.189V144.835H538.291L516.48 89.6739V144.835H496.4V38.4761Z" fill="#00519E"/>
<path d="M570.065 38.4761H596.978C606.175 38.4761 613.358 39.6148 618.504 41.8922C623.672 44.1696 627.329 47.739 629.475 52.6004C631.621 57.4618 632.694 63.9655 632.694 72.1116V110.718C632.694 118.952 631.621 125.521 629.475 130.426C627.329 135.332 623.694 138.967 618.57 141.332C613.445 143.697 606.329 144.879 597.219 144.879H570.043V38.4761H570.065ZM597.241 128.565C600.657 128.565 603.175 128.061 604.796 127.054C606.416 126.047 607.445 124.601 607.883 122.718C608.321 120.835 608.54 118.054 608.54 114.375V68.0167C608.54 64.6006 608.299 61.9947 607.818 60.199C607.336 58.4034 606.285 57.0676 604.664 56.1917C603.044 55.3158 600.526 54.8778 597.109 54.8778H593.562V128.543H597.241V128.565Z" fill="#00519E"/>
<path d="M647.147 38.4761H670.643V144.835H647.147V38.4761Z" fill="#00519E"/>
<path d="M701.498 38.4761H728.279L748.119 144.835H726.44L722.892 122.39H707.257L703.578 144.835H681.396L701.498 38.4761ZM720.681 108.331L715.031 66.8342L709.381 108.331H720.681Z" fill="#00519E"/>
<path d="M512.276 5.9342C512.035 6.06559 511.378 6.35026 510.327 6.81013C510.152 6.87582 509.867 6.98531 509.473 7.1386C509.101 7.29188 508.772 7.44517 508.531 7.57656V3.41591C511.225 2.01443 512.889 1.00712 513.48 0.37207H517.904V27.6791H512.276V5.9342Z" fill="#00519E"/>
<path d="M525.043 27.175C524.014 26.4961 523.291 25.5326 522.919 24.3282C522.546 23.1238 522.349 21.5691 522.349 19.7077H527.78C527.78 21.3063 527.911 22.4231 528.174 23.0581C528.437 23.6932 528.941 24.0217 529.707 24.0217C530.32 24.0217 530.758 23.8246 531.043 23.4085C531.327 22.9924 531.503 22.4012 531.568 21.6567C531.634 20.9121 531.678 19.7953 531.678 18.3281C531.678 16.861 531.525 15.6347 531.24 14.8463C530.955 14.058 530.386 13.6419 529.554 13.6419C528.415 13.6419 527.692 14.4741 527.386 16.1383H522.524L523.028 0.393555H535.773V5.10166H527.539L527.233 10.7295C527.473 10.3791 527.999 10.0506 528.809 9.80976C529.598 9.54698 530.43 9.41559 531.262 9.41559C533.101 9.41559 534.525 10.182 535.488 11.7149C536.474 13.2478 536.955 15.3938 536.955 18.1967C536.955 20.3866 536.758 22.1822 536.386 23.6056C536.014 25.029 535.269 26.1677 534.196 26.9779C533.123 27.7881 531.546 28.2042 529.51 28.2042C527.583 28.2042 526.094 27.8538 525.065 27.175H525.043Z" fill="#00519E"/>
<path d="M542.561 4.86119H538.444V0.37207H552.7V4.86119H548.627V27.6791H542.561V4.86119Z" fill="#00519E"/>
<path d="M555.196 0.37207H561.24V11.4306H565.445V0.37207H571.511V27.6791H565.445V15.7446H561.24V27.6791H555.196V0.37207Z" fill="#00519E"/>
<path d="M588.153 0.37207H595.029L600.131 27.6791H594.569L593.65 21.9198H589.642L588.701 27.6791H583.007L588.153 0.37207ZM593.08 18.3067L591.635 7.64226L590.19 18.3067H593.08Z" fill="#00519E"/>
<path d="M605.65 27.0878C604.467 26.4309 603.613 25.4454 603.132 24.1535C602.65 22.8615 602.409 21.2191 602.409 19.2045V0.37207H608.387V20.1242C608.387 21.2191 608.519 22.095 608.803 22.752C609.088 23.4089 609.657 23.7374 610.511 23.7374C611.365 23.7374 611.935 23.4089 612.197 22.752C612.46 22.095 612.592 21.2191 612.592 20.1242V0.37207H618.592V19.2264C618.592 21.2191 618.351 22.8834 617.847 24.1754C617.343 25.4673 616.511 26.4528 615.329 27.1097C614.146 27.7667 612.526 28.0951 610.489 28.0951C608.453 28.0951 606.832 27.7667 605.628 27.1097L605.65 27.0878Z" fill="#00519E"/>
<path d="M623.803 25.6208C622.665 23.9785 622.073 21.6573 622.073 18.6353V9.4819C622.073 6.39426 622.708 4.05116 623.957 2.43069C625.205 0.810232 627.307 0 630.285 0C633.263 0 635.19 0.700741 636.417 2.10222C637.643 3.5037 638.278 5.47454 638.278 8.01472V9.76657H632.365V7.53296C632.365 6.45995 632.234 5.64972 631.993 5.08037C631.752 4.53292 631.205 4.24824 630.351 4.24824C629.497 4.24824 628.906 4.55481 628.643 5.16796C628.38 5.78111 628.249 6.61324 628.249 7.70815V20.3434C628.249 21.4164 628.402 22.2704 628.73 22.8836C629.059 23.4967 629.65 23.8033 630.504 23.8033C632.081 23.8033 632.869 22.6208 632.869 20.2558V17.0587H630.417V13.5112H638.3V27.6793H634.314L633.986 25.4237C633.132 27.1975 631.665 28.0953 629.563 28.0953C626.869 28.0953 624.942 27.2851 623.803 25.6427V25.6208Z" fill="#00519E"/>
<path d="M645.11 27.0878C643.928 26.4309 643.074 25.4454 642.592 24.1535C642.11 22.8615 641.869 21.2191 641.869 19.2045V0.37207H647.848V20.1242C647.848 21.2191 647.979 22.095 648.264 22.752C648.548 23.4089 649.118 23.7374 649.972 23.7374C650.826 23.7374 651.395 23.4089 651.658 22.752C651.921 22.095 652.052 21.2191 652.052 20.1242V0.37207H658.052V19.2264C658.052 21.2191 657.811 22.8834 657.308 24.1754C656.804 25.4673 655.972 26.4528 654.789 27.1097C653.607 27.7667 651.986 28.0951 649.95 28.0951C647.913 28.0951 646.293 27.7667 645.088 27.1097L645.11 27.0878Z" fill="#00519E"/>
<path d="M663.329 26.015C662.059 24.6354 661.381 22.4456 661.293 19.4237L666.461 18.6572C666.483 20.3872 666.702 21.6354 667.096 22.3799C667.49 23.1244 668.081 23.5186 668.87 23.5186C669.877 23.5186 670.381 22.8617 670.381 21.5259C670.381 20.4748 670.14 19.555 669.658 18.7886C669.176 18.0222 668.41 17.2119 667.381 16.336L665.016 14.2776C663.855 13.2922 662.935 12.2411 662.3 11.1243C661.665 10.0075 661.337 8.69356 661.337 7.16069C661.337 4.86139 662.016 3.10954 663.373 1.86134C664.731 0.635046 666.614 0 668.979 0C671.563 0 673.315 0.744537 674.257 2.25551C675.198 3.76648 675.68 5.58403 675.746 7.75194L670.556 8.38699C670.512 6.96361 670.381 5.9563 670.162 5.34315C669.943 4.73 669.483 4.42343 668.76 4.42343C668.235 4.42343 667.841 4.64241 667.556 5.08037C667.271 5.51833 667.14 6.00009 667.14 6.54755C667.14 7.46727 667.337 8.2556 667.753 8.86875C668.169 9.5038 668.848 10.2264 669.768 11.0367L672.023 13.0294C673.381 14.1681 674.41 15.3944 675.155 16.6645C675.899 17.9565 676.271 19.4675 676.271 21.2193C676.271 22.5113 675.965 23.6719 675.373 24.7011C674.782 25.7522 673.95 26.5625 672.855 27.1756C671.782 27.7887 670.534 28.0953 669.111 28.0953C666.505 28.0953 664.556 27.3946 663.286 26.015H663.329Z" fill="#00519E"/>
<path d="M681.702 4.86119H677.585V0.37207H691.841V4.86119H687.768V27.6791H681.702V4.86119Z" fill="#00519E"/>
<path d="M464.144 156.331H470.385V184.579H464.144V156.331Z" fill="#00519E"/>
<path d="M474.611 156.331H479.013L484.794 169.929V156.331H489.962V184.579H485.735L479.954 169.929V184.579H474.611V156.331Z" fill="#00519E"/>
<path d="M494.188 156.331H501.349C503.801 156.331 505.707 156.637 507.064 157.228C508.444 157.842 509.407 158.783 509.977 160.075C510.546 161.367 510.831 163.097 510.831 165.265V175.513C510.831 177.703 510.546 179.433 509.977 180.747C509.407 182.039 508.444 183.024 507.086 183.638C505.728 184.273 503.845 184.579 501.415 184.579H494.188V156.331ZM501.415 180.265C502.312 180.265 502.991 180.134 503.429 179.871C503.867 179.608 504.13 179.214 504.239 178.71C504.349 178.207 504.415 177.462 504.415 176.499V164.192C504.415 163.294 504.349 162.593 504.217 162.112C504.086 161.63 503.801 161.28 503.385 161.039C502.947 160.798 502.29 160.688 501.371 160.688H500.429V180.265H501.415Z" fill="#00519E"/>
<path d="M514.619 156.331H527.32V160.579H520.86V167.586H525.787V171.922H520.86V180.353H527.386V184.579H514.619V156.331Z" fill="#00519E"/>
<path d="M530.211 156.331H539.693C542.189 156.331 544.05 157.031 545.277 158.433C546.503 159.834 547.116 161.871 547.116 164.52C547.116 167.542 546.393 169.645 544.97 170.827C543.547 172.01 541.532 172.579 538.948 172.579H536.43V184.579H530.189V156.331H530.211ZM538.554 168.221C539.649 168.221 540.371 167.937 540.744 167.345C541.094 166.754 541.291 165.791 541.291 164.411C541.291 163.163 541.116 162.221 540.766 161.63C540.415 161.017 539.671 160.732 538.532 160.732H536.474V168.221H538.576H538.554Z" fill="#00519E"/>
<path d="M550.116 156.331H562.817V160.579H556.357V167.586H561.284V171.922H556.357V180.353H562.883V184.579H550.116V156.331Z" fill="#00519E"/>
<path d="M565.708 156.331H570.109L575.89 169.929V156.331H581.058V184.579H576.832L571.051 169.929V184.579H565.708V156.331Z" fill="#00519E"/>
<path d="M585.284 156.331H592.445C594.898 156.331 596.803 156.637 598.161 157.228C599.54 157.842 600.504 158.783 601.073 160.075C601.642 161.367 601.927 163.097 601.927 165.265V175.513C601.927 177.703 601.642 179.433 601.073 180.747C600.504 182.039 599.54 183.024 598.182 183.638C596.825 184.273 594.942 184.579 592.511 184.579H585.284V156.331ZM592.511 180.265C593.409 180.265 594.087 180.134 594.525 179.871C594.963 179.608 595.226 179.214 595.336 178.71C595.445 178.207 595.511 177.462 595.511 176.499V164.192C595.511 163.294 595.445 162.593 595.314 162.112C595.182 161.63 594.898 161.28 594.482 161.039C594.044 160.798 593.387 160.688 592.467 160.688H591.525V180.265H592.511Z" fill="#00519E"/>
<path d="M605.715 156.331H618.416V160.579H611.956V167.586H616.884V171.922H611.956V180.353H618.482V184.579H605.715V156.331Z" fill="#00519E"/>
<path d="M621.307 156.331H625.708L631.49 169.929V156.331H636.658V184.579H632.431L626.65 169.929V184.579H621.307V156.331Z" fill="#00519E"/>
<path d="M642.439 182.565C641.147 180.945 640.512 178.623 640.512 175.58V165.397C640.512 162.287 641.147 159.922 642.439 158.324C643.709 156.725 645.899 155.937 648.986 155.937C652.074 155.937 654.023 156.638 655.271 158.061C656.497 159.485 657.11 161.499 657.11 164.105V166.536H651.001V163.711C651.001 162.616 650.891 161.784 650.65 161.193C650.41 160.601 649.862 160.317 648.986 160.317C648.11 160.317 647.519 160.623 647.234 161.236C646.95 161.85 646.818 162.704 646.818 163.798V177.091C646.818 178.207 646.972 179.061 647.256 179.653C647.541 180.244 648.132 180.551 648.986 180.551C649.84 180.551 650.41 180.244 650.65 179.653C650.891 179.061 651.023 178.207 651.023 177.091V174.134H657.132V176.587C657.132 179.237 656.519 181.295 655.293 182.784C654.067 184.251 651.964 184.996 649.008 184.996C646.052 184.996 643.753 184.186 642.461 182.565H642.439Z" fill="#00519E"/>
<path d="M660.526 156.331H673.227V160.579H666.767V167.586H671.695V171.922H666.767V180.353H673.293V184.579H660.526V156.331Z" fill="#00519E"/>
<path d="M685.031 156.331H692.191C694.644 156.331 696.549 156.637 697.907 157.228C699.286 157.842 700.25 158.783 700.819 160.075C701.388 161.367 701.673 163.097 701.673 165.265V175.513C701.673 177.703 701.388 179.433 700.819 180.747C700.25 182.039 699.286 183.024 697.929 183.638C696.571 184.273 694.688 184.579 692.257 184.579H685.031V156.331ZM692.257 180.265C693.155 180.265 693.834 180.134 694.272 179.871C694.709 179.608 694.972 179.214 695.082 178.71C695.191 178.207 695.257 177.462 695.257 176.499V164.192C695.257 163.294 695.191 162.593 695.06 162.112C694.928 161.63 694.644 161.28 694.228 161.039C693.79 160.798 693.133 160.688 692.213 160.688H691.271V180.265H692.257Z" fill="#00519E"/>
<path d="M709.031 156.331H716.148L721.403 184.579H715.644L714.703 178.623H710.542L709.557 184.579H703.666L709.009 156.331H709.031ZM714.133 174.878L712.622 163.864L711.111 174.878H714.111H714.133Z" fill="#00519E"/>
<path d="M726.44 173.039L721.075 156.331H726.966L729.659 165.265L732.068 156.331H737.718L732.44 173.039V184.579H726.44V173.039Z" fill="#00519E"/>
<defs>
<radialGradient id="paint0_radial_6_9338" cx="0" cy="0" r="1" gradientUnits="userSpaceOnUse" gradientTransform="translate(600.015 359.228) scale(123.002 123.002)">
<stop offset="0.68" stop-color="#787878"/>
<stop offset="0.79" stop-color="#ABABAB"/>
<stop offset="0.93" stop-color="#E7E7E7"/>
<stop offset="1" stop-color="white"/>
</radialGradient>
</defs>
</svg>
