<svg width="811" height="495" viewBox="0 0 811 495" fill="none" xmlns="http://www.w3.org/2000/svg">
<path d="M408.091 494.395C590.104 494.395 737.654 481.374 737.654 465.313C737.654 449.252 590.104 436.231 408.091 436.231C226.079 436.231 78.5288 449.252 78.5288 465.313C78.5288 481.374 226.079 494.395 408.091 494.395Z" fill="#FFEED9"/>
<path d="M729.576 136.977C755.622 144.279 777.6 164.77 786.705 190.242C795.81 215.714 791.804 245.493 776.288 267.652M776.288 267.652C770.936 275.295 763.256 282.537 753.926 282.657C744.597 282.776 733.499 271.851 738.764 264.147C744.487 255.771 762.168 255.045 776.288 267.652ZM776.288 267.652C831.988 317.379 830.73 472.157 680.631 481.67" stroke="#AD844A" stroke-miterlimit="10" stroke-linecap="round" stroke-linejoin="round" stroke-dasharray="3 6"/>
<path d="M128.639 481.703C-15.2553 467.737 -33.83 274.688 54.5154 222.038C60.0039 218.767 65.3624 214.501 71.7513 214.476C78.1402 214.451 84.8986 219.605 84.2874 225.965C83.6332 232.774 70.3504 244.958 54.5143 222.037C20.7598 173.182 47.2001 52.1482 146.258 37.5649" stroke="#AD844A" stroke-miterlimit="10" stroke-linecap="round" stroke-linejoin="round" stroke-dasharray="3 6"/>
<path opacity="0.5" d="M254.774 164.696C230.425 128.559 178.037 83.1076 150.845 101.851C123.653 120.594 182.865 184.614 195.915 200.41C178.883 188.437 150.38 163.082 120.479 152.944C100.185 146.062 73.9567 151.491 65.7545 161.67C58.0448 171.238 62.2024 189.833 76.1304 202.467C106.823 230.308 176.705 244.252 176.705 244.252C176.705 244.252 65.5963 221.348 74.3013 258.059C78.3425 275.1 112.142 287.451 130.503 294.318C148.865 301.185 293.06 304.22 306.884 281.395C320.705 258.572 275.153 194.94 254.774 164.696Z" fill="#FFEED9"/>
<path opacity="0.5" d="M569.516 164.696C593.865 128.559 646.253 83.1076 673.444 101.851C700.636 120.594 641.424 184.614 628.374 200.41C645.406 188.437 673.91 163.082 703.81 152.944C724.105 146.062 750.333 151.491 758.535 161.67C766.244 171.238 762.087 189.833 748.159 202.467C717.466 230.308 647.585 244.252 647.585 244.252C647.585 244.252 758.693 221.348 749.988 258.059C745.947 275.1 712.147 287.451 693.786 294.318C675.425 301.185 531.23 304.22 517.406 281.395C503.583 258.572 549.137 194.94 569.516 164.696Z" fill="#FFEED9"/>
<path d="M783.027 21.6453C777.683 18.9304 772.648 15.5806 767.082 13.3583C761.416 11.0954 755.229 10.0492 749.156 10.6355C743.084 11.2219 737.138 13.4747 732.387 17.3035C725.215 23.0835 717.632 36.8645 718.476 42.7304C719.3 48.4629 725.702 50.5055 729.251 51.4602C737.191 53.5966 748.68 53.1594 760.26 48.8142C772.468 44.233 776.137 38.4033 778.261 31.0812C779.253 27.6579 780.583 24.1116 783.027 21.6453Z" fill="#FFE8CC"/>
<path d="M739.411 47.8716C738.086 47.1791 736.85 46.334 735.687 45.4008C734.53 44.4608 733.444 43.4327 732.428 42.3391C731.636 41.4782 730.873 40.589 730.15 39.6683L730.306 39.5881L734.247 37.5883L738.219 35.6508L739.157 35.2282C739.791 36.1852 740.532 37.0698 741.367 37.8516C742.434 38.8379 743.624 39.6807 744.894 40.3586C746.159 41.0466 747.495 41.5833 748.853 42.0148C750.219 42.4272 751.6 42.7695 753.002 42.9943C751.645 42.582 750.294 42.1628 748.993 41.6239C747.686 41.1042 746.418 40.4975 745.222 39.7835C744.032 39.0604 742.904 38.2402 741.921 37.2709C741.174 36.5467 740.504 35.7457 739.929 34.8814L742.249 33.8363C744.963 32.6681 747.712 31.579 750.494 30.5803C751.112 31.4265 751.807 32.2117 752.554 32.9382C753.44 33.7731 754.39 34.5402 755.416 35.1932C756.438 35.8507 757.528 36.4021 758.674 36.8054C759.823 37.185 761.026 37.4516 762.227 37.4031C761.038 37.2528 759.899 36.9105 758.832 36.4088C757.759 35.9264 756.749 35.3164 755.795 34.6351C754.846 33.9459 753.943 33.1924 753.123 32.3575C752.471 31.7135 751.87 31.0198 751.325 30.29C753.823 29.411 756.345 28.6009 758.894 27.8756C760.197 27.4971 761.507 27.1424 762.822 26.8057C763.349 27.6361 764.003 28.3761 764.72 29.0325C765.512 29.7375 766.388 30.3397 767.318 30.83C768.246 31.3215 769.227 31.7033 770.235 31.9711C771.243 32.2321 772.277 32.3936 773.309 32.388C772.297 32.1959 771.313 31.9248 770.367 31.5587C769.421 31.1983 768.512 30.7543 767.654 30.2346C766.799 29.7126 765.993 29.1161 765.273 28.4326C764.674 27.879 764.148 27.2554 763.689 26.5888C767.814 25.5663 771.995 24.7518 776.214 24.1688C776.259 24.162 776.292 24.1214 776.287 24.0762C776.283 24.0298 776.241 23.996 776.194 24.0005C771.913 24.4264 767.65 25.0896 763.429 25.9697C763.38 25.2534 763.477 24.5202 763.662 23.805C763.885 22.9735 764.238 22.1691 764.661 21.3997C765.092 20.6349 765.59 19.9005 766.168 19.2249C766.742 18.5481 767.384 17.9223 768.13 17.4082C767.296 17.7709 766.552 18.329 765.882 18.9526C765.216 19.5842 764.618 20.2925 764.115 21.0698C763.606 21.8437 763.192 22.6865 762.912 23.5881C762.653 24.3982 762.541 25.2703 762.607 26.1448C761.292 26.4284 759.98 26.73 758.675 27.0554C756.09 27.7118 753.528 28.4541 750.987 29.2675C751.102 27.2554 751.56 25.2658 752.321 23.3847C752.747 22.3431 753.257 21.3308 753.849 20.3637C754.427 19.3853 755.111 18.4713 755.837 17.5822C754.976 18.3437 754.217 19.2181 753.514 20.1389C752.826 21.0698 752.221 22.0685 751.727 23.1238C751.224 24.1756 750.841 25.2873 750.566 26.425C750.319 27.444 750.187 28.4902 750.134 29.5387C747.303 30.4639 744.501 31.4819 741.732 32.5812L739.324 33.5708C739.113 32.4557 739.097 31.2876 739.173 30.1318C739.255 28.7761 739.5 27.4282 739.805 26.094C740.124 24.7631 740.522 23.4446 741.02 22.1623C741.503 20.8744 742.098 19.6248 742.867 18.4691C741.943 19.5119 741.258 20.749 740.64 21.9985C740.043 23.2627 739.55 24.5778 739.167 25.9267C738.777 27.2746 738.506 28.6597 738.374 30.0685C738.267 31.3316 738.279 32.6218 738.53 33.8973L737.607 34.277L733.522 36.0733C732.184 36.7218 730.836 37.3545 729.505 38.0177L729.42 38.0629C728.9 35.4259 728.793 32.7043 729.114 30.0278C729.297 28.5219 729.616 27.0294 730.098 25.5844C730.564 24.1327 731.226 22.7442 732.063 21.4483C731.063 22.6267 730.303 24.0027 729.693 25.4342C729.101 26.8758 728.688 28.3908 728.439 29.9329C728.187 31.4751 728.103 33.0444 728.162 34.608C728.223 35.9072 728.381 37.2042 728.648 38.4786L725.575 40.1258L721.727 42.3786C720.469 43.1717 719.202 43.9456 717.958 44.7557C716.721 45.577 715.491 46.4119 714.269 47.2536C713.072 48.1348 711.859 48.989 710.681 49.8928C710.649 49.9176 710.638 49.964 710.658 50.0012C710.681 50.043 710.733 50.0577 710.773 50.0351C712.093 49.3505 713.379 48.6173 714.679 47.9111C715.982 47.2073 717.281 46.5023 718.57 45.7815L722.469 43.6813L726.382 41.6194L729.401 40.0592C730.175 41.0387 730.985 41.9911 731.862 42.8825C732.927 43.9761 734.066 45.0031 735.298 45.9103C736.523 46.8232 737.844 47.6151 739.243 48.2309C740.645 48.8319 742.118 49.2804 743.624 49.442C742.147 49.0997 740.73 48.5777 739.411 47.8716Z" fill="#E6BC8A"/>
<path d="M14.2161 11.9879C17.4585 9.76332 20.4943 7.12303 23.8859 5.22161C27.3396 3.28629 31.1447 2.15199 34.9204 2.14747C38.6961 2.14296 42.4357 3.29194 45.4726 5.6046C50.0583 9.09562 55.0972 18.0582 54.721 22.1469C54.3526 26.1418 50.438 27.9754 48.2643 28.869C43.3994 30.8699 36.2728 31.341 28.9925 29.1312C21.3167 26.8027 18.9001 23.0416 17.402 18.1519C16.7027 15.8664 15.791 13.5198 14.2161 11.9879Z" fill="#FFE8CC"/>
<path d="M41.8821 27.0868C42.6865 26.5219 43.4299 25.8576 44.127 25.1391C44.8207 24.4149 45.468 23.6365 46.0702 22.8163C46.5391 22.1723 46.9898 21.5091 47.4146 20.8278L47.3163 20.7826L44.8263 19.6732L42.3182 18.6078L41.7262 18.3807C41.3579 19.0812 40.9207 19.7387 40.4224 20.3319C39.7864 21.0809 39.0701 21.7407 38.2996 22.2909C37.5324 22.8479 36.7201 23.3066 35.8886 23.6952C35.0526 24.0703 34.2052 24.3979 33.3432 24.6465C34.1736 24.2725 34.9995 23.8929 35.7926 23.4354C36.5891 22.9902 37.3596 22.4886 38.0826 21.917C38.8012 21.3408 39.4802 20.7013 40.0643 19.9681C40.5094 19.4201 40.9048 18.8247 41.2393 18.1921L39.7762 17.6294C38.0668 17.0081 36.3371 16.4454 34.5882 15.9449C34.2267 16.5686 33.8155 17.1538 33.3715 17.704C32.8427 18.3367 32.2744 18.9287 31.6542 19.445C31.0373 19.9647 30.3753 20.4177 29.6771 20.7714C28.9755 21.1092 28.2366 21.3735 27.491 21.421C28.2231 21.2379 28.9213 20.9261 29.5686 20.5104C30.2216 20.107 30.8317 19.6201 31.4056 19.0868C31.9762 18.5491 32.5162 17.9706 33.0032 17.3425C33.3907 16.8567 33.7454 16.3392 34.0663 15.8014C32.497 15.3653 30.9142 14.9778 29.3178 14.6502C28.501 14.4773 27.6808 14.3214 26.8583 14.1791C26.5521 14.7846 26.1657 15.3382 25.7375 15.8376C25.2642 16.3754 24.7377 16.8476 24.1739 17.2476C23.6113 17.6475 23.0125 17.9751 22.3956 18.2282C21.7777 18.4756 21.1405 18.6553 20.5021 18.7208C21.1246 18.5208 21.7279 18.2678 22.303 17.9537C22.8803 17.643 23.4328 17.2769 23.9502 16.8623C24.4677 16.4465 24.9512 15.9822 25.3805 15.4636C25.7375 15.0422 26.0482 14.579 26.316 14.091C23.7356 13.665 21.1258 13.386 18.499 13.2685C18.4708 13.2673 18.4493 13.2414 18.4516 13.2097C18.4527 13.177 18.4776 13.151 18.5069 13.151C21.1698 13.1566 23.8259 13.3261 26.4629 13.6481C26.4753 13.1521 26.3973 12.655 26.2651 12.176C26.1058 11.619 25.8675 11.0903 25.5873 10.5898C25.3014 10.0938 24.9738 9.62154 24.5998 9.19675C24.227 8.76969 23.8135 8.38331 23.339 8.0794C23.8644 8.27259 24.34 8.60587 24.7704 8.99C25.1986 9.37977 25.5873 9.82603 25.9172 10.3265C26.2516 10.8236 26.5295 11.3761 26.725 11.976C26.9046 12.516 26.9961 13.1069 26.978 13.7125C27.7994 13.8187 28.6196 13.9384 29.4364 14.0751C31.0532 14.3531 32.6597 14.6909 34.2538 15.0795C34.1318 13.7046 33.7996 12.368 33.2811 11.1253C32.9919 10.4384 32.6507 9.77632 32.2598 9.15155C31.8768 8.51775 31.4316 7.93591 30.9594 7.37328C31.5118 7.83875 32.0033 8.38896 32.4609 8.97418C32.9094 9.56845 33.3105 10.2136 33.6426 10.9061C33.9804 11.5953 34.2448 12.333 34.4436 13.0967C34.6221 13.7803 34.7295 14.4909 34.7893 15.2072C36.5654 15.6534 38.3267 16.1641 40.0688 16.7346L41.585 17.2532C41.6878 16.4725 41.6686 15.6693 41.5929 14.8795C41.5081 13.9543 41.3229 13.0437 41.1003 12.1466C40.8698 11.2529 40.5908 10.374 40.2507 9.52664C39.9197 8.67366 39.5197 7.8557 39.0147 7.1123C39.6135 7.76758 40.0677 8.57085 40.4823 9.38881C40.8845 10.2169 41.2223 11.088 41.4923 11.9896C41.7669 12.89 41.9691 13.8232 42.0866 14.7835C42.1838 15.6444 42.2086 16.5324 42.0855 17.4249L42.6662 17.6238L45.2409 18.5841C46.086 18.94 46.9356 19.2846 47.7773 19.6506L47.8315 19.6766C48.088 17.8294 48.0869 15.9517 47.8214 14.1339C47.67 13.1114 47.4361 12.1071 47.1017 11.1456C46.7774 10.1797 46.3323 9.26905 45.7821 8.43415C46.4306 9.17641 46.9356 10.0723 47.3491 11.0146C47.7513 11.9647 48.0451 12.9793 48.2371 14.022C48.4314 15.0648 48.5218 16.1381 48.5252 17.2159C48.5196 18.113 48.454 19.0145 48.3207 19.9093L50.2651 20.8346L52.7043 22.1248C53.503 22.5858 54.3074 23.032 55.0983 23.5054C55.8857 23.9867 56.6664 24.4782 57.4448 24.9741C58.2086 25.4995 58.9802 26.0056 59.7326 26.5468C59.753 26.5626 59.7609 26.5931 59.7496 26.6202C59.7372 26.6496 59.7055 26.6643 59.6784 26.6519C58.8446 26.27 58.0301 25.852 57.2064 25.4543C56.3828 25.0577 55.5592 24.6612 54.7435 24.2522L52.2761 23.0705L49.8007 21.917L47.8925 21.047C47.4372 21.7723 46.9593 22.4807 46.4385 23.1518C45.8058 23.9743 45.1257 24.7572 44.3857 25.4633C43.6491 26.1728 42.8503 26.8055 41.9996 27.323C41.1466 27.8302 40.2451 28.2381 39.3164 28.4493C40.2179 28.1138 41.0833 27.6608 41.8821 27.0868Z" fill="#E6BC8A"/>
<path d="M406.228 35.9753C400.857 32.4606 396.899 27.2252 392.79 22.2937C386.647 14.923 379.751 7.88333 371.136 3.66134C362.52 -0.561779 351.869 -1.5831 343.446 3.00946C334.604 7.83023 329.41 17.9474 320.234 22.0948C324.291 26.3304 326.405 32.003 329.331 37.0859C336.44 49.4367 349.123 58.6319 363.219 60.7322C377.314 62.8325 392.486 57.4739 401.53 46.4597C404.166 43.2489 406.352 39.3748 406.228 35.9753Z" fill="#FFE8CC"/>
<path d="M429.216 38.5198C427.307 37.347 425.195 36.5031 423.032 35.8535C420.857 35.2321 418.612 34.848 416.357 34.6582C411.841 34.2729 407.305 34.6333 402.873 35.2061C400.658 35.5145 398.46 35.8659 396.271 36.1947C394.966 36.4026 393.665 36.6059 392.366 36.7968C392.138 33.8052 391.157 30.9231 389.777 28.3235C388.976 26.8265 388.037 25.4075 386.968 24.1015C385.895 22.8 384.731 21.5753 383.432 20.5144C384.575 21.738 385.641 23.0226 386.569 24.3986C387.503 25.7702 388.335 27.2039 389.033 28.6952C390.257 31.3061 391.09 34.1125 391.257 36.9482C390.748 37.0183 390.241 37.0962 389.733 37.1561C387.558 37.4352 385.381 37.6397 383.206 37.6815C382.118 37.7165 381.032 37.6521 379.944 37.6035L378.873 37.5527C378.846 35.6433 378.665 33.7397 378.335 31.8654C377.94 29.7312 377.394 27.6253 376.644 25.5928C375.906 23.5569 374.987 21.5889 373.885 19.7304C372.759 17.89 371.487 16.1286 369.949 14.6283C371.288 16.3038 372.443 18.1012 373.385 20.0072C374.35 21.8984 375.137 23.8722 375.784 25.8866C376.416 27.9055 376.93 29.9617 377.25 32.0484C377.54 33.8391 377.699 35.649 377.72 37.4578L376.685 37.338C373.057 36.92 369.489 36.119 365.962 35.109C365.69 33.1092 365.286 31.1276 364.762 29.1753C364.17 27.0096 363.403 24.889 362.445 22.8565C361.484 20.8263 360.327 18.8876 358.963 17.1093C357.585 15.3446 356.038 13.7109 354.288 12.3394C355.854 13.9154 357.276 15.6135 358.476 17.4584C359.693 19.2886 360.726 21.2319 361.584 23.2451C362.447 25.2573 363.134 27.3417 363.682 29.4623C364.141 31.2022 364.478 32.9737 364.75 34.7542C360.402 33.447 356.115 31.8394 351.859 30.1899C351.86 30.1594 351.87 30.13 351.867 30.0995L351.866 30.0882C351.685 28.4003 351.243 26.7452 350.62 25.1725C349.992 23.5999 349.148 22.1221 348.16 20.763C347.165 19.4073 346.018 18.1724 344.756 17.0822C343.482 16.0078 342.121 15.0384 340.654 14.2769C341.972 15.2723 343.224 16.3331 344.341 17.5205C345.471 18.6921 346.496 19.9563 347.378 21.3053C348.267 22.6497 349.005 24.0857 349.577 25.5804C350.094 26.9192 350.439 28.3145 350.656 29.7301C342.598 26.6559 334.453 23.5095 325.892 22.0815C325.829 22.0713 325.769 22.1131 325.759 22.1764C325.749 22.2385 325.79 22.2961 325.851 22.3097C334.259 24.0168 342.163 27.3756 350.05 30.7039C348.509 32.3184 346.618 33.6222 344.599 34.6638C343.398 35.2694 342.151 35.7947 340.862 36.2207C339.576 36.6624 338.245 36.9686 336.893 37.2137C338.269 37.2058 339.643 37.007 340.998 36.7223C342.352 36.4206 343.685 35.9981 344.963 35.4366C346.245 34.8841 347.479 34.204 348.624 33.3849C349.54 32.7421 350.391 31.9998 351.161 31.1705C355.184 32.846 359.225 34.5158 363.382 35.9235C363.716 36.0365 364.055 36.1371 364.391 36.2466C362.212 38.8282 359.749 41.1759 357.007 43.1575C355.495 44.2353 353.904 45.2115 352.218 46.0068C350.539 46.8191 348.756 47.4145 346.905 47.7794C348.791 47.6529 350.646 47.1569 352.425 46.4892C354.201 45.8035 355.898 44.9098 357.493 43.8659C360.537 41.8865 363.242 39.4078 365.575 36.6251C369.118 37.7368 372.74 38.6486 376.448 39.175L377.158 39.279C375.395 42.4808 373.117 45.399 370.433 47.8981C368.922 49.2967 367.288 50.5723 365.545 51.6919C363.814 52.8352 361.956 53.7808 360.039 54.6157C362.047 54.0249 363.977 53.1719 365.832 52.1754C367.675 51.1552 369.424 49.9486 371.029 48.5692C374.016 46.026 376.5 42.8965 378.375 39.4405L379.818 39.5535C380.948 39.6382 382.077 39.7365 383.213 39.7354C385.48 39.767 387.74 39.6416 389.981 39.436C390.278 39.4055 390.572 39.3648 390.869 39.3321C390.311 40.9059 389.591 42.4198 388.709 43.841C387.567 45.6543 386.203 47.3366 384.645 48.8335C383.103 50.3474 381.388 51.693 379.586 52.9199C377.79 54.1593 375.882 55.2416 373.938 56.2731C375.998 55.4992 377.994 54.5446 379.917 53.4453C381.832 52.3336 383.651 51.0366 385.313 49.5442C386.958 48.0382 388.462 46.3457 389.663 44.4409C390.708 42.8095 391.527 41.0347 392.115 39.1863C393.632 39.0033 395.144 38.8033 396.644 38.5706C398.843 38.2102 401.027 37.8295 403.208 37.4962C407.557 36.7743 411.907 36.2444 416.277 36.2828C420.63 36.3483 425.016 36.99 429.11 38.722C429.169 38.7468 429.238 38.7197 429.263 38.6599C429.286 38.6101 429.265 38.5491 429.216 38.5198Z" fill="#E6BC8A"/>
<path d="M767.979 360.253C774.369 385.193 760.714 409.305 743.299 421.866" stroke="#CC9C57" stroke-width="0.6967" stroke-miterlimit="10" stroke-linecap="round" stroke-linejoin="round"/>
<path d="M761.943 355.941C769.436 379.671 753.602 409.962 725.599 422.794" stroke="#CC9C57" stroke-width="0.6967" stroke-miterlimit="10" stroke-linecap="round" stroke-linejoin="round"/>
<path d="M746.753 414.363C741.928 419.45 733.239 425.435 723.255 430.033" stroke="#CC9C57" stroke-width="0.6967" stroke-miterlimit="10" stroke-linecap="round" stroke-linejoin="round"/>
<path d="M769.461 340.625L767.66 342.736C767.161 343.322 767.095 344.163 767.497 344.819L768.949 347.184C769.851 348.652 768.347 350.415 766.755 349.758L764.19 348.698C763.479 348.404 762.658 348.602 762.159 349.187L760.358 351.299C759.241 352.609 757.099 351.725 757.233 350.007L757.449 347.241C757.509 346.472 757.067 345.754 756.355 345.459L753.791 344.399C752.199 343.742 752.379 341.431 754.053 341.028L756.751 340.378C757.5 340.197 758.047 339.556 758.107 338.788L758.322 336.021C758.456 334.303 760.708 333.761 761.61 335.229L763.062 337.593C763.465 338.25 764.245 338.572 764.994 338.391L767.692 337.741C769.366 337.339 770.578 339.314 769.461 340.625Z" fill="#CC9C57"/>
<path d="M196.543 48.3813C159.276 58.894 138.217 94.8571 135.021 126.99" stroke="#CC9C57" stroke-miterlimit="10" stroke-linecap="round" stroke-linejoin="round"/>
<path d="M206.708 52.98C170.182 61.1449 142.731 104.605 147.173 150.717" stroke="#CC9C57" stroke-miterlimit="10" stroke-linecap="round" stroke-linejoin="round"/>
<path d="M142.174 116.837C139.2 126.952 137.973 142.774 139.527 159.232" stroke="#CC9C57" stroke-miterlimit="10" stroke-linecap="round" stroke-linejoin="round"/>
<path d="M232.073 36.6773L227.899 36.727C226.741 36.7405 225.705 36.0073 225.335 34.9092L223.998 30.9561C223.169 28.5022 219.684 28.5428 218.913 31.0159L217.67 34.9995C217.326 36.1056 216.308 36.8637 215.15 36.8772L210.976 36.9269C208.386 36.9574 207.349 40.2847 209.461 41.7816L212.867 44.1948C213.812 44.8648 214.218 46.0669 213.873 47.1729L212.63 51.1565C211.859 53.6296 214.702 55.644 216.78 54.0974L220.128 51.6051C221.056 50.9136 222.326 50.8978 223.271 51.5678L226.676 53.981C228.79 55.4791 231.585 53.3969 230.756 50.943L229.419 46.9899C229.048 45.8929 229.426 44.6806 230.354 43.9892L233.702 41.4969C235.78 39.948 234.663 36.6468 232.073 36.6773Z" fill="#CC9C57"/>
<path d="M48.1728 357.041C48.7049 360.143 53.5268 359.322 52.9947 356.215C52.4637 353.113 47.6406 353.933 48.1728 357.041Z" fill="#E6B586"/>
<path d="M45.2907 339.612C45.9098 343.225 51.5259 342.269 50.9057 338.649C50.2866 335.038 44.6704 335.993 45.2907 339.612Z" fill="#E6B586"/>
<path d="M35.5892 351.912C36.1902 355.419 41.6414 354.491 41.0392 350.978C40.4393 347.471 34.9881 348.399 35.5892 351.912Z" fill="#E6B586"/>
<path d="M28.4117 338.878C29.0557 342.634 34.8944 341.64 34.2493 337.878C33.6065 334.121 27.7666 335.116 28.4117 338.878Z" fill="#E6B586"/>
<path d="M36.6783 326.545C37.3279 330.335 43.2163 329.332 42.5667 325.537C41.9171 321.748 36.0275 322.751 36.6783 326.545Z" fill="#E6B586"/>
<path d="M52.4556 325.914C53.0001 329.092 57.9395 328.25 57.3939 325.068C56.8493 321.89 51.9099 322.731 52.4556 325.914Z" fill="#E6B586"/>
<path d="M58.9961 349.416C59.561 352.712 64.9919 351.787 64.4258 348.486C63.861 345.189 58.4301 346.113 58.9961 349.416Z" fill="#E6B586"/>
<path d="M62.427 334.551C62.9354 337.516 67.5427 336.732 67.0343 333.762C66.5259 330.797 61.9186 331.582 62.427 334.551Z" fill="#E6B586"/>
<path d="M683.2 209.969C681.699 207.47 677.813 209.797 679.315 212.3C680.816 214.8 684.702 212.473 683.2 209.969Z" fill="#E6B586"/>
<path d="M691.537 224.045C689.79 221.135 685.264 223.844 687.013 226.76C688.761 229.67 693.287 226.96 691.537 224.045Z" fill="#E6B586"/>
<path d="M695.782 210.173C694.086 207.348 689.694 209.979 691.392 212.808C693.086 215.633 697.48 213.003 695.782 210.173Z" fill="#E6B586"/>
<path d="M706.35 219.015C704.535 215.989 699.829 218.806 701.648 221.837C703.464 224.863 708.169 222.046 706.35 219.015Z" fill="#E6B586"/>
<path d="M703.354 232.432C701.522 229.379 696.776 232.222 698.611 235.279C700.442 238.33 705.189 235.489 703.354 232.432Z" fill="#E6B586"/>
<path d="M689.949 238.271C688.412 235.711 684.432 238.095 685.971 240.658C687.507 243.218 691.488 240.835 689.949 238.271Z" fill="#E6B586"/>
<path d="M676.419 220.182C674.825 217.525 670.448 220.147 672.045 222.807C673.638 225.462 678.015 222.842 676.419 220.182Z" fill="#E6B586"/>
<path d="M678.446 234.164C677.012 231.775 673.298 233.999 674.734 236.39C676.167 238.779 679.881 236.555 678.446 234.164Z" fill="#E6B586"/>
<path d="M357.11 382.666L350.004 406.199L331.531 467.363C331.243 468.317 330.364 468.97 329.368 468.97H308.042C306.521 468.97 305.434 467.498 305.883 466.045L324.323 406.199L331.452 383.084L357.11 382.666Z" fill="#B37A3D"/>
<path d="M511.711 469.107H490.385C489.389 469.107 488.51 468.455 488.221 467.5L469.703 406.2L462.642 382.814L488.288 383.221L495.372 406.2L513.869 466.182C514.317 467.635 513.231 469.107 511.711 469.107Z" fill="#B37A3D"/>
<path d="M422.954 381.626V466.71C422.954 467.958 421.943 468.97 420.694 468.97H398.969C397.72 468.97 396.709 467.958 396.709 466.71V381.626H422.954Z" fill="#B37A3D"/>
<path opacity="0.5" d="M331.453 383.084L357.11 382.666L350.004 406.199H324.324L331.453 383.084Z" fill="#CC8B45"/>
<path opacity="0.5" d="M422.954 381.626H396.709V406.199H422.954V381.626Z" fill="#CC8B45"/>
<path opacity="0.5" d="M495.373 406.2H469.704L462.643 382.814L488.289 383.221L495.373 406.2Z" fill="#CC8B45"/>
<path d="M514.771 370.216H304.835V401.217H514.771V370.216Z" fill="#CC8B45"/>
<path d="M203.843 119.217V381.625H615.755V119.217H203.843ZM586.333 355.385H233.265V145.458H586.333V355.385Z" fill="#F2AC61"/>
<path opacity="0.3" d="M304.835 381.626V385.049H514.771V381.626H304.835Z" fill="#F2AC61"/>
<path d="M586.333 145.458H233.266V355.384H586.333V145.458Z" fill="#006455"/>
<path opacity="0.3" d="M586.336 145.458V355.378H582.178V154.054H237.428V355.378H233.271V145.458H586.336Z" fill="#006455"/>
<g opacity="0.5">
<path d="M203.843 381.625C205.721 378.903 207.879 376.43 210.135 374.045C212.392 371.661 214.748 369.364 217.214 367.167C219.671 364.961 222.25 362.863 224.922 360.849C227.595 358.836 230.369 356.913 233.425 355.242C231.551 357.968 229.395 360.442 227.138 362.826C224.879 365.209 222.526 367.508 220.054 369.699C217.592 371.9 215.016 374.001 212.343 376.014C209.67 378.026 206.897 379.95 203.843 381.625Z" fill="#B2712B"/>
<path d="M615.756 381.626C612.739 379.985 610.004 378.093 607.366 376.114C604.73 374.133 602.191 372.066 599.765 369.898C597.329 367.739 595.014 365.471 592.791 363.123C590.571 360.772 588.17 358.078 586.333 355.385C589.353 357.023 592.372 359.165 595.009 361.144C597.643 363.127 600.184 365.191 602.605 367.364C605.035 369.527 607.354 371.791 609.575 374.143C611.795 376.496 613.916 378.936 615.756 381.626Z" fill="#B2712B"/>
<path d="M615.756 119.217C613.832 121.955 612.312 124.146 610.012 126.546C607.709 128.943 605.311 131.253 602.801 133.463C600.299 135.682 597.678 137.792 594.965 139.818C592.25 141.843 589.434 143.777 586.337 145.458C588.258 142.716 590.459 140.227 592.761 137.83C595.065 135.434 597.461 133.121 599.977 130.916C602.483 128.702 605.102 126.59 607.817 124.564C610.532 122.541 612.662 120.901 615.756 119.217Z" fill="#B2712B"/>
<path d="M203.843 119.217C206.803 120.808 210.329 123.485 212.911 125.415C215.49 127.344 217.972 129.362 220.343 131.479C222.722 133.588 224.98 135.804 227.146 138.103C229.31 140.405 231.486 142.816 233.265 145.458C230.302 143.87 227.509 142.011 224.928 140.08C222.35 138.149 219.866 136.134 217.501 134.012C215.126 131.899 212.866 129.685 210.701 127.384C208.54 125.083 205.627 121.857 203.843 119.217Z" fill="#B2712B"/>
</g>
<path d="M361.882 309.021C359.175 307.036 355.533 307.105 352.327 307.931C349.043 308.797 345.876 310.475 342.28 311.557C338.666 312.645 334.811 312.881 331.109 312.31C327.406 311.74 323.843 310.322 320.85 308.163C320.571 307.962 320.507 307.571 320.709 307.293C320.889 307.043 321.224 306.967 321.491 307.099C324.643 308.636 328.014 309.562 331.418 309.901C334.824 310.246 338.266 309.94 341.531 309.013C344.813 308.074 348.092 306.437 351.814 305.688C353.68 305.311 355.621 305.223 357.53 305.552C359.419 305.894 361.323 306.686 362.696 308.081C362.937 308.326 362.935 308.722 362.688 308.963C362.469 309.181 362.125 309.198 361.882 309.021Z" fill="white"/>
<path d="M444.173 308.081C445.547 306.686 447.449 305.894 449.34 305.552C451.248 305.223 453.19 305.311 455.056 305.688C458.778 306.437 462.057 308.073 465.338 309.013C468.605 309.94 472.046 310.246 475.452 309.901C478.855 309.562 482.226 308.635 485.378 307.099C485.687 306.946 486.061 307.073 486.214 307.382C486.351 307.658 486.26 307.989 486.02 308.165C483.026 310.323 479.463 311.741 475.761 312.311C472.06 312.882 468.205 312.647 464.591 311.558C460.994 310.476 457.827 308.798 454.543 307.932C451.337 307.106 447.695 307.039 444.988 309.022C444.711 309.226 444.32 309.167 444.116 308.89C443.932 308.639 443.963 308.297 444.173 308.081Z" fill="white"/>
<path d="M372.042 315.658C371.914 313.764 371.77 311.789 371.609 309.735C371.449 307.648 371.288 305.658 371.128 303.763C370.999 301.869 370.887 300.264 370.79 298.948C370.694 297.6 370.614 296.733 370.55 296.348C370.453 295.609 370.485 295.112 370.646 294.855C370.839 294.566 370.935 294.421 370.935 294.421C370.935 294.421 370.823 294.309 370.598 294.084C370.373 293.828 370.261 293.555 370.261 293.266C370.261 292.752 370.566 292.335 371.176 292.014C371.818 291.693 372.54 291.452 373.343 291.291C374.145 291.131 374.851 291.019 375.461 290.954C376.103 290.89 376.425 290.858 376.425 290.858C376.425 290.858 376.746 290.842 377.388 290.81C378.03 290.778 378.848 290.81 379.844 290.906C380.871 291.003 381.962 291.259 383.118 291.677C384.306 292.062 385.429 292.688 386.489 293.555C387.58 294.421 388.495 295.609 389.234 297.118C389.972 298.595 390.421 300.489 390.582 302.8C390.775 305.529 390.646 307.825 390.197 309.686C389.779 311.548 389.137 313.073 388.271 314.261C387.436 315.417 386.473 316.316 385.381 316.958C384.29 317.6 383.15 318.049 381.962 318.306C380.807 318.531 379.699 318.675 378.64 318.74C377.612 318.772 376.713 318.788 375.943 318.788C374.819 318.788 373.969 318.627 373.391 318.306C372.845 317.985 372.476 317.632 372.283 317.247C372.123 316.829 372.042 316.46 372.042 316.139C372.042 315.818 372.042 315.658 372.042 315.658ZM377.195 295.192L379.314 314.695C379.314 314.695 379.458 314.679 379.747 314.646C380.036 314.614 380.389 314.47 380.807 314.213C381.256 313.956 381.673 313.491 382.059 312.817C382.476 312.142 382.797 311.195 383.022 309.975C383.246 308.723 383.295 307.102 383.166 305.112C383.038 302.608 382.765 300.666 382.348 299.285C381.962 297.873 381.481 296.861 380.903 296.251C380.357 295.641 379.763 295.288 379.121 295.192C378.479 295.096 377.837 295.096 377.195 295.192Z" fill="white"/>
<path d="M402.606 298.9C404.211 298.868 405.576 299.012 406.699 299.333C407.823 299.622 408.754 299.975 409.492 300.393C410.231 300.81 410.809 301.179 411.226 301.5C411.643 301.821 411.948 301.982 412.141 301.982C412.494 302.014 412.751 302.19 412.911 302.511C413.072 302.8 413.152 302.945 413.152 302.945C413.152 302.945 413.2 303.266 413.297 303.908C413.393 304.55 413.505 305.369 413.634 306.364C413.794 307.359 413.939 308.402 414.067 309.494C414.196 310.585 414.308 311.613 414.404 312.576C414.5 313.539 414.549 314.293 414.549 314.839C414.549 315.738 414.484 316.46 414.356 317.006C414.26 317.552 413.939 317.969 413.393 318.258C412.847 318.515 411.948 318.691 410.696 318.788C409.765 318.852 409.091 318.836 408.674 318.74C408.256 318.643 408 318.531 407.903 318.402C407.807 318.274 407.759 318.21 407.759 318.21C407.47 318.435 406.988 318.595 406.314 318.691C405.672 318.756 405.062 318.788 404.484 318.788C403.906 318.788 403.618 318.788 403.618 318.788C403.618 318.788 403.248 318.74 402.51 318.643C401.772 318.515 400.857 318.274 399.765 317.921C398.706 317.536 397.63 316.974 396.539 316.236C395.479 315.465 394.597 314.454 393.89 313.202C393.184 311.918 392.847 310.329 392.879 308.434C392.911 306.54 393.264 304.999 393.938 303.812C394.613 302.592 395.431 301.645 396.394 300.971C397.357 300.296 398.305 299.815 399.235 299.526C400.199 299.237 401.001 299.06 401.643 298.996C402.285 298.932 402.606 298.9 402.606 298.9ZM406.218 303.86C406.057 303.635 405.704 303.394 405.159 303.137C404.645 302.849 404.147 302.608 403.666 302.415C403.216 302.223 402.992 302.158 402.992 302.223C402.992 302.255 402.815 302.528 402.462 303.041C402.141 303.523 401.804 304.245 401.451 305.208C401.13 306.139 400.953 307.263 400.921 308.579C400.889 309.895 401.065 311.035 401.451 311.998C401.836 312.961 402.301 313.699 402.847 314.213C403.425 314.727 403.955 314.983 404.436 314.983C404.789 314.983 405.126 314.823 405.447 314.502C405.768 314.149 406.041 313.764 406.266 313.346C406.491 312.897 406.667 312.512 406.796 312.191C406.924 311.869 406.988 311.709 406.988 311.709L406.218 303.86Z" fill="white"/>
<path d="M419.514 315.561C419.514 315.529 419.386 315.337 419.129 314.983C418.904 314.598 418.631 313.972 418.31 313.105C417.989 312.207 417.684 310.971 417.395 309.398C417.106 307.792 416.882 305.77 416.721 303.33C416.657 302.046 416.834 301.131 417.251 300.585C417.7 300.04 418.262 299.702 418.936 299.574C419.611 299.414 420.253 299.333 420.863 299.333C420.863 299.333 421.039 299.333 421.392 299.333C421.777 299.301 422.211 299.333 422.692 299.43C423.174 299.494 423.591 299.702 423.944 300.056C424.33 300.377 424.538 300.89 424.57 301.597C424.603 302.174 424.635 302.961 424.667 303.956C424.699 304.951 424.747 306.027 424.811 307.182C424.908 308.306 425.052 309.398 425.245 310.457C425.437 311.516 425.678 312.399 425.967 313.105C426.288 313.78 426.689 314.149 427.171 314.213C427.652 314.277 427.973 314.004 428.134 313.394C428.294 312.752 428.343 311.95 428.278 310.987C428.246 310.024 428.15 309.06 427.989 308.097C427.861 307.102 427.733 306.268 427.604 305.593C427.476 304.919 427.412 304.582 427.412 304.582C427.412 304.582 427.347 304.389 427.219 304.004C427.091 303.587 427.042 303.121 427.074 302.608C427.107 302.094 427.331 301.629 427.749 301.211C428.166 300.794 428.904 300.569 429.964 300.537C431.408 300.473 432.484 300.617 433.19 300.971C433.928 301.324 434.426 301.773 434.683 302.319C434.972 302.865 435.148 303.426 435.213 304.004C435.277 304.325 435.389 305.096 435.55 306.316C435.742 307.503 435.951 308.916 436.176 310.553C436.4 312.158 436.577 313.828 436.705 315.561C436.834 317.263 436.882 318.82 436.85 320.232C436.818 321.645 436.625 322.72 436.272 323.459C435.726 324.647 434.972 325.738 434.009 326.733C433.078 327.761 431.826 328.547 430.253 329.093C428.712 329.671 426.737 329.895 424.33 329.767C422.532 329.671 421.087 329.382 419.996 328.9C418.904 328.451 418.086 327.953 417.54 327.407C416.994 326.894 416.625 326.428 416.432 326.011C416.272 325.626 416.192 325.433 416.192 325.433C416.192 325.433 416.127 325.256 415.999 324.903C415.903 324.55 415.887 324.133 415.951 323.651C416.047 323.202 416.352 322.801 416.866 322.447C417.379 322.126 418.278 321.982 419.562 322.014C420.846 322.046 421.777 322.159 422.355 322.351C422.933 322.576 423.302 322.817 423.463 323.073C423.623 323.33 423.672 323.555 423.607 323.748C423.575 323.94 423.559 324.037 423.559 324.037C423.559 324.037 423.559 324.213 423.559 324.566C423.559 324.919 423.672 325.256 423.896 325.577C424.153 325.899 424.603 326.043 425.245 326.011C425.919 325.947 426.641 325.642 427.412 325.096C428.182 324.582 428.76 323.796 429.145 322.736C429.562 321.677 429.53 320.361 429.049 318.788C429.049 318.788 428.744 318.836 428.134 318.932C427.524 319.028 426.721 319.028 425.726 318.932C424.763 318.868 423.72 318.595 422.596 318.114C421.505 317.6 420.477 316.749 419.514 315.561Z" fill="white"/>
<path d="M305.228 240.07C304.718 240.148 303.994 240.207 303.054 240.246C302.114 240.246 301.155 240.187 300.176 240.07C299.197 239.952 298.355 239.737 297.65 239.424C296.945 239.071 296.553 238.562 296.475 237.896C296.436 237.231 296.632 236.702 297.063 236.31C297.532 235.919 298.081 235.625 298.707 235.429C299.334 235.194 299.882 235.057 300.352 235.018C300.861 234.94 301.116 234.901 301.116 234.901L317.563 233.373C317.563 233.373 317.837 233.373 318.386 233.373C318.934 233.334 319.56 233.354 320.265 233.432C321.009 233.51 321.675 233.706 322.262 234.019C322.85 234.294 323.163 234.744 323.202 235.371C323.281 235.997 323.085 236.526 322.615 236.957C322.184 237.348 321.655 237.681 321.029 237.955C320.402 238.19 319.854 238.366 319.384 238.484C318.914 238.562 318.679 238.601 318.679 238.601L314.92 239.189C315.076 240.168 315.253 241.558 315.449 243.359C315.644 245.122 315.84 247.08 316.036 249.233C316.232 251.387 316.408 253.502 316.565 255.577C316.721 257.653 316.839 259.513 316.917 261.158C317.035 262.803 317.093 263.977 317.093 264.682C317.093 265.583 316.839 266.268 316.33 266.738C315.86 267.169 315.292 267.482 314.626 267.678C314 267.835 313.432 267.933 312.923 267.972C312.453 267.972 312.218 267.972 312.218 267.972C312.218 267.972 311.963 267.972 311.454 267.972C310.945 267.933 310.358 267.776 309.692 267.502C309.065 267.228 308.497 266.719 307.988 265.975C307.518 265.231 307.283 264.115 307.283 262.626C307.283 261.295 307.205 259.67 307.049 257.751C306.931 255.832 306.774 253.854 306.579 251.818C306.383 249.743 306.167 247.824 305.932 246.061C305.737 244.299 305.56 242.87 305.404 241.773C305.286 240.638 305.228 240.07 305.228 240.07Z" fill="white"/>
<path d="M349.645 250.232C349.528 252.19 348.98 253.776 348.001 254.99C347.022 256.165 345.827 257.066 344.418 257.692C343.047 258.28 341.676 258.691 340.306 258.926C338.935 259.122 337.78 259.219 336.84 259.219C335.939 259.219 335.489 259.219 335.489 259.219C335.724 260.59 336.057 261.569 336.487 262.156C336.918 262.744 337.388 263.077 337.897 263.155C338.446 263.233 338.955 263.194 339.425 263.038C339.894 262.842 340.266 262.626 340.541 262.391C340.854 262.156 341.011 262.039 341.011 262.039C341.011 262.039 341.226 261.863 341.657 261.51C342.087 261.158 342.753 260.825 343.654 260.512C344.594 260.159 345.769 259.983 347.178 259.983C348.784 259.983 349.861 260.198 350.409 260.629C350.997 261.021 351.271 261.491 351.231 262.039C351.231 262.548 351.114 263.018 350.879 263.449C350.683 263.84 350.585 264.036 350.585 264.036C350.585 264.036 350.409 264.232 350.057 264.624C349.743 264.976 349.156 265.407 348.294 265.916C347.433 266.425 346.238 266.895 344.711 267.326C343.184 267.717 341.226 267.933 338.837 267.972C336.527 268.011 334.588 267.698 333.022 267.032C331.455 266.366 330.163 265.505 329.145 264.447C328.127 263.351 327.343 262.215 326.795 261.04C326.286 259.826 325.914 258.71 325.679 257.692C325.483 256.635 325.385 255.812 325.385 255.225C325.385 254.638 325.425 253.874 325.503 252.934C325.62 251.994 325.875 251.015 326.267 249.997C326.697 248.94 327.343 247.941 328.205 247.001C329.067 246.061 330.241 245.298 331.729 244.71C333.257 244.123 335.195 243.81 337.545 243.771C340.482 243.731 342.773 243.986 344.418 244.534C346.062 245.082 347.257 245.748 348.001 246.531C348.745 247.315 349.195 248.059 349.352 248.764C349.548 249.468 349.645 249.958 349.645 250.232ZM334.666 255.166C337.055 254.97 338.837 254.461 340.012 253.639C341.187 252.817 341.872 251.896 342.068 250.878C342.264 249.86 342.068 248.998 341.48 248.294C340.932 247.55 340.09 247.217 338.955 247.295C337.819 247.334 336.957 247.765 336.37 248.587C335.783 249.371 335.371 250.291 335.136 251.348C334.901 252.366 334.764 253.267 334.725 254.05C334.686 254.794 334.666 255.166 334.666 255.166Z" fill="white"/>
<path d="M366.178 243.712C368.136 243.673 369.8 243.849 371.171 244.24C372.542 244.593 373.677 245.024 374.578 245.533C375.479 246.042 376.183 246.492 376.693 246.884C377.202 247.275 377.574 247.471 377.809 247.471C378.239 247.51 378.553 247.726 378.749 248.117C378.944 248.47 379.042 248.646 379.042 248.646C379.042 248.646 379.101 249.038 379.218 249.821C379.336 250.604 379.473 251.603 379.63 252.817C379.825 254.031 380.002 255.303 380.158 256.635C380.315 257.966 380.452 259.219 380.569 260.394C380.687 261.569 380.746 262.489 380.746 263.155C380.746 264.252 380.667 265.133 380.511 265.798C380.393 266.464 380.002 266.973 379.336 267.326C378.67 267.639 377.574 267.854 376.046 267.972C374.911 268.05 374.088 268.031 373.579 267.913C373.07 267.796 372.757 267.659 372.639 267.502C372.522 267.345 372.463 267.267 372.463 267.267C372.111 267.541 371.523 267.737 370.701 267.854C369.918 267.933 369.174 267.972 368.469 267.972C367.764 267.972 367.411 267.972 367.411 267.972C367.411 267.972 366.961 267.913 366.06 267.796C365.16 267.639 364.044 267.345 362.712 266.915C361.42 266.445 360.108 265.759 358.777 264.859C357.484 263.919 356.407 262.685 355.546 261.158C354.684 259.591 354.273 257.653 354.312 255.343C354.351 253.032 354.782 251.152 355.604 249.703C356.427 248.215 357.425 247.06 358.6 246.238C359.775 245.415 360.93 244.828 362.066 244.475C363.241 244.123 364.22 243.908 365.003 243.829C365.786 243.751 366.178 243.712 366.178 243.712ZM370.583 249.762C370.388 249.488 369.957 249.194 369.291 248.881C368.665 248.529 368.058 248.235 367.47 248C366.922 247.765 366.648 247.687 366.648 247.765C366.648 247.804 366.432 248.137 366.002 248.764C365.61 249.351 365.199 250.232 364.768 251.407C364.377 252.543 364.161 253.913 364.122 255.519C364.083 257.124 364.298 258.515 364.768 259.689C365.238 260.864 365.806 261.765 366.472 262.391C367.176 263.018 367.823 263.331 368.41 263.331C368.841 263.331 369.252 263.136 369.644 262.744C370.035 262.313 370.368 261.843 370.642 261.334C370.916 260.786 371.132 260.316 371.288 259.924C371.445 259.533 371.523 259.337 371.523 259.337L370.583 249.762Z" fill="white"/>
<path d="M403.133 254.579C401.606 254.579 400.49 254.403 399.785 254.05C399.119 253.659 398.688 253.267 398.492 252.875C398.336 252.484 398.257 252.229 398.257 252.112C398.257 251.994 398.179 251.759 398.022 251.407C397.905 251.054 397.69 250.722 397.376 250.408C397.063 250.056 396.652 249.88 396.143 249.88C395.634 249.84 395.144 250.193 394.674 250.937C394.204 251.681 393.813 252.582 393.499 253.639C393.186 254.657 392.99 255.636 392.912 256.576C392.873 257.516 392.971 258.475 393.206 259.454C393.48 260.433 393.871 261.256 394.381 261.922C394.89 262.548 395.497 262.881 396.202 262.92C397.259 262.959 397.905 262.803 398.14 262.45C398.375 262.059 398.492 261.863 398.492 261.863C398.492 261.863 398.532 261.745 398.61 261.51C398.688 261.236 398.904 260.943 399.256 260.629C399.648 260.316 400.255 260.061 401.077 259.866C401.899 259.631 403.074 259.533 404.602 259.572C406.129 259.611 407.167 259.807 407.715 260.159C408.263 260.512 408.537 260.903 408.537 261.334C408.576 261.765 408.498 262.137 408.302 262.45C408.106 262.763 408.008 262.92 408.008 262.92C408.008 262.92 407.734 263.175 407.186 263.684C406.638 264.193 405.835 264.78 404.778 265.446C403.76 266.112 402.506 266.699 401.018 267.208C399.53 267.717 397.827 267.972 395.908 267.972C392.109 267.972 389.094 266.934 386.862 264.859C384.669 262.783 383.494 259.846 383.337 256.047C383.259 254.168 383.592 252.484 384.336 250.996C385.08 249.508 386.078 248.254 387.332 247.236C388.585 246.179 389.975 245.376 391.502 244.828C393.029 244.24 394.518 243.908 395.967 243.829C397.455 243.751 398.864 243.966 400.196 244.475C401.527 244.945 402.722 245.591 403.779 246.414C404.876 247.236 405.757 248.098 406.422 248.998C407.088 249.899 407.46 250.741 407.539 251.524C407.617 252.268 407.441 252.856 407.01 253.287C406.618 253.717 406.109 254.031 405.483 254.226C404.895 254.383 404.367 254.481 403.897 254.52C403.427 254.559 403.172 254.579 403.133 254.579Z" fill="white"/>
<path d="M411.806 262.92L411.102 233.902C411.102 233.902 411.102 233.745 411.102 233.432C411.141 233.119 411.278 232.747 411.513 232.316C411.748 231.885 412.159 231.513 412.746 231.2C413.373 230.887 414.274 230.73 415.448 230.73C417.015 230.73 418.17 230.906 418.914 231.259C419.697 231.611 420.206 232.061 420.441 232.61C420.676 233.158 420.774 233.706 420.735 234.254C420.696 234.646 420.676 235.39 420.676 236.487C420.716 237.544 420.735 238.68 420.735 239.894C420.774 241.068 420.794 242.087 420.794 242.948C420.833 243.81 420.853 244.24 420.853 244.24C420.853 244.24 421.244 244.143 422.027 243.947C422.85 243.751 423.907 243.614 425.199 243.536C426.492 243.457 427.862 243.614 429.311 244.005C430.76 244.358 432.131 245.102 433.423 246.238C433.893 246.629 434.265 247.354 434.539 248.411C434.853 249.468 435.088 250.702 435.244 252.112C435.44 253.482 435.577 254.912 435.655 256.4C435.734 257.849 435.773 259.2 435.773 260.453C435.812 261.706 435.812 262.724 435.773 263.508C435.773 264.291 435.773 264.682 435.773 264.682C435.773 264.682 435.773 264.859 435.773 265.211C435.773 265.524 435.675 265.896 435.479 266.327C435.323 266.758 434.97 267.149 434.422 267.502C433.874 267.815 433.032 267.972 431.896 267.972C430.408 267.972 429.39 267.796 428.841 267.443C428.293 267.091 427.999 266.621 427.96 266.033C427.921 265.407 427.902 264.722 427.902 263.977C427.902 263.547 427.882 262.842 427.843 261.863C427.804 260.884 427.764 259.807 427.725 258.632C427.686 257.418 427.647 256.263 427.608 255.166C427.569 254.07 427.53 253.169 427.49 252.464C427.451 251.759 427.432 251.407 427.432 251.407C427.432 251.407 427.392 251.172 427.314 250.702C427.275 250.193 427.079 249.703 426.727 249.233C426.374 248.764 425.787 248.548 424.964 248.587C424.338 248.626 423.809 248.92 423.378 249.468C422.948 249.977 422.595 250.624 422.321 251.407C422.086 252.151 421.91 252.875 421.792 253.58C421.675 254.246 421.616 254.736 421.616 255.049C421.616 255.362 421.616 255.989 421.616 256.929C421.655 257.868 421.675 258.887 421.675 259.983C421.675 261.04 421.675 261.961 421.675 262.744C421.714 263.488 421.734 263.86 421.734 263.86C421.734 263.86 421.714 264.075 421.675 264.506C421.636 264.898 421.479 265.368 421.205 265.916C420.931 266.464 420.441 266.954 419.737 267.384C419.071 267.776 418.092 267.972 416.799 267.972C415.311 267.972 414.195 267.717 413.451 267.208C412.746 266.699 412.276 266.112 412.041 265.446C411.846 264.78 411.748 264.193 411.748 263.684C411.787 263.175 411.806 262.92 411.806 262.92Z" fill="white"/>
<path d="M462.768 250.232C462.651 252.19 462.102 253.776 461.123 254.99C460.144 256.165 458.95 257.066 457.54 257.692C456.169 258.28 454.799 258.691 453.428 258.926C452.058 259.122 450.902 259.219 449.962 259.219C449.062 259.219 448.611 259.219 448.611 259.219C448.846 260.59 449.179 261.569 449.61 262.156C450.041 262.744 450.511 263.077 451.02 263.155C451.568 263.233 452.077 263.194 452.547 263.038C453.017 262.842 453.389 262.626 453.663 262.391C453.976 262.156 454.133 262.039 454.133 262.039C454.133 262.039 454.349 261.863 454.779 261.51C455.21 261.158 455.876 260.825 456.776 260.512C457.716 260.159 458.891 259.983 460.301 259.983C461.907 259.983 462.983 260.198 463.532 260.629C464.119 261.021 464.393 261.491 464.354 262.039C464.354 262.548 464.237 263.018 464.002 263.449C463.806 263.84 463.708 264.036 463.708 264.036C463.708 264.036 463.532 264.232 463.179 264.624C462.866 264.976 462.279 265.407 461.417 265.916C460.555 266.425 459.361 266.895 457.834 267.326C456.307 267.717 454.349 267.933 451.96 267.972C449.649 268.011 447.711 267.698 446.144 267.032C444.578 266.366 443.286 265.505 442.267 264.447C441.249 263.351 440.466 262.215 439.918 261.04C439.409 259.826 439.037 258.71 438.802 257.692C438.606 256.635 438.508 255.812 438.508 255.225C438.508 254.638 438.547 253.874 438.625 252.934C438.743 251.994 438.997 251.015 439.389 249.997C439.82 248.94 440.466 247.941 441.328 247.001C442.189 246.061 443.364 245.298 444.852 244.71C446.379 244.123 448.318 243.81 450.667 243.771C453.604 243.731 455.895 243.986 457.54 244.534C459.185 245.082 460.379 245.748 461.123 246.531C461.867 247.315 462.318 248.059 462.474 248.764C462.67 249.468 462.768 249.958 462.768 250.232ZM447.789 255.166C450.178 254.97 451.96 254.461 453.135 253.639C454.309 252.817 454.995 251.896 455.19 250.878C455.386 249.86 455.19 248.998 454.603 248.294C454.055 247.55 453.213 247.217 452.077 247.295C450.942 247.334 450.08 247.765 449.493 248.587C448.905 249.371 448.494 250.291 448.259 251.348C448.024 252.366 447.887 253.267 447.848 254.05C447.809 254.794 447.789 255.166 447.789 255.166Z" fill="white"/>
<path d="M469.902 263.977C469.902 263.547 469.843 262.803 469.726 261.745C469.608 260.688 469.452 259.494 469.256 258.162C469.099 256.791 468.923 255.44 468.727 254.109C468.531 252.738 468.316 251.524 468.081 250.467C467.885 249.371 467.709 248.587 467.552 248.117C467.161 246.943 467.376 246.12 468.198 245.65C469.06 245.141 470.254 244.808 471.782 244.652C473.309 244.495 474.405 244.612 475.071 245.004C475.776 245.357 476.128 245.533 476.128 245.533C476.716 244.945 477.675 244.534 479.007 244.299C480.377 244.064 481.807 243.966 483.295 244.005C485.214 244.045 486.604 244.338 487.466 244.887C488.327 245.435 488.758 246.022 488.758 246.649C488.758 247.119 488.699 247.471 488.582 247.706C488.464 247.941 487.994 248.176 487.172 248.411C486.389 248.607 484.959 248.959 482.884 249.468C481.67 249.743 480.769 250.408 480.182 251.466C479.594 252.484 479.222 253.678 479.066 255.049C478.948 256.38 478.948 257.712 479.066 259.043C479.183 260.336 479.32 261.432 479.477 262.333C479.633 263.194 479.712 263.664 479.712 263.743C479.712 263.821 479.731 264.095 479.77 264.565C479.849 264.996 479.79 265.485 479.594 266.033C479.438 266.542 479.026 266.993 478.361 267.384C477.695 267.776 476.638 267.972 475.189 267.972C473.74 267.972 472.643 267.776 471.899 267.384C471.155 266.954 470.646 266.484 470.372 265.975C470.098 265.466 469.941 265.015 469.902 264.624C469.902 264.193 469.902 263.977 469.902 263.977Z" fill="white"/>
<path d="M504.219 258.573C501.282 258.495 498.991 258.201 497.346 257.692C495.701 257.183 494.526 256.576 493.821 255.871C493.156 255.166 492.745 254.481 492.588 253.815C492.431 253.11 492.353 252.562 492.353 252.17C492.353 251.779 492.412 251.172 492.529 250.35C492.647 249.527 493.019 248.666 493.645 247.765C494.272 246.864 495.349 246.081 496.876 245.415C498.442 244.75 500.655 244.378 503.514 244.299C506.647 244.221 509.055 244.397 510.739 244.828C512.423 245.259 513.617 245.768 514.322 246.355C515.066 246.943 515.517 247.471 515.673 247.941C515.83 248.372 515.908 248.587 515.908 248.587C515.908 249.096 515.849 249.625 515.732 250.173C515.614 250.682 515.262 251.113 514.675 251.466C514.126 251.779 513.167 251.916 511.796 251.877C510.7 251.838 509.877 251.74 509.329 251.583C508.781 251.426 508.37 251.25 508.096 251.054C507.861 250.819 507.606 250.584 507.332 250.35C507.097 250.115 506.725 249.919 506.216 249.762C505.746 249.605 504.982 249.508 503.925 249.468C502.633 249.429 501.654 249.527 500.988 249.762C500.361 249.958 499.931 250.212 499.696 250.526C499.5 250.839 499.382 251.113 499.343 251.348C499.343 251.544 499.343 251.642 499.343 251.642C499.343 251.642 499.382 251.798 499.461 252.112C499.578 252.425 499.97 252.738 500.635 253.052C501.34 253.365 502.594 253.541 504.395 253.58C507.802 253.698 510.406 254.031 512.207 254.579C514.048 255.088 515.34 255.695 516.084 256.4C516.868 257.105 517.318 257.81 517.435 258.515C517.592 259.18 517.67 259.709 517.67 260.101C517.67 260.492 517.533 261.099 517.259 261.922C517.024 262.744 516.496 263.605 515.673 264.506C514.851 265.407 513.578 266.19 511.855 266.856C510.171 267.522 507.9 267.894 505.041 267.972C501.947 268.05 499.539 267.874 497.816 267.443C496.132 267.012 494.918 266.503 494.174 265.916C493.469 265.329 493.038 264.819 492.882 264.389C492.725 263.919 492.647 263.684 492.647 263.684C492.647 263.136 492.705 262.607 492.823 262.098C492.98 261.589 493.332 261.177 493.88 260.864C494.468 260.512 495.427 260.355 496.759 260.394C497.894 260.433 498.717 260.531 499.226 260.688C499.774 260.845 500.185 261.04 500.459 261.275C500.733 261.471 500.988 261.687 501.223 261.922C501.458 262.156 501.83 262.352 502.339 262.509C502.848 262.666 503.612 262.763 504.63 262.803C505.922 262.842 506.882 262.763 507.508 262.568C508.174 262.333 508.624 262.059 508.859 261.745C509.094 261.432 509.212 261.177 509.212 260.982C509.212 260.747 509.212 260.629 509.212 260.629C509.212 260.629 509.173 260.473 509.094 260.159C509.016 259.807 508.624 259.474 507.919 259.161C507.254 258.808 506.02 258.612 504.219 258.573Z" fill="white"/>
<path d="M521.323 243.955C520.188 243.896 519.366 243.731 518.859 243.463C518.381 243.194 518.097 242.895 518.008 242.567C517.948 242.238 517.963 241.94 518.052 241.671C518.142 241.432 518.187 241.312 518.187 241.312C518.187 241.312 518.261 241.163 518.411 240.864C518.59 240.566 518.799 240.207 519.038 239.789C519.277 239.371 519.501 238.983 519.71 238.625C519.919 238.266 520.053 238.027 520.113 237.908C520.262 237.669 520.337 237.43 520.337 237.191C520.367 236.952 520.382 236.833 520.382 236.833C520.382 236.833 520.367 236.743 520.337 236.564C520.337 236.355 520.427 236.131 520.606 235.892C520.785 235.623 521.158 235.399 521.726 235.22C522.323 235.041 523.204 234.981 524.369 235.041C525.534 235.071 526.37 235.235 526.878 235.533C527.415 235.832 527.729 236.161 527.818 236.519C527.908 236.848 527.908 237.146 527.818 237.415C527.759 237.684 527.729 237.818 527.729 237.818C527.729 237.818 527.609 238.072 527.37 238.58C527.131 239.087 526.818 239.7 526.43 240.416C526.071 241.133 525.683 241.805 525.265 242.432C524.906 242.97 524.444 243.343 523.876 243.552C523.338 243.791 522.816 243.911 522.308 243.911C521.83 243.941 521.502 243.955 521.323 243.955Z" fill="white"/>
<path d="M346.296 202.327L345.381 179.598C345.381 179.598 345.381 179.469 345.381 179.212C345.413 178.956 345.526 178.667 345.718 178.346C345.911 177.993 346.264 177.688 346.778 177.431C347.324 177.142 348.11 176.981 349.137 176.949C350.518 176.885 351.497 177.046 352.075 177.431C352.685 177.784 353.054 178.169 353.182 178.586C353.343 178.972 353.423 179.18 353.423 179.212C353.423 179.245 353.439 179.614 353.471 180.32C353.503 181.026 353.536 181.893 353.568 182.92C353.6 183.948 353.632 184.975 353.664 186.002C353.696 187.03 353.728 187.896 353.76 188.603C353.792 189.277 353.808 189.614 353.808 189.614L358.913 189.325L358.142 179.646C358.142 179.646 358.126 179.534 358.094 179.309C358.094 179.052 358.158 178.763 358.287 178.442C358.447 178.089 358.768 177.768 359.25 177.479C359.764 177.158 360.518 176.949 361.513 176.853C362.54 176.757 363.327 176.821 363.873 177.046C364.418 177.238 364.82 177.495 365.077 177.816C365.333 178.137 365.478 178.426 365.51 178.683C365.574 178.94 365.606 179.068 365.606 179.068L367.099 201.556C367.099 201.556 367.115 201.733 367.147 202.086C367.179 202.407 367.131 202.808 367.003 203.29C366.874 203.739 366.553 204.141 366.04 204.494C365.558 204.815 364.804 204.975 363.776 204.975C362.749 204.975 361.947 204.831 361.369 204.542C360.791 204.253 360.373 203.932 360.117 203.579C359.86 203.193 359.699 202.856 359.635 202.567C359.571 202.279 359.539 202.134 359.539 202.134L359.202 192.888L353.953 193.177L354.386 202.616C354.386 202.616 354.37 202.744 354.338 203.001C354.306 203.226 354.178 203.498 353.953 203.819C353.728 204.108 353.343 204.381 352.797 204.638C352.251 204.863 351.449 204.975 350.389 204.975C349.33 204.975 348.511 204.847 347.934 204.59C347.388 204.301 347.003 203.996 346.778 203.675C346.553 203.322 346.409 203.017 346.344 202.76C346.312 202.471 346.296 202.327 346.296 202.327Z" fill="white"/>
<path d="M379.044 185.087C380.649 185.055 382.013 185.2 383.137 185.521C384.26 185.81 385.191 186.163 385.93 186.58C386.668 186.997 387.246 187.367 387.663 187.688C388.081 188.009 388.386 188.169 388.578 188.169C388.931 188.201 389.188 188.378 389.349 188.699C389.509 188.988 389.59 189.132 389.59 189.132C389.59 189.132 389.638 189.453 389.734 190.095C389.83 190.737 389.943 191.556 390.071 192.551C390.232 193.546 390.376 194.59 390.504 195.681C390.633 196.773 390.745 197.8 390.842 198.763C390.938 199.726 390.986 200.481 390.986 201.027C390.986 201.925 390.922 202.648 390.793 203.193C390.697 203.739 390.376 204.157 389.83 204.445C389.285 204.702 388.386 204.879 387.134 204.975C386.203 205.039 385.528 205.023 385.111 204.927C384.694 204.831 384.437 204.718 384.341 204.59C384.244 204.462 384.196 204.397 384.196 204.397C383.907 204.622 383.426 204.783 382.752 204.879C382.109 204.943 381.5 204.975 380.922 204.975C380.344 204.975 380.055 204.975 380.055 204.975C380.055 204.975 379.686 204.927 378.947 204.831C378.209 204.702 377.294 204.462 376.203 204.108C375.143 203.723 374.068 203.161 372.976 202.423C371.917 201.653 371.034 200.641 370.328 199.389C369.621 198.105 369.284 196.516 369.316 194.622C369.349 192.728 369.702 191.187 370.376 189.999C371.05 188.779 371.869 187.832 372.832 187.158C373.795 186.484 374.742 186.002 375.673 185.713C376.636 185.424 377.438 185.248 378.081 185.184C378.723 185.119 379.044 185.087 379.044 185.087ZM382.655 190.047C382.495 189.823 382.142 189.582 381.596 189.325C381.082 189.036 380.585 188.795 380.103 188.603C379.654 188.41 379.429 188.346 379.429 188.41C379.429 188.442 379.252 188.715 378.899 189.229C378.578 189.71 378.241 190.432 377.888 191.396C377.567 192.327 377.39 193.45 377.358 194.766C377.326 196.083 377.503 197.222 377.888 198.185C378.273 199.148 378.739 199.887 379.284 200.4C379.862 200.914 380.392 201.171 380.874 201.171C381.227 201.171 381.564 201.01 381.885 200.689C382.206 200.336 382.479 199.951 382.703 199.534C382.928 199.084 383.105 198.699 383.233 198.378C383.362 198.057 383.426 197.896 383.426 197.896L382.655 190.047Z" fill="white"/>
<path d="M395.181 211.861L393.592 192.311C393.592 192.311 393.512 192.182 393.351 191.925C393.223 191.668 393.094 191.347 392.966 190.962C392.838 190.545 392.805 190.144 392.87 189.758C392.934 189.373 393.175 189.052 393.592 188.795C393.945 188.603 394.587 188.233 395.518 187.688C396.481 187.11 397.653 186.548 399.033 186.002C400.414 185.457 401.891 185.071 403.464 184.847C405.069 184.622 406.674 184.718 408.279 185.135C409.916 185.521 411.457 186.404 412.902 187.784C414.314 189.132 415.197 190.625 415.55 192.262C415.904 193.9 415.871 195.505 415.454 197.078C415.069 198.651 414.411 200.031 413.48 201.219C412.581 202.407 411.554 203.242 410.398 203.723C408.825 204.365 407.477 204.767 406.353 204.927C405.229 205.055 404.363 205.088 403.753 205.023C403.143 204.991 402.838 204.975 402.838 204.975L403.319 212.247C403.319 212.247 403.319 212.407 403.319 212.728C403.319 213.049 403.223 213.418 403.03 213.836C402.87 214.253 402.517 214.606 401.971 214.895C401.425 215.216 400.623 215.377 399.563 215.377C398.151 215.344 397.123 215.12 396.481 214.702C395.871 214.285 395.502 213.804 395.374 213.258C395.245 212.712 395.181 212.247 395.181 211.861ZM401.345 190.144L402.404 200.593C402.404 200.593 402.677 200.593 403.223 200.593C403.769 200.593 404.379 200.497 405.053 200.304C405.759 200.112 406.369 199.742 406.883 199.197C407.396 198.651 407.621 197.832 407.557 196.741C407.493 195.296 407.332 194.012 407.075 192.888C406.818 191.733 406.433 190.85 405.92 190.24C405.406 189.63 404.7 189.405 403.801 189.566C402.902 189.726 402.276 189.855 401.923 189.951C401.602 190.015 401.425 190.063 401.393 190.095C401.361 190.128 401.345 190.144 401.345 190.144Z" fill="white"/>
<path d="M419.823 211.861L418.234 192.311C418.234 192.311 418.153 192.182 417.993 191.925C417.864 191.668 417.736 191.347 417.608 190.962C417.479 190.545 417.447 190.144 417.511 189.758C417.575 189.373 417.816 189.052 418.234 188.795C418.587 188.603 419.229 188.233 420.16 187.688C421.123 187.11 422.295 186.548 423.675 186.002C425.055 185.457 426.532 185.071 428.105 184.847C429.71 184.622 431.316 184.718 432.921 185.135C434.558 185.521 436.099 186.404 437.544 187.784C438.956 189.132 439.839 190.625 440.192 192.262C440.545 193.9 440.513 195.505 440.096 197.078C439.711 198.651 439.052 200.031 438.121 201.219C437.223 202.407 436.195 203.242 435.04 203.723C433.466 204.365 432.118 204.767 430.995 204.927C429.871 205.055 429.004 205.088 428.394 205.023C427.784 204.991 427.479 204.975 427.479 204.975L427.961 212.247C427.961 212.247 427.961 212.407 427.961 212.728C427.961 213.049 427.864 213.418 427.672 213.836C427.511 214.253 427.158 214.606 426.612 214.895C426.067 215.216 425.264 215.377 424.205 215.377C422.792 215.344 421.765 215.12 421.123 214.702C420.513 214.285 420.144 213.804 420.015 213.258C419.887 212.712 419.823 212.247 419.823 211.861ZM425.986 190.144L427.046 200.593C427.046 200.593 427.319 200.593 427.864 200.593C428.41 200.593 429.02 200.497 429.694 200.304C430.401 200.112 431.011 199.742 431.524 199.197C432.038 198.651 432.263 197.832 432.198 196.741C432.134 195.296 431.974 194.012 431.717 192.888C431.46 191.733 431.075 190.85 430.561 190.24C430.047 189.63 429.341 189.405 428.442 189.566C427.543 189.726 426.917 189.855 426.564 189.951C426.243 190.015 426.067 190.063 426.035 190.095C426.003 190.128 425.986 190.144 425.986 190.144Z" fill="white"/>
<path d="M445.235 201.749C445.235 201.717 445.106 201.524 444.85 201.171C444.625 200.786 444.352 200.16 444.031 199.293C443.71 198.394 443.405 197.158 443.116 195.585C442.827 193.98 442.602 191.957 442.442 189.518C442.378 188.233 442.554 187.319 442.971 186.773C443.421 186.227 443.983 185.89 444.657 185.762C445.331 185.601 445.973 185.521 446.583 185.521C446.583 185.521 446.76 185.521 447.113 185.521C447.498 185.489 447.931 185.521 448.413 185.617C448.894 185.681 449.312 185.89 449.665 186.243C450.05 186.564 450.259 187.078 450.291 187.784C450.323 188.362 450.355 189.148 450.387 190.144C450.419 191.139 450.468 192.214 450.532 193.37C450.628 194.494 450.773 195.585 450.965 196.644C451.158 197.704 451.399 198.587 451.687 199.293C452.008 199.967 452.41 200.336 452.891 200.4C453.373 200.465 453.694 200.192 453.854 199.582C454.015 198.94 454.063 198.137 453.999 197.174C453.967 196.211 453.87 195.248 453.71 194.285C453.582 193.29 453.453 192.455 453.325 191.781C453.196 191.107 453.132 190.77 453.132 190.77C453.132 190.77 453.068 190.577 452.939 190.192C452.811 189.774 452.763 189.309 452.795 188.795C452.827 188.282 453.052 187.816 453.469 187.399C453.887 186.981 454.625 186.757 455.684 186.725C457.129 186.66 458.204 186.805 458.911 187.158C459.649 187.511 460.147 187.961 460.403 188.506C460.692 189.052 460.869 189.614 460.933 190.192C460.997 190.513 461.11 191.283 461.27 192.503C461.463 193.691 461.671 195.103 461.896 196.741C462.121 198.346 462.298 200.015 462.426 201.749C462.554 203.45 462.602 205.007 462.57 206.42C462.538 207.832 462.346 208.908 461.993 209.646C461.447 210.834 460.692 211.925 459.729 212.921C458.798 213.948 457.546 214.735 455.973 215.28C454.432 215.858 452.458 216.083 450.05 215.954C448.252 215.858 446.808 215.569 445.716 215.088C444.625 214.638 443.806 214.141 443.26 213.595C442.715 213.081 442.345 212.616 442.153 212.198C441.992 211.813 441.912 211.621 441.912 211.621C441.912 211.621 441.848 211.444 441.719 211.091C441.623 210.738 441.607 210.32 441.671 209.839C441.768 209.389 442.073 208.988 442.586 208.635C443.1 208.314 443.999 208.169 445.283 208.202C446.567 208.234 447.498 208.346 448.076 208.539C448.654 208.763 449.023 209.004 449.183 209.261C449.344 209.518 449.392 209.742 449.328 209.935C449.296 210.128 449.28 210.224 449.28 210.224C449.28 210.224 449.28 210.401 449.28 210.754C449.28 211.107 449.392 211.444 449.617 211.765C449.874 212.086 450.323 212.23 450.965 212.198C451.639 212.134 452.362 211.829 453.132 211.283C453.903 210.77 454.48 209.983 454.866 208.924C455.283 207.864 455.251 206.548 454.769 204.975C454.769 204.975 454.464 205.023 453.854 205.12C453.244 205.216 452.442 205.216 451.447 205.12C450.484 205.055 449.44 204.783 448.317 204.301C447.225 203.787 446.198 202.937 445.235 201.749Z" fill="white"/>
<path opacity="0.3" d="M615.757 197.743V204.438C608.715 201.01 599.272 195.129 589.549 188.153C588.495 187.393 587.415 186.607 586.335 185.806C579.973 181.098 573.278 175.763 566.636 169.841C555.82 160.224 547.11 152.516 541.162 145.46C530.439 132.763 525.424 121.613 525.077 119.212H525.104C525.251 119.425 525.424 119.692 525.584 119.919C529.479 125.295 536.401 133.644 548.364 145.46C553.472 150.501 559.514 156.17 566.636 162.492C573.278 168.414 579.973 173.749 586.335 178.47C587.415 179.27 588.495 180.057 589.549 180.818C599.899 188.232 609.169 193.941 615.757 197.743Z" fill="#594444"/>
<path d="M631.282 196.862L671.08 150.839L566.129 60.0859L525.887 106.623C522.7 110.308 522.573 115.797 525.585 119.93C531.16 127.578 542.872 141.348 566.636 162.498C586.68 180.338 607.039 192.828 617.873 198.925C622.438 201.494 628.02 200.634 631.282 196.862Z" fill="#594444"/>
<path opacity="0.3" d="M671.075 150.839L631.289 196.863C628.025 200.639 622.436 201.493 617.873 198.93C614.216 196.879 609.464 194.076 603.996 190.59C603.996 190.59 635.858 169.624 623.048 138.413C610.239 107.203 566.123 60.0879 566.123 60.0879L671.075 150.839Z" fill="#594444"/>
<path d="M599.229 66.0418L520.292 18.73L566.129 60.0856L671.08 150.839L737.692 179.474L599.229 66.0418Z" fill="#664E4E"/>
<path opacity="0.2" d="M667.297 147.553L566.133 60.0865L520.292 18.7275L590.14 60.5938C609.186 95.1775 654 135.884 667.297 147.553Z" fill="#594444"/>
<path d="M625.534 97.3101C645.593 107.388 640.037 141.924 638.419 166.595" stroke="#332727" stroke-width="3.0254" stroke-miterlimit="10" stroke-linecap="round" stroke-linejoin="round"/>
<path d="M649.235 196.394C653.072 189.695 639.784 166.372 639.784 166.372H636.725C636.725 166.372 623.442 189.692 627.273 196.394C628.671 198.837 635.485 198.895 638.254 198.895C639.614 198.895 642.009 198.88 644.239 198.561C646.471 198.241 648.536 197.616 649.235 196.394Z" fill="#FFD766"/>
<path d="M633.943 164.576C633.943 167.072 635.966 169.095 638.462 169.095C640.958 169.095 642.981 167.072 642.981 164.576C642.981 162.081 640.958 160.057 638.462 160.057C635.966 160.057 633.943 162.079 633.943 164.576Z" fill="#FFE088"/>
<path opacity="0.4" d="M645.77 198.276C645.277 198.383 644.77 198.476 644.236 198.557C642.009 198.876 639.621 198.89 638.261 198.89C635.486 198.89 628.671 198.837 627.27 196.395C624.083 190.82 632.738 173.735 635.739 168.16C634.659 167.333 633.938 166.039 633.938 164.572C633.938 162.077 635.965 160.05 638.46 160.05C638.859 160.05 639.233 160.103 639.593 160.197C633.766 167.493 632.527 195.434 645.77 198.276Z" fill="#AD9245"/>
<path d="M642.528 175.099C643.734 178.842 644.472 182.624 645.027 186.462C645.584 190.299 645.936 194.149 646.168 198.076C646.904 194.193 646.77 190.191 646.235 186.286C645.642 182.402 644.625 178.465 642.528 175.099Z" fill="#AD9245"/>
<path d="M640.278 175.578C641.1 179.391 641.447 183.193 641.693 187.04C641.963 190.881 642.048 194.749 642.524 198.632C643.015 194.759 643.15 190.864 642.912 186.96C642.631 183.086 642.023 179.106 640.278 175.578Z" fill="#AD9245"/>
<path d="M633.334 175.099C631.594 178.577 630.658 182.398 630.053 186.215C629.495 190.043 629.256 193.943 629.723 197.798C630.688 190.127 631.654 182.637 633.334 175.099Z" fill="#AD9245"/>
<path d="M635.74 175.578C634.367 179.235 633.851 183.149 633.607 187.014C633.404 190.895 633.504 194.774 633.991 198.632C634.471 194.767 634.591 190.917 634.826 187.083C635.032 183.244 635.307 179.44 635.74 175.578Z" fill="#AD9245"/>
<path d="M637.903 175.838C637.493 179.645 637.452 183.447 637.503 187.246C637.59 191.045 637.77 194.842 638.324 198.632C638.738 194.824 638.777 191.023 638.724 187.224C638.634 183.425 638.453 179.628 637.903 175.838Z" fill="#AD9245"/>
<path d="M594.412 459.688V466.368C594.412 467.877 595.641 469.105 597.15 469.105H641.043C642.564 469.105 643.793 467.876 643.793 466.368V459.688C643.793 458.178 642.564 456.949 641.043 456.949H624.469V421.684H613.724V456.949H597.15C595.641 456.95 594.412 458.179 594.412 459.688Z" fill="#456D8F"/>
<path opacity="0.5" d="M621.779 456.95C621.779 458.269 622.845 459.34 624.163 459.345L641.042 459.421C642.563 459.421 643.792 460.65 643.792 462.158V459.689C643.792 458.176 642.566 456.95 641.053 456.95H624.467V421.684H621.778L621.779 456.95Z" fill="#456D8F"/>
<path opacity="0.3" d="M619.103 424.399C620.904 424.399 622.692 424.338 624.469 424.217V426.189C622.692 426.322 620.904 426.383 619.103 426.383C617.302 426.383 615.501 426.322 613.724 426.201V424.217C615.5 424.338 617.301 424.399 619.103 424.399Z" fill="#456D8F"/>
<path d="M619.101 424.396C661.922 424.396 696.759 389.559 696.759 346.738C696.759 316.752 679.211 289.142 652.053 276.398C651.544 276.158 650.961 276.133 650.433 276.329C649.905 276.523 649.478 276.921 649.246 277.433L586.779 415.057C586.546 415.569 586.528 416.152 586.729 416.676C586.929 417.2 587.332 417.624 587.847 417.85C597.715 422.193 608.23 424.396 619.101 424.396ZM652.182 281.137C676.777 293.569 692.555 319.085 692.555 346.738C692.555 387.241 659.603 420.191 619.101 420.191C609.534 420.191 600.259 418.387 591.5 414.83L652.182 281.137Z" fill="#456D8F"/>
<path d="M630.078 413.089C666.72 407.028 691.51 372.411 685.449 335.77C679.388 299.128 644.77 274.338 608.129 280.399C571.488 286.46 546.697 321.077 552.758 357.719C558.819 394.36 593.437 419.15 630.078 413.089Z" fill="#9CD3E6"/>
<mask id="mask0_51_3268" style="mask-type:luminance" maskUnits="userSpaceOnUse" x="551" y="279" width="136" height="136">
<path d="M630.078 413.09C666.72 407.029 691.51 372.412 685.449 335.771C679.388 299.129 644.77 274.339 608.129 280.4C571.488 286.461 546.697 321.078 552.758 357.72C558.819 394.361 593.437 419.151 630.078 413.09Z" fill="white"/>
</mask>
<g mask="url(#mask0_51_3268)">
<path d="M592.814 283.561C594.384 284.004 595.037 286.018 594.595 287.587C594.153 289.156 592.954 290.379 591.829 291.559C590.705 292.74 589.564 294.047 589.296 295.656C588.923 297.893 590.313 300.325 589.337 302.372C588.394 304.353 585.709 304.908 584.524 306.755C583.534 308.297 583.85 310.337 584.497 312.051C585.144 313.766 586.094 315.402 586.307 317.223C586.518 319.043 585.684 321.184 583.915 321.661C581.865 322.215 580.026 320.361 578.682 318.716C577.612 317.406 576.174 315.975 574.514 316.301C572.919 316.614 572.118 318.351 571.411 319.813C570.703 321.275 569.418 322.878 567.825 322.555C567.096 322.407 566.509 321.869 565.809 321.615C564.229 321.041 562.446 322.078 561.533 323.49C560.62 324.902 560.335 326.614 559.9 328.239C559.382 330.178 558.591 332.11 557.172 333.532C555.753 334.953 553.601 335.77 551.681 335.18C550.007 334.666 548.769 333.179 548.141 331.544C547.511 329.91 547.406 328.127 547.355 326.376C547.227 321.905 547.431 317.319 549.1 313.17C551.129 308.121 555.126 304.164 559.018 300.361C562.682 296.781 566.385 293.171 570.74 290.473C575.63 287.443 581.177 285.666 586.658 283.92C589.056 283.155 591.992 282.497 592.814 283.561Z" fill="#7AB0CC"/>
<path d="M548.137 344.429C551.693 343.623 555.656 346.191 556.372 349.766C556.8 351.9 556.241 354.3 557.386 356.15C558.189 357.447 559.679 358.183 560.547 359.439C562.588 362.393 560.402 366.707 561.96 369.943C562.309 370.668 562.868 371.326 563.617 371.62C564.366 371.915 565.314 371.772 565.826 371.152C566.581 370.238 566.292 368.573 567.352 368.044C568.138 367.651 569.066 368.241 569.616 368.925C571.298 371.013 571.282 374.284 569.582 376.355C568.326 377.884 566.323 378.764 565.393 380.51C563.9 383.312 565.628 387.481 563.213 389.544C561.836 390.72 559.659 390.485 558.158 389.471C556.658 388.456 555.692 386.839 554.831 385.246C549.311 375.039 546.118 363.672 544.657 352.16C544.464 350.636 544.303 349.068 544.691 347.581C545.082 346.094 546.17 344.874 548.137 344.429Z" fill="#7AB0CC"/>
<path d="M604.008 417.718C607.096 410.721 599.844 402.623 602.093 395.313C602.686 393.387 603.919 391.659 604.194 389.662C604.424 387.986 603.954 386.301 603.815 384.614C603.676 382.928 603.982 381.016 605.334 379.997C606.864 378.845 609.013 379.306 610.884 379.72C612.755 380.135 615.028 380.325 616.278 378.873C617.235 377.761 617.243 376.016 618.311 375.011C620.902 372.576 625.687 377.17 628.455 374.939C630.049 373.653 629.624 371.047 630.784 369.359C632.486 366.887 636.309 367.662 639.086 366.522C641.319 365.606 642.865 363.227 642.796 360.814C642.736 358.731 641.597 356.772 641.649 354.689C641.784 349.273 649.445 346.437 649.699 341.025C649.757 339.789 649.256 338.393 648.105 337.939C646.438 337.281 644.834 338.888 643.574 340.16C641.757 341.996 639.503 343.464 636.982 344.037C634.463 344.61 631.669 344.212 629.594 342.67C628.292 341.702 627.333 340.35 626.152 339.236C624.971 338.122 623.401 337.21 621.799 337.472C617.408 338.19 617.474 346.11 613.082 346.822C611.464 347.084 609.89 346.157 608.655 345.078C607.42 343.999 606.321 342.711 604.844 341.997C603.369 341.283 601.322 341.357 600.384 342.703C599.536 343.921 599.888 345.701 599.002 346.894C598.059 348.165 596.072 348.179 594.685 347.415C593.299 346.652 592.333 345.326 591.286 344.139C590.239 342.952 588.948 341.812 587.373 341.653C584.816 341.396 582.692 343.943 582.372 346.493C582.053 349.043 583.003 351.558 583.801 354.001C584.599 356.445 585.254 359.129 584.37 361.542C583.089 365.042 578.766 367.55 579.369 371.228C579.72 373.365 581.684 374.827 583.581 375.873C585.478 376.92 587.584 377.893 588.679 379.762C589.774 381.631 589.051 384.683 586.901 384.949C585.501 385.122 584.138 384.064 582.754 384.338C580.679 384.749 580.347 387.84 581.63 389.521C582.912 391.202 585.038 391.949 586.846 393.046C588.653 394.143 590.352 396.107 589.819 398.154C589.008 401.279 584.018 401.521 582.895 404.548C581.964 407.059 584.315 409.53 586.558 410.991C591.817 414.42 597.884 416.599 604.008 417.718Z" fill="#7AB0CC"/>
<path d="M668.73 392.053C666.96 392.091 665.31 391.24 663.616 390.724C661.921 390.208 659.855 390.107 658.605 391.362C657.854 392.116 657.525 393.25 656.664 393.876C655.481 394.737 653.796 394.291 652.539 393.54C651.283 392.789 650.146 391.752 648.719 391.427C647.293 391.101 645.45 391.939 645.452 393.402C645.453 394.037 645.797 394.611 646.05 395.192C647.561 398.668 645.414 403.233 641.774 404.287C638.697 405.177 635.002 403.888 632.418 405.781C630.67 407.061 629.846 409.576 627.77 410.193C626.684 410.515 625.524 410.214 624.391 410.203C623.259 410.19 621.932 410.656 621.652 411.753C621.304 413.116 622.782 414.225 624.108 414.696C630.278 416.888 637.06 414.716 643.199 412.443C649.935 409.95 656.713 407.272 662.473 402.982C664.821 401.233 666.981 399.23 669.435 397.632C675.024 393.993 670.502 392.014 668.73 392.053Z" fill="#7AB0CC"/>
<path d="M598.515 291.505C598.224 292.517 597.321 293.207 596.528 293.899C595.735 294.592 594.948 295.497 595.03 296.546C595.125 297.761 596.339 298.573 597.504 298.93C598.669 299.287 599.945 299.402 600.945 300.098C601.811 300.7 602.42 301.707 603.43 302.01C604.406 302.303 605.539 301.755 605.984 300.838C606.43 299.922 606.198 298.744 605.492 298.009C604.694 297.179 603.323 296.769 603.073 295.645C602.882 294.788 603.468 293.968 603.639 293.107C603.889 291.836 603.088 290.442 601.865 290.017C600.644 289.592 598.918 290.103 598.515 291.505Z" fill="#7AB0CC"/>
<path d="M564.808 364.639C565.615 365.342 567.067 364.819 567.582 363.881C568.179 362.794 567.669 361.444 567.824 360.214C567.92 359.444 568.278 358.729 568.392 357.963C568.506 357.197 568.277 356.276 567.566 355.968C567.053 355.745 566.434 355.923 566.004 356.279C565.572 356.635 565.296 357.142 565.063 357.649C564.412 359.061 563.2 363.238 564.808 364.639Z" fill="#7AB0CC"/>
<path d="M632.693 285.147C634.117 286.818 636.238 287.924 638.432 287.847C640.293 287.782 642.116 286.972 643.96 287.216C645.807 287.46 647.559 289.649 646.404 291.11C645.966 291.665 645.248 291.916 644.714 292.381C642.956 293.909 643.997 297.004 645.941 298.286C647.885 299.568 650.335 299.73 652.556 300.43C654.778 301.13 657.071 302.832 657.022 305.161C656.984 306.974 655.509 308.451 653.921 309.326C652.332 310.202 650.54 310.694 649.032 311.703C647.525 312.712 646.298 314.495 646.721 316.259C647.14 318.004 648.916 318.99 650.361 320.057C651.806 321.123 653.149 323.006 652.295 324.585C651.521 326.018 649.246 326.456 649.049 328.073C648.886 329.413 650.448 330.397 651.794 330.315C653.141 330.233 654.344 329.488 655.622 329.053C658.709 328.001 662.439 328.966 664.455 331.53C666.47 334.093 666.459 338.113 664.265 340.525C663.07 341.839 661.408 342.608 659.821 343.409C658.235 344.21 656.619 345.136 655.654 346.627C654.689 348.118 654.614 350.333 655.947 351.508C656.896 352.344 658.284 352.458 659.541 352.318C661.912 352.052 664.188 351.012 665.939 349.392C667.537 347.915 668.827 345.899 670.914 345.284C673.173 344.617 675.784 345.812 677.888 344.75C680.076 343.646 680.527 340.731 680.387 338.282C680.247 335.835 679.848 333.156 681.214 331.12C682.082 329.826 683.541 329.017 684.393 327.712C685.758 325.623 685.237 322.858 684.478 320.481C682.832 315.323 680.292 310.454 677.005 306.151C673.997 302.214 670.394 298.78 666.806 295.362C663.875 292.57 660.94 289.775 657.78 287.245C652.537 283.046 646.691 279.603 640.479 277.051C638.494 276.235 636.314 275.501 634.238 276.042C632.165 276.583 628.977 280.787 632.693 285.147Z" fill="#7AB0CC"/>
<path d="M635.611 298.285C637.142 300.131 639.903 300.34 642.171 301.123C644.437 301.907 646.796 303.23 647.544 305.509C648.329 307.904 646.73 310.799 644.282 311.405C641.836 312.013 639.067 310.204 638.641 307.72C638.462 306.676 638.623 305.513 638.025 304.639C637.19 303.42 635.434 303.455 633.968 303.269C632.745 303.113 631.523 302.694 630.609 301.867C629.696 301.04 629.098 299.749 629.387 298.551C630.12 295.513 633.604 295.864 635.611 298.285Z" fill="#7AB0CC"/>
</g>
<path opacity="0.5" d="M579.006 400.717C590.201 409.053 604.073 413.981 619.102 413.981C656.241 413.981 686.347 383.876 686.347 346.736C686.347 316.849 666.841 291.514 639.863 282.765C656.303 295.031 666.95 314.635 666.95 336.721C666.95 373.86 636.844 403.966 599.706 403.966C592.477 403.966 585.528 402.822 579.006 400.717Z" fill="#9CD3E6"/>
<path d="M320.706 441.257H92.9607V468.988H320.706V441.257Z" fill="#995C88"/>
<path d="M300.661 441.257H291.515V468.988H300.661V441.257Z" fill="#734666"/>
<path d="M122.095 441.257H112.95V468.988H122.095V441.257Z" fill="#734666"/>
<path opacity="0.5" d="M306.238 441.256L92.9609 445.895V441.256H306.238Z" fill="#995C88"/>
<path d="M306.237 405.983H78.4917V441.26H306.237V405.983Z" fill="#B36B9F"/>
<path d="M107.418 405.983H98.272V441.26H107.418V405.983Z" fill="#8C557B"/>
<path d="M286.191 405.983H277.046V441.26H286.191V405.983Z" fill="#8C557B"/>
<path d="M249.329 415.692H135.457V431.55H249.329V415.692Z" fill="#8C557B"/>
<path opacity="0.5" d="M306.237 405.986V411.331L92.6692 405.986H306.237Z" fill="#CC7AB5"/>
<path d="M320.413 374.789H92.667V405.982H320.413V374.789Z" fill="#CC7AB5"/>
<path d="M275.483 374.789H266.338V405.982H275.483V374.789Z" fill="#A66593"/>
<path d="M293.773 374.789H286.191V405.982H293.773V374.789Z" fill="#A66593"/>
<path d="M147.429 374.789H138.283V405.982H147.429V374.789Z" fill="#A66593"/>
<path d="M127.575 374.789H119.993V405.982H127.575V374.789Z" fill="#A66593"/>
<path d="M126.943 256.963C126.245 257.036 125.521 257.073 124.819 257.073L125.695 253.41L126.943 256.963Z" fill="#FF71B4"/>
<path d="M133.593 339.356C133.594 339.369 133.594 339.369 133.594 339.38C133.688 341.19 132.279 342.739 130.469 342.833C128.647 342.926 127.099 341.53 127.004 339.709L126.663 333.096C128.858 333.2 131.055 333.087 133.228 332.757L133.593 339.356Z" fill="#FF71B4"/>
<path d="M133.228 332.756C131.055 333.086 128.859 333.199 126.663 333.095L126.479 329.535C128.664 329.677 130.873 329.563 133.032 329.209L133.228 332.756Z" fill="black"/>
<path d="M129.38 263.856L123.105 264.18L124.808 257.075L124.82 257.074C125.522 257.074 126.246 257.036 126.944 256.964L126.957 256.963L129.38 263.856Z" fill="#FFB266"/>
<path d="M133.033 329.211C130.873 329.565 128.665 329.679 126.48 329.538L123.105 264.181C123.624 264.154 123.607 263.816 124.126 263.789C124.644 263.762 124.662 264.1 125.193 264.073C125.712 264.046 125.695 263.708 126.213 263.682C126.732 263.655 126.75 263.992 127.281 263.965C127.8 263.938 127.783 263.6 128.301 263.573C128.832 263.546 128.849 263.884 129.38 263.857L133.033 329.211Z" fill="#FF71B4"/>
<path d="M121.515 272.516L108.722 274.025C107.546 274.16 106.692 275.237 106.84 276.411L112.915 328.139C112.993 328.705 113.269 329.216 113.731 329.579C114.009 329.801 114.344 329.947 114.682 330.011C114.891 330.037 115.099 330.05 115.315 330.02L128.109 328.525C128.675 328.447 129.186 328.171 129.549 327.709C129.899 327.263 130.068 326.691 130.004 326.123L123.918 274.409C123.768 273.223 122.705 272.38 121.515 272.516ZM115.804 279.011C115.424 279.049 115.067 278.948 114.776 278.726C114.497 278.49 114.3 278.16 114.264 277.794C114.214 277.43 114.329 277.071 114.55 276.781C114.784 276.488 115.102 276.306 115.482 276.269C115.616 276.251 115.742 276.261 115.882 276.282C116.458 276.382 116.935 276.852 117.006 277.473C117.056 277.837 116.956 278.208 116.721 278.5C116.486 278.78 116.168 278.961 115.804 279.011Z" fill="#895CCC"/>
<path d="M107.512 280.356C107.414 280.339 107.335 280.259 107.322 280.155C107.308 280.029 107.398 279.913 107.526 279.898L109.769 279.634C109.897 279.62 110.011 279.71 110.027 279.838C110.042 279.964 109.951 280.079 109.824 280.095L107.58 280.36C107.557 280.361 107.534 280.36 107.512 280.356Z" fill="white"/>
<path d="M107.699 281.935C107.6 281.918 107.521 281.838 107.509 281.734C107.494 281.606 107.585 281.492 107.712 281.476L109.956 281.212C110.083 281.197 110.198 281.288 110.212 281.415C110.227 281.542 110.137 281.657 110.009 281.673L107.765 281.937C107.743 281.94 107.72 281.938 107.699 281.935Z" fill="white"/>
<path d="M107.884 283.515C107.785 283.498 107.706 283.418 107.694 283.314C107.679 283.186 107.77 283.072 107.897 283.056L110.141 282.792C110.269 282.777 110.383 282.869 110.399 282.995C110.413 283.122 110.323 283.237 110.195 283.252L107.952 283.516C107.928 283.52 107.905 283.52 107.884 283.515Z" fill="white"/>
<path d="M108.069 285.094C107.971 285.077 107.892 284.997 107.879 284.893C107.865 284.766 107.955 284.651 108.083 284.635L111.54 284.229C111.668 284.214 111.782 284.304 111.798 284.432C111.812 284.559 111.722 284.674 111.594 284.688L108.137 285.095C108.114 285.099 108.092 285.097 108.069 285.094Z" fill="white"/>
<path d="M108.278 286.87C108.18 286.853 108.101 286.773 108.088 286.669C108.074 286.542 108.164 286.427 108.292 286.412L110.536 286.148C110.663 286.133 110.777 286.225 110.792 286.351C110.807 286.478 110.716 286.593 110.589 286.609L108.345 286.873C108.323 286.874 108.301 286.873 108.278 286.87Z" fill="white"/>
<path d="M108.465 288.45C108.367 288.433 108.287 288.353 108.275 288.249C108.26 288.121 108.351 288.007 108.477 287.991L110.721 287.728C110.85 287.714 110.963 287.804 110.979 287.931C110.993 288.058 110.903 288.173 110.775 288.188L108.531 288.452C108.509 288.454 108.486 288.453 108.465 288.45Z" fill="white"/>
<path d="M108.65 290.027C108.552 290.01 108.472 289.93 108.46 289.826C108.445 289.699 108.536 289.584 108.663 289.568L110.907 289.304C111.035 289.289 111.149 289.38 111.165 289.507C111.179 289.634 111.089 289.749 110.961 289.765L108.718 290.029C108.694 290.031 108.671 290.031 108.65 290.027Z" fill="white"/>
<path d="M108.836 291.606C108.738 291.589 108.659 291.509 108.647 291.405C108.632 291.278 108.722 291.163 108.85 291.147L112.307 290.74C112.435 290.726 112.549 290.816 112.565 290.944C112.579 291.07 112.489 291.185 112.361 291.2L108.904 291.607C108.88 291.61 108.858 291.609 108.836 291.606Z" fill="white"/>
<path d="M109.045 293.383C108.947 293.366 108.868 293.286 108.856 293.182C108.841 293.054 108.931 292.94 109.058 292.924L111.302 292.66C111.429 292.645 111.543 292.735 111.559 292.863C111.574 292.99 111.483 293.105 111.357 293.121L109.113 293.385C109.089 293.387 109.067 293.386 109.045 293.383Z" fill="white"/>
<path d="M109.23 294.963C109.132 294.946 109.053 294.866 109.041 294.762C109.026 294.635 109.116 294.52 109.244 294.504L111.488 294.24C111.615 294.225 111.73 294.316 111.744 294.443C111.759 294.57 111.668 294.685 111.541 294.701L109.297 294.965C109.274 294.967 109.252 294.967 109.23 294.963Z" fill="white"/>
<path d="M109.416 296.541C109.318 296.524 109.239 296.443 109.226 296.339C109.211 296.213 109.302 296.098 109.43 296.082L111.673 295.817C111.801 295.803 111.915 295.893 111.931 296.021C111.946 296.147 111.855 296.263 111.728 296.277L109.484 296.542C109.461 296.545 109.437 296.544 109.416 296.541Z" fill="white"/>
<path d="M109.603 298.119C109.504 298.102 109.425 298.022 109.413 297.918C109.398 297.792 109.488 297.677 109.616 297.661L113.073 297.254C113.2 297.239 113.315 297.33 113.331 297.457C113.345 297.584 113.255 297.699 113.127 297.715L109.669 298.122C109.647 298.124 109.624 298.124 109.603 298.119Z" fill="white"/>
<path d="M109.811 299.898C109.713 299.881 109.634 299.801 109.622 299.697C109.607 299.57 109.697 299.455 109.825 299.44L112.069 299.176C112.198 299.161 112.311 299.253 112.325 299.379C112.34 299.506 112.25 299.621 112.122 299.636L109.878 299.9C109.856 299.902 109.833 299.901 109.811 299.898Z" fill="white"/>
<path d="M109.997 301.476C109.898 301.459 109.819 301.379 109.807 301.275C109.792 301.149 109.882 301.033 110.01 301.019L112.254 300.754C112.382 300.738 112.496 300.83 112.511 300.958C112.526 301.085 112.436 301.199 112.309 301.215L110.065 301.48C110.041 301.481 110.018 301.481 109.997 301.476Z" fill="white"/>
<path d="M110.182 303.055C110.084 303.038 110.005 302.958 109.992 302.854C109.978 302.727 110.068 302.612 110.196 302.596L112.439 302.332C112.567 302.317 112.681 302.407 112.697 302.535C112.712 302.662 112.621 302.777 112.494 302.791L110.25 303.056C110.227 303.059 110.205 303.058 110.182 303.055Z" fill="white"/>
<path d="M110.368 304.634C110.27 304.617 110.191 304.536 110.178 304.432C110.164 304.306 110.254 304.191 110.382 304.175L113.839 303.768C113.965 303.753 114.081 303.844 114.096 303.972C114.111 304.098 114.021 304.213 113.893 304.228L110.436 304.635C110.412 304.638 110.39 304.638 110.368 304.634Z" fill="white"/>
<path d="M110.577 306.411C110.479 306.394 110.4 306.314 110.387 306.21C110.373 306.083 110.463 305.968 110.591 305.952L112.834 305.688C112.962 305.673 113.076 305.763 113.092 305.891C113.107 306.017 113.016 306.133 112.889 306.147L110.645 306.412C110.621 306.415 110.599 306.414 110.577 306.411Z" fill="white"/>
<path d="M110.763 307.988C110.664 307.971 110.585 307.891 110.573 307.787C110.558 307.661 110.649 307.545 110.776 307.53L113.02 307.265C113.148 307.251 113.262 307.341 113.276 307.469C113.291 307.595 113.201 307.71 113.073 307.726L110.829 307.991C110.807 307.993 110.784 307.992 110.763 307.988Z" fill="white"/>
<path d="M110.949 309.567C110.851 309.55 110.772 309.47 110.759 309.366C110.745 309.24 110.835 309.124 110.963 309.11L113.206 308.845C113.333 308.831 113.448 308.922 113.464 309.049C113.479 309.175 113.388 309.29 113.261 309.305L111.017 309.57C110.993 309.572 110.971 309.572 110.949 309.567Z" fill="white"/>
<path d="M111.134 311.147C111.036 311.13 110.957 311.05 110.944 310.946C110.93 310.82 111.02 310.704 111.148 310.689L114.605 310.282C114.731 310.267 114.847 310.358 114.863 310.485C114.877 310.612 114.787 310.727 114.659 310.742L111.202 311.148C111.178 311.153 111.156 311.152 111.134 311.147Z" fill="white"/>
<path d="M111.343 312.922C111.245 312.905 111.166 312.825 111.153 312.721C111.139 312.594 111.229 312.479 111.357 312.464L113.601 312.199C113.728 312.185 113.842 312.275 113.858 312.403C113.873 312.529 113.782 312.644 113.655 312.66L111.411 312.925C111.387 312.927 111.365 312.927 111.343 312.922Z" fill="white"/>
<path d="M111.529 314.503C111.43 314.486 111.351 314.406 111.339 314.302C111.324 314.176 111.415 314.06 111.542 314.046L113.786 313.781C113.914 313.767 114.028 313.858 114.044 313.985C114.058 314.111 113.968 314.226 113.84 314.241L111.597 314.506C111.574 314.508 111.55 314.507 111.529 314.503Z" fill="white"/>
<path d="M111.715 316.08C111.617 316.063 111.537 315.983 111.525 315.879C111.51 315.752 111.601 315.637 111.728 315.621L113.972 315.357C114.099 315.342 114.214 315.434 114.229 315.56C114.243 315.687 114.153 315.802 114.025 315.818L111.781 316.082C111.759 316.085 111.736 316.085 111.715 316.08Z" fill="white"/>
<path d="M111.9 317.66C111.802 317.644 111.723 317.563 111.711 317.459C111.696 317.333 111.786 317.218 111.913 317.203L115.37 316.796C115.496 316.78 115.612 316.872 115.628 317C115.642 317.126 115.552 317.241 115.424 317.256L111.967 317.663C111.944 317.665 111.922 317.664 111.9 317.66Z" fill="white"/>
<path d="M112.109 319.437C112.011 319.42 111.932 319.34 111.92 319.236C111.905 319.11 111.995 318.994 112.123 318.98L114.367 318.715C114.493 318.701 114.608 318.791 114.624 318.919C114.639 319.045 114.549 319.161 114.421 319.175L112.177 319.44C112.153 319.442 112.131 319.441 112.109 319.437Z" fill="white"/>
<path d="M112.294 321.016C112.196 320.999 112.117 320.919 112.105 320.815C112.09 320.688 112.18 320.573 112.308 320.557L114.552 320.293C114.678 320.278 114.793 320.369 114.809 320.496C114.824 320.623 114.734 320.738 114.606 320.754L112.362 321.018C112.34 321.021 112.316 321.019 112.294 321.016Z" fill="white"/>
<path d="M112.481 322.594C112.383 322.577 112.304 322.497 112.291 322.393C112.276 322.267 112.367 322.151 112.494 322.136L114.738 321.871C114.865 321.857 114.98 321.947 114.995 322.073C115.009 322.201 114.919 322.315 114.792 322.331L112.549 322.595C112.525 322.599 112.502 322.599 112.481 322.594Z" fill="white"/>
<path d="M112.666 324.174C112.568 324.157 112.489 324.077 112.477 323.973C112.462 323.846 112.552 323.731 112.68 323.716L116.137 323.31C116.264 323.295 116.379 323.385 116.395 323.513C116.409 323.64 116.319 323.755 116.191 323.771L112.734 324.177C112.711 324.178 112.688 324.177 112.666 324.174Z" fill="white"/>
<path d="M115.406 275.716C114.892 275.773 114.433 276.028 114.119 276.442C113.791 276.844 113.653 277.343 113.711 277.871C113.768 278.385 114.037 278.842 114.437 279.158C114.684 279.357 114.99 279.493 115.3 279.547C115.483 279.577 115.675 279.578 115.866 279.566C116.378 279.495 116.836 279.24 117.153 278.84C117.482 278.438 117.617 277.925 117.561 277.411C117.442 276.342 116.473 275.583 115.406 275.716ZM116.722 278.5C116.486 278.779 116.168 278.961 115.804 279.011C115.424 279.049 115.067 278.948 114.776 278.726C114.497 278.49 114.3 278.16 114.264 277.794C114.214 277.43 114.329 277.071 114.55 276.781C114.784 276.488 115.102 276.306 115.482 276.269C115.616 276.251 115.742 276.261 115.882 276.282C116.458 276.382 116.935 276.852 117.006 277.473C117.057 277.837 116.956 278.208 116.722 278.5Z" fill="#674599"/>
<path d="M158.31 271.775C157.861 271.361 157.375 271.01 156.856 270.704C156.084 270.248 155.23 269.919 154.321 269.744C149.168 268.754 144.043 273.01 142.869 279.236C141.693 285.474 145.326 291.412 150.479 292.403L148.579 302.477L154.125 303.542L159.441 275.361C159.693 273.983 159.207 272.596 158.31 271.775ZM150.852 288.262L150.827 288.258C147.239 287.569 145.105 283.171 146.491 278.794C147.57 275.414 150.616 273.267 153.512 273.802L153.585 273.817C155.033 274.105 155.884 275.852 155.553 277.606L154.07 285.469C153.74 287.225 152.313 288.533 150.852 288.262Z" fill="#CC683D"/>
<path d="M159.441 275.365L154.125 303.546L159.671 304.611L161.571 294.537C166.724 295.527 172.266 291.352 173.443 285.115C174.618 278.887 171.402 273.029 166.249 272.039C165.339 271.863 164.424 271.852 163.541 271.991C162.946 272.083 162.367 272.228 161.798 272.448C160.665 272.877 159.71 273.987 159.441 275.365ZM160.756 286.755L162.239 278.892C162.57 277.137 163.997 275.829 165.449 276.097L165.522 276.111C168.41 276.686 170.461 279.814 170.235 283.357C169.93 287.942 166.345 291.24 162.757 290.551L162.732 290.547C161.275 290.256 160.425 288.511 160.756 286.755Z" fill="#99593D"/>
<path d="M147.233 343.104C147.66 344.193 149.022 343.995 149.346 342.798L158.852 304.454L154.125 303.545L153.35 307.652L147.233 343.104Z" fill="#FFB266"/>
<path d="M149.398 302.636L143.094 340.191C142.73 342.691 144.805 344.669 146.727 343.496C147.335 343.125 147.862 342.494 148.166 341.606L155.745 312.622C156.031 311.531 155.793 310.38 155.129 309.639L153.348 307.652L154.123 303.546L149.398 302.636Z" fill="#FFCC99"/>
<path d="M153.449 313.623C153.108 314.452 152.16 314.846 151.332 314.504C150.504 314.162 150.111 313.213 150.452 312.386C150.793 311.558 151.742 311.165 152.569 311.506C153.396 311.847 153.792 312.795 153.449 313.623Z" fill="#E69545"/>
<path d="M132.19 260.316C131.492 260.388 130.768 260.425 130.066 260.425L130.942 256.763L132.19 260.316Z" fill="#004CA6"/>
<path d="M138.84 342.71C138.841 342.722 138.841 342.722 138.841 342.734C138.935 344.544 137.526 346.093 135.716 346.186C133.894 346.28 132.346 344.884 132.252 343.061L131.911 336.449C134.106 336.553 136.303 336.44 138.476 336.11L138.84 342.71Z" fill="#004CA6"/>
<path d="M138.475 336.111C136.303 336.441 134.107 336.554 131.91 336.45L131.726 332.89C133.911 333.032 136.12 332.918 138.28 332.564L138.475 336.111Z" fill="black"/>
<path d="M134.627 267.208L128.353 267.532L130.055 260.427H130.068C130.769 260.427 131.493 260.39 132.192 260.317H132.204L134.627 267.208Z" fill="#FFB266"/>
<path d="M138.28 332.564C136.12 332.918 133.912 333.032 131.726 332.89L128.353 267.533C128.871 267.505 128.854 267.168 129.373 267.142C129.891 267.115 129.909 267.452 130.44 267.425C130.959 267.398 130.942 267.06 131.461 267.033C131.979 267.006 131.997 267.344 132.528 267.317C133.047 267.29 133.03 266.952 133.548 266.926C134.079 266.899 134.097 267.237 134.627 267.209L138.28 332.564Z" fill="#004CA6"/>
<path d="M137.437 253.077C136.739 253.149 136.015 253.186 135.313 253.186L136.189 249.523L137.437 253.077Z" fill="#FFDE5F"/>
<path d="M144.087 335.47C144.088 335.482 144.088 335.482 144.088 335.493C144.182 337.303 142.773 338.852 140.963 338.946C139.141 339.04 137.593 337.643 137.498 335.822L137.157 329.21C139.352 329.313 141.548 329.201 143.722 328.871L144.087 335.47Z" fill="#FFDE5F"/>
<path d="M143.722 328.872C141.549 329.202 139.353 329.315 137.157 329.211L136.973 325.651C139.158 325.792 141.366 325.678 143.527 325.325L143.722 328.872Z" fill="black"/>
<path d="M139.874 259.97L133.599 260.294L135.302 253.189H135.314C136.016 253.189 136.74 253.152 137.438 253.079L137.451 253.078L139.874 259.97Z" fill="#FFB266"/>
<path d="M143.527 325.323C141.366 325.677 139.159 325.791 136.973 325.65L133.599 260.292C134.118 260.265 134.101 259.927 134.619 259.9C135.138 259.873 135.156 260.211 135.687 260.184C136.206 260.156 136.189 259.819 136.707 259.793C137.226 259.766 137.244 260.103 137.775 260.076C138.293 260.049 138.276 259.711 138.795 259.684C139.326 259.657 139.343 259.995 139.874 259.968L143.527 325.323Z" fill="#FFDE5F"/>
<path d="M144.626 255.068C143.924 255.082 143.2 255.06 142.5 255.001L143.676 251.423L144.626 255.068Z" fill="#8C007E"/>
<path d="M144.428 337.729C144.428 337.742 144.428 337.742 144.427 337.753C144.37 339.565 142.838 340.992 141.026 340.934C139.203 340.877 137.775 339.357 137.832 337.534L138.04 330.916C140.219 331.201 142.418 331.27 144.611 331.121L144.428 337.729Z" fill="#8C007E"/>
<path d="M144.61 331.121C142.417 331.27 140.218 331.201 138.039 330.915L138.151 327.352C140.317 327.674 142.528 327.743 144.709 327.57L144.61 331.121Z" fill="black"/>
<path d="M146.483 262.139L140.203 261.942L142.487 255.002H142.499C143.199 255.061 143.923 255.083 144.626 255.069H144.638L146.483 262.139Z" fill="#FFB266"/>
<path d="M144.709 327.57C142.528 327.744 140.318 327.674 138.151 327.352L140.201 261.94C140.721 261.957 140.731 261.618 141.251 261.635C141.771 261.651 141.759 261.99 142.292 262.006C142.811 262.022 142.821 261.684 143.341 261.7C143.861 261.716 143.849 262.055 144.382 262.071C144.901 262.087 144.911 261.749 145.431 261.766C145.962 261.783 145.952 262.121 146.483 262.138L144.709 327.57Z" fill="#8C007E"/>
<path d="M147.353 374.787H119.899C118.552 374.787 117.424 373.768 117.287 372.428L111.692 317.751C126.854 318.418 141.523 318.477 155.561 317.751L149.965 372.428C149.828 373.769 148.699 374.787 147.353 374.787Z" fill="#A39DF2"/>
<path opacity="0.3" d="M150.095 371.253L149.97 372.428C149.823 373.773 148.694 374.79 147.349 374.79H119.896C118.551 374.79 117.421 373.773 117.286 372.428L111.693 317.758C112.12 320.383 115.061 346.377 125.285 360.036C133.895 371.538 150.095 371.253 150.095 371.253Z" fill="#A39DF2"/>
<path d="M192.266 374.728L206.451 362.401L195.876 355.094L189.364 372.723C188.711 374.49 190.844 375.964 192.266 374.728Z" fill="#7098A6"/>
<path opacity="0.5" d="M195.874 355.087L206.449 362.397L200.088 367.933C197.523 366.555 195.128 364.905 192.948 363.007L195.874 355.087Z" fill="#7098A6"/>
<path d="M245.002 374.728L230.818 362.401L241.393 355.094L247.905 372.723C248.558 374.49 246.425 375.964 245.002 374.728Z" fill="#7098A6"/>
<path opacity="0.5" d="M244.319 363.007C242.15 364.894 239.754 366.555 237.19 367.933L230.818 362.397L241.393 355.087L244.319 363.007Z" fill="#7098A6"/>
<path d="M240.722 301.648L237.185 299.636L246.316 283.581C246.872 282.604 248.113 282.263 249.091 282.818C250.068 283.374 250.409 284.616 249.853 285.593L240.722 301.648Z" fill="#7098A6"/>
<path d="M251.392 300.927C245.462 296.586 239.115 292.977 232.352 290.098C231.76 289.846 231.544 289.113 231.917 288.588C235.481 283.579 242.339 281.987 247.798 285.092C253.257 288.196 255.394 294.904 252.912 300.528C252.651 301.118 251.911 301.306 251.392 300.927Z" fill="#8ABBCC"/>
<path d="M197.895 301.648L201.432 299.636L192.302 283.581C191.746 282.604 190.504 282.263 189.527 282.818C188.55 283.374 188.208 284.616 188.764 285.593L197.895 301.648Z" fill="#7098A6"/>
<path d="M187.226 300.927C193.158 296.586 199.504 292.977 206.267 290.098C206.859 289.846 207.074 289.113 206.702 288.588C203.137 283.579 196.279 281.987 190.82 285.092C185.361 288.196 183.225 294.904 185.707 300.528C185.967 301.118 186.707 301.306 187.226 300.927Z" fill="#8ABBCC"/>
<path d="M218.634 369.82C240.276 369.82 257.821 352.275 257.821 330.633C257.821 308.991 240.276 291.447 218.634 291.447C196.992 291.447 179.448 308.991 179.448 330.633C179.448 352.275 196.992 369.82 218.634 369.82Z" fill="#8ABBCC"/>
<path d="M247.211 337.458C250.984 321.663 241.238 305.801 225.443 302.028C209.648 298.256 193.785 308.002 190.013 323.796C186.24 339.591 195.986 355.454 211.781 359.226C227.576 362.999 243.439 353.253 247.211 337.458Z" fill="white"/>
<mask id="mask1_51_3268" style="mask-type:luminance" maskUnits="userSpaceOnUse" x="189" y="301" width="60" height="60">
<path d="M247.211 337.459C250.984 321.664 241.238 305.802 225.443 302.029C209.648 298.257 193.785 308.003 190.013 323.797C186.24 339.592 195.986 355.455 211.781 359.227C227.576 363 243.439 353.254 247.211 337.459Z" fill="white"/>
</mask>
<g mask="url(#mask1_51_3268)">
<path d="M218.663 305.988C218.284 305.988 217.977 305.682 217.975 305.303L217.946 300.591C217.944 300.211 218.25 299.901 218.631 299.898C218.995 299.887 219.321 300.202 219.323 300.583L219.352 305.296C219.354 305.676 219.048 305.987 218.667 305.989C218.667 305.989 218.665 305.988 218.663 305.988Z" fill="#3E6573"/>
<path d="M218.621 361.404H218.616C218.237 361.402 217.929 361.092 217.932 360.711L217.96 355.999C217.962 355.62 218.26 355.337 218.652 355.314C219.033 355.317 219.339 355.626 219.337 356.007L219.309 360.719C219.307 361.098 218.999 361.404 218.621 361.404Z" fill="#3E6573"/>
<path d="M243.994 331.36C243.615 331.36 243.308 331.053 243.306 330.675C243.303 330.295 243.611 329.985 243.99 329.982L248.703 329.954C248.703 329.954 248.705 329.954 248.707 329.954C249.086 329.954 249.393 330.26 249.395 330.639C249.397 331.018 249.091 331.329 248.711 331.331L243.998 331.36C243.996 331.36 243.994 331.36 243.994 331.36Z" fill="#3E6573"/>
<path d="M193.29 331.346C193.29 331.346 193.288 331.346 193.286 331.346L188.573 331.318C188.194 331.316 187.886 331.006 187.889 330.626C187.891 330.247 188.198 329.941 188.577 329.941C188.577 329.941 188.579 329.941 188.581 329.941L193.294 329.969C193.673 329.971 193.98 330.282 193.978 330.662C193.976 331.04 193.669 331.346 193.29 331.346Z" fill="#3E6573"/>
</g>
<path opacity="0.3" d="M248.036 330.628C248.036 331.001 248.024 331.374 248.013 331.735C247.437 316.008 234.495 301.974 218.633 301.974C202.76 301.974 189.829 316.008 189.253 331.735C189.242 331.374 189.23 331.001 189.23 330.628C189.23 314.393 202.392 301.231 218.639 301.231C234.874 301.231 248.036 314.393 248.036 330.628Z" fill="#8ABBCC"/>
<path d="M217.55 329.874V311.119C217.55 310.52 218.036 310.035 218.634 310.035C219.233 310.035 219.719 310.52 219.719 311.119V329.874H217.55Z" fill="#70B4CC"/>
<path d="M206.26 329.548H218.634V331.717H206.26C205.661 331.717 205.175 331.231 205.175 330.632C205.175 330.034 205.661 329.549 206.26 329.548Z" fill="#70B4CC"/>
<path d="M215.473 330.632C215.473 328.887 216.889 327.471 218.634 327.471C220.381 327.471 221.795 328.887 221.795 330.632C221.795 332.378 220.38 333.793 218.634 333.793C216.889 333.795 215.473 332.379 215.473 330.632Z" fill="#70B4CC"/>
<path d="M222.854 287.473H214.48C213.802 287.473 213.252 288.023 213.252 288.701C213.252 289.379 213.801 289.929 214.48 289.929H217.439V293.229C217.439 293.72 217.837 294.116 218.326 294.116H219.008C219.498 294.116 219.895 293.72 219.895 293.229V289.929H222.854C223.532 289.929 224.082 289.379 224.082 288.701C224.082 288.023 223.532 287.473 222.854 287.473Z" fill="#8ABBCC"/>
<path d="M219.894 289.929H217.439V290.38H219.894V289.929Z" fill="#9CD3E6"/>
</svg>
