<svg width="86" height="66" viewBox="0 0 86 66" fill="none" xmlns="http://www.w3.org/2000/svg">
<g opacity="0.2">
<path d="M6.05291 52.5013C4.24812 50.6495 2.55623 48.7045 1.16965 46.5039C-0.134251 44.4352 -0.352098 42.2796 0.53678 39.9939C2.26683 35.5445 4.48028 31.354 7.09762 27.3788C7.35522 26.9882 7.43791 26.649 7.30275 26.1941C5.81439 21.2175 6.12924 16.2699 7.51741 11.3254C8.19003 8.93196 9.31584 6.88088 11.3496 5.41009C13.4899 3.86213 15.8926 3.48117 18.4527 3.76569C22.7158 4.23827 26.8596 5.14165 30.6728 7.22487C31.0274 7.41937 31.3438 7.31167 31.6618 7.20719C36.0426 5.76854 40.5379 5.21077 45.1286 5.46474C46.3418 5.53225 47.5567 5.6721 48.7588 5.86017C49.2486 5.93732 49.5968 5.86177 49.9943 5.57244C53.8615 2.75783 58.2025 1.03306 62.8552 0.163446C66.8846 -0.590437 70.6611 1.30793 72.5947 4.94233C75.0006 9.46402 76.3267 14.2831 75.829 19.4397C75.6796 20.9957 76.0978 21.9923 77.0852 23.095C79.9888 26.334 82.5123 29.8703 84.6463 33.6815C85.7355 35.6265 85.85 37.6342 85.0549 39.7045C83.4966 43.7649 81.2068 47.372 78.4098 50.664C78.3239 50.7636 78.2492 50.8745 78.1697 50.979C77.9757 51.143 77.7642 51.0931 77.575 50.9935C76.3092 50.3248 75.0896 49.587 74.0513 48.5791C73.8907 48.4232 73.7889 48.2464 73.8271 48.0117C74.1658 47.2048 74.8257 46.6374 75.3409 45.9622C77.1234 43.6186 78.6817 41.148 79.8489 38.4218C80.275 37.4284 80.2162 36.6038 79.6676 35.7053C78.0504 33.0578 76.2981 30.5101 74.328 28.1182C73.04 26.5558 71.7392 25.003 70.3081 23.5692C69.9535 23.2123 69.8438 22.8362 69.9774 22.3363C71.3226 17.3163 70.3908 12.5776 68.1869 8.01251C67.2901 6.15272 65.6252 4.9584 63.1446 5.57404C59.7211 6.42277 56.4614 7.63798 53.5212 9.64083C52.9058 10.0604 52.2921 10.4896 51.7959 11.0538C51.2744 11.6469 50.6654 11.7482 49.926 11.5714C47.7014 11.0361 45.4434 10.8416 43.1536 10.8239C39.1004 10.7934 35.1998 11.5408 31.4312 13.0132C30.7141 13.2929 30.1671 13.2527 29.5167 12.8107C26.6164 10.8464 23.3328 9.92374 19.9235 9.40776C18.9313 9.25827 17.9423 9.05252 16.9278 9.06537C15.061 9.08949 13.5615 10.062 12.9636 11.851C11.3448 16.6862 10.9934 21.5406 13.0288 26.3597C13.3818 27.1955 13.3182 27.8257 12.7791 28.5715C9.92327 32.5226 7.62077 36.7935 5.72853 41.2975C5.27375 42.3793 5.33895 43.2746 6.02906 44.2118C7.12306 45.6986 8.28226 47.118 9.60842 48.3991C9.90896 48.6884 10.2699 48.9537 10.3097 49.4327C10.2413 49.9599 9.84217 50.2573 9.4828 50.5482C8.62096 51.2442 7.68279 51.831 6.74302 52.4112C6.54744 52.5318 6.31369 52.7633 6.04814 52.5013H6.05291Z" fill="#ED7524"/>
<path d="M6.05408 52.501C7.6617 51.7568 9.11825 50.7988 10.2965 49.4437C10.3601 49.037 10.6718 48.8072 10.931 48.5452C14.4149 45.0088 16.3517 40.7363 16.8224 35.7854C17.0816 33.0656 17.3026 30.3459 18.3664 27.7852C20.1966 23.3793 23.4134 20.6836 28.0423 19.6983C32.5805 18.7322 36.1392 20.3734 38.9982 23.8776C39.9125 24.998 40.6233 26.255 41.2864 27.5393C41.4057 27.7708 41.4947 28.0891 41.7984 28.0987C42.1689 28.1116 42.2166 27.7402 42.3295 27.4847C43.0689 25.8129 43.9689 24.2393 45.1663 22.8569C47.5499 20.105 50.5091 18.7483 54.1712 19.065C57.2926 19.335 60.0546 20.4682 62.3078 22.6624C64.4672 24.7649 65.6725 27.4284 66.3499 30.3587C66.7967 32.2941 66.8508 34.2873 67.2499 36.2275C68.1102 40.4052 70.031 44.0042 72.9855 47.047C73.2971 47.3685 73.6883 47.6257 73.8553 48.0742C75.0908 49.3489 76.5108 50.3455 78.1709 50.9756C78.3903 51.1138 78.6209 51.2392 78.8292 51.3951C79.4398 51.8516 79.6338 52.6521 79.3046 53.3015C78.9612 53.9831 78.1693 54.303 77.4362 54.0136C76.9274 53.8127 76.4424 53.5491 75.9463 53.3128C74.8189 52.9479 73.9634 52.1362 73.0157 51.4803C72.518 51.1363 72.0743 50.7104 71.5766 50.3599C66.8412 46.1147 64.243 40.7684 63.5402 34.4416C63.3271 32.5239 63.0409 30.6207 62.3126 28.814C60.7081 24.8308 57.6996 22.7444 53.5415 22.4454C50.9782 22.2605 48.9603 23.5256 47.3956 25.5413C45.7085 27.7145 44.764 30.2301 44.1136 32.876C43.9228 33.6556 43.7559 34.44 43.6207 35.2325C43.4474 36.2467 42.8241 36.8335 41.9447 36.8527C41.067 36.872 40.4516 36.3544 40.221 35.2839C39.7949 33.3148 39.2495 31.3859 38.4274 29.5502C37.5592 27.61 36.4795 25.8081 34.7908 24.4579C33.0925 23.0996 31.1828 22.6206 29.0488 23.016C24.6903 23.8262 22.1095 26.5138 20.9615 30.7558C20.3763 32.9162 20.4129 35.1569 20.079 37.3478C19.2378 42.8758 16.878 47.6209 12.8566 51.4932C11.6799 52.4834 10.535 53.5185 9.21047 54.3158C8.98786 54.4492 8.81135 54.6791 8.514 54.655C8.21188 54.8077 7.90817 54.9524 7.61081 55.1115C6.56292 55.6725 5.76786 55.5519 5.27015 54.7482C4.7963 53.9831 5.09047 53.1376 6.05249 52.4978L6.05408 52.501Z" fill="#ED7524"/>
<path d="M71.6828 50.2698C73.1044 51.2857 74.526 52.3016 75.9475 53.3175C69.312 59.7198 61.3614 63.4539 52.3947 65.0517C46.3888 66.1222 40.3447 66.1978 34.2848 65.4648C26.8303 64.563 19.8369 62.303 13.4287 58.3101C11.6955 57.2299 9.99725 56.0887 8.51367 54.6613C9.90662 53.5988 11.2996 52.5379 12.6925 51.4753C13.0423 51.4577 13.2856 51.6795 13.5385 51.8676C19.697 56.4503 26.6554 58.9724 34.175 60.0188C37.3219 60.456 40.4958 60.6602 43.6713 60.5332C49.6899 60.2921 55.5654 59.2987 61.126 56.8329C64.5877 55.2978 67.8172 53.3769 70.6636 50.8388C70.9577 50.5768 71.2392 50.2746 71.6796 50.2714L71.6828 50.2698Z" fill="#ED7524"/>
<path d="M73.8554 48.0778C70.8198 45.4883 68.821 42.2155 67.5855 38.4268C66.9177 36.3774 66.7889 34.2379 66.4645 32.1289C65.8221 27.9609 64.3671 24.1625 60.7798 21.6903C57.0494 19.12 52.9755 18.2408 48.706 20.2967C45.7388 21.7241 44.0167 24.3635 42.6397 27.2649C42.4346 27.6973 42.4457 28.3965 41.8335 28.4303C41.1434 28.4688 41.1418 27.7117 40.9144 27.2761C39.884 25.291 38.666 23.4537 36.9311 22.0279C33.4408 19.1586 29.588 19.0397 25.5777 20.6664C21.0458 22.5053 18.7258 26.1509 17.6525 30.7867C17.1564 32.9343 17.2423 35.1509 16.8543 37.3081C15.994 42.0821 13.9125 46.1891 10.295 49.4425C8.6063 47.7387 6.97007 45.9946 5.64232 43.9725C5.14461 43.2154 5.02853 42.5322 5.38313 41.6529C7.31831 36.8451 9.80049 32.3492 12.809 28.1522C13.1652 27.6555 13.2161 27.2874 12.9585 26.72C11.2507 22.9521 11.0821 19.0204 11.8899 15.0179C12.1062 13.9473 12.4194 12.8929 12.7406 11.848C13.2844 10.0847 14.8841 8.78911 16.6555 8.88074C21.3909 9.12667 25.9466 10.0751 29.9505 12.8495C30.3003 13.0922 30.5913 13.1276 30.9698 12.9716C36.1043 10.8514 41.4407 10.2036 46.933 10.8177C48.0874 10.9463 49.226 11.2179 50.3677 11.4414C50.7255 11.5121 51.0037 11.4976 51.2995 11.2131C54.3398 8.28438 58.0893 6.73804 62.0598 5.63856C63.0775 5.35726 64.092 5.0422 65.1813 5.26081C66.4279 5.50997 67.4281 6.15615 68.0117 7.2701C70.5368 12.0843 71.6674 17.1188 70.1249 22.5117C69.9786 23.0229 70.2474 23.2463 70.5257 23.5308C74.1082 27.207 77.2296 31.2432 79.8835 35.6572C80.4576 36.6104 80.4941 37.4367 80.0648 38.4349C78.6241 41.7783 76.6794 44.7858 74.3133 47.5265C74.1575 47.7081 74.0048 47.893 73.8522 48.0762L73.8554 48.0778Z" fill="#F9F6FC"/>
<path d="M71.6817 50.2701C67.1435 54.3642 61.9279 57.1997 56.0826 58.8779C50.9974 60.3374 45.8025 60.8454 40.536 60.7296C34.2662 60.5914 28.1792 59.5016 22.3498 57.0985C18.877 55.6663 15.6474 53.8129 12.6914 51.4757C14.4135 49.6529 15.9798 47.7143 17.1819 45.4896C19.1091 41.9228 19.9646 38.0842 20.2143 34.056C20.4003 31.071 21.127 28.2114 23.2053 25.953C25.5555 23.3988 28.4988 22.2688 31.943 22.8523C34.0738 23.2139 35.5892 24.6092 36.8199 26.3179C38.7074 28.938 39.7155 31.9358 40.3818 35.0671C40.6139 36.1585 41.0894 36.6697 41.9401 36.6649C42.7845 36.6584 43.2424 36.1505 43.4444 35.0333C43.9786 32.0725 44.7928 29.208 46.3781 26.6233C49.5568 21.4393 55.6358 20.6887 60.0039 24.9339C62.0408 26.9142 63.0108 29.4315 63.4274 32.1769C63.8536 34.9739 64.1032 37.7933 65.105 40.4777C66.5234 44.2809 68.7352 47.5246 71.6801 50.2733L71.6817 50.2701Z" fill="#F9F6FC"/>
<path d="M42.2407 41.9485C43.5271 41.9742 44.5495 42.2041 45.4304 42.8679C46.4004 43.5993 46.5133 44.5702 45.7278 45.4961C45.4018 45.8803 45.0393 46.2387 44.6624 46.5731C43.9628 47.1935 43.931 48.4055 44.6195 49.1626C45.2285 49.8345 46.3511 49.8474 47.0492 49.1867C47.523 48.7366 47.76 48.1323 48.0732 47.5761C48.2243 47.3076 48.342 46.946 48.7236 46.9444C49.1513 46.9428 49.3803 47.2964 49.5489 47.6163C49.8033 48.1001 49.8335 48.6354 49.7063 49.1787C49.0289 52.0897 45.6165 53.3451 43.2281 51.5223C42.7686 51.1703 42.5841 51.196 42.1707 51.585C39.9429 53.6779 36.3254 52.7166 35.4031 49.8217C35.2075 49.2076 35.2219 48.6097 35.5621 48.0471C35.8134 47.634 36.1171 47.5664 36.4463 47.9587C36.8231 48.4071 37.1618 48.891 37.5673 49.3105C38.251 50.0194 39.1208 50.2058 39.8841 49.8667C40.7253 49.4921 40.8398 48.7415 40.8875 47.9345C40.9129 47.4957 40.7412 47.2369 40.3739 47.0376C39.7394 46.6936 39.1892 46.2291 38.701 45.697C38.0427 44.9801 38.038 44.1105 38.701 43.3984C39.7155 42.3069 41.0369 42.0112 42.2422 41.9501L42.2407 41.9485Z" fill="#ED7524"/>
<path d="M34.2171 32.5096C34.2203 34.0592 33.8816 35.2712 32.9562 36.2565C31.7238 37.5698 29.9779 37.6421 28.6167 36.4607C26.6673 34.7664 26.2729 31.3056 27.7946 29.216C29.0508 27.4896 31.1705 27.3032 32.6811 28.8109C33.7544 29.8831 34.1949 31.2269 34.2171 32.5112V32.5096Z" fill="#ED7524"/>
<path d="M52.443 32.4532C53.4369 32.6525 54.3878 32.7184 55.2575 33.1202C55.9381 33.4353 56.5885 33.7905 56.9272 34.5139C57.0242 34.7212 57.188 34.9543 57.0194 35.189C56.8254 35.4591 56.5583 35.3562 56.2975 35.2854C54.9459 34.9254 53.5991 34.5525 52.1791 34.5573C51.2981 34.5605 50.4458 34.6955 49.6031 34.9318C48.8032 35.1569 48.3835 34.7936 48.5297 33.9722C48.5695 33.7439 48.6554 33.4916 48.7985 33.3164C50.1183 31.7105 51.6353 30.3764 53.6976 29.8331C53.8757 29.7864 54.0586 29.7495 54.2415 29.743C54.5197 29.7334 54.8711 29.6177 55.0063 29.9777C55.1558 30.3764 54.8346 30.5419 54.5499 30.6995C53.7581 31.1351 53.0648 31.688 52.443 32.4483V32.4532Z" fill="#ED7524"/>
<path d="M32.7466 31.5292C32.7418 32.5178 32.1391 33.2829 31.3711 33.2733C30.5585 33.262 29.8812 32.3603 29.9018 31.3138C29.9193 30.3638 30.4965 29.6244 31.2328 29.6068C32.0453 29.5875 32.7513 30.486 32.7466 31.5292Z" fill="#FEFCFE"/>
</g>
</svg>
