<svg width="76" height="76" viewBox="0 0 76 76" fill="none" xmlns="http://www.w3.org/2000/svg">
<path d="M38 66.5C53.7401 66.5 66.5 53.7401 66.5 38C66.5 22.2599 53.7401 9.5 38 9.5C22.2599 9.5 9.5 22.2599 9.5 38C9.5 53.7401 22.2599 66.5 38 66.5Z" stroke="#F5512B" stroke-width="5" stroke-linecap="round" stroke-linejoin="round"/>
<path d="M38 49.875C44.5584 49.875 49.875 44.5584 49.875 38C49.875 31.4416 44.5584 26.125 38 26.125C31.4416 26.125 26.125 31.4416 26.125 38C26.125 44.5584 31.4416 49.875 38 49.875Z" stroke="#F5512B" stroke-width="5" stroke-linecap="round" stroke-linejoin="round"/>
<path d="M29.599 29.5988L17.8428 17.8425" stroke="#F5512B" stroke-width="5" stroke-linecap="round" stroke-linejoin="round"/>
<path d="M46.4019 29.5988L58.1581 17.8425" stroke="#F5512B" stroke-width="5" stroke-linecap="round" stroke-linejoin="round"/>
<path d="M46.4019 46.4009L58.1581 58.1571" stroke="#F5512B" stroke-width="5" stroke-linecap="round" stroke-linejoin="round"/>
<path d="M29.599 46.4009L17.8428 58.1571" stroke="#F5512B" stroke-width="5" stroke-linecap="round" stroke-linejoin="round"/>
</svg>
