<svg width="20" height="20" viewBox="0 0 20 20" fill="none" xmlns="http://www.w3.org/2000/svg">
<g clip-path="url(#clip0_40_2012)">
<path d="M12.843 11.3546C12.9295 11.297 13.0291 11.2619 13.1326 11.2525C13.2362 11.2431 13.3404 11.2597 13.4359 11.3007L17.1203 12.9515C17.2445 13.0046 17.3481 13.0964 17.4157 13.2133C17.4833 13.3302 17.5112 13.4658 17.4953 13.5999C17.3739 14.507 16.9273 15.3391 16.2383 15.9415C15.5494 16.5439 14.6652 16.8756 13.75 16.8749C10.9321 16.8749 8.22957 15.7555 6.23699 13.7629C4.24442 11.7704 3.125 9.06785 3.125 6.24992C3.1243 5.33477 3.456 4.45051 4.05841 3.76159C4.66082 3.07267 5.49293 2.62599 6.4 2.50461C6.53409 2.48868 6.66973 2.5166 6.78662 2.5842C6.90351 2.6518 6.99537 2.75544 7.04844 2.87961L8.69922 6.56711C8.73978 6.66182 8.7563 6.76509 8.7473 6.86772C8.7383 6.97036 8.70407 7.06918 8.64766 7.15539L6.97813 9.14055C6.9189 9.22991 6.88388 9.33311 6.87649 9.44006C6.86909 9.547 6.88958 9.65404 6.93594 9.7507C7.58203 11.0734 8.94922 12.4241 10.2758 13.064C10.373 13.1101 10.4805 13.1302 10.5878 13.1221C10.695 13.114 10.7983 13.0781 10.8875 13.0179L12.843 11.3546Z" stroke="#F9F6FC" stroke-width="2" stroke-linecap="round" stroke-linejoin="round"/>
</g>
<defs>
<clipPath id="clip0_40_2012">
<rect width="20" height="20" fill="white"/>
</clipPath>
</defs>
</svg>
