<svg width="29" height="29" viewBox="0 0 29 29" fill="none" xmlns="http://www.w3.org/2000/svg">
<path d="M23 22H8.725L5.2375 2.825C5.1967 2.59537 5.07691 2.38722 4.89887 2.23657C4.72082 2.08592 4.49572 2.00223 4.2625 2H2" stroke="#CC833D" stroke-width="2.5" stroke-linecap="round" stroke-linejoin="round"/>
<path d="M10 27C11.3807 27 12.5 25.8807 12.5 24.5C12.5 23.1193 11.3807 22 10 22C8.61929 22 7.5 23.1193 7.5 24.5C7.5 25.8807 8.61929 27 10 27Z" stroke="#CC833D" stroke-width="2.5" stroke-linecap="round" stroke-linejoin="round"/>
<path d="M23 27C24.3807 27 25.5 25.8807 25.5 24.5C25.5 23.1193 24.3807 22 23 22C21.6193 22 20.5 23.1193 20.5 24.5C20.5 25.8807 21.6193 27 23 27Z" stroke="#CC833D" stroke-width="2.5" stroke-linecap="round" stroke-linejoin="round"/>
<path d="M7.8125 17H23.5125C23.98 17.0014 24.433 16.838 24.7919 16.5386C25.1508 16.2391 25.3927 15.8227 25.475 15.3625L27 7H6" stroke="#CC833D" stroke-width="2.5" stroke-linecap="round" stroke-linejoin="round"/>
</svg>
