<svg width="30" height="30" viewBox="0 0 30 30" fill="none" xmlns="http://www.w3.org/2000/svg">
<path fill-rule="evenodd" clip-rule="evenodd" d="M29.4002 15.3406C29.4002 14.277 29.3048 13.2543 29.1275 12.2725H15.0002V18.0747H23.073C22.7252 19.9497 21.6684 21.5384 20.0798 22.602V26.3656H24.9275C27.7639 23.7543 29.4002 19.9088 29.4002 15.3406Z" fill="#4285F4"/>
<path fill-rule="evenodd" clip-rule="evenodd" d="M14.9973 30.0001C19.0473 30.0001 22.4428 28.6569 24.9246 26.366L20.0769 22.6024C18.7337 23.5024 17.0155 24.0342 14.9973 24.0342C11.0905 24.0342 7.78368 21.3956 6.60414 17.8501H1.59277V21.7365C4.06096 26.6387 9.13368 30.0001 14.9973 30.0001Z" fill="#34A853"/>
<path fill-rule="evenodd" clip-rule="evenodd" d="M6.60682 17.85C6.30682 16.95 6.13636 15.9887 6.13636 15C6.13636 14.0114 6.30682 13.05 6.60682 12.15V8.26367H1.59545C0.579545 10.2887 0 12.5796 0 15C0 17.4205 0.579545 19.7114 1.59545 21.7364L6.60682 17.85Z" fill="#FBBC05"/>
<path fill-rule="evenodd" clip-rule="evenodd" d="M14.9973 5.96591C17.1996 5.96591 19.1769 6.72273 20.7314 8.20909L25.0337 3.90682C22.436 1.48636 19.0405 0 14.9973 0C9.13368 0 4.06096 3.36136 1.59277 8.26364L6.60414 12.15C7.78368 8.60455 11.0905 5.96591 14.9973 5.96591Z" fill="#EA4335"/>
</svg>
