<svg width="177" height="93" viewBox="0 0 177 93" fill="none" xmlns="http://www.w3.org/2000/svg">
<path d="M91.7852 31.5641V11.2561H12.1816V90.8597H91.7852V80.7894" stroke="#351C05" stroke-width="4"/>
<path d="M81.6036 26.9361V2H2V81.6036H81.6036V73.3845" stroke="#CC833D" stroke-width="4"/>
<path d="M49.207 38.0994H55.1178L60.1318 50.1343H60.3633L65.3773 38.0994H71.2881V57.5375H66.6405V45.5975H66.4765L61.7325 57.4141H58.7626L54.0186 45.531H53.8547V57.5375H49.207V38.0994Z" fill="#CC833D"/>
<path d="M81.7534 38.0994V57.5375H76.9805V38.0994H81.7534Z" fill="#CC833D"/>
<path d="M87.4651 57.5375V38.0994H92.2381V53.722H100.453V57.5375H87.4651Z" fill="#CC833D"/>
<path d="M105.64 57.5375V38.0994H119.409V41.9148H110.413V45.9012H118.705V49.7261H110.413V53.722H119.409V57.5375H105.64Z" fill="#CC833D"/>
<path d="M141.92 38.0994V57.5375H137.87L130.012 46.3188H129.886V57.5375H125.113V38.0994H129.221L136.993 49.299H137.157V38.0994H141.92Z" fill="#CC833D"/>
<path d="M152.409 38.0994V57.5375H147.636V38.0994H152.409Z" fill="#CC833D"/>
<path d="M162.393 57.5375H157.263L163.926 38.0994H170.28L176.943 57.5375H171.813L167.175 42.9969H167.021L162.393 57.5375ZM161.708 49.8875H172.43V53.4562H161.708V49.8875Z" fill="#CC833D"/>
<path d="M49.207 68.3924V60.3142H54.3821V61.5409H50.6704V63.734H54.0271V64.9607H50.6704V68.3924H49.207Z" fill="#351C05"/>
<path d="M69.1382 60.3142H70.6015V65.5918C70.6015 66.1704 70.4648 66.6792 70.1913 67.1183C69.9205 67.5575 69.5392 67.9006 69.0474 68.1478C68.5557 68.3924 67.9811 68.5147 67.3237 68.5147C66.6637 68.5147 66.0878 68.3924 65.5961 68.1478C65.1043 67.9006 64.7231 67.5575 64.4522 67.1183C64.1814 66.6792 64.0459 66.1704 64.0459 65.5918V60.3142H65.5093V65.4696C65.5093 65.8062 65.5829 66.1059 65.7302 66.3689C65.8801 66.6318 66.0904 66.8383 66.3613 66.9882C66.6321 67.1354 66.953 67.209 67.3237 67.209C67.6945 67.209 68.0153 67.1354 68.2862 66.9882C68.5597 66.8383 68.77 66.6318 68.9173 66.3689C69.0645 66.1059 69.1382 65.8062 69.1382 65.4696V60.3142Z" fill="#351C05"/>
<path d="M80.5227 68.3924V60.3142H83.5521C84.1726 60.3142 84.6933 60.422 85.114 60.6377C85.5374 60.8533 85.8569 61.1557 86.0725 61.5449C86.2908 61.9314 86.3999 62.3824 86.3999 62.8978C86.3999 63.4158 86.2895 63.8655 86.0686 64.2468C85.8503 64.6255 85.5282 64.9187 85.1022 65.1264C84.6762 65.3315 84.1529 65.4341 83.5323 65.4341H81.3747V64.2192H83.3351C83.698 64.2192 83.9951 64.1692 84.2266 64.0693C84.458 63.9667 84.6289 63.8182 84.7393 63.6236C84.8524 63.4264 84.9089 63.1844 84.9089 62.8978C84.9089 62.6112 84.8524 62.3666 84.7393 62.1641C84.6263 61.959 84.454 61.8039 84.2226 61.6987C83.9912 61.5909 83.6927 61.537 83.3272 61.537H81.9861V68.3924H80.5227ZM84.6959 64.732L86.6958 68.3924H85.0628L83.0985 64.732H84.6959Z" fill="#351C05"/>
<path d="M102.716 60.3142V68.3924H101.414L97.608 62.8899H97.5409V68.3924H96.0776V60.3142H97.3871L101.19 65.8206H101.261V60.3142H102.716Z" fill="#351C05"/>
<path d="M114.105 60.3142V68.3924H112.641V60.3142H114.105Z" fill="#351C05"/>
<path d="M123.665 61.5409V60.3142H130.11V61.5409H127.613V68.3924H126.162V61.5409H123.665Z" fill="#351C05"/>
<path d="M144.775 60.3142H146.239V65.5918C146.239 66.1704 146.102 66.6792 145.828 67.1183C145.558 67.5575 145.176 67.9006 144.685 68.1478C144.193 68.3924 143.618 68.5147 142.961 68.5147C142.301 68.5147 141.725 68.3924 141.233 68.1478C140.742 67.9006 140.36 67.5575 140.089 67.1183C139.819 66.6792 139.683 66.1704 139.683 65.5918V60.3142H141.146V65.4696C141.146 65.8062 141.22 66.1059 141.367 66.3689C141.517 66.6318 141.728 66.8383 141.998 66.9882C142.269 67.1354 142.59 67.209 142.961 67.209C143.332 67.209 143.652 67.1354 143.923 66.9882C144.197 66.8383 144.407 66.6318 144.554 66.3689C144.702 66.1059 144.775 65.8062 144.775 65.4696V60.3142Z" fill="#351C05"/>
<path d="M156.16 68.3924V60.3142H159.189C159.81 60.3142 160.33 60.422 160.751 60.6377C161.175 60.8533 161.494 61.1557 161.71 61.5449C161.928 61.9314 162.037 62.3824 162.037 62.8978C162.037 63.4158 161.927 63.8655 161.706 64.2468C161.487 64.6255 161.165 64.9187 160.739 65.1264C160.313 65.3315 159.79 65.4341 159.169 65.4341H157.012V64.2192H158.972C159.335 64.2192 159.632 64.1692 159.864 64.0693C160.095 63.9667 160.266 63.8182 160.376 63.6236C160.49 63.4264 160.546 63.1844 160.546 62.8978C160.546 62.6112 160.49 62.3666 160.376 62.1641C160.263 61.959 160.091 61.8039 159.86 61.6987C159.628 61.5909 159.33 61.537 158.964 61.537H157.623V68.3924H156.16ZM160.333 64.732L162.333 68.3924H160.7L158.736 64.732H160.333Z" fill="#351C05"/>
<path d="M171.715 68.3924V60.3142H176.969V61.5409H173.178V63.734H176.697V64.9607H173.178V67.1657H177V68.3924H171.715Z" fill="#351C05"/>
</svg>
