<svg width="36" height="36" viewBox="0 0 36 36" fill="none" xmlns="http://www.w3.org/2000/svg">
<path d="M18 24.75C24.2132 24.75 29.25 19.7132 29.25 13.5C29.25 7.2868 24.2132 2.25 18 2.25C11.7868 2.25 6.75 7.2868 6.75 13.5C6.75 19.7132 11.7868 24.75 18 24.75Z" stroke="white" stroke-width="2" stroke-linecap="round" stroke-linejoin="round"/>
<path d="M18 20.25C21.7279 20.25 24.75 17.2279 24.75 13.5C24.75 9.77208 21.7279 6.75 18 6.75C14.2721 6.75 11.25 9.77208 11.25 13.5C11.25 17.2279 14.2721 20.25 18 20.25Z" stroke="white" stroke-width="2" stroke-linecap="round" stroke-linejoin="round"/>
<path d="M24.75 22.5V33.75L18 30.375L11.25 33.75V22.5" stroke="white" stroke-width="2" stroke-linecap="round" stroke-linejoin="round"/>
</svg>
