<svg width="171" height="177" viewBox="0 0 171 177" fill="none" xmlns="http://www.w3.org/2000/svg">
<path d="M78.6474 177C76.0702 176.235 73.3774 176.115 70.7447 175.64C64.429 174.501 58.3401 172.643 52.4455 170.144C50.0117 169.111 47.541 168.134 45.334 166.64C46.7267 164.625 48.6838 163.233 50.6919 161.923C55.2678 158.94 60.3158 157.022 65.5395 155.546C67.5799 154.97 69.4954 153.951 71.6654 153.85C72.5492 154.011 73.2386 154.555 73.9511 155.035C77.5138 157.441 81.4374 158.94 85.7218 159.18C88.609 159.341 91.4776 158.788 94.1751 157.672C99.8337 155.33 104.433 151.563 108.463 147.03C111.729 143.36 114.593 139.408 117.083 135.18C117.754 134.037 118.702 133.248 119.956 132.82C121.233 132.492 122.459 132.704 123.681 133.11C129.705 135.12 135.363 137.938 140.962 140.889C144.062 142.521 147.009 144.434 150.216 145.868C150.595 146.039 150.914 146.26 151.159 146.592C144.474 154.615 136.492 161.052 127.405 166.211C118.096 171.5 108.074 174.607 97.5527 176.258C96.1045 176.484 94.61 176.438 93.2127 176.991H78.6427L78.6474 177Z" fill="white"/>
<path d="M76.5376 2.40272C79.2535 1.31457 82.1129 0.811992 84.9816 0.346299C85.5368 0.258694 86.1383 0.387797 86.6334 0.000488281H93.5737C96.1693 0.705943 98.839 1.08403 101.393 1.99697C108.023 4.36693 113.761 7.90804 117.767 13.8468C118.647 14.4139 118.998 15.3545 119.415 16.2306C120.271 18.0196 121.571 19.3475 123.366 20.1866C129.696 23.1422 132.282 28.4077 132.546 35.0565C132.809 41.6638 132.157 48.1604 129.955 54.4542C129.478 55.8144 129.316 57.2576 129.057 58.6731C128.895 59.5676 128.881 60.5174 128.312 61.3059C126.808 61.6563 125.356 62.3525 123.745 62.0067C122.7 58.9636 121.275 56.0911 119.859 53.2047C119.368 52.1995 119.484 51.0699 119.452 49.9771C119.364 46.9386 119.715 43.8816 119.017 40.8615C118.397 38.1965 117.032 35.9602 115.241 33.9684C113.913 32.4929 112.155 32.2624 110.175 33.2491C106.561 35.0565 102.92 36.7948 99.075 38.0904C89.5344 41.3042 79.818 42.2033 69.8795 40.4051C69.3706 40.3128 68.8523 40.2345 68.3897 39.9809C68.2185 39.8748 68.1259 39.718 68.1074 39.5198C68.6303 38.0489 69.6297 36.8317 70.2728 35.4208C72.4937 30.5379 72.725 25.6274 70.3237 20.7768C67.7188 15.5205 68.8061 11.0157 72.4891 6.4003C73.6782 4.91101 75.1773 3.72603 76.5422 2.41194L76.5376 2.40272Z" fill="#4F2B0A"/>
<path d="M128.234 61.1258C128.512 56.6717 130.302 52.5543 131.126 48.2293C132.25 42.3321 132.657 36.3795 131.385 30.45C130.506 26.3602 128.192 23.0497 124.408 21.3022C120.97 19.716 118.966 17.2262 117.759 13.8511C124.792 16.47 131.218 20.1956 137.145 24.7326C154.39 37.9334 165.448 55.1502 169.381 76.4613C174.132 102.18 168.053 125.419 151.706 145.933C151.526 146.158 151.345 146.38 151.165 146.606C147.394 145.421 144.206 143.101 140.763 141.28C135.225 138.352 129.613 135.618 123.667 133.589C122.441 133.17 121.229 132.953 119.947 133.151C118.305 133.382 116.764 133.345 115.834 131.644C115.987 129.744 117.19 128.255 117.884 126.567C120.581 120.029 122.201 113.242 122.927 106.224C123.459 101.078 123.649 95.919 123.616 90.7456C123.607 89.261 122.964 87.7993 123.464 86.3054C123.667 85.849 124.07 85.6138 124.509 85.457C126.804 84.6087 127.961 82.8335 128.47 80.5788C128.979 78.3287 129.469 76.0786 130.376 73.9484C131.005 72.2886 131.709 70.6563 132.093 68.9134C132.902 65.2709 131.917 63.1822 128.59 61.4946C128.433 61.4162 128.322 61.2872 128.229 61.1396L128.234 61.1258Z" fill="#F1C499"/>
<path d="M20.7016 146.62C12.1974 136.333 6.10849 124.792 3.24446 111.757C-2.84911 84.0649 3.20745 59.1942 21.3355 37.3113C26.0317 31.6446 31.5516 26.8401 37.6035 22.6396C38.5335 24.3964 38.6723 26.3375 38.7417 28.251C38.7787 29.3346 37.8626 29.3945 36.9696 29.3023C35.3271 29.1317 35.1975 29.2562 35.7528 30.81C37.1038 34.6093 38.5705 38.3625 41.2402 41.4979C41.8834 42.2541 42.4247 43.1117 42.5589 44.0892C43.239 49.1196 45.2656 53.841 45.9596 58.8668C46.0707 59.6599 46.2927 60.4576 45.8208 61.2137C44.8769 61.8592 43.6277 61.7117 42.7069 62.5601C40.5045 64.5842 40.7405 67.0649 41.231 69.5777C41.4947 70.9195 42.0592 72.1967 42.5959 73.4647C43.4611 75.5995 44.1968 77.7712 44.5716 80.0535C44.9695 82.488 46.2002 84.3139 48.4998 85.356C48.9254 85.5496 49.291 85.8263 49.4714 86.292C49.8045 87.4815 49.6796 88.6988 49.6611 89.8976C49.5454 98.0219 49.6611 106.128 51.3869 114.118C52.5483 119.481 54.1029 124.709 56.6384 129.611C57.0039 130.316 57.4759 131.008 57.3324 131.879C56.4626 133.147 54.9542 132.898 53.7559 133.382C48.1435 133.576 43.4241 136.425 38.5011 138.592C33.6475 140.732 29.2104 143.697 24.4632 146.053C23.2973 146.634 22.0989 147.367 20.7062 146.615L20.7016 146.62Z" fill="#F1C499"/>
<path d="M45.741 61.117C45.5837 57.0595 44.1355 53.2786 43.1731 49.3917C42.8955 48.2759 42.6456 47.1693 42.53 46.0212C42.3495 44.2138 41.6277 42.6553 40.4386 41.2121C37.6856 37.8693 36.2606 33.8394 34.9373 29.7911C34.5162 28.5001 35.1316 28.2788 36.3068 28.6477C38.5971 29.3623 38.6665 29.2332 38.19 26.9002C37.9031 25.4985 37.792 24.0645 37.5977 22.649C37.2692 17.1575 38.4167 11.9288 40.5265 6.89382C41.3547 4.91578 42.8631 4.65297 44.4732 6.15609C46.8283 8.35084 49.3962 10.0753 52.709 10.5318C54.9808 10.8407 57.0722 10.3243 59.0987 9.48049C63.0223 7.84826 66.9089 6.12843 70.8 4.42704C72.66 3.61553 74.5432 2.86858 76.5281 2.41211C76.542 3.61553 75.4454 4.00745 74.7699 4.64374C72.3223 6.93071 70.4808 9.54504 69.6017 12.8187C68.8892 15.4746 69.4629 17.9183 70.615 20.3021C73.8538 26.9924 72.6693 33.2216 68.6254 39.1419C68.5375 39.271 68.3432 39.3355 68.1998 39.4277C67.3762 40.0686 66.5248 39.6583 65.7151 39.4323C62.9853 38.667 60.311 37.7448 57.6783 36.6981C55.7998 35.9512 54.8143 36.4123 54.3655 38.3949C53.7084 41.3182 53.3383 44.2921 53.6853 47.2938C54.0369 50.3139 53.5696 53.1541 52.0104 55.7823C51.2701 57.0318 50.6917 58.3413 50.229 59.7107C49.2898 62.4956 48.2441 62.8276 45.7317 61.117H45.741Z" fill="#351C05"/>
<path d="M20.7009 146.62C22.6257 146.643 24.2451 145.762 25.8506 144.863C32.0136 141.414 38.1534 137.91 44.7467 135.323C47.5876 134.212 50.3406 132.524 53.6349 133.174C55.1849 133.345 55.7586 134.608 56.448 135.71C59.6128 140.782 63.1292 145.587 67.3905 149.815C68.774 151.189 70.4767 152.203 71.7722 153.674C71.8323 153.836 71.8323 153.997 71.7583 154.154C66.9047 155.528 62.0789 156.962 57.3965 158.866C52.8668 160.706 49.0173 163.527 45.3343 166.64C35.7845 161.6 27.6366 154.845 20.6963 146.62H20.7009Z" fill="white"/>
<path d="M71.7586 154.158C71.7308 154.057 71.7077 153.956 71.6846 153.854C73.4798 152.337 74.4375 150.064 76.3901 148.681C77.9771 148.736 79.3652 149.525 80.8643 149.907C82.8353 150.405 84.8063 150.751 86.8375 150.691C94.8142 150.166 101.546 146.813 107.441 141.622C110.305 139.1 112.651 136.126 114.673 132.893C114.997 132.377 115.209 131.708 116.001 131.699C117.093 132.778 118.629 132.667 119.947 133.147C118.652 133.769 117.837 134.816 117.097 136.024C112.429 143.627 106.978 150.544 99.3717 155.5C95.6887 157.902 91.6726 159.461 87.2632 159.627C82.5207 159.807 78.2131 158.244 74.2293 155.74C73.4011 155.219 72.5822 154.684 71.7586 154.158Z" fill="white"/>
<path d="M68.2706 39.6767C71.2873 40.1516 74.2994 40.6634 77.3578 40.7925C88.7259 41.2813 99.2752 38.3949 109.265 33.1616C112.568 31.4326 114.109 31.7461 116.422 34.6094C118.75 37.4912 119.962 40.7603 119.939 44.472C119.929 45.68 120.013 46.8973 119.906 48.0961C119.643 51.0055 120.226 53.6429 121.826 56.1419C122.909 57.8295 123.622 59.7384 123.798 61.7856C125.01 63.0766 124.996 64.7319 124.899 66.2811C124.746 68.8263 124.51 71.3807 123.936 73.8844C123.89 75.2077 123.562 76.4849 123.289 77.7759C122.049 83.3965 120.064 88.6897 116.459 93.2775C115.529 94.4624 114.479 95.5275 113.318 96.482C111.856 97.6808 111.453 97.5747 110.25 96.1131C107.728 93.0515 104.966 90.3127 100.876 89.409C99.6916 89.1462 98.484 89.0309 97.3088 88.7266C96.6564 88.4545 96.425 87.9058 96.2492 87.2649C95.6616 85.1486 92.4182 84.1342 90.6692 85.499C87.9625 87.6108 87.0001 87.6108 84.3443 85.5128C82.5167 84.065 79.3195 85.0886 78.7134 87.3433C78.5376 88.0027 78.2461 88.5053 77.5937 88.7589C76.7331 89.0816 75.7939 88.8419 74.9333 89.1369C72.569 89.5704 70.5331 90.6908 68.5899 92.0464C68.0022 92.4567 67.3684 93.2728 66.5309 92.3507C65.8137 90.7323 65.7675 88.9663 65.7397 87.288C65.6703 82.751 65.0457 78.2739 64.6246 73.7737C64.5599 73.0959 64.472 72.4043 64.6339 71.7219C65.6657 70.6891 66.6558 71.7588 67.6645 71.7818C69.4736 72.289 71.3104 72.1138 73.1427 72.0216C75.3173 72.2752 77.2606 71.2101 79.4121 70.8228C77.6631 69.9513 76.3398 68.462 74.5354 67.692C71.9906 66.235 69.3533 66.0736 66.6234 67.1065C65.823 67.2448 65.0642 68.0793 64.2036 67.254C63.6946 64.8748 63.8658 62.5786 65.0087 60.3885C65.8554 59.8767 66.7623 59.992 67.6737 60.1165C71.5603 60.5637 75.3497 61.5089 79.1391 62.4403C80.3375 62.7354 80.5688 62.3988 80.2172 61.1908C79.8146 59.8075 78.8013 59.1943 77.4688 58.913C74.7112 58.3229 71.9305 57.9033 69.1405 57.5252C68.0763 57.3592 66.9519 57.4099 66.0636 56.6491C66.0405 56.4785 65.9757 56.2941 66.0497 56.1419C67.8449 52.4671 67.2943 48.5295 67.3869 44.661C67.4285 42.9642 67.3267 41.226 68.2706 39.6813V39.6767Z" fill="white"/>
<path d="M64.8139 71.4913C65.147 74.1425 65.4986 76.7891 65.804 79.445C66.3083 83.8621 66.0585 88.3392 66.8821 92.7287C66.2528 94.7114 64.6057 95.9886 63.4397 97.5977C62.9307 98.3032 62.1581 97.856 61.5473 97.5286C59.6272 96.4958 58.1558 94.9465 56.8187 93.2774C53.094 88.6251 51.1415 83.1751 49.7766 77.4762C49.5591 76.5909 49.7673 75.4382 49.1843 74.8526C48.4348 74.1056 47.5464 75.1984 46.672 75.2952C44.8953 75.4889 43.3823 75.0555 42.2302 73.6307C41.24 71.4314 40.3563 69.2228 40.4257 66.7237C40.5229 63.2472 42.2487 61.3521 45.7373 61.1078C46.8432 61.3152 48.2636 62.0345 48.9623 61.5965C49.7164 61.1262 49.7442 59.5585 50.1699 58.5026C50.577 57.4975 51.0027 56.4785 51.5764 55.5609C53.1496 53.0527 53.5012 50.3507 53.219 47.4644C52.9043 44.246 53.2005 41.0461 53.987 37.9061C54.4867 35.9004 55.6666 35.2964 57.559 36.0802C61.006 37.505 64.4807 38.8375 68.2007 39.4139C68.2331 39.4969 68.2563 39.5799 68.2655 39.6675C67.738 43.6604 67.9555 47.6764 67.8722 51.6832C67.8352 53.5045 66.9654 55.0953 66.1557 56.6768C65.5172 57.2946 64.6519 57.2162 63.8885 57.3223C60.8301 57.7557 59.0951 59.5493 58.2252 62.74C59.6457 61.6979 60.9412 60.9141 62.3755 60.4438C63.2778 60.1441 64.2309 59.7291 65.1146 60.536C64.5964 62.7999 64.3188 65.0869 64.4252 67.4107C64.291 68.6879 62.7457 68.6925 62.3061 69.7945C62.8845 70.689 64.5131 70.1588 64.8139 71.4821V71.4913Z" fill="white"/>
<path d="M123.413 73.9855C124.037 69.9372 125.06 65.8981 123.792 61.7899C125.31 61.8314 126.679 60.8862 128.229 61.1259C131.57 61.5778 133.49 64.7085 132.676 68.5309C132.273 70.4306 131.676 72.2841 130.723 74.0039C128.28 76.1618 125.847 75.4794 123.408 73.9901L123.413 73.9855Z" fill="white"/>
<path d="M74.7847 88.8233C75.6731 88.2239 76.7373 88.6942 77.6673 88.3576C79.9067 88.2146 82.0767 88.1962 84.1449 89.4088C86.264 90.6538 88.6191 90.7414 90.7104 89.4457C92.8341 88.127 95.055 88.27 97.3314 88.3714C103.147 88.7725 107.626 91.4929 110.87 96.2467C111.49 97.1504 111.915 96.9844 112.623 96.4542C115.075 94.6237 116.908 92.2768 118.398 89.6486C120.484 85.9738 122.011 82.0822 122.779 77.9141C123.14 77.8126 123.367 78.0432 123.422 78.3106C123.927 80.8696 124.611 83.424 123.857 86.0568C124.019 90.0221 124.204 93.9874 124.047 97.9573C123.644 108.009 122.261 117.871 118.157 127.185C117.486 128.711 116.727 130.196 116.01 131.704C112.915 136.656 109.347 141.193 104.498 144.582C99.2284 148.266 93.5189 150.793 86.9811 151.088C86.5601 150.557 86.9025 150.096 87.1523 149.668C90.7335 143.554 89.3964 137.892 85.5746 132.455C85.3756 132.174 85.1674 131.902 84.9592 131.625C80.8829 126.18 80.92 121.509 85.0841 116.082C85.5329 115.497 86.2871 114.957 85.5376 114.095C86.5 113.325 87.6335 113.717 88.6931 113.648C92.2095 113.417 95.5316 112.749 97.9931 109.904C99.5708 108.083 100.112 105.736 101.227 103.679C101.537 103.103 101.199 102.711 100.64 102.48C99.7652 102.116 98.8537 102.098 97.9283 102.116C95.5547 102.149 93.1858 101.895 90.9695 101.106C88.5682 100.249 86.3288 100.29 83.9506 101.13C82.234 101.734 80.411 102.098 78.5464 101.904C76.9779 99.986 75.0022 98.3723 74.3915 95.7672C73.9982 94.0888 74.1971 92.4843 74.521 90.8612C74.6552 90.1881 74.8495 89.5333 74.7894 88.8371L74.7847 88.8233Z" fill="#4F2B0A"/>
<path d="M123.852 86.0567C123.677 83.9218 123.533 81.7778 123.311 79.6476C123.251 79.0574 123.274 78.3889 122.774 77.914C123.024 76.6091 123.445 75.3365 123.413 73.9855C123.945 73.649 124.394 73.9025 124.81 74.2069C126.841 75.6915 128.775 74.6403 130.728 73.9994C129.812 76.4477 129.372 79.0205 128.669 81.5242C127.984 83.9587 126.425 85.5633 123.857 86.0567H123.852Z" fill="white"/>
<path d="M85.5839 114.146C85.9494 114.284 86.3103 114.427 86.7684 114.602C85.9864 115.649 85.1813 116.659 84.4549 117.724C81.4937 122.072 81.6511 126.789 85.0194 130.948C87.43 133.922 89.091 137.218 89.637 140.985C90.1089 144.231 89.1188 147.228 87.4624 150.013C87.2588 150.359 86.9627 150.65 86.9719 151.088C83.8349 151.447 80.9478 150.378 78.019 149.529C77.4221 149.359 76.8345 149.16 76.2423 148.976C75.3817 148.884 74.5627 148.649 73.79 148.257C66.8914 144.771 61.5103 139.676 57.5451 133.073C57.3369 132.727 57.138 132.377 57.2212 131.948C53.839 125.562 51.6042 118.798 50.392 111.674C49.2908 105.187 48.9993 98.6581 49.115 92.0969C49.152 90.082 49.1381 88.067 49.1474 86.0567C48.6107 83.3271 49.2029 80.6482 49.5453 77.9601C49.5823 77.6835 49.7813 77.4391 50.1514 77.5682C51.1925 81.137 52.2057 84.7104 53.9454 88.0301C55.8332 91.6358 58.105 94.8956 61.6445 97.1227C62.6347 97.7451 63.1205 97.6483 63.7775 96.6339C64.6705 95.2461 65.8318 94.0288 66.8775 92.7332C69.2742 90.9534 71.6756 89.1828 74.7755 88.8232C75.9785 89.0537 75.2151 89.8145 75.0902 90.2664C74.3591 92.8807 74.2897 95.4028 75.687 97.865C76.2145 98.7918 77.0381 99.4142 77.7043 100.193C78.0375 100.585 78.7732 100.834 78.292 101.581C77.9912 102.015 77.5239 102.042 77.0658 102.084C76.6633 102.112 76.2608 102.089 75.8582 102.153C72.7536 102.633 72.2215 103.546 73.2394 106.413C74.6506 110.397 77.5933 112.44 81.6094 113.284C82.9327 113.56 84.3855 113.274 85.5793 114.141L85.5839 114.146Z" fill="#351C05"/>
<path d="M57.2252 131.948C59.8486 136.001 62.7219 139.832 66.4743 142.963C69.4494 145.444 72.7946 147.283 76.2462 148.975C74.7517 150.631 73.9744 152.945 71.6841 153.858C65.1603 149.197 60.501 142.912 56.3045 136.24C55.5642 135.065 54.8054 133.958 53.6348 133.179C54.6897 132.358 56.1009 132.566 57.2252 131.948Z" fill="white"/>
<path d="M50.1553 77.5637C49.7389 79.5187 49.5723 81.5013 49.489 83.4978C49.452 84.3508 49.2669 85.1992 49.1513 86.0522C46.3428 85.2315 44.7049 83.3871 44.219 80.5054C43.8211 78.14 43.0577 75.8761 42.2295 73.6353C44.3347 74.9171 46.4723 75.5534 48.758 74.0226C49.3178 73.6491 49.7435 73.8474 49.8268 74.5436C49.9471 75.5487 50.0443 76.5585 50.1553 77.5637Z" fill="white"/>
<path d="M97.3311 88.3665C95.0501 89.1365 92.5608 88.7215 90.3076 90.1232C88.1329 91.4788 85.5882 90.9762 83.4228 89.5653C82.5391 88.989 81.7155 88.6939 80.6837 88.9152C79.6056 89.1503 78.7127 88.3204 77.667 88.3527C78.1667 88.0668 78.3795 87.6426 78.3055 87.0662C78.1158 85.6738 78.9533 85.0698 80.1424 84.8438C81.9977 84.4888 83.8253 83.6911 85.38 85.8582C86.3146 87.1631 88.9612 86.868 89.9652 85.5447C90.8906 84.3228 91.9594 84.1568 93.2873 84.5441C93.8332 84.7055 94.3838 84.913 94.9483 84.9637C96.1837 85.0651 96.6371 85.8305 96.6787 86.9095C96.7019 87.5135 96.7482 88.0437 97.3358 88.3665H97.3311Z" fill="white"/>
<path d="M100.764 57.6862C104.155 56.9623 107.593 56.6442 111.026 57.1191C113.955 57.5248 116.083 60.3559 116.139 63.7955C112.224 59.2124 107.357 60.4066 102.573 61.1397C100.856 60.568 101.254 58.8942 100.764 57.6862Z" fill="#351C05"/>
<path d="M73.3879 72.3074C71.4354 72.999 69.4921 72.6578 67.5581 72.2198C65.4436 70.6383 65.0966 68.5265 66.6651 66.7283C69.5106 65.405 72.2219 65.76 74.8222 67.4015C75.8124 69.5271 75.3081 71.2469 73.3925 72.3074H73.3879Z" fill="#351C05"/>
<path d="M107.02 71.6014C105.174 73.1921 102.977 72.5558 100.881 72.5651C98.8402 71.3755 98.2156 69.6049 99.1779 67.7145C100.737 65.8655 104.698 65.3768 107.418 66.7001C108.751 68.4292 108.589 70.3795 107.016 71.5968L107.02 71.6014Z" fill="#351C05"/>
<path d="M69.2648 57.1006C72.2584 57.3634 75.2011 57.9351 78.1299 58.576C79.8603 58.9541 81.2808 61.0013 81.0772 62.7119C80.9523 63.7678 80.2305 63.2145 79.7724 63.0946C76.7603 62.3108 73.7251 61.6192 70.676 61.0013C69.7182 60.8077 68.6911 61.112 67.8027 60.5495C68.159 60.0008 68.2238 59.3922 68.2469 58.7513C68.27 58.0366 68.5338 57.4049 69.2694 57.1006H69.2648Z" fill="#351C05"/>
<path d="M69.2647 57.1008C68.8344 57.8892 68.3393 58.6777 68.6956 59.6321C69.0611 60.6096 68.2977 60.439 67.8026 60.5497C66.9096 60.5497 66.012 60.5497 65.119 60.5497C62.1764 60.273 60.0156 61.8684 57.8919 63.7035C57.804 59.9318 60.3025 57.359 64.4343 56.8149C65.0034 56.7412 65.5817 56.7319 66.1601 56.6904C67.1965 56.8288 68.2329 56.9625 69.2693 57.1008H69.2647Z" fill="#351C05"/>
<path d="M100.765 57.6865C101.287 57.7695 101.625 58.0554 101.533 58.5995C101.348 59.683 101.944 60.4115 102.574 61.1446C99.7466 61.8455 96.9242 62.5463 94.0972 63.2379C93.1441 63.4685 92.7601 63.3117 93.0099 62.136C93.4772 59.955 94.4072 58.5026 96.8826 58.3182C98.1735 58.2214 99.4366 57.7142 100.765 57.6911V57.6865Z" fill="#351C05"/>
<path d="M73.3865 72.3073C74.9087 70.9748 75.1354 69.2641 74.8162 67.4014C76.8473 68.2221 78.2956 69.9097 80.2527 70.984C77.893 71.3574 75.8341 72.8283 73.3818 72.3073H73.3865Z" fill="#FDF2EB"/>
<path d="M99.1824 67.7148C98.8169 69.656 99.4693 71.2421 100.885 72.5654C98.4329 72.6208 96.2259 71.4634 93.7598 71.0669C95.6244 69.9926 96.9708 68.1805 99.1824 67.7148Z" fill="#FDF3EC"/>
<path d="M66.6598 66.7235C65.7252 68.7523 66.1508 70.5643 67.5574 72.215C66.6413 71.9752 65.7298 71.7309 64.8183 71.4911C64.1937 71.2145 63.5598 70.9516 62.9491 70.6519C62.4679 70.4168 61.5934 70.7165 61.5379 69.9834C61.4962 69.4255 62.218 69.1119 62.6483 68.7477C63.2128 68.2681 63.8374 67.8578 64.4343 67.4151C65.2301 67.3414 65.8177 66.6221 66.6644 66.7189L66.6598 66.7235Z" fill="#FEF3EC"/>
<path d="M107.021 71.6023C108.071 70.0438 108.071 68.4023 107.423 66.7056C109.399 66.9776 110.81 68.2041 112.179 69.5043C112.429 69.7395 112.725 70.2052 112.258 70.2974C110.542 70.6386 109.112 71.8973 107.28 71.8097C107.192 71.8097 107.108 71.676 107.021 71.6023Z" fill="#FDF2EB"/>
<path d="M85.5832 114.146C83.3391 114.081 81.1321 113.805 79.013 113.035C76.1583 111.997 74.1548 110.075 73.0814 107.23C72.9796 106.962 72.8315 106.704 72.7853 106.427C72.6094 105.399 71.1798 104.454 71.9339 103.527C72.85 102.407 74.3538 101.835 75.8853 101.655C76.223 101.614 76.57 101.683 76.9124 101.697C79.7579 103.444 82.6729 104.638 86.0597 103.168C86.9758 102.766 88.0308 102.78 88.9515 103.172C92.3337 104.615 95.2579 103.518 98.0803 101.678C98.5384 101.674 99.0057 101.614 99.4591 101.674C101.953 101.996 102.295 102.633 101.185 104.772C100.949 105.229 100.699 105.694 100.546 106.183C98.8576 111.674 94.6749 113.666 89.3864 114.077C88.1233 114.174 86.8509 114.127 85.5832 114.146Z" fill="white"/>
<path d="M98.0802 101.674C97.2011 103.223 93.3423 104.947 91.4407 104.283C88.7617 103.347 86.254 103.329 83.575 104.283C81.7474 104.929 77.7961 103.195 76.917 101.697C77.3797 101.66 77.8424 101.623 78.3004 101.582C80.947 101.448 83.5149 100.931 86.0088 100.055C86.8277 99.7695 87.6097 99.5481 88.5026 99.8893C91.5795 101.07 94.7998 101.549 98.0802 101.674Z" fill="white"/>
<path d="M87.4947 107.862C89.7942 107.862 90.7427 108.401 90.7844 109.734C90.8306 111.255 89.6878 112.034 87.4068 112.002C86.9487 111.997 86.486 111.951 86.0372 111.868C84.7741 111.624 84.0616 110.84 84.2374 109.563C84.3993 108.378 85.2368 107.815 86.4536 107.862C86.8007 107.875 87.1477 107.862 87.4947 107.862Z" fill="white"/>
</svg>
