<svg width="16" height="16" viewBox="0 0 16 16" fill="none" xmlns="http://www.w3.org/2000/svg">
<path d="M7.14168 0.556577L5.18879 4.69357L0.819452 5.35911C0.035902 5.47784 -0.278116 6.48709 0.290107 7.06515L3.45122 10.2835L2.70356 14.8298C2.56898 15.6516 3.39739 16.2671 4.09122 15.8828L8 13.7362L11.9088 15.8828C12.6026 16.264 13.431 15.6516 13.2964 14.8298L12.5488 10.2835L15.7099 7.06515C16.2781 6.48709 15.9641 5.47784 15.1805 5.35911L10.8112 4.69357L8.85832 0.556577C8.50841 -0.180831 7.49458 -0.190205 7.14168 0.556577Z" fill="#E1DFEB"/>
<path d="M5.18879 4.69357L7.14168 0.556577C7.31794 0.183595 7.65907 -0.000762286 8 2.3688e-06V13.7362L4.09122 15.8828C3.39739 16.2671 2.56898 15.6516 2.70356 14.8298L3.45122 10.2835L0.290107 7.06515C-0.278116 6.48709 0.035902 5.47784 0.819452 5.35911L5.18879 4.69357Z" fill="#FFC43F"/>
</svg>
