<svg width="31" height="31" viewBox="0 0 31 31" fill="none" xmlns="http://www.w3.org/2000/svg">
<ellipse cx="15.6565" cy="15.5" rx="15.0078" ry="15" fill="#F4F3FF"/>
<g clip-path="url(#clip0_1_612)">
<path d="M24.376 9.24942C23.7077 9.54542 22.9897 9.74542 22.2349 9.83582C23.0137 9.37005 23.5964 8.63699 23.8742 7.77342C23.1425 8.20781 22.3417 8.51357 21.5066 8.67742C20.945 8.07811 20.2011 7.68088 19.3905 7.5474C18.5799 7.41391 17.7479 7.55165 17.0236 7.93922C16.2993 8.32679 15.7234 8.94251 15.3851 9.69078C15.0468 10.4391 14.9652 11.278 15.1528 12.0774C13.6702 12.003 12.2198 11.6179 10.8958 10.9469C9.57171 10.276 8.4036 9.33435 7.46724 8.18302C7.14707 8.73502 6.96298 9.37502 6.96298 10.0566C6.96262 10.6702 7.1138 11.2744 7.40311 11.8156C7.69242 12.3568 8.11091 12.8182 8.62144 13.159C8.02936 13.1402 7.45033 12.9803 6.93256 12.6926V12.7406C6.9325 13.6012 7.23034 14.4353 7.77555 15.1014C8.32075 15.7675 9.07974 16.2246 9.92372 16.395C9.37446 16.5436 8.7986 16.5655 8.23964 16.459C8.47777 17.1995 8.94161 17.847 9.56623 18.311C10.1909 18.7749 10.945 19.032 11.7231 19.0462C10.4022 20.0825 8.77103 20.6447 7.09185 20.6422C6.7944 20.6423 6.4972 20.6249 6.20178 20.5902C7.90625 21.6856 9.89038 22.2669 11.9168 22.2646C18.7763 22.2646 22.5263 16.5862 22.5263 11.6614C22.5263 11.5014 22.5223 11.3398 22.5151 11.1798C23.2445 10.6526 23.8741 9.99973 24.3744 9.25182L24.376 9.24942V9.24942Z" fill="#F5512B"/>
</g>
<defs>
<clipPath id="clip0_1_612">
<rect width="19.21" height="19.2" fill="white" transform="translate(5.4519 5.30005)"/>
</clipPath>
</defs>
</svg>
