<svg width="34" height="34" viewBox="0 0 34 34" fill="none" xmlns="http://www.w3.org/2000/svg">
<path d="M17.0006 32.36C25.4837 32.36 32.3606 25.4831 32.3606 17C32.3606 8.51692 25.4837 1.64001 17.0006 1.64001C8.51753 1.64001 1.64062 8.51692 1.64062 17C1.64062 25.4831 8.51753 32.36 17.0006 32.36Z" stroke="#CC833D" stroke-width="3" stroke-linecap="round" stroke-linejoin="round"/>
<path d="M17.0006 23.4C20.5352 23.4 23.4006 20.5346 23.4006 17C23.4006 13.4654 20.5352 10.6 17.0006 10.6C13.466 10.6 10.6006 13.4654 10.6006 17C10.6006 20.5346 13.466 23.4 17.0006 23.4Z" stroke="#CC833D" stroke-width="3" stroke-linecap="round" stroke-linejoin="round"/>
<path d="M12.4727 12.4722L6.13672 6.13623" stroke="#CC833D" stroke-width="3" stroke-linecap="round" stroke-linejoin="round"/>
<path d="M21.5288 12.4722L27.8648 6.13623" stroke="#CC833D" stroke-width="3" stroke-linecap="round" stroke-linejoin="round"/>
<path d="M21.5288 21.5276L27.8648 27.8636" stroke="#CC833D" stroke-width="3" stroke-linecap="round" stroke-linejoin="round"/>
<path d="M12.4727 21.5276L6.13672 27.8636" stroke="#CC833D" stroke-width="3" stroke-linecap="round" stroke-linejoin="round"/>
</svg>
