<svg width="31" height="30" viewBox="0 0 31 30" fill="none" xmlns="http://www.w3.org/2000/svg">
<ellipse cx="15.832" cy="15" rx="15.0078" ry="15" fill="#351C05"/>
<path d="M22.3934 11.4443C22.3853 10.8384 22.2718 10.2385 22.058 9.67146C21.8726 9.19318 21.5894 8.75882 21.2265 8.39612C20.8636 8.03343 20.429 7.75038 19.9505 7.56506C19.3905 7.35494 18.7988 7.24133 18.2008 7.22906C17.4308 7.19466 17.1866 7.18506 15.232 7.18506C13.2774 7.18506 13.0269 7.18506 12.2625 7.22906C11.6647 7.24142 11.0733 7.35503 10.5136 7.56506C10.035 7.75025 9.60032 8.03325 9.23742 8.39596C8.87452 8.75868 8.59136 9.1931 8.40608 9.67146C8.19543 10.2308 8.08201 10.8219 8.0707 11.4195C8.03628 12.1899 8.02588 12.4339 8.02588 14.3875C8.02588 16.3411 8.02588 16.5907 8.0707 17.3555C8.08271 17.9539 8.19557 18.5443 8.40608 19.1051C8.59168 19.5833 8.87504 20.0175 9.23806 20.3801C9.60108 20.7426 10.0358 21.0255 10.5144 21.2107C11.0726 21.4292 11.6641 21.551 12.2633 21.5707C13.0341 21.6051 13.2782 21.6155 15.2328 21.6155C17.1874 21.6155 17.438 21.6155 18.2024 21.5707C18.8004 21.5589 19.3921 21.4455 19.9521 21.2355C20.4305 21.0499 20.865 20.7668 21.2278 20.4041C21.5907 20.0415 21.874 19.6072 22.0596 19.1291C22.2701 18.5691 22.383 17.9787 22.395 17.3795C22.4294 16.6099 22.4398 16.3659 22.4398 14.4115C22.4382 12.4579 22.4382 12.2099 22.3934 11.4443ZM15.2272 18.0819C13.183 18.0819 11.5269 16.4267 11.5269 14.3835C11.5269 12.3403 13.183 10.6851 15.2272 10.6851C16.2086 10.6851 17.1498 11.0747 17.8438 11.7683C18.5377 12.4619 18.9276 13.4026 18.9276 14.3835C18.9276 15.3643 18.5377 16.305 17.8438 16.9986C17.1498 17.6922 16.2086 18.0819 15.2272 18.0819ZM19.0748 11.4107C18.597 11.4107 18.212 11.0251 18.212 10.5483C18.212 10.4351 18.2343 10.323 18.2776 10.2184C18.321 10.1138 18.3845 10.0188 18.4646 9.93873C18.5447 9.85869 18.6398 9.79519 18.7444 9.75187C18.849 9.70855 18.9612 9.68626 19.0744 9.68626C19.1877 9.68626 19.2998 9.70855 19.4045 9.75187C19.5091 9.79519 19.6042 9.85869 19.6843 9.93873C19.7644 10.0188 19.8279 10.1138 19.8712 10.2184C19.9146 10.323 19.9369 10.4351 19.9369 10.5483C19.9369 11.0251 19.5511 11.4107 19.0748 11.4107Z" fill="#FBF1E8"/>
<path d="M15.2269 16.7855C16.5544 16.7855 17.6305 15.7099 17.6305 14.3831C17.6305 13.0563 16.5544 11.9807 15.2269 11.9807C13.8994 11.9807 12.8232 13.0563 12.8232 14.3831C12.8232 15.7099 13.8994 16.7855 15.2269 16.7855Z" fill="#FBF1E8"/>
</svg>
