<svg width="18" height="23" viewBox="0 0 18 23" fill="none" xmlns="http://www.w3.org/2000/svg">
<path d="M9 12.25C10.6569 12.25 12 10.9069 12 9.25C12 7.59315 10.6569 6.25 9 6.25C7.34315 6.25 6 7.59315 6 9.25C6 10.9069 7.34315 12.25 9 12.25Z" stroke="#351C05" stroke-width="2" stroke-linecap="round" stroke-linejoin="round"/>
<path d="M16.5 9.25C16.5 16 9 21.25 9 21.25C9 21.25 1.5 16 1.5 9.25C1.5 7.26088 2.29018 5.35322 3.6967 3.9467C5.10322 2.54018 7.01088 1.75 9 1.75C10.9891 1.75 12.8968 2.54018 14.3033 3.9467C15.7098 5.35322 16.5 7.26088 16.5 9.25V9.25Z" stroke="#351C05" stroke-width="2" stroke-linecap="round" stroke-linejoin="round"/>
</svg>
