<svg width="31" height="30" viewBox="0 0 31 30" fill="none" xmlns="http://www.w3.org/2000/svg">
<ellipse cx="15.6567" cy="15" rx="15.0078" ry="15" fill="#351C05"/>
<g clip-path="url(#clip0_1_66)">
<path d="M24.3764 8.74942C23.7081 9.04542 22.9901 9.24542 22.2353 9.33582C23.0141 8.87005 23.5968 8.13699 23.8746 7.27342C23.1428 7.70781 22.342 8.01357 21.5069 8.17742C20.9453 7.57811 20.2015 7.18088 19.3909 7.0474C18.5803 6.91391 17.7482 7.05165 17.024 7.43922C16.2997 7.82679 15.7237 8.44251 15.3855 9.19078C15.0472 9.93905 14.9655 10.778 15.1532 11.5774C13.6706 11.503 12.2202 11.1179 10.8961 10.4469C9.57208 9.77603 8.40397 8.83435 7.46761 7.68302C7.14744 8.23502 6.96334 8.87502 6.96334 9.55662C6.96299 10.1702 7.11417 10.7744 7.40348 11.3156C7.69278 11.8568 8.11127 12.3182 8.62181 12.659C8.02972 12.6402 7.4507 12.4803 6.93293 12.1926V12.2406C6.93287 13.1012 7.23071 13.9353 7.77591 14.6014C8.32112 15.2675 9.0801 15.7246 9.92409 15.895C9.37483 16.0436 8.79897 16.0655 8.24001 15.959C8.47813 16.6995 8.94197 17.347 9.56659 17.811C10.1912 18.2749 10.9454 18.532 11.7234 18.5462C10.4026 19.5825 8.7714 20.1447 7.09221 20.1422C6.79476 20.1423 6.49756 20.1249 6.20215 20.0902C7.90662 21.1856 9.89074 21.7669 11.9171 21.7646C18.7767 21.7646 22.5267 16.0862 22.5267 11.1614C22.5267 11.0014 22.5226 10.8398 22.5154 10.6798C23.2449 10.1526 23.8745 9.49973 24.3748 8.75182L24.3764 8.74942Z" fill="#FBF1E8"/>
</g>
<defs>
<clipPath id="clip0_1_66">
<rect width="19.21" height="19.2" fill="white" transform="translate(5.45215 4.80005)"/>
</clipPath>
</defs>
</svg>
