<svg width="36" height="36" viewBox="0 0 36 36" fill="none" xmlns="http://www.w3.org/2000/svg">
<path d="M17.9991 19.0767C20.3782 19.0767 22.3068 17.1481 22.3068 14.7691C22.3068 12.39 20.3782 10.4614 17.9991 10.4614C15.62 10.4614 13.6914 12.39 13.6914 14.7691C13.6914 17.1481 15.62 19.0767 17.9991 19.0767Z" stroke="#F5512B" stroke-width="2.5" stroke-linecap="round" stroke-linejoin="round"/>
<path d="M28.7689 14.769C28.7689 24.4614 17.9997 31.9998 17.9997 31.9998C17.9997 31.9998 7.23047 24.4614 7.23047 14.769C7.23047 11.9129 8.36508 9.17367 10.3847 7.15405C12.4043 5.13443 15.1435 3.99982 17.9997 3.99982C20.8559 3.99982 23.5951 5.13443 25.6147 7.15405C27.6343 9.17367 28.7689 11.9129 28.7689 14.769V14.769Z" stroke="#F5512B" stroke-width="2.5" stroke-linecap="round" stroke-linejoin="round"/>
</svg>
