<svg width="71" height="74" viewBox="0 0 71 74" fill="none" xmlns="http://www.w3.org/2000/svg">
<path d="M54.7427 72.8558H12.6224C8.87179 72.8558 5.7813 69.8475 5.69853 66.0968L1.74233 45.2009V44.8299C0.588713 41.4505 0.0111847 37.9475 0.0111847 34.3202C0.0111847 16.063 15.0953 1.18567 33.683 1.18567C52.2285 1.18567 67.3548 16.0634 67.3548 34.3202C67.3548 37.9059 66.778 41.4505 65.6236 44.8299V45.2009L61.6674 66.0968C61.544 69.8475 58.4945 72.8558 54.7438 72.8558H54.7427ZM5.04007 44.913L8.99625 65.7666V65.9315C8.99625 67.9513 10.6039 69.5582 12.6227 69.5582H54.7431C56.7626 69.5582 58.3698 67.9506 58.3698 65.9315V65.7666L62.326 44.913V44.7897L62.2844 44.4183L62.4081 44.0884C63.5209 40.9974 64.0562 37.7008 64.0562 34.362C64.0562 17.9181 50.4564 4.52424 33.6831 4.52424C16.9506 4.52424 3.30992 17.9186 3.30992 34.362C3.30992 37.7001 3.84603 40.9561 4.95825 44.0884L5.08172 44.4183L5.04032 44.7897V44.913H5.04007Z" fill="#222528"/>
<path d="M20.0825 28.8403C16.7444 28.8403 14.0239 26.1204 14.0239 22.7817C14.0239 19.4436 16.7438 16.7231 20.0825 16.7231C23.4206 16.7231 26.141 19.443 26.141 22.7817C26.141 26.1198 23.4211 28.8403 20.0825 28.8403ZM20.0825 20.0618V20.0625C19.0959 20.0625 18.1843 20.5887 17.691 21.4431C17.1977 22.297 17.1977 23.35 17.691 24.2043C18.1843 25.0581 19.0959 25.585 20.0825 25.585C21.0683 25.585 21.98 25.0581 22.4732 24.2043C22.9665 23.3498 22.9665 22.2968 22.4732 21.4431C21.9799 20.5887 21.0683 20.0625 20.0825 20.0625V20.0618ZM35.4541 37.6601C33.3526 37.6601 31.6214 35.9292 31.6214 33.8273C31.6214 31.7257 33.3525 29.9945 35.4541 29.9945C36.3608 29.9945 37.1025 30.7362 37.1025 31.6428C37.1025 32.5494 36.3608 33.2911 35.4541 33.2911C35.1658 33.2911 34.9181 33.5382 34.9181 33.8273C34.9181 34.1157 35.1651 34.3634 35.4541 34.3634C36.3608 34.3634 37.1025 35.1051 37.1025 36.0116C37.1025 36.9183 36.3608 37.6601 35.4541 37.6601ZM36.7734 8.19345C34.6718 8.19345 32.9406 6.4623 32.9406 4.3606C32.9406 3.45399 33.6823 2.71228 34.5889 2.71228C35.4957 2.71228 36.2371 3.45399 36.2371 4.3606C36.2371 4.64899 36.4841 4.89671 36.7734 4.89671C37.6801 4.89671 38.4219 5.63844 38.4219 6.54504C38.4219 7.45165 37.6801 8.19338 36.7734 8.19338V8.19345ZM63.1498 53.6508C59.3586 53.6508 57.4208 50.9716 55.8964 48.8288C54.3713 46.6856 53.3413 45.367 51.3218 45.367C49.3023 45.367 48.272 46.6856 46.7476 48.8288C45.2225 50.9716 43.2858 53.6508 39.4938 53.6508C35.7025 53.6508 33.765 50.9716 32.2403 48.8288C30.7155 46.6856 29.6855 45.367 27.6659 45.367C25.6463 45.367 24.6161 46.6856 23.0915 48.8288C21.5666 50.9716 19.6299 53.6508 15.8379 53.6508C12.0465 53.6508 10.109 50.9716 8.58432 48.8288C7.0595 46.6856 6.02945 45.367 4.00989 45.367V42.0698C7.80122 42.0698 9.73876 44.7489 11.2634 46.8921C12.7881 49.0353 13.8183 50.3535 15.8379 50.3535C17.8575 50.3535 18.8876 49.0349 20.4123 46.8921C21.937 44.7489 23.8738 42.0698 27.6659 42.0698C31.4572 42.0698 33.3948 44.7489 34.9194 46.8921C36.4439 49.0353 37.4743 50.3535 39.4938 50.3535C41.5133 50.3535 42.5437 49.0349 44.0684 46.8921C45.5932 44.7489 47.5298 42.0698 51.3218 42.0698C55.1131 42.0698 57.0508 44.7489 58.5756 46.8921C60.1 49.0353 61.1303 50.3535 63.1498 50.3535V53.6508Z" fill="#222528"/>
</svg>
