<svg width="74" height="74" viewBox="0 0 74 74" fill="none" xmlns="http://www.w3.org/2000/svg">
<path d="M32.9075 70.2215C32.8731 70.2215 32.8389 70.2215 32.7981 70.2151C24.7607 69.6594 18.1199 66.3947 13.0594 60.5098C4.80981 50.9046 1.18311 34.7208 2.83848 14.9409C2.90712 14.0943 3.59103 13.3943 4.4845 13.5131C15.6046 14.163 27.7898 20.6478 36.2906 30.4372C44.0284 39.3429 47.8262 49.7692 47.0019 59.8132C46.9302 60.6662 46.2088 61.2846 45.315 61.2411C44.4563 61.1694 43.8157 60.4101 43.8843 59.5575C44.64 50.3641 41.1041 40.7496 33.929 32.4844C26.3572 23.7599 15.7211 17.8402 5.82721 16.76C4.58057 34.743 8.04535 49.8863 15.42 58.4774C19.9119 63.7063 25.8316 66.6116 33.0027 67.0987C33.8618 67.1611 34.5113 67.9043 34.4554 68.7634C34.4113 69.5883 33.7244 70.2222 32.9055 70.2222L32.9075 70.2215Z" fill="#222528"/>
<path d="M41.0948 72.9885C40.3792 72.9885 39.7361 72.4949 39.5736 71.7671C35.8063 54.9952 17.8132 33.189 10.1862 25.8231C9.56479 25.2294 9.54561 24.2425 10.1423 23.6179C10.7422 22.9996 11.7352 22.9841 12.3505 23.574C20.1907 31.1553 38.6968 53.6246 42.6163 71.0789C42.8067 71.9254 42.2756 72.7504 41.4358 72.9534C41.3232 72.9782 41.2077 72.9878 41.0951 72.9878L41.0948 72.9885Z" fill="#222528"/>
<path d="M45.5991 56.4205C44.8742 56.4205 44.2275 55.9147 44.0718 55.177C43.8936 54.3334 44.437 53.5055 45.2806 53.3273C68.8075 48.4044 68.9674 16.34 68.1585 4.26311C54.5705 5.73732 40.4017 16.152 34.0078 29.5519C33.6362 30.3329 32.6987 30.6576 31.9246 30.289C31.1467 29.9174 30.8159 28.9867 31.1875 28.2088C38.2815 13.3371 54.3961 1.90049 69.5063 1.01716C70.3373 0.936152 71.0867 1.6046 71.1523 2.44497C73.6635 32.3895 64.2301 52.5526 45.9189 56.388C45.8092 56.4067 45.7059 56.4195 45.6004 56.4195L45.5991 56.4205Z" fill="#222528"/>
<path d="M41.0916 41.8203C40.8232 41.8203 40.5514 41.7547 40.3046 41.6077C39.5614 41.1672 39.3114 40.2174 39.7486 39.4649C46.9334 27.2046 56.8391 15.7022 61.7462 10.9547C62.3707 10.3642 63.3585 10.3703 63.9543 10.9986C64.5512 11.6108 64.5389 12.6108 63.9167 13.2068C59.1344 17.8267 49.4696 29.056 42.4416 41.0536C42.1478 41.5379 41.6263 41.8194 41.0922 41.8194L41.0916 41.8203Z" fill="#222528"/>
</svg>
