<svg width="48" height="74" viewBox="0 0 48 74" fill="none" xmlns="http://www.w3.org/2000/svg">
<path fill-rule="evenodd" clip-rule="evenodd" d="M45.6561 71.5501H2.22775C1.65697 71.5501 1.19369 71.0808 1.19369 70.5029V24.4889C1.18694 24.3538 1.20608 24.2141 1.25618 24.0779C1.27194 24.0335 1.29108 23.9907 1.31246 23.9497L7.39792 11.626V3.49721C7.39792 2.9187 7.86062 2.4502 8.43198 2.4502H39.4515C40.0228 2.4502 40.4855 2.9187 40.4855 3.49721V11.626L46.5807 23.9685C46.6523 24.1138 46.6898 24.274 46.6898 24.4365V70.5031C46.6898 71.0811 46.2269 71.5501 45.6561 71.5501ZM9.46604 4.54385V10.8254H38.4178V4.54385H9.46604ZM32.6089 23.3896L37.7792 12.9199H9.07103L3.90077 23.3896H32.6089ZM39.452 14.2143L34.2825 24.6839V69.4564H44.6223V24.6839L39.452 14.2143ZM3.26212 25.4835V69.4564H32.2137V25.4835H3.26212ZM9.46589 32.8126H26.0105C26.5818 32.8126 27.0445 33.2811 27.0445 33.8596V44.3291C27.0445 44.907 26.5818 45.3763 26.0105 45.3763H9.46589C8.8951 45.3763 8.43238 44.907 8.43238 44.3291V33.8596C8.43238 33.2811 8.8951 32.8126 9.46589 32.8126ZM10.4999 34.9066V43.2821H24.9765V34.9066H10.4999ZM9.46589 53.7523C8.8951 53.7523 8.43238 53.2839 8.43238 52.7054C8.43238 52.1274 8.8951 51.6584 9.46589 51.6584H26.0105C26.5818 51.6584 27.0445 52.1274 27.0445 52.7054C27.0445 53.2839 26.5818 53.7523 26.0105 53.7523H9.46589ZM13.6021 62.1279C13.0313 62.1279 12.568 61.6594 12.568 61.0814C12.568 60.5029 13.0313 60.0344 13.6021 60.0344H21.8744C22.4452 60.0344 22.9079 60.5029 22.9079 61.0814C22.9079 61.6594 22.4452 62.1279 21.8744 62.1279H13.6021Z" fill="#222528" stroke="#222528" stroke-width="0.5"/>
</svg>
