<svg width="74" height="74" viewBox="0 0 74 74" fill="none" xmlns="http://www.w3.org/2000/svg">
<g clip-path="url(#clip0_343_1070)">
<path d="M34.6429 4.72351H5.90421C5.25194 4.72351 4.72339 5.25221 4.72339 5.90433V34.6405C4.72339 35.2926 5.25194 35.8213 5.90421 35.8213H34.6429C35.2952 35.8213 35.8238 35.2926 35.8238 34.6405V5.90433C35.8238 5.25221 35.2952 4.72351 34.6429 4.72351ZM33.4621 33.4596H7.08503V7.08515H33.4621V33.4596Z" fill="#222528"/>
<path d="M68.0957 0H5.90425C2.64854 0 0 2.64854 0 5.90425V68.0957C0 71.3515 2.64854 74 5.90425 74H68.0957C71.3515 74 74 71.3515 74 68.0957V5.90425C74 2.64854 71.3515 0 68.0957 0ZM71.6384 68.0957C71.6384 70.0492 70.0491 71.6384 68.0957 71.6384H5.90425C3.95091 71.6384 2.36164 70.0492 2.36164 68.0957V5.90425C2.36164 3.95076 3.95091 2.36164 5.90425 2.36164H68.0957C70.0491 2.36164 71.6384 3.95076 71.6384 5.90425V68.0957Z" fill="#222528"/>
<path d="M50.7816 9.64404C48.1753 9.64404 46.0549 11.7632 46.0549 14.3679C46.0549 16.9724 48.1751 19.0912 50.775 19.0912C51.4284 19.0948 51.9601 19.6246 51.9601 20.2721C51.9604 20.9198 51.4287 21.4495 50.7816 21.4531C48.1753 21.4531 46.0549 23.5721 46.0549 26.1764C46.0549 28.781 48.1751 30.9003 50.7816 30.9003C56.6405 30.9003 61.4071 26.1325 61.4071 20.2721C61.4071 14.4118 56.6405 9.64404 50.7816 9.64404ZM50.7816 28.5386C49.4777 28.5386 48.4167 27.4789 48.4167 26.1764C48.4167 24.8742 49.4775 23.8149 50.7883 23.8149C52.7368 23.8041 54.3221 22.2148 54.3221 20.2721C54.3222 18.3294 52.7368 16.7402 50.7818 16.7294C49.4778 16.7294 48.4168 15.67 48.4168 14.3679C48.4168 13.0655 49.4777 12.0057 50.7818 12.0057C55.3384 12.0057 59.0455 15.7141 59.0455 20.2721C59.0453 24.8304 55.3383 28.5386 50.7816 28.5386Z" fill="#222528"/>
<path d="M68.0958 4.72351H39.3664C38.7142 4.72351 38.1856 5.25221 38.1856 5.90433V34.6405C38.1856 35.2926 38.7142 35.8213 39.3664 35.8213H68.0958C68.748 35.8213 69.2766 35.2926 69.2766 34.6405V5.90433C69.2766 5.25221 68.748 4.72351 68.0958 4.72351ZM66.915 33.4596H40.5472V7.08515H66.9148V33.4596H66.915Z" fill="#222528"/>
<path d="M61.9964 56.0733C61.9517 53.1326 60.9433 49.9306 59.2302 47.2881C57.5308 44.6671 55.4751 43.1022 53.7311 43.1022C53.6981 43.1022 53.6654 43.1032 53.6326 43.1048C51.9101 43.1619 49.8995 44.7159 48.2321 47.288C46.5188 49.9305 45.5106 53.1326 45.4659 56.0732C45.4658 56.0791 45.4658 56.0852 45.4658 56.0911C45.4658 60.649 49.1734 64.357 53.7311 64.357C58.2887 64.357 61.9965 60.6489 61.9965 56.0911C61.9965 56.0853 61.9965 56.0794 61.9964 56.0733ZM51.0688 47.6801C50.5167 50.2246 50.196 53.2892 50.1889 56.0882C50.1847 57.748 50.3762 59.6732 50.8618 61.2486C49.0561 60.2396 47.8309 58.3108 47.8275 56.1001C47.8676 53.5935 48.7371 50.8506 50.2138 48.573C50.5236 48.0951 50.8403 47.6726 51.1532 47.3025C51.125 47.425 51.097 47.5505 51.0688 47.6801ZM56.6033 61.2471C56.8373 60.4872 57.0167 59.5979 57.1343 58.5903C57.2101 57.9426 56.7464 57.3562 56.0988 57.2802C55.4488 57.2039 54.8643 57.6679 54.7886 58.3159C54.5491 60.3613 54.0362 61.4992 53.7295 61.889C53.2901 61.3356 52.542 59.3568 52.5504 56.0944C52.5605 52.1051 53.1843 48.6632 53.7316 46.7563C54.1676 48.2783 54.65 50.7833 54.8363 53.8023C54.8765 54.4534 55.4364 54.948 56.0875 54.9083C56.7383 54.8681 57.2333 54.3079 57.1933 53.6571C57.057 51.4437 56.7372 49.1608 56.3072 47.3006C56.6207 47.671 56.9379 48.0941 57.2482 48.573C58.7249 50.8504 59.5946 53.5933 59.6347 56.1001C59.6316 58.3098 58.4077 60.2377 56.6033 61.2471Z" fill="#222528"/>
<path d="M68.0958 38.1828H39.3664C38.7142 38.1828 38.1856 38.7115 38.1856 39.3636V68.0956C38.1856 68.7477 38.7142 69.2764 39.3664 69.2764H68.0958C68.748 69.2764 69.2766 68.7477 69.2766 68.0956V39.3638C69.2766 38.7115 68.748 38.1828 68.0958 38.1828ZM66.915 66.9149H40.5472V40.5446H66.9148V66.9149H66.915Z" fill="#222528"/>
<path d="M17.3242 43.1016C14.7179 43.1016 12.5975 45.2207 12.5975 47.8255C12.5975 50.4299 14.7177 52.5488 17.3176 52.5488C17.971 52.5524 18.5027 53.0822 18.5027 53.7297C18.503 54.3774 17.9713 54.9071 17.3244 54.9107C14.718 54.9107 12.5976 57.0297 12.5976 59.634C12.5976 62.2386 14.7182 64.3578 17.3244 64.3578C23.1832 64.3578 27.9497 59.59 27.9497 53.7297C27.9496 47.8694 23.1831 43.1016 17.3242 43.1016ZM17.3244 61.9962C16.0203 61.9962 14.9594 60.9365 14.9594 59.634C14.9594 58.3317 16.0203 57.2725 17.331 57.2725C19.2794 57.2616 20.8647 55.6724 20.8647 53.7297C20.8648 51.7869 19.2794 50.1978 17.3244 50.187C16.0204 50.187 14.9594 49.1276 14.9594 47.8255C14.9594 46.5231 16.0203 45.4633 17.3244 45.4633C21.881 45.4633 25.5881 49.1716 25.5881 53.7297C25.5879 58.288 21.8809 61.9962 17.3244 61.9962Z" fill="#222528"/>
<path d="M34.6429 38.1828H5.90421C5.25194 38.1828 4.72339 38.7115 4.72339 39.3636V68.0956C4.72339 68.7477 5.25194 69.2764 5.90421 69.2764H34.6429C35.2952 69.2764 35.8238 68.7477 35.8238 68.0956V39.3638C35.8238 38.7115 35.2952 38.1828 34.6429 38.1828ZM33.4621 66.9149H7.08503V40.5446H33.4621V66.9149Z" fill="#222528"/>
<path d="M28.539 22.616C28.4943 19.6754 27.4859 16.4733 25.7728 13.8308C24.0734 11.2097 22.0177 9.6449 20.2738 9.6449C20.2409 9.6449 20.2082 9.64591 20.1755 9.64764C18.4527 9.70473 16.4421 11.2586 14.7747 13.8308C13.0614 16.4733 12.0532 19.6754 12.0085 22.616C12.0084 22.6219 12.0084 22.628 12.0084 22.6339C12.0084 27.1919 15.716 30.8998 20.2738 30.8998C24.8313 30.8998 28.5391 27.1917 28.5391 22.6339C28.5391 22.628 28.5391 22.6219 28.539 22.616ZM17.6114 14.2228C17.0593 16.7673 16.7386 19.8317 16.7315 22.6309C16.7273 24.2905 16.9188 26.2158 17.4044 27.7912C15.5987 26.7823 14.3735 24.8535 14.3701 22.6427C14.4102 20.136 15.2797 17.3929 16.7564 15.1155C17.0662 14.6376 17.3829 14.2151 17.6958 13.8451C17.6676 13.9678 17.6396 14.0931 17.6114 14.2228ZM23.1458 27.7899C23.3798 27.0298 23.5593 26.1407 23.6772 25.133C23.753 24.4852 23.2893 23.8987 22.6417 23.8228C21.9916 23.7465 21.4072 24.2108 21.3315 24.8585C21.092 26.904 20.5791 28.0418 20.2725 28.4316C19.8329 27.8782 19.0849 25.8995 19.0933 22.6371C19.1034 18.6477 19.7272 15.2059 20.2745 13.2989C20.7104 14.821 21.1929 17.326 21.3792 20.345C21.4192 20.9961 21.98 21.4917 22.6304 21.4509C23.2812 21.4108 23.7762 20.8505 23.7362 20.1997C23.5999 17.9865 23.2801 15.7035 22.8501 13.8432C23.1636 14.2137 23.4807 14.6367 23.7911 15.1157C25.2677 17.3931 26.1373 20.136 26.1773 22.6427C26.1742 24.8525 24.9501 26.7805 23.1458 27.7899Z" fill="#222528"/>
</g>
<defs>
<clipPath id="clip0_343_1070">
<rect width="74" height="74" fill="white"/>
</clipPath>
</defs>
</svg>
