<svg width="63" height="74" viewBox="0 0 63 74" fill="none" xmlns="http://www.w3.org/2000/svg">
<g clip-path="url(#clip0_147_17625)">
<path d="M13.8137 14.3033C13.0049 14.3033 12.3484 13.6468 12.3484 12.838V1.55189C12.3484 0.743022 13.0049 0.0865479 13.8137 0.0865479C14.6226 0.0865479 15.2791 0.743022 15.2791 1.55189V12.838C15.2791 13.6476 14.6233 14.3033 13.8137 14.3033Z" fill="#222528" stroke="#222528" stroke-width="0.5"/>
<path d="M22.4417 14.3033C21.6328 14.3033 20.9763 13.6468 20.9763 12.838V1.55189C20.9763 0.743022 21.6328 0.0865479 22.4417 0.0865479C23.2505 0.0865479 23.907 0.743022 23.907 1.55189V12.838C23.907 13.6476 23.2505 14.3033 22.4417 14.3033Z" fill="#222528" stroke="#222528" stroke-width="0.5"/>
<path d="M31.2749 14.3033C30.466 14.3033 29.8096 13.6468 29.8096 12.838V1.55189C29.8096 0.743022 30.466 0.0865479 31.2749 0.0865479C32.0838 0.0865479 32.7403 0.743022 32.7403 1.55189V12.838C32.7403 13.6476 32.0838 14.3033 31.2749 14.3033Z" fill="#222528" stroke="#222528" stroke-width="0.5"/>
<path d="M43.6233 73.2703H1.46461C0.655742 73.2703 -0.000732422 72.6138 -0.000732422 71.8049C-0.000732422 70.9961 0.655742 70.3396 1.46461 70.3396H43.6233C44.4322 70.3396 45.0887 70.9961 45.0887 71.8049C45.0887 72.6138 44.433 73.2703 43.6233 73.2703Z" fill="#222528" stroke="#222528" stroke-width="0.5"/>
<path d="M48.6971 51.3685H44.1208V48.4378H48.6971C54.1966 48.4378 58.6703 43.9626 58.6703 38.4617C58.6703 32.9615 54.1966 28.4864 48.6971 28.4864H44.1208V25.5557H48.6971C55.8128 25.5557 61.601 31.3452 61.601 38.4617C61.601 45.5789 55.8128 51.3685 48.6971 51.3685Z" fill="#222528" stroke="#222528" stroke-width="0.5"/>
<path d="M22.5443 68.1014C10.1131 68.1014 -0.000732422 57.9868 -0.000732422 45.5555V18.1646H45.0887V45.5555C45.0887 57.9875 34.9749 68.1014 22.5443 68.1014ZM2.92996 21.0952V45.5555C2.92996 56.372 11.7286 65.1707 22.5443 65.1707C33.3601 65.1707 42.158 56.3713 42.158 45.5555V21.0952H2.92996Z" fill="#222528" stroke="#222528" stroke-width="0.5"/>
</g>
<defs>
<clipPath id="clip0_147_17625">
<rect width="62.2772" height="74" fill="white"/>
</clipPath>
</defs>
</svg>
