<svg width="74" height="74" viewBox="0 0 74 74" fill="none" xmlns="http://www.w3.org/2000/svg">
<path d="M58.0166 23.5751L49.8456 20.1919C45.3538 18.3289 40.7795 20.6843 39.6832 25.4218L30.5418 64.8996C29.9928 67.2698 31.3818 69.9656 33.6298 70.8974C35.8763 71.8279 38.7678 70.9015 40.0535 68.8402L61.5056 34.4604C64.0783 30.3339 62.51 25.4355 58.0169 23.5743L58.0166 23.5751Z" stroke="#222528" stroke-width="2.5" stroke-miterlimit="10" stroke-linecap="round" stroke-linejoin="round"/>
<path d="M53.9329 2.74072C56.5752 9.12369 56.3795 15.971 53.9315 21.8843C56.3787 15.9704 56.5752 9.12248 53.9329 2.74072Z" stroke="#222528" stroke-width="2.5" stroke-miterlimit="10" stroke-linecap="round" stroke-linejoin="round"/>
<path d="M71.2606 14.7043C64.4907 11.8989 56.7355 15.1147 53.9312 21.8834C55.7993 17.3697 53.6585 12.1964 49.145 10.3275C46.8899 9.39425 44.4696 9.46063 42.3784 10.3275C44.4688 9.46063 46.8905 9.39425 49.145 10.3275C53.6585 12.1961 55.7993 17.3695 53.9312 21.8834C56.7358 15.1147 64.4918 11.8992 71.2606 14.7043Z" stroke="#222528" stroke-width="2.5" stroke-miterlimit="10" stroke-linecap="round" stroke-linejoin="round"/>
<path d="M38.6442 29.9061L48.8562 34.1359L38.6442 29.9061Z" stroke="#222528" stroke-width="2.5" stroke-miterlimit="10" stroke-linecap="round" stroke-linejoin="round"/>
<path d="M54.3234 45.9728L45.4733 42.3076L54.3234 45.9728Z" stroke="#222528" stroke-width="2.5" stroke-miterlimit="10" stroke-linecap="round" stroke-linejoin="round"/>
<path d="M34.6013 47.3729L42.0898 50.4749L34.6013 47.3729Z" stroke="#222528" stroke-width="2.5" stroke-miterlimit="10" stroke-linecap="round" stroke-linejoin="round"/>
<path d="M44.8305 61.1796L38.7069 58.6425L44.8305 61.1796Z" stroke="#222528" stroke-width="2.5" stroke-miterlimit="10" stroke-linecap="round" stroke-linejoin="round"/>
<path d="M27.026 15.3655L20.6587 20.4203L14.1443 13.4468L14.4679 22.9864L6.39014 23.9134C8.88966 24.9497 10.8719 26.6996 12.2177 28.8247C15.0881 27.9608 18.0694 28.1704 20.6911 29.2536L20.6904 29.25C21.7762 26.6254 23.7388 24.3704 26.381 22.9553C25.7967 20.3618 26.0539 17.7161 27.0259 15.3657L27.026 15.3655Z" stroke="#222528" stroke-width="2.5" stroke-miterlimit="10" stroke-linecap="round" stroke-linejoin="round"/>
<path d="M39.6832 25.4217C39.8188 24.829 40.0123 24.273 40.2505 23.7586C36.6355 21.2754 31.8808 20.6085 27.5263 22.4114C24.3034 23.7459 21.9276 26.2595 20.6905 29.2501L20.6912 29.2536C17.7029 28.0187 14.2426 27.9156 11.0197 29.252C4.17964 32.0829 0.931813 39.9222 3.76425 46.7607C8.33512 57.7941 20.7229 63.1884 31.8504 59.2398L39.6832 25.4217Z" stroke="#222528" stroke-width="2.5" stroke-miterlimit="10" stroke-linecap="round" stroke-linejoin="round"/>
</svg>
