<svg width="142" height="138" viewBox="0 0 142 138" fill="none" xmlns="http://www.w3.org/2000/svg">
<path d="M206.582 41.234C203.769 37.7872 200.087 35.0809 196.175 33.3192C194.231 32.4255 192.237 31.7362 190.243 31.2255C188.248 30.6894 186.228 30.3319 184.182 30.3575C182.137 30.3575 180.04 30.8936 178.531 32.0681C177.023 33.217 176.153 34.7234 175.565 36.1532C174.415 39.0638 174.057 41.8468 173.443 44.3745C172.855 46.8766 172.088 49.2 170.605 50.8085C169.147 52.4681 166.948 53.1319 164.928 53.2085C162.243 53.2596 159.942 52.8 158.101 52.3149C157.768 51.9319 157.513 51.6766 157.359 51.7277C157.282 51.7277 157.257 51.8809 157.282 52.0851C156.618 51.9064 156.03 51.7021 155.518 51.5489C155.39 51.4979 155.288 51.4723 155.135 51.4213C154.112 50.6553 153.063 49.8638 151.989 49.0468C152.654 48.5362 153.268 48.0255 153.83 47.4638C157.078 44.4255 159.712 40.417 160.504 35.9234C161.348 31.4298 160.146 26.9617 158.177 23.3617C156.209 19.7106 153.498 16.7745 150.66 14.2723C147.796 11.7702 144.727 9.72766 141.633 8.04255C135.445 4.67234 129.155 2.62979 123.3 1.55745C117.444 0.53617 112.125 0 107.421 0C102.716 0 98.7011 0.485106 95.4537 1.1234C95.4537 1.1234 95.4281 1.1234 95.4025 1.1234C91.3113 1.81277 86.5552 3.08936 81.6713 5.20851C78.2193 6.68936 75.1253 8.4766 72.5172 10.417C72.7217 10.1362 72.8496 9.93192 72.7984 9.88085C72.7473 9.82979 72.466 10.0085 72.0058 10.417C71.6989 10.5191 71.2387 10.9532 70.8551 11.566C70.625 11.7957 70.4204 12.0766 70.1647 12.3574C70.088 12.434 69.9857 12.5106 69.909 12.5872C69.8067 12.6894 69.6789 12.766 69.5766 12.8426C67.7355 14.4 66.0735 16.4426 64.795 18.817C63.4909 21.1915 62.4936 23.8723 61.5987 26.6809C60.7037 29.4894 59.8599 32.5021 59.3996 35.7702C59.1695 37.4043 59.0417 39.1149 59.1695 40.9021C59.2974 42.6638 59.7065 44.6043 60.8571 46.3404C62.0078 48.1021 64.0278 49.2766 66.0223 49.6596C68.0168 50.0936 70.0113 49.9915 71.929 49.7617C75.7902 49.2255 79.4723 47.9745 83.1288 46.5702C86.7853 45.1404 90.4419 43.4298 94.0984 41.617L99.4938 38.8596C101.105 38.1447 102.869 37.8383 104.71 37.966C108.418 38.2213 112.228 39.9575 115.961 41.9489C118.032 43.0723 120.155 44.2723 122.302 45.4979C119.183 47.7957 116.703 51.0383 115.577 54.7915C114.273 59.0809 114.58 63.8043 116.063 68.3234C116.882 70.7745 118.007 73.1745 119.413 75.4723C114.273 80.1702 109.824 84.5872 104.966 87.166C102.843 88.3404 100.696 89.1064 98.6244 89.566C98.1897 89.4894 97.6271 89.3362 96.9623 89.1574C96.5788 89.0043 96.1441 88.8511 95.6838 88.6979C95.4281 88.6213 95.198 88.5191 94.9423 88.4426C93.0245 87.6511 90.672 86.3234 88.115 84.2298C86.4785 82.9277 84.7653 81.3702 82.8475 79.6596C82.4128 79.2766 81.9781 78.8936 81.5435 78.5106C81.7225 78.2043 81.927 77.8979 82.0549 77.566C82.8731 75.6766 83.2055 73.583 83.0265 71.5915C82.6941 67.583 80.7508 64.3149 78.7052 61.6085C77.6312 60.2553 76.6084 59.0043 75.3299 57.8298C74.0514 56.7064 72.6706 55.8128 71.2387 55.0979C68.3748 53.6936 65.4854 52.9787 62.7749 52.4426C60.0645 51.9064 57.5074 51.5745 55.1294 51.1915C53.2884 50.9106 51.5752 50.6043 49.9387 50.2213C49.683 50.0681 49.4272 49.9149 49.1204 49.6851C47.6629 48.6894 45.8474 46.5957 45.1315 43.3277C44.3388 40.0596 44.5433 35.9234 44.5178 31.0979C44.4666 28.6723 44.3643 26.0426 43.6228 23.2851C43.2393 21.9064 42.7023 20.5021 41.884 19.2C41.0914 17.8468 39.9407 16.6979 38.79 15.6766C36.4631 13.583 33.5226 11.7191 29.9939 10.9532C26.4908 10.1617 22.5785 10.7489 19.1521 12.4085C15.7001 14.0426 12.6828 16.5957 10.0747 19.5574C7.46651 22.5447 5.26747 25.966 3.50312 29.7447C1.84106 33.5489 0.511405 37.6596 0.102281 42.1277C0 43.2511 -0.0255702 44.3745 0.0255702 45.5489C0.102281 46.6723 0.204562 47.7702 0.383553 48.8936C0.690396 51.0894 1.17623 53.3106 1.81549 55.4809C4.39808 64.1872 9.71669 72.4085 17.0809 78.6128C24.2661 84.7149 32.9089 88.5447 41.5772 90.2553C41.3215 91.4043 41.1425 92.5787 41.0658 93.7787C40.7845 98.5021 41.9607 103.328 44.1342 107.745C46.3077 112.162 49.4273 116.221 53.1349 119.77C60.5759 126.919 70.4971 131.847 81.0065 134.936C91.5158 138.102 103.559 139.379 115.143 136.06C126.7 132.817 136.443 125.668 143.756 117.447C147.464 113.336 150.711 108.996 153.421 104.374C154.265 102.894 155.058 101.413 155.774 99.8809C159.865 100.928 164.11 101.643 168.431 101.923C174.389 102.306 180.424 101.796 185.921 100.06C191.419 98.3489 196.251 95.3617 199.882 91.6596C206.94 84.1787 211.006 75.3192 212.463 66.4085C213.869 57.5489 212.233 48.2043 206.531 41.234H206.582ZM157.308 52.366C157.385 52.6468 157.513 52.9787 157.743 53.3617C157.001 52.8255 156.26 52.2894 155.518 51.7277C156.055 51.9064 156.643 52.1362 157.308 52.3404V52.366ZM135.394 43.4043C135.292 43.2766 135.19 43.1234 135.088 42.9957C135.088 42.9957 135.088 42.9702 135.088 42.9447C135.292 42.9447 135.497 42.9192 135.727 42.9192C135.727 42.9192 135.701 42.9447 135.676 42.9702C135.548 43.1234 135.471 43.2766 135.394 43.4043ZM129.436 44.9362C129.436 44.9362 129.36 44.8851 129.309 44.8851C129.258 44.8851 129.232 44.834 129.181 44.8085C129.258 44.783 129.334 44.7319 129.411 44.7064C129.411 44.8085 129.411 44.8596 129.411 44.9362H129.436ZM131.457 41.234C130.766 40.3149 129.897 39.1915 128.951 37.966C129.667 38.4511 130.383 38.9106 131.073 39.3957C131.175 39.5234 131.252 39.6255 131.354 39.7277C131.712 40.1617 132.045 40.5702 132.377 40.9532C132.07 41.0298 131.763 41.1319 131.457 41.2085V41.234ZM147.668 45.8553V45.8043C147.668 45.8043 147.898 45.7787 148.052 45.7532C148.307 46.0596 148.563 46.3404 148.768 46.5702C148.768 46.5702 148.742 46.5702 148.716 46.5957C148.358 46.3404 148.026 46.0851 147.668 45.8298V45.8553ZM104.915 34.1362C102.562 34.0085 100.082 34.417 97.934 35.4383L92.4364 38.3489C88.8821 40.2128 85.3534 41.9234 81.8503 43.4043C80.2138 44.0936 78.5773 44.7064 76.9408 45.2681C76.3527 44.5532 75.4322 43.6085 74.2815 42.6638C72.1592 40.9021 70.267 39.7277 70.088 39.9319C69.909 40.1617 71.5455 41.6936 73.6423 43.4298C74.6139 44.2468 75.5089 44.9617 76.1993 45.5234C75.6367 45.7021 75.0742 45.8553 74.5116 46.0085C73.7957 45.4468 72.8496 44.783 71.8268 44.0681C69.4232 42.383 67.6077 40.8255 67.4031 41.0298C67.1986 41.2085 68.7583 43.1489 71.2387 44.8851C72.0058 45.4213 72.7473 45.9064 73.4121 46.2894C72.7729 46.4426 72.108 46.5957 71.4688 46.6979C70.8807 46.366 70.2414 45.983 69.5766 45.5745C66.9429 43.966 65.4854 41.9489 65.2297 42.1021C64.974 42.2043 66.2269 44.7064 69.0396 46.417C69.3209 46.5957 69.6022 46.7489 69.8834 46.9021C69.5255 46.9277 69.1675 46.9532 68.8095 46.9787C68.2214 46.5702 67.5054 46.0851 66.7383 45.6C64.5137 44.1702 62.6982 42.9702 62.5192 43.2C62.3402 43.4043 63.9256 44.9617 66.2013 46.4426C66.4314 46.5957 66.6616 46.7234 66.8917 46.8766C65.2552 46.6213 63.8744 46.0085 63.0306 44.7575C61.3941 42.4596 61.3941 39.0383 61.6754 36.0511C61.88 33.9574 62.2891 31.9404 62.7493 29.9489C63.2863 28.8766 64.5904 25.0979 66.8406 20.8851C69.0908 16.4936 71.5711 13.2255 72.108 12.3064C74.9463 10.1106 77.8613 8.68085 80.2394 7.42979L85.9671 4.57021C91.0811 2.73191 95.9139 1.71064 99.6216 1.30213C99.7239 1.30213 99.8006 1.30213 99.8773 1.2766C101.795 1.14894 103.892 1.1234 106.142 1.2C106.807 1.25106 107.19 1.30213 107.19 1.2766C107.19 1.2766 107.165 1.25106 107.139 1.22553C107.19 1.22553 107.267 1.22553 107.318 1.22553C111.921 1.45532 117.137 2.22128 122.814 3.44681C128.414 4.7234 134.397 6.91915 140.202 10.366C141.812 11.3362 143.449 12.434 145.034 13.6085C145.52 14.1192 146.083 14.7064 146.696 15.3191C148.205 16.8766 149.714 18.0255 150.404 18.383C151.529 19.583 152.552 20.8596 153.473 22.2128C152.629 21.4213 151.964 21.0383 151.887 21.166C151.708 21.3957 153.396 22.9787 154.725 25.5064C155.416 26.7319 155.902 27.9574 156.362 28.8C156.49 29.0553 156.618 29.2596 156.745 29.4638C156.95 30.434 157.078 31.4298 157.103 32.4C156.592 31.7872 156.03 31.0468 155.467 30.1787C154.035 27.983 153.242 25.9149 152.961 26.017C152.731 26.0681 153.089 28.3404 154.623 30.7149C155.416 31.9404 156.336 32.8596 157.078 33.4213C157.052 34.034 156.976 34.6723 156.848 35.2851C156.797 35.5915 156.72 35.8723 156.643 36.1787C156.132 35.5404 155.544 34.8 154.981 33.9319C153.268 31.4043 152.168 29.1319 151.887 29.2596C151.657 29.3362 152.373 31.8383 154.163 34.4936C154.879 35.566 155.672 36.434 156.362 37.0979C156.157 37.7106 155.902 38.2979 155.62 38.8851C155.518 38.783 155.416 38.6553 155.288 38.5021C154.751 37.8638 154.086 36.9447 153.37 35.8723C151.938 33.7532 151.069 31.8894 150.813 31.966C150.532 32.0426 151.043 34.2128 152.552 36.434C153.294 37.5319 154.112 38.4511 154.802 39.0128C155.007 39.1915 155.186 39.2936 155.39 39.3957C155.058 40.0085 154.7 40.5957 154.291 41.183C153.779 40.5447 153.191 39.7787 152.552 38.8596C150.941 36.6128 149.969 34.5957 149.739 34.6723C149.432 34.7489 150.072 37.0979 151.734 39.4213C152.424 40.417 153.14 41.234 153.805 41.8468C153.779 41.8979 153.728 41.9234 153.703 41.9745C153.268 42.3575 152.782 42.7149 152.22 42.9957C151.683 42.2298 151.069 41.3872 150.43 40.4681C148.358 37.5319 146.722 35.0809 146.492 35.2085C146.262 35.3362 147.515 38.0426 149.611 41.0298C150.225 41.8979 150.839 42.6894 151.401 43.3787C150.967 43.5574 150.532 43.7106 150.072 43.8383C149.637 43.2511 149.151 42.6128 148.665 41.8979C146.927 39.3957 145.648 37.2255 145.392 37.3532C145.162 37.4553 146.057 39.8809 147.847 42.4596C148.256 43.0468 148.665 43.583 149.074 44.0426C148.972 44.0426 148.87 44.0936 148.742 44.1192C148.41 44.1702 148.077 44.1702 147.745 44.1702C147.233 43.4553 146.671 42.6894 146.057 41.8723C143.781 38.9362 141.838 36.6383 141.633 36.7915C141.403 36.9447 142.989 39.5234 145.29 42.4596C145.75 43.0468 146.185 43.6085 146.62 44.1447C145.98 44.0936 145.316 43.9915 144.651 43.8128C144.139 43.2 143.602 42.5362 143.04 41.8468C140.79 39.0638 139.204 36.6383 138.949 36.7915C138.718 36.9192 139.946 39.6255 142.247 42.4851C142.273 42.5106 142.298 42.5617 142.349 42.5872C142.017 42.4085 141.685 42.2553 141.327 42.1021C141.224 41.9489 141.122 41.7957 140.994 41.6426C141.045 41.6426 141.071 41.6681 141.097 41.6426C141.301 41.4894 140.329 39.9575 138.949 38.1192C138.361 36.9957 138.028 36.2298 137.875 36.2809C137.824 36.2809 137.798 36.4596 137.824 36.7149C136.494 35.1064 135.369 34.0085 135.19 34.1362C134.985 34.3149 136.136 36.1021 137.747 38.1957C138.028 38.5532 138.284 38.8851 138.539 39.1915C138.821 39.8809 139.23 40.6468 139.69 41.4383C139.255 41.2851 138.795 41.1319 138.335 41.0298C136.954 38.9617 135.957 37.2255 135.701 37.3532C135.65 37.3787 135.65 37.5319 135.701 37.7872C135.19 36.9702 134.372 35.8468 133.374 34.6213C131.584 32.4 129.973 30.7404 129.769 30.8936C129.564 31.0723 130.843 33.0128 132.607 35.234C134.193 37.2255 135.65 38.7575 136.11 38.9362C136.289 39.3702 136.545 39.8809 136.852 40.417C136.161 40.0085 135.471 39.5745 134.781 39.1404C134.525 38.7319 134.244 38.2979 133.988 37.8638C131.968 34.6979 130.025 32.3234 129.794 32.4766C129.667 32.5787 130.152 33.4979 130.945 34.8511C131.124 35.4128 131.457 36.2809 131.968 37.3021C130.792 36.5106 129.615 35.6936 128.414 34.8511C127.365 33.6511 126.649 32.9362 126.547 33.0128C126.496 33.0638 126.624 33.3447 126.879 33.7787C126.726 33.6766 126.598 33.5745 126.445 33.4723C125.627 32.9106 124.808 32.4255 123.964 31.9404C123.325 31.2 122.891 30.7915 122.788 30.8681C122.737 30.8936 122.814 31.0979 122.967 31.4043C122.405 31.0979 121.842 30.817 121.28 30.5362C119.618 28.2128 118.646 26.5021 118.467 26.5532C118.288 26.6043 118.748 27.983 119.822 29.8468C119.157 29.566 118.518 29.3106 117.853 29.0553C116.984 28.1106 116.447 27.5234 116.319 27.6255C116.242 27.6766 116.421 28.0851 116.805 28.7234C115.961 28.4426 115.117 28.2128 114.273 28.0085C113.609 27.0894 113.199 26.5021 113.097 26.5532C112.995 26.5787 113.097 27.0638 113.43 27.7787C111.998 27.4723 110.566 27.2681 109.134 27.166C108.571 27.1149 108.034 27.1149 107.497 27.1149C106.04 25.4553 105.145 24.3064 104.991 24.383C104.838 24.4596 105.4 25.583 106.474 27.1149C105.758 27.1149 105.068 27.166 104.378 27.217C103.815 26.7319 103.483 26.4766 103.38 26.5277C103.304 26.5787 103.432 26.8596 103.713 27.2681C103.457 27.2936 103.201 27.3192 102.946 27.3447C101.642 25.8638 100.849 24.817 100.696 24.9192C100.542 24.9957 101.054 26.0681 102.051 27.4979C101.591 27.5745 101.13 27.6511 100.696 27.7277C99.5193 26.6298 98.7011 25.8638 98.5477 25.9915C98.4198 26.0936 98.8545 26.8851 99.7239 27.9574C99.6216 27.983 99.4938 28.0085 99.3915 28.034C97.7294 26.2213 96.5788 24.7915 96.3742 24.9192C96.1952 25.0213 96.9367 26.5021 98.3687 28.2894C98.1385 28.3404 97.9084 28.417 97.6783 28.4936C95.3002 26.3745 93.3313 24.7404 93.1523 24.9192C92.9734 25.0979 94.4564 26.8596 96.6043 28.8255C96.0418 29.0043 95.5048 29.2085 94.9678 29.4128C92.6921 27.9064 91.209 26.4 91.0044 26.5277C90.7743 26.6553 91.8738 28.3404 93.8939 29.8468C93.5615 29.9745 93.2546 30.1277 92.9478 30.2553C90.1606 28.366 87.9616 26.8596 87.7826 27.0638C87.6036 27.2426 89.368 28.9277 91.8738 30.7149C91.4391 30.9191 91.0556 31.1234 90.6465 31.3021C87.936 29.4638 85.7881 27.9064 85.6091 28.1106C85.4557 28.2894 87.1433 30 89.6492 31.7872C89.2657 31.9915 88.9077 32.1702 88.5753 32.3745C86.9643 31.0468 85.7881 30.1021 85.6347 30.2553C85.4813 30.383 86.3251 31.5064 87.7315 32.8596C87.1178 33.217 86.5552 33.5489 86.0438 33.8553C84.0493 32.1702 82.6174 30.6383 82.3873 30.817C82.1827 30.9702 83.2567 32.6809 85.1489 34.3915C84.663 34.6979 84.2283 34.9787 83.8448 35.2085C81.9782 33.5489 80.4184 32.2213 80.2138 32.4255C80.0348 32.6043 81.1855 34.1362 83.001 35.7702C82.6174 36.0255 82.3873 36.1787 82.3873 36.1787L83.0777 35.8213C83.0777 35.8213 83.1799 35.9234 83.2311 35.9489C85.1744 37.6851 87.1178 38.5532 87.2456 38.3234C87.3735 38.0936 85.8393 36.9447 84.0493 35.3362L85.4557 34.6213C85.4557 34.6213 85.5324 34.6979 85.5836 34.7234C87.7315 36.5362 89.8282 37.4553 89.9561 37.2511C90.0839 37.0213 88.3963 35.7957 86.4274 34.1617C86.9643 33.9064 87.578 33.6255 88.2429 33.3192C88.6264 33.6766 89.0355 34.0085 89.4702 34.366C91.8994 36.3064 94.124 37.4809 94.2774 37.2511C94.4308 37.0213 92.462 35.4894 90.1095 33.6C89.8026 33.3447 89.4958 33.1149 89.2145 32.8851C89.6236 32.7064 90.0583 32.5277 90.493 32.3489C93.3058 34.2128 95.7861 35.3362 95.9139 35.1064C96.0418 34.8766 94.0984 33.5745 91.5926 31.8894C92.0273 31.7106 92.4875 31.5574 92.9222 31.4043C95.7094 33.2681 97.8828 34.7745 98.0363 34.5702C98.2152 34.3915 96.502 32.7575 94.0473 30.9957C94.303 30.9192 94.5331 30.817 94.7888 30.7404C94.8911 30.7149 95.019 30.6894 95.1213 30.6383C97.5248 32.1702 99.5193 33.1404 99.6472 32.9617C99.8006 32.7575 98.3431 31.6085 96.3486 30.2809C96.8345 30.1532 97.3203 30.0255 97.8317 29.8979C99.954 31.7617 101.616 33.1404 101.795 32.9617C101.949 32.8085 100.772 31.3787 98.9824 29.6426C99.1613 29.617 99.3148 29.566 99.4938 29.5404C99.596 29.6426 99.6727 29.7447 99.7495 29.8468C102.051 32.2213 104.301 33.7021 104.454 33.5234C104.633 33.2936 102.818 31.583 100.644 29.3617C100.747 29.3617 100.849 29.3362 100.951 29.3106C101.233 29.617 101.539 29.8979 101.872 30.2043C104.045 32.1957 105.886 33.7021 106.091 33.4979C106.295 33.2936 104.71 31.4553 102.562 29.4638C102.434 29.3617 102.332 29.234 102.204 29.1319C102.562 29.1064 102.895 29.0553 103.253 29.0298C103.79 29.6681 104.378 30.3319 105.068 30.9957C106.935 32.834 108.699 34.2638 109.824 35.0298C108.239 34.5702 106.602 34.2128 104.864 34.1106L104.915 34.1362ZM110.873 35.3617C110.361 34.6468 108.239 32.7064 105.81 30.3064C105.349 29.8468 104.915 29.4128 104.506 28.9787C104.736 28.9787 104.94 28.9787 105.17 28.9532C105.81 29.6426 106.602 30.383 107.523 31.1234C110.182 33.2426 112.432 34.7489 112.611 34.5702C112.816 34.3404 110.77 32.4766 108.162 30.3575C107.548 29.8723 106.986 29.4128 106.474 28.9532C107.011 28.9532 107.548 29.0043 108.085 29.0553C108.597 29.6681 109.134 30.2809 109.773 30.8936C112.918 34.0596 115.654 36.3574 115.833 36.1787C116.063 35.9745 113.583 33.3192 110.489 30.2043C110.157 29.8723 109.824 29.5149 109.517 29.183C110.387 29.2851 111.256 29.4383 112.125 29.6426C112.56 30.383 113.225 31.3277 114.094 32.2468C115.961 34.1872 117.853 35.3106 118.007 35.1064C118.186 34.8766 116.6 33.4213 114.81 31.5574C114.248 30.9702 113.762 30.4085 113.327 29.9234C113.89 30.0766 114.452 30.2298 115.015 30.4085C115.475 31.0979 116.012 31.8383 116.651 32.5532C119.183 35.4894 121.612 37.4298 121.791 37.2511C122.021 37.0468 119.873 34.7745 117.418 31.9149C117.137 31.583 116.882 31.2766 116.626 30.9702C117.546 31.3277 118.492 31.6851 119.413 32.1192C119.745 32.5277 120.129 32.9617 120.512 33.3702C123.121 36.2809 125.371 38.5021 125.575 38.3234C125.78 38.1447 124.118 35.9489 121.791 33.3192C122.098 33.4979 122.43 33.6766 122.737 33.8553C125.627 37.4043 128.081 40.0851 128.286 39.9574C128.49 39.8043 127.186 37.9149 125.243 35.4128C125.627 35.6681 125.985 35.9234 126.368 36.1787C126.726 36.6638 127.11 37.1489 127.493 37.6596C128.644 39.1404 129.743 40.417 130.689 41.4383C130.331 41.5404 129.948 41.6426 129.59 41.7447C128.465 42.1277 127.34 42.5872 126.266 43.0979C123.479 41.5404 120.717 39.9064 117.853 38.4C115.654 37.2511 113.378 36.1532 110.949 35.3362L110.873 35.3617ZM121.919 65.9489C122.251 67.2255 122.865 69.0383 123.76 71.0298C123.837 71.2085 123.913 71.3617 123.99 71.5404C123.862 71.6426 123.734 71.7447 123.581 71.8468C123.376 71.4128 122.967 70.4426 122.379 69.3702C122.175 68.9872 121.944 68.6553 121.74 68.3489C121.791 67.634 121.842 66.817 121.893 65.9489H121.919ZM121.612 70.1106C121.612 70.1106 121.612 70.1106 121.612 70.0851C122.405 71.1575 123.07 71.7702 123.07 71.7702C123.07 71.7702 123.044 71.6936 122.993 71.617C123.172 71.7702 123.351 71.8979 123.453 71.9745C123.146 72.2043 122.814 72.4596 122.507 72.6894C122.328 72.0511 121.996 71.183 121.561 70.1362L121.612 70.1106ZM98.4198 89.5404C98.4198 89.5404 98.2664 89.5404 98.1897 89.566C98.0874 89.5149 97.9595 89.4638 97.8317 89.4128C98.0362 89.4383 98.2664 89.4894 98.4198 89.5149V89.5404ZM44.5945 48.3319C44.3643 48.2043 44.1342 48.0511 43.9041 47.9234C44.1086 48.0766 44.3643 48.2043 44.5945 48.3319ZM45.6173 48.8681C46.0008 49.0468 46.3588 49.2255 46.6912 49.3787C46.6401 49.3787 46.589 49.3532 46.5378 49.3277C46.231 49.1745 45.9241 49.0213 45.6173 48.8681ZM19.6379 75.5745C12.8618 69.8298 7.9012 62.3234 5.44646 54.3575C4.83277 52.366 4.34694 50.3489 4.0401 48.3319C3.70768 46.2638 3.52869 44.3745 3.68211 42.4085C3.96339 38.5021 5.08848 34.6723 6.62269 31.1234C9.71669 24.1277 14.4727 17.9745 20.405 14.834C23.3456 13.3021 26.593 12.7149 29.6103 13.2766C32.6276 13.8128 35.3125 15.3447 37.5627 17.183C39.9407 18.9702 41.3215 21.2426 42.1397 23.7702C42.9324 26.2723 43.1625 28.8 43.316 31.2C43.5972 35.9489 43.5972 40.2128 44.5945 43.5319C44.6968 43.9404 44.8758 44.2723 45.0292 44.6298C44.7223 44.5787 44.4666 44.6809 44.4922 44.6809C44.4922 44.6809 44.5945 45.2681 44.6712 45.4723C44.8246 45.7787 45.4639 46.0085 45.4383 45.9575C45.4383 45.9575 45.4383 45.9064 45.4894 45.8553C46.5122 47.8723 47.9442 49.2 49.0693 49.8894C49.2738 50.017 49.4272 50.0936 49.6062 50.1957C49.0693 50.0681 48.5579 49.9404 48.0465 49.8128C47.7396 49.4553 47.1259 48.8426 46.2821 48.2553C46.5378 48.2553 46.7168 48.2298 46.7168 48.2298C46.7168 48.2298 46.5122 47.5915 46.1543 47.2085C45.7707 46.8511 45.1315 46.6468 45.1315 46.6468C45.1315 46.6468 45.0292 47.0043 45.1826 47.4128L44.8246 47.1064C43.9808 46.3915 43.137 45.8553 42.5233 45.4979C42.0375 44.7319 40.6055 43.0723 38.9179 41.1319C36.7444 38.5787 34.8522 36.6128 34.6221 36.7915C34.4175 36.9702 35.9517 39.217 38.1763 41.7957C39.7361 43.6085 41.2448 45.0128 42.063 45.6255C42.2676 45.9064 42.5489 46.2383 42.9324 46.6468C42.3443 46.4426 41.9607 46.3404 41.9607 46.3149C41.9607 46.3149 42.6256 47.0553 43.7251 47.8213C42.0375 46.7489 41.0146 45.7021 41.0146 45.6766C41.0146 45.6766 41.0658 45.7787 41.1425 45.983C40.4521 45.0894 39.4804 43.9149 38.3553 42.5362C37.8951 41.9745 37.4348 41.4638 37.0257 40.9532C36.8978 40.6213 36.8467 40.417 36.8211 40.417C36.8211 40.417 36.8723 40.5957 36.949 40.8766C35.3892 39.0383 34.2385 37.7617 34.0851 37.8638C33.8294 38.0426 35.3381 40.4681 37.5882 43.1489C37.8695 43.5064 38.1508 43.8383 38.4321 44.1447C38.5855 44.3745 38.7389 44.6298 38.9179 44.8596C38.7133 45.0128 39.1736 46.1617 40.2987 47.0553C41.1169 47.7447 41.9607 48.1021 42.421 48.1277C42.6511 48.2809 42.9068 48.4596 43.1625 48.6128C43.3927 48.7404 43.674 48.8681 43.9041 48.9958C44.2621 49.2511 44.62 49.4809 45.0547 49.6851C46.2565 50.3234 47.4072 50.6553 48.3533 50.834C50.3733 51.4723 52.598 51.983 55.0016 52.4681C59.6809 53.4894 65.2552 54.1787 70.4204 56.8851C71.6989 57.5745 72.9007 58.417 73.9491 59.4383C74.9719 60.4596 75.9691 61.7362 76.9152 63.0128C78.7307 65.5915 80.2905 68.6043 80.4184 71.7958C80.5207 73.4809 80.1115 75.1404 79.3444 76.6723C78.5517 76.0596 77.7335 75.4723 76.8385 74.8851C76.992 74.9617 77.0942 74.9617 77.1454 74.9362C77.3244 74.7575 76.4806 73.5574 75.1509 72.3064C73.8212 71.0553 72.4405 70.3915 72.287 70.6213C72.1336 70.8511 73.182 71.8213 74.4605 73.0213C75.0742 73.583 75.6367 74.0681 76.097 74.4255C73.54 72.8681 70.3181 71.6681 66.7894 71.7447C64.9995 71.7447 63.184 72.1532 61.4453 72.5617C59.6809 72.9958 57.8654 73.5574 56.0755 74.2979C55.0016 74.7319 53.9532 75.2681 52.9048 75.8553C52.777 75.5234 52.4701 75.2936 52.4701 75.2936C52.4701 75.2936 51.9843 75.6511 51.9843 76.0851C51.9843 76.1872 52.0098 76.2894 52.061 76.366C51.6263 76.6213 51.166 76.8766 50.7313 77.183C50.7313 77.1319 50.7313 77.1064 50.7313 77.0553C50.7313 76.0851 50.2455 75.2936 50.2455 75.2936C50.2455 75.2936 49.7597 76.0851 49.7597 77.0553C49.7597 77.3362 49.8108 77.617 49.8619 77.8468C49.4528 78.1532 49.0437 78.4341 48.6601 78.766C48.7113 78.6638 48.9158 78.2553 48.8647 77.9489C48.8136 77.6936 48.5579 77.4128 48.4044 77.3106C48.3533 77.0809 48.3277 76.9277 48.3022 76.9277C48.3022 76.9277 47.6118 77.7702 47.5351 78.9702C47.5351 79.2766 47.5351 79.5574 47.5862 79.8128C47.3816 79.9915 47.2026 80.1957 47.0236 80.3745C47.0236 79.8128 46.9469 79.0213 46.7679 78.1277C46.4611 76.5702 45.7707 75.3192 45.7707 75.3192C45.7707 75.3192 45.4894 76.6979 45.8218 78.3064C46.0264 79.3532 46.4611 80.1702 46.7679 80.6298C46.5378 80.8596 46.3077 81.0638 46.0776 81.3192C46.0776 80.9362 46.052 80.5277 45.9497 80.0936C45.515 78 44.4922 76.5702 44.5178 76.5702C44.5178 76.5702 44.5689 78.3319 44.978 80.2979C45.1315 81.0128 45.2593 81.6766 45.336 82.2638C45.1315 82.5192 44.9525 82.8 44.7735 83.0553C44.7223 82.8255 44.6968 82.5702 44.6456 82.3149C44.2621 80.8851 43.5461 79.8638 43.3415 79.5574C42.7023 77.6426 41.9607 76.2383 41.9607 76.2383C41.9607 76.2383 41.9096 78.2553 42.6 80.5277C42.6767 80.7319 42.7279 80.9362 42.8046 81.1404C42.6511 80.9872 42.4977 80.8341 42.3699 80.7319C41.4238 78.1787 40.3754 76.2383 40.3754 76.2383C40.3754 76.2383 40.5032 77.7958 41.0658 79.8128C40.0685 77.234 38.7645 75.5745 38.7645 75.6C38.7645 75.6 39.5571 78.0255 40.4777 81.0894C39.9407 80.7319 39.3782 80.4 38.8412 80.017C38.611 79.6851 38.4576 79.4298 38.4576 79.4298C38.4576 79.4298 38.4576 79.5574 38.5088 79.7872C37.2303 77.0553 36.5399 74.6809 36.5654 74.6553C36.5654 74.6298 36.3864 76.4681 37.1024 78.7915C36.3609 78.2553 35.6449 77.6936 34.9034 77.1064C34.392 76.1872 34.0084 75.6255 34.0084 75.6255C34.0084 75.6255 34.1107 75.983 34.2641 76.5957C33.855 76.2638 33.4459 75.8809 33.0112 75.5234C32.4998 74.2213 32.0906 73.3787 32.0651 73.3787C32.0651 73.3787 32.0906 73.9404 32.2185 74.8596C31.9628 74.6298 31.6815 74.4 31.4258 74.1702C24.3684 67.7617 19.2288 60.6383 16.6462 54.9702C14.1659 49.6596 13.8846 45.8553 13.6801 45.4213C13.2454 42.1787 13.2198 40.1617 13.1942 40.1872C13.1942 40.1872 12.9897 42.6638 13.3477 46.6723C13.7056 50.6553 14.6517 56.1957 16.9531 61.9149C18.5128 65.8468 20.4818 69.2426 22.5018 71.9489C22.5018 72.1532 22.5018 72.383 22.5529 72.6383C21.8625 71.9745 21.1721 71.3106 20.5073 70.5957C19.28 69.0128 18.6407 67.8638 18.5128 67.9404C18.4617 67.9404 18.5128 68.1447 18.5896 68.4255C18.0782 67.8383 17.6179 67.2255 17.1321 66.6128C16.9531 66.2298 16.7485 65.8468 16.5695 65.4383C14.754 61.583 12.734 56.017 11.5066 49.634C10.2537 43.2766 10.1258 37.3277 10.7651 33.1149C11.3788 28.8766 12.6317 26.4766 12.5806 26.4766C12.6317 26.4766 11.1486 28.7745 10.2792 33.0383C9.38427 37.2766 9.25642 43.3532 10.5349 49.8128C11.66 55.583 13.6034 60.6128 15.4444 64.3404C13.6034 61.7106 12.0436 59.0298 10.8929 56.3489C8.92401 51.7532 7.97791 47.2596 7.59436 43.4298C6.87839 35.7192 7.82449 30.817 7.72221 30.817C7.82449 30.817 5.90672 35.4383 5.59988 43.5064C5.4976 47.5149 5.98343 52.417 7.77335 57.5489C9.53769 62.6809 12.6317 67.9149 16.8508 72.4851C18.3083 74.0936 19.8681 75.5489 21.4279 76.9277C20.8397 76.4681 20.2516 76.034 19.6891 75.5489L19.6379 75.5745ZM48.5323 78.8681C48.5323 78.8681 48.5323 78.817 48.5323 78.7915C48.5834 78.7915 48.5834 78.7915 48.609 78.7915C48.609 78.7915 48.5579 78.817 48.5323 78.8426V78.8681ZM46.8702 84.766C46.8702 84.766 46.8191 84.766 46.8191 84.7404C46.8191 84.7404 46.8191 84.7404 46.8191 84.7149C46.8191 84.7149 46.8447 84.766 46.8702 84.766ZM38.611 84.5872C38.611 84.5872 38.4321 84.4085 38.3298 84.3319C38.2786 84.2298 38.2275 84.1277 38.1508 84C38.5855 84.383 38.9946 84.7149 39.327 84.9958C39.0713 84.8681 38.8412 84.7404 38.5855 84.6128L38.611 84.5872ZM37.6649 80.4511C37.8184 80.7575 37.9718 81.0638 38.1252 81.3702C38.0996 81.3702 38.0229 81.3192 37.9974 81.3192C37.8439 81.166 37.7161 81.0128 37.5627 80.834C37.0257 80.2468 36.5143 79.7106 36.0796 79.2766C36.591 79.6596 37.128 79.9915 37.6394 80.3489C37.6394 80.3745 37.6394 80.4 37.6649 80.4255V80.4511ZM39.8896 81.9064C39.8896 81.9064 39.8896 81.8553 39.864 81.8553C40.1964 82.0596 40.5288 82.2638 40.8868 82.4681C40.8868 82.5447 40.9379 82.6213 40.9635 82.6979C40.5544 82.3915 40.1964 82.1362 39.9151 81.9064H39.8896ZM42.7534 85.2766C42.7534 85.2766 42.9068 85.4043 43.0091 85.4553C43.0858 85.5064 43.137 85.5319 43.2137 85.6085C43.1625 85.6851 43.137 85.7617 43.1114 85.8638C43.0603 85.7106 42.958 85.5319 42.7534 85.2766ZM43.5972 84.6638C43.5972 84.6638 43.5461 84.6128 43.495 84.5872C43.4438 84.3575 43.3671 84.1021 43.2904 83.8213C43.5205 83.9489 43.7507 84.0766 43.9808 84.1787C43.8785 84.3575 43.7762 84.5362 43.674 84.7149C43.6484 84.7149 43.6228 84.6638 43.5717 84.6383L43.5972 84.6638ZM42.958 82.6213C42.958 82.6213 42.9324 82.5447 42.9068 82.4936C42.958 82.5702 43.0091 82.6213 43.0603 82.6979C43.0347 82.6979 42.9836 82.6468 42.958 82.6468V82.6213ZM41.6795 81.8553C41.6795 81.8553 41.6795 81.8553 41.6795 81.8809C41.6795 81.8809 41.6795 81.8809 41.6795 81.8553ZM42.0119 83.1319C42.0119 83.1319 42.1909 83.234 42.2676 83.2596C42.3699 83.4894 42.4721 83.7192 42.5744 83.9234C42.421 83.8213 42.2676 83.6936 42.1142 83.5915C42.0886 83.4383 42.0375 83.2851 42.0119 83.1319ZM46.1031 85.9404C46.1031 86.1447 46.1543 86.3745 46.2054 86.6298C46.1031 86.5532 46.0008 86.4766 45.8986 86.4C45.9753 86.2468 46.0264 86.0936 46.1031 85.9404ZM29.7382 78.434C28.9966 77.9489 28.1273 77.3872 27.2067 76.7489C27.13 76.6723 27.0533 76.5702 26.951 76.4936C26.9254 76.3149 26.8743 76.1362 26.8487 75.9575C26.7976 75.6766 26.7465 75.3958 26.6953 75.1404C27.1812 75.6766 27.6926 76.1617 28.1784 76.6468C28.2807 76.8255 28.7921 77.3106 29.5336 77.9745C29.6103 78.1532 29.6615 78.3064 29.7382 78.4596V78.434ZM23.5246 73.634C23.4479 73.4553 23.3968 73.2766 23.32 73.0979C23.7547 73.634 24.1639 74.1191 24.573 74.5787C24.215 74.2723 23.857 73.966 23.5246 73.634ZM25.5958 73.9149C25.6214 74.2979 25.6725 74.6809 25.7236 75.0894C25.6725 75.0128 25.5958 74.9617 25.5447 74.8851C22.9621 71.8468 20.0471 67.1745 17.8224 61.5319C16.6206 58.5702 15.7513 55.6851 15.0864 53.0298C15.3421 53.7192 15.6234 54.4596 15.9558 55.2255C17.7969 59.566 21.0954 64.7234 25.6214 69.7532C25.5958 70.1362 25.5191 71.0809 25.5447 72.383C22.4251 68.9106 20.2772 66.1532 20.0726 66.3064C19.8936 66.434 22.0671 69.9575 25.6214 73.9149H25.5958ZM27.3346 74.3489C27.0022 73.9915 26.6953 73.6596 26.3629 73.3021C26.0561 71.6681 25.8259 70.3915 25.6981 69.8553C26.4908 70.7489 27.3346 71.617 28.204 72.5106C28.2807 73.1234 28.4341 74.4255 28.8432 75.9319C28.3318 75.4213 27.8204 74.9106 27.309 74.3489H27.3346ZM30.3263 77.3617C30.2496 77.1064 30.1729 76.8766 30.0962 76.6213C29.5592 74.9872 28.9455 73.6085 28.5364 72.817C29.2268 73.5064 29.9427 74.1957 30.6843 74.8851C31.1445 75.3192 31.6304 75.7021 32.1162 76.1106C32.2185 76.2894 32.3463 76.5191 32.4998 76.7745C32.5253 76.8766 32.5509 77.0043 32.5765 77.1319C32.4998 77.0809 32.423 77.0298 32.3975 77.0553C32.3208 77.1064 32.3975 77.3617 32.602 77.7702C32.602 77.8213 32.602 77.8979 32.602 77.9745C32.5253 77.8723 32.4486 77.7447 32.3719 77.6426C31.7327 76.6468 31.4514 75.9319 31.298 75.983C31.1701 76.0085 31.2212 76.8255 31.7582 77.9745C31.9628 78.4596 32.2952 79.0213 32.6787 79.583C31.9884 78.9447 31.1701 78.2043 30.3007 77.3872L30.3263 77.3617ZM150.046 102.332C147.438 106.621 144.267 110.757 140.687 114.613C133.63 122.374 124.553 128.86 113.967 131.847C108.188 133.506 102.23 133.915 96.3742 133.481C96.0673 132.817 93.587 129.932 91.0811 126.077C88.2684 121.813 86.1205 118.238 85.8393 118.391C85.6091 118.519 87.3223 122.349 90.1862 126.689C92.5131 130.264 95.0701 132.817 96.0162 133.481C94.6866 133.379 93.3825 133.226 92.0784 133.047C91.209 131.515 89.7771 129.191 88.0383 126.613C85.1233 122.247 82.5407 118.826 82.285 118.979C82.0293 119.132 84.2028 122.834 87.1178 127.2C88.652 129.498 90.0839 131.515 91.1323 132.894C90.314 132.766 89.4958 132.638 88.7031 132.46C87.7826 131.132 86.0438 128.809 84.0493 126.102C81.0576 121.991 78.4239 118.774 78.1682 118.979C77.9381 119.157 80.1627 122.604 83.1799 126.74C84.8932 129.089 86.5552 131.03 87.7315 132.281C86.7086 132.077 85.7114 131.847 84.6886 131.592C83.8192 130.391 81.927 128.043 79.9837 125.132C77.1965 121.021 74.9208 117.626 74.6395 117.804C74.4094 117.957 76.2504 121.557 79.0887 125.745C80.7252 128.196 82.464 130.162 83.6914 131.311C83.18 131.183 82.6685 131.055 82.1571 130.902C81.3645 130.672 80.5974 130.443 79.8303 130.187C79.4211 129.166 78.0659 126.689 76.4038 123.779C74.3071 120.077 72.5427 117.064 72.287 117.191C72.0313 117.319 73.3354 120.562 75.4833 124.315C76.9408 126.868 78.3472 128.962 79.191 129.983C78.2449 129.677 77.2732 129.345 76.3527 129.013C76.0203 127.889 74.6395 125.055 72.466 121.966C69.7812 118.111 67.2497 115.251 67.0196 115.43C66.7639 115.609 68.9118 118.774 71.5711 122.579C73.4633 125.26 74.9719 127.66 75.7646 128.809C74.7673 128.451 73.7701 128.043 72.7984 127.634C72.0058 126.409 70.5994 124.443 69.1163 122.145C66.7127 118.417 64.9484 115.277 64.6671 115.404C64.4114 115.532 65.7666 118.928 68.2214 122.706C69.372 124.468 70.5483 125.974 71.4944 127.047C70.5738 126.638 69.6789 126.204 68.7839 125.77C68.5794 125.055 66.5082 122.17 64.079 118.723C61.3174 114.868 60.2435 111.217 59.9622 111.268C59.8343 111.268 59.8599 112.289 60.3457 113.821C60.8316 115.353 61.8032 117.345 63.1585 119.336C65.2041 122.247 67.173 124.545 68.1447 125.489C66.9429 124.902 65.7922 124.264 64.6415 123.6C64.9228 123.396 62.5959 119.591 59.5531 115.072C58.0444 112.8 56.7403 110.706 55.9221 109.149C55.0783 107.591 54.8226 106.545 54.6691 106.57C54.5157 106.57 54.5413 107.77 55.2317 109.481C55.8965 111.191 57.1495 113.387 58.6581 115.66C61.5475 119.923 64.0534 123.191 64.5648 123.523C62.7493 122.451 61.0361 121.277 59.3741 120.051C59.5786 119.796 57.3284 116.119 54.6947 111.523C52.0354 106.877 50.2199 102.945 49.9642 103.047C49.7597 103.123 50.4756 105.498 51.9843 108.664C52.419 109.813 53.0071 111.191 53.7486 112.621C55.7175 116.426 57.9677 119.081 58.1978 118.902V118.851C58.5303 119.285 58.786 119.566 58.9905 119.796C57.8143 118.902 56.6892 117.983 55.6152 117.013C50.7313 112.596 46.9469 107.132 45.157 101.438C45.9497 103.123 47.1259 105.319 48.6601 107.643C51.7797 112.391 54.439 116.119 54.6691 115.992C54.9504 115.838 52.6747 111.779 49.5807 107.055C47.1004 103.302 45.2849 100.009 44.5178 98.8596C44.3132 97.8128 44.1854 96.766 44.1086 95.7192C44.2621 96.1787 44.4666 96.6894 44.7735 97.1489C45.0803 97.634 45.3872 98.0426 45.694 98.4255C45.7451 99.2681 45.9497 100.391 46.5378 101.54C47.714 103.838 49.325 105.243 49.2994 105.268C49.325 105.268 48.5579 103.302 47.4328 101.106C47.1259 100.545 46.8702 100.009 46.6657 99.5234C47.2794 100.136 47.714 100.468 47.714 100.494C47.7396 100.494 46.8702 98.6553 45.6429 96.6638C44.8502 95.4638 44.3643 94.2894 44.1086 93.5489C44.1086 93.1915 44.1854 92.8596 44.2109 92.5277C44.3643 92.9362 44.5178 93.3702 44.7479 93.8298C45.8218 96.0255 47.4072 97.3021 47.4072 97.3021C47.4072 97.3021 46.6657 95.4894 45.6429 93.3958C45.1826 92.5021 44.7479 91.6596 44.3899 91.0213C44.3899 90.8936 44.4411 90.7915 44.4666 90.6638C44.6456 90.6638 44.799 90.7149 44.978 90.7404C44.978 90.6894 45.0036 90.6383 45.0292 90.5872C45.1826 90.2043 45.3616 89.8468 45.515 89.4638C45.515 89.4128 45.515 89.3617 45.515 89.2851C45.515 89.183 45.5661 89.1064 45.5917 89.0043C45.7707 89.7192 46.0008 90.5106 46.3588 91.3532C47.4328 93.9575 48.9926 95.6936 48.9926 95.6936C48.9926 95.6936 48.3277 93.5234 47.2794 90.9702C46.7935 89.7958 46.3077 88.7489 45.9241 87.9319C46.052 87.6 46.1798 87.2936 46.3333 86.9617C46.5122 87.7532 46.7935 88.6723 47.2794 89.5915C48.5834 92.1702 49.9642 94.034 49.9387 94.0596C49.9642 94.0596 49.4528 91.7106 48.1487 89.1574C47.5606 88.034 47.0748 86.9872 46.7424 86.1447C47.0748 85.5319 47.4328 84.9447 47.8419 84.434C47.6629 84.2298 47.5095 84.0511 47.3561 83.8723C47.4328 83.7702 47.4839 83.6681 47.5606 83.566C47.8163 84.3319 48.3277 85.6596 49.146 87.0383C50.3989 89.1319 51.4984 90.8426 51.4984 90.8426C51.4984 90.8426 51.2939 88.7234 49.9898 86.5277C49.0948 85.0213 48.1743 83.8979 47.6885 83.3106C47.7908 83.1575 47.893 83.0043 47.9953 82.8511C48.7113 81.9575 49.5295 81.1404 50.3734 80.4C50.5523 81.1149 50.9103 82.2638 51.524 83.4894C52.5468 85.5064 54.0299 86.7064 54.0299 86.7064C54.0299 86.7064 53.3906 84.9958 52.419 83.0553C51.7797 81.7787 51.0637 80.783 50.6291 80.2213C52.5468 78.5617 54.6947 77.234 56.9193 76.2128C58.5814 75.4723 60.2435 74.8596 61.9311 74.3745C63.6187 73.8894 65.2297 73.4809 66.815 73.4043C69.3209 73.2511 71.6733 73.8128 73.7957 74.7319C75.6112 75.2426 77.2988 76.1617 78.8074 77.4383C79.549 78.0766 80.2394 78.7915 80.8786 79.6085C80.9298 79.5319 80.9553 79.4553 81.0065 79.3787C83.4612 81.2936 85.6347 83.2085 87.7059 84.6383C89.01 85.583 90.2373 86.3234 91.388 86.9617C91.5926 87.3447 91.9761 87.8553 92.5642 88.3149C92.4875 88.3149 92.4108 88.2638 92.4108 88.2638C92.3852 88.2638 92.6921 88.5957 93.2546 89.0043C93.4848 89.234 93.7916 89.5149 94.124 89.7957C94.2007 89.8723 94.2774 89.8979 94.3286 89.9745C94.2774 89.9745 94.2519 89.9745 94.2007 89.9745C93.6126 89.4383 92.8455 88.7745 91.9505 88.0596C90.0072 86.4766 88.4219 85.2 88.1917 85.4043C87.9872 85.6085 89.2657 87.2681 91.2601 88.8766C91.746 89.2851 92.2318 89.6426 92.6921 89.9489C92.1807 89.9489 91.6948 89.8979 91.209 89.8468C90.6209 89.2596 89.8793 88.5447 89.0355 87.7532C87.1178 85.9404 85.4557 84.5872 85.2511 84.7915C85.0466 84.9958 86.3762 86.7064 88.294 88.5191C88.7031 88.9021 89.1122 89.2596 89.5214 89.5915C89.1634 89.5404 88.8054 89.4638 88.4474 89.4128C87.8082 88.7234 86.8621 87.8298 85.8904 86.783C83.9215 84.7404 82.5918 82.8766 82.3106 83.0298C82.2338 83.0809 82.3106 83.3617 82.4896 83.8213C81.8759 83.0043 81.2366 82.5192 81.2366 82.4936C81.2366 82.4936 81.2878 83.1319 81.569 83.8979C81.211 83.566 80.8531 83.2341 80.5462 82.9532C80.3672 82.5958 80.1371 82.2128 79.907 81.8298C78.6284 79.8894 77.1198 78.6894 77.1198 78.6894C77.1198 78.6894 77.7591 80.3234 78.9097 82.1106C78.7563 82.0596 78.6029 82.0085 78.5006 81.8553C78.7819 82.2894 79.3188 82.9277 80.0092 83.6936C80.9042 84.9192 81.6202 85.7362 81.6202 85.7362C81.6202 85.7362 81.569 85.5575 81.4923 85.2766C81.748 85.5575 82.0037 85.8128 82.285 86.0936C83.2311 87.0383 84.1261 87.8809 84.8932 88.5702C84.3306 88.3915 83.7936 88.2128 83.2822 88.034C82.5151 87.166 81.6202 86.1702 80.6485 85.0979C79.6768 84.0255 78.833 82.9787 78.117 82.1106C77.9125 81.5745 77.6568 81.0128 77.3244 80.4255C76.1226 78.383 74.5628 77.1319 74.5884 77.1319C74.5884 77.1319 75.2276 78.7404 76.276 80.5787H76.2248C76.7618 81.7532 78.0148 83.7702 79.8558 85.8128C80.3161 86.3234 80.7508 86.783 81.1855 87.217C80.8019 87.0638 80.4695 86.9107 80.1627 86.783C79.6513 86.1447 79.0631 85.4298 78.4495 84.7149C77.3755 83.4383 76.455 82.2383 75.739 81.3192C75.739 81.3192 75.6879 81.3447 75.6623 81.3702C75.5345 81.1149 75.4066 80.8596 75.2532 80.6043C74.1792 78.766 72.6706 77.7957 72.6706 77.7957C72.6706 77.7957 73.361 79.3787 74.3838 81.0894C75.4066 82.8255 76.4806 84.1532 76.5061 84.1787C76.5061 84.1787 76.5061 84.0766 76.455 83.9234C76.813 84.4085 77.171 84.8936 77.6056 85.4043C80.0092 88.2638 82.1827 90.3319 82.3873 90.1532C82.5663 90 81.6969 88.7234 80.3161 87.0128C80.6229 87.166 80.9042 87.3192 81.2622 87.4723C81.3389 87.4979 81.4412 87.5489 81.5179 87.5745C83.5379 89.617 85.1744 90.8681 85.3279 90.7149C85.4557 90.5872 84.7909 89.7447 83.7169 88.5191C84.3306 88.7745 84.9699 89.0043 85.6858 89.2596C86.4529 89.8979 86.9899 90.2298 87.0666 90.1532C87.1178 90.1021 87.0666 89.9234 86.8621 89.6426C87.1689 89.7447 87.4758 89.8213 87.8082 89.9234C88.7031 90.5617 89.3424 90.8681 89.4191 90.7404C89.4702 90.6638 89.3679 90.4851 89.1634 90.2298C89.5981 90.3319 90.0072 90.4341 90.4675 90.5106C90.5697 90.5106 90.6465 90.5362 90.7487 90.5617C91.6181 91.1745 92.283 91.4553 92.3597 91.3277C92.4108 91.2511 92.283 91.0468 92.0273 90.7404C92.6921 90.817 93.3825 90.8426 94.0729 90.8681C94.7377 91.2511 95.198 91.4298 95.2747 91.3021C95.3258 91.2255 95.2491 91.0723 95.0701 90.8426C98.3175 90.7915 101.974 90.0766 105.631 88.2383C108.571 86.8341 111.384 84.817 114.197 82.5192C114.324 82.4426 114.452 82.366 114.631 82.2894C115.296 82.034 116.293 81.5234 117.316 80.7319C118.237 80.1702 119.234 79.5064 120.282 78.7404C122.379 77.234 123.964 75.6255 124.936 74.5277C125.345 74.3234 125.754 74.1192 126.215 73.9149C128.311 72.9192 129.846 71.6936 129.846 71.6681C129.846 71.6681 128.056 72 125.985 72.9447C127.698 71.7702 129.539 70.7234 131.508 69.983C135.113 68.5787 139.179 68.4511 143.168 69.7021C144.523 70.1106 145.878 70.6468 147.182 71.2851C147.668 72.1532 148.358 73.2511 149.228 74.4766C149.56 75.0383 149.893 75.6255 150.302 76.2383C151.197 77.5404 151.964 78.766 152.603 79.7872C152.168 79.0979 151.683 78.383 151.197 77.5915C149.074 74.3745 147.336 71.7702 147.08 71.9234C146.824 72.0511 148.154 74.9362 150.302 78.1787C152.45 81.4213 154.495 83.8213 154.725 83.6426C154.828 83.566 154.598 83.0298 154.137 82.2383C154.061 81.9064 153.907 81.2681 153.6 80.4C153.498 80.0936 153.37 79.7617 153.217 79.4298C153.703 79.9404 154.086 80.2979 154.342 80.5021L155.16 82.2128C155.16 82.2128 155.032 79.7362 153.754 77.0298C153.473 76.4426 153.166 75.9064 152.859 75.4213C153.14 75.7277 153.447 76.0596 153.703 76.3915C155.723 79.0723 156.439 82.5447 156.157 86.1447C155.851 85.6085 155.646 85.2766 155.518 85.3021C155.365 85.3277 155.518 86.2213 155.978 87.5745C155.902 88.0085 155.851 88.4426 155.748 88.8766C155.646 89.3362 155.544 89.7702 155.416 90.2298C153.166 86.6809 151.683 83.7702 151.401 83.8468C151.401 83.8468 151.401 83.9234 151.376 83.9489C150.992 83.0809 150.481 82.0851 149.816 81.0383C149.714 80.9106 149.637 80.7575 149.56 80.6298C149.714 80.6298 149.842 80.4766 149.918 80.3234C150.123 80.6043 150.327 80.9106 150.532 81.217C150.711 81.4723 150.915 81.7532 151.094 81.983C151.35 82.4426 151.555 82.8766 151.734 83.2851C152.296 84.5362 152.552 85.3787 152.552 85.3787C152.552 85.3787 152.526 84.6894 152.296 83.6426C152.91 84.4085 153.37 84.8936 153.498 84.817C153.754 84.6638 152.884 82.7234 151.401 80.6298C151.273 80.4511 151.146 80.2723 151.018 80.0936C150.711 79.4553 150.353 78.7915 149.969 78.1277C148.87 76.3149 147.745 74.7575 147.003 73.583C146.262 72.4085 145.853 71.6681 145.827 71.6681C145.827 71.6681 146.032 72.5106 146.569 73.8128C146.952 74.7575 147.54 75.9319 148.256 77.183C148.256 77.183 148.231 77.183 148.205 77.183C148.026 77.3106 148.537 78.2809 149.407 79.6085C149.407 79.6085 149.356 79.6085 149.33 79.6085L149.253 79.6596V80.0681C147.821 77.8468 146.799 76.1362 146.824 76.0851C146.748 76.0851 147.233 78.7915 148.998 81.4979C149.202 81.8298 149.432 82.1617 149.637 82.4936C149.56 82.4426 149.458 82.3915 149.432 82.417C149.177 82.5957 149.969 84.1532 151.146 85.8894C152.194 87.4468 153.063 88.6468 153.421 88.8255C153.83 89.566 154.265 90.3319 154.777 91.1234C154.879 91.2766 154.956 91.4043 155.058 91.5575C154.956 91.9149 154.853 92.2723 154.725 92.6298C154.623 93.3192 154.393 94.0085 154.137 94.6979C153.882 95.3362 153.575 95.9745 153.268 96.5362C152.884 97.2 152.45 97.9404 151.913 98.5787C151.989 98.5787 152.041 98.6043 152.117 98.6298C151.504 99.8298 150.864 101.004 150.174 102.179L150.046 102.332ZM83.3334 85.8128C83.3078 85.6596 83.2567 85.4809 83.2055 85.3021C83.5124 85.7872 83.8704 86.2979 84.305 86.834C83.9982 86.5021 83.6658 86.1702 83.3078 85.8128H83.3334ZM149.893 73.8128C149.484 73.2511 149.1 72.7404 148.716 72.2809C149.305 72.6383 149.867 72.9958 150.43 73.4043C150.225 73.2511 150.046 73.1745 149.918 73.2255C149.79 73.2766 149.79 73.5064 149.893 73.8128ZM151.094 73.9404C151.094 73.9404 150.967 73.8383 150.915 73.7872C150.967 73.8383 151.018 73.8894 151.094 73.9404ZM152.092 76.1362C152.296 76.5957 152.526 77.0809 152.782 77.5915L153.038 78.1277C152.45 77.3106 151.759 76.3404 151.018 75.3192C151.478 75.7532 151.836 76.0596 152.092 76.1362ZM157.385 96.1787C157.461 96 157.513 95.7957 157.589 95.5915C157.794 95.8723 157.973 96.1277 158.152 96.3575C157.896 96.3064 157.64 96.2298 157.385 96.1532V96.1787ZM159.021 96.5106C158.74 96 158.382 95.3362 157.947 94.5957C158.126 94.0851 158.28 93.5745 158.433 93.0638C159.277 94.4426 160.172 95.566 160.862 96.3319C160.223 96.4085 159.584 96.4596 158.996 96.5106H159.021ZM161.629 96.2809C160.965 95.234 159.865 93.5745 158.791 91.6085C158.945 90.9702 159.124 90.3575 159.251 89.7192C159.354 89.1574 159.43 88.5957 159.482 88.034C159.839 88.9277 160.3 89.8979 160.811 90.9192C161.86 93.0128 162.857 94.8255 163.598 96C162.933 96.1021 162.243 96.2043 161.629 96.2809ZM168.789 97.966C170.835 97.7617 172.957 97.4809 175.182 97.0468C176.077 96.8681 176.997 96.6383 177.892 96.4085C178.276 96.9702 178.557 97.3021 178.659 97.2511C178.761 97.2255 178.659 96.8426 178.455 96.2809C179.273 96.0766 180.117 95.8213 180.935 95.5404C181.37 96.0766 181.779 96.5362 182.086 96.8936C177.892 97.8894 173.392 98.2468 168.815 97.966H168.789ZM184.234 96.3575C183.722 96.5107 183.16 96.6128 182.623 96.766C182.418 96.383 182.111 95.8979 181.728 95.3106C182.086 95.183 182.444 95.1064 182.802 94.9787C183.339 94.7745 183.876 94.5702 184.412 94.3404C184.924 95.0553 185.256 95.4894 185.359 95.4638C185.461 95.4383 185.359 94.9021 185.001 94.1106C185.538 93.8809 186.075 93.6255 186.586 93.3702C187.251 94.366 187.788 94.9787 187.967 94.9532C186.765 95.4894 185.538 95.9745 184.234 96.383V96.3575ZM188.018 94.9277C188.12 94.8 187.864 94.034 187.327 92.9362C187.839 92.6298 188.35 92.3489 188.836 91.9915C189.527 93.1404 190.012 93.8298 190.166 93.7787C190.319 93.7277 190.038 92.8596 189.45 91.5064C189.731 91.2766 190.038 91.0723 190.319 90.8681C190.498 90.7149 190.652 90.5617 190.831 90.4085C191.521 91.2511 192.135 91.8638 192.621 92.2979C191.189 93.2936 189.654 94.1872 188.018 94.9277ZM193.03 92.017C192.672 91.4809 192.109 90.7404 191.495 89.7957C192.007 89.3106 192.493 88.8255 192.927 88.3149C193.694 89.2851 194.385 90.0511 194.922 90.5362C194.308 91.0468 193.694 91.5319 193.03 91.9915V92.017ZM196.609 89.0809C196.2 89.4894 195.74 89.8468 195.305 90.2043C194.896 89.566 194.283 88.6723 193.567 87.6C193.976 87.1149 194.334 86.6553 194.692 86.1702C195.817 87.7532 196.737 88.7489 196.942 88.6979C196.814 88.8255 196.712 88.9532 196.609 89.0809ZM196.993 88.6723C197.095 88.4936 196.354 87.1915 195.28 85.3277C195.484 85.0213 195.689 84.7149 195.868 84.4085C196.865 85.8383 197.786 86.9106 198.246 87.2426C197.837 87.7277 197.402 88.1872 196.967 88.6468L196.993 88.6723ZM198.476 87.0128C198.22 86.3745 197.453 85.0723 196.456 83.4383C196.788 82.8511 197.095 82.2894 197.377 81.7021C198.297 83.0809 199.269 84.2043 200.061 85.0468C199.55 85.7106 199.039 86.3745 198.476 87.0128ZM200.522 84.434C199.78 83.4128 198.834 82.0851 197.888 80.5532C198.22 79.7872 198.527 79.0213 198.809 78.2553C198.911 77.9234 198.988 77.617 199.09 77.3106C200.394 79.0979 201.519 80.6809 202.337 81.8298C201.775 82.7234 201.161 83.5915 200.547 84.434H200.522ZM208.73 65.7702C207.784 70.9787 205.764 76.2383 202.772 81.1149C202.056 79.8128 201.008 78.1532 199.703 76.366C199.601 76.2383 199.524 76.1362 199.448 76.0085C199.678 75.1149 199.882 74.2468 200.061 73.3787C201.979 76.3915 203.411 78.6894 203.667 78.6128C203.974 78.5106 202.618 75.4213 200.368 71.8723C200.419 71.4638 200.445 71.0553 200.496 70.6468C202.567 74.1702 204.511 76.7489 204.741 76.6468C205.048 76.5192 203.232 73.3277 201.033 69.4468C200.905 69.2426 200.803 69.0383 200.675 68.8085C200.726 67.9915 200.752 67.1745 200.777 66.4341C200.777 66.4341 200.777 66.434 200.777 66.4085C200.854 66.5617 200.956 66.7149 201.033 66.8681C202.133 68.7575 203.258 70.4426 204.229 71.566C205.15 72.7404 206.07 73.3021 206.173 73.1234C206.224 73.0213 205.636 72.434 204.894 71.2085C204.127 70.0085 203.13 68.3234 202.03 66.4341C201.57 65.6426 201.11 64.8766 200.701 64.1617C200.598 62.5532 200.419 61.1234 200.189 59.9489C200.905 60.9957 201.826 62.3489 202.797 63.8809C204.945 67.2511 206.582 70.0851 206.863 69.983C207.144 69.9064 205.968 66.8681 203.769 63.4468C202.363 61.2255 200.854 59.4383 199.882 58.4936C199.448 56.5787 199.013 55.5319 199.039 55.5574C199.013 55.5574 199.115 56.4 199.141 57.8809C199.013 57.8043 198.911 57.7277 198.86 57.7532C198.809 57.8043 198.911 58.034 199.141 58.417C199.141 59.2596 199.141 60.2809 199.039 61.4553C198.374 60.3574 197.914 59.6681 197.786 59.7192C197.607 59.7702 198.016 61.0723 198.911 62.9617C198.834 63.6255 198.757 64.3149 198.655 65.0298C197.862 63.3957 197.351 62.3234 197.198 62.3489C196.967 62.3745 197.351 64.1872 198.399 66.6638C198.297 67.2 198.195 67.7617 198.067 68.3489C196.891 66.5106 196.073 65.3106 195.894 65.3617C195.663 65.4383 196.379 67.2511 197.735 69.6511C197.504 70.5447 197.249 71.4638 196.942 72.4341C195.817 70.6979 195.126 69.5234 194.947 69.5489C194.717 69.6 195.28 71.2851 196.558 73.5319C196.226 74.5021 195.817 75.4724 195.382 76.4681C194.308 74.7064 193.592 73.5319 193.388 73.6085C193.209 73.6596 193.771 75.2936 194.896 77.5149C194.589 78.1787 194.257 78.817 193.899 79.4809C193.158 78.4085 192.621 77.7447 192.442 77.8213C192.263 77.8979 192.646 78.9192 193.388 80.3489C193.234 80.6298 193.03 80.9106 192.851 81.166C191.47 78.817 190.268 77.1575 190.038 77.2596C189.808 77.3617 190.754 79.4553 192.237 82.1617C191.879 82.6723 191.495 83.183 191.112 83.6936C189.603 81.0638 188.657 79.0468 188.376 79.0979C188.12 79.1489 188.759 81.6 190.396 84.5617C189.987 85.0468 189.552 85.5319 189.092 85.9915C187.123 82.5447 185.307 79.8383 185.001 79.9915C184.77 80.0936 186.202 83.0809 188.299 86.7575C188.043 87.0128 187.788 87.2681 187.506 87.5234C187.404 87.3447 187.327 87.166 187.225 86.9872C185.282 83.3106 183.236 80.5277 182.981 80.6553C182.699 80.783 184.285 83.7192 186.202 87.3702C186.356 87.6766 186.509 87.9575 186.663 88.2383C186.177 88.6213 185.691 88.9787 185.205 89.2851C183.876 87.2681 182.597 85.8894 182.392 86.017C182.162 86.1447 183.083 87.7532 184.31 89.8468C184.259 89.8723 184.208 89.9234 184.157 89.9489C183.799 90.1532 183.441 90.3064 183.083 90.4851C182.802 90 182.495 89.4894 182.162 88.9532C180.014 85.5319 178.327 82.7745 178.02 82.8511C177.713 82.9532 178.992 85.966 181.165 89.3872C181.497 89.9234 181.83 90.4341 182.137 90.9192C181.702 91.1234 181.267 91.3021 180.833 91.4809C180.398 91.6596 179.938 91.8128 179.477 91.966C179.324 91.7362 179.171 91.5064 179.017 91.2511C176.716 87.8043 175.309 84.8426 175.028 84.9192C174.721 84.9702 175.693 88.2128 178.045 91.7106C178.199 91.9149 178.327 92.1192 178.48 92.3234C177.892 92.5277 177.304 92.7319 176.716 92.9362C176.307 92.1958 175.821 91.4043 175.284 90.5872C172.983 87.0894 170.988 84.383 170.707 84.4851C170.426 84.6128 172.036 87.5745 174.312 91.0213C174.824 91.7872 175.284 92.5277 175.744 93.217C175.131 93.3957 174.542 93.6 173.929 93.7787C173.75 93.8298 173.596 93.8553 173.417 93.9064C172.855 93.1149 172.164 92.1958 171.474 91.2C169.479 88.366 168.15 85.9404 167.843 86.0426C167.562 86.1192 168.457 88.7745 170.528 91.6851C171.193 92.6298 171.857 93.4468 172.471 94.1362C171.806 94.3149 171.116 94.4936 170.477 94.6468C169.914 93.8809 169.3 92.9872 168.661 92.017C166.667 89.0553 165.542 86.4511 165.235 86.5277C164.954 86.5787 165.644 89.4128 167.69 92.4766C168.278 93.3702 168.891 94.1617 169.479 94.8511C168.354 95.1064 167.255 95.3362 166.155 95.5149C165.746 94.4681 165.081 93.0383 164.238 91.4809C162.576 88.417 161.169 85.9915 160.888 86.0681C160.581 86.1447 161.578 88.8 163.24 91.8638C164.033 93.3447 164.8 94.6723 165.363 95.6426C165.005 95.6936 164.621 95.7702 164.263 95.8468C163.752 94.5702 162.882 92.6553 161.808 90.4851C160.965 88.7745 160.197 87.2426 159.609 86.0681C159.66 84.6128 159.609 83.1575 159.354 81.7021C158.919 79.0723 157.819 76.5447 156.209 74.4766C152.936 70.2894 148.282 68.1957 143.884 66.9447C140.815 66.0766 137.568 65.9489 134.525 66.4851C134.372 65.6936 133.911 65.0553 133.911 65.0553C133.911 65.0553 133.425 65.7958 133.553 66.6894C133.016 66.817 132.479 66.9702 131.942 67.1489C131.789 66.3575 131.329 65.7192 131.329 65.7192C131.329 65.7192 130.817 66.4851 130.971 67.3787C130.971 67.4298 130.971 67.4553 130.996 67.4809C130.817 67.5574 130.613 67.6085 130.434 67.6851C130.229 67.7617 130.076 67.8638 129.871 67.966C129.846 67.7872 129.82 67.6085 129.769 67.4043C129.513 66.3319 129.079 65.3872 129.053 65.3872C129.053 65.3872 128.516 66.383 128.797 67.634C128.874 67.9149 128.976 68.1447 129.079 68.3745C128.746 68.5277 128.388 68.7064 128.056 68.8596C128.03 68.4511 127.953 67.9149 127.826 67.3787C127.519 66.2553 126.828 65.3872 126.828 65.4128C126.828 65.4128 126.573 66.4596 126.879 67.6596C127.058 68.2979 127.365 68.783 127.647 69.0894C127.135 69.3702 126.675 69.7021 126.189 70.0085C126.189 69.3192 126.087 68.2979 125.831 67.1745C125.396 65.1574 124.271 63.7787 124.271 63.8043C124.271 63.8043 124.45 65.4638 124.859 67.4043C125.115 68.6298 125.55 69.6 125.857 70.2128C125.499 70.4426 125.141 70.6723 124.808 70.9021C124.808 70.8511 124.757 70.8 124.732 70.7489C124.501 70.2383 124.271 69.7532 124.067 69.2681C124.143 68.4255 124.195 67.2 124.169 65.8723C124.118 63.3192 123.632 61.2511 123.632 61.2511C123.632 61.2511 123.121 63.3192 123.172 65.8979C123.172 66.4851 123.249 67.0213 123.3 67.5319C122.66 66.0766 122.175 64.9787 121.868 64.4681C121.868 64.4681 121.868 64.4426 121.868 64.417C121.919 60.7404 122.328 57.7532 122.328 57.7532C122.328 57.7021 120.922 60.5872 120.87 64.3915C120.87 65.4128 120.87 66.383 120.947 67.2511C120.666 66.6894 120.359 66.2043 120.052 65.7447C120.282 64.5957 120.615 62.7319 120.794 60.6383C121.101 57.1149 121.049 54.2298 121.049 54.2298C121.049 54.2298 120.129 57.0128 119.797 60.5617C119.797 60.7915 119.771 61.0213 119.745 61.2511C119.694 60.9702 119.643 60.6894 119.618 60.383C119.464 58.9021 119.566 57.6511 119.234 57.5489C118.953 57.4723 118.313 58.6979 118.492 60.4085C118.646 61.7872 119.285 62.8085 119.643 63.0894C119.643 63.9064 119.643 64.6468 119.643 65.2596C119.413 64.9532 119.183 64.6723 119.004 64.4426C118.825 64.034 118.646 63.6766 118.492 63.4213C118.313 62.2723 118.211 61.1234 118.211 60C118.416 59.2596 118.927 57.2681 119.387 54.9192C119.49 54.4596 119.566 54.0255 119.643 53.5915C119.669 54 119.745 54.2809 119.72 54.2553C119.72 54.2553 120.359 53.0809 120.794 51.7277L121.049 50.9362C121.28 50.6298 121.535 50.3234 121.791 50.017C121.638 50.783 121.944 51.4213 121.944 51.3957C121.944 51.3447 122.456 50.7064 122.839 49.9149C123.07 49.3787 123.172 48.817 123.197 48.4851C123.683 48.0511 124.22 47.6426 124.757 47.2596C124.604 47.4894 124.45 47.7192 124.297 47.9745C123.504 49.3787 123.223 50.7319 123.223 50.7319C123.223 50.7319 124.322 49.8638 125.141 48.4596C125.294 48.2043 125.396 47.9745 125.499 47.7192C125.499 47.7702 125.473 47.8723 125.473 47.8723C125.473 47.8723 126.368 47.1574 127.135 46.0851C127.826 45.6766 128.542 45.3702 129.258 45.1404C129.258 45.2681 129.283 45.3447 129.283 45.3192C129.283 45.3192 129.897 44.834 130.357 44.2468C130.408 44.2468 130.459 44.1957 130.51 44.1702C130.766 44.0681 131.047 44.017 131.303 43.9149C130.638 45.1404 130.868 46.2894 130.843 46.2638L132.249 44.1702C132.377 43.9915 132.479 43.8128 132.607 43.634C132.709 43.7106 132.786 43.7362 132.837 43.7362C132.863 43.7106 132.837 43.6085 132.735 43.4553C132.914 43.4043 133.093 43.3277 133.272 43.2766C133.425 43.2255 133.553 43.2255 133.707 43.1745C133.707 43.1745 133.656 43.2 133.63 43.2255C133.144 43.8638 133.067 44.6298 133.067 44.6553C133.067 44.6553 133.911 44.5021 134.423 43.8383C134.525 43.7106 134.602 43.583 134.653 43.4553C134.806 43.4553 134.96 43.4553 135.113 43.4553C134.678 44.2468 134.653 44.9872 134.653 44.9872C134.653 44.9872 135.471 44.4 136.187 43.6085C136.187 43.6085 136.213 43.5574 136.238 43.5319C136.519 43.5574 136.801 43.6085 137.082 43.6851C136.647 44.3489 136.571 45.0128 136.596 44.9872C136.596 44.9872 137.363 44.5787 138.079 43.9404C138.233 43.9915 138.386 44.017 138.539 44.0681C138.437 43.966 138.361 43.8638 138.258 43.7617C138.284 43.7362 138.335 43.6851 138.361 43.6596C138.744 43.8383 139.128 44.017 139.511 44.1702C138.974 45.0638 138.821 45.9319 138.821 45.9319C138.821 45.9319 139.588 45.4979 140.253 44.7064C140.304 44.7319 140.355 44.783 140.381 44.8085C140.585 44.9106 140.764 45.0128 140.969 45.0894C140.764 45.7021 140.739 46.2128 140.739 46.2383C140.739 46.2383 141.403 45.8809 141.915 45.166C142.094 45.3192 142.273 45.4723 142.477 45.6255C142.375 45.7277 142.273 45.8298 142.17 45.983C141.454 47.0298 141.685 48.1787 141.685 48.1532C141.685 48.1532 142.375 47.4128 142.989 46.5447C143.065 46.417 143.142 46.3149 143.193 46.1872C143.602 46.4681 143.986 46.6979 144.344 46.8766C143.577 47.7702 143.296 48.7915 143.27 48.7915C143.27 48.7915 144.318 48.434 145.085 47.5149C145.137 47.4383 145.188 47.3617 145.239 47.2851C145.776 47.4894 146.134 47.5404 146.211 47.4638C146.236 47.4638 146.262 47.5149 146.287 47.5149C146.236 47.5915 146.185 47.6681 146.134 47.7447C145.955 47.8213 145.776 47.8979 145.571 47.9745C145.674 48.0511 145.776 48.1277 145.878 48.2043C145.52 48.9957 145.495 49.7362 145.495 49.7362C145.495 49.7362 146.108 49.4043 146.62 48.7404C146.62 48.7404 146.671 48.766 146.671 48.7915C146.927 48.766 147.182 48.8426 147.412 48.9958C147.412 48.9958 147.412 48.9958 147.412 49.0213C146.799 50.017 147.106 51.0383 147.106 51.0128C147.106 51.0128 147.694 50.3745 148.179 49.634C148.205 49.6596 148.256 49.7106 148.282 49.7362C148.64 49.6851 148.998 49.7617 149.279 50.0936C149.356 50.1958 149.484 50.2723 149.56 50.3745C149.637 50.3234 149.714 50.2723 149.79 50.2213C149.688 50.3234 149.586 50.4255 149.509 50.5532C149.151 51.1915 149.33 51.9319 149.33 51.9319C149.33 51.9319 150.021 51.6255 150.353 51.0383C150.455 50.834 150.532 50.6298 150.558 50.4255C150.941 50.6809 151.299 50.9362 151.657 51.1915C151.504 51.3191 151.35 51.4979 151.197 51.6766C150.711 52.366 150.583 53.183 150.583 53.2085C150.583 53.2085 151.478 53.0043 151.989 52.2638C152.143 52.0596 152.22 51.8553 152.296 51.6766C152.578 51.8809 152.859 52.0596 153.14 52.2638C153.012 52.3915 152.884 52.5192 152.782 52.6468C152.296 53.3362 152.168 54.1532 152.168 54.1787C152.168 54.1787 153.063 53.9745 153.575 53.234C153.677 53.0809 153.754 52.9021 153.83 52.7489C154.061 52.9021 154.316 53.0809 154.546 53.234C154.393 53.3362 154.265 53.4894 154.137 53.6936C153.754 54.4085 154.086 55.1234 154.061 55.1234C154.061 55.1234 154.7 54.7149 155.007 54.1532C155.083 54 155.16 53.8213 155.211 53.6426C155.544 53.8723 155.902 54.0766 156.234 54.3064C155.774 54.9958 156.004 55.7617 156.004 55.7362C156.004 55.7362 156.643 55.3532 157.052 54.8426C157.461 55.0979 157.871 55.3787 158.254 55.634C157.666 56.4511 157.922 57.3702 157.922 57.3447C157.922 57.3447 158.587 56.834 159.072 56.1957C159.072 56.1957 159.098 56.1447 159.124 56.1192C159.635 56.4255 160.121 56.6809 160.632 56.9617C160.555 57.0383 160.479 57.1149 160.402 57.217C159.865 58.0085 159.865 58.9277 159.865 58.9277C159.865 58.9277 160.709 58.5702 161.246 57.7532C161.323 57.6255 161.374 57.4979 161.425 57.3957C161.757 57.5745 162.09 57.7787 162.422 57.9575C161.834 58.9021 161.808 59.8723 161.808 59.8723C161.808 59.8723 162.55 59.4383 163.112 58.6979C164.314 60.2553 165.363 61.3277 165.593 61.2255C165.721 61.1489 165.516 60.6638 165.107 59.9489C165.26 59.8468 165.414 59.7192 165.593 59.566C166.769 60.7915 167.971 61.4043 168.099 61.2255C168.227 61.0723 167.766 60.5872 167.127 59.8723C167.69 60.0511 168.227 60.2043 168.789 60.3319C169.121 60.766 169.428 61.1489 169.735 61.5064C169.735 61.6851 169.735 61.8128 169.786 61.8128C169.786 61.8128 169.786 61.7362 169.889 61.6851C170.707 62.6298 171.346 63.166 171.474 63.1149C171.653 63.0128 171.218 62.2213 170.477 61.0979C170.579 60.9958 170.707 60.8681 170.835 60.7149C171.5 60.7915 172.139 60.8426 172.752 60.8426C173.264 61.2766 173.647 61.4809 173.724 61.4043C173.801 61.3532 173.724 61.1234 173.52 60.7915C174.21 60.766 174.9 60.6894 175.54 60.5617C176.23 61.2511 176.741 61.634 176.844 61.5319C176.946 61.4553 176.716 61.0468 176.307 60.4085C176.793 60.2809 177.278 60.1532 177.739 60C177.918 59.9234 178.071 59.8723 178.224 59.7957C178.634 60.2043 178.915 60.434 178.992 60.383C179.094 60.3319 178.992 60.0255 178.761 59.566C179.068 59.4128 179.375 59.2596 179.656 59.1064C179.656 59.183 179.656 59.234 179.656 59.234C179.656 59.234 179.835 59.1064 180.066 58.9021C180.091 58.9021 180.142 58.8766 180.168 58.8511C180.372 59.0043 180.5 59.0809 180.551 59.0553C180.628 59.0298 180.603 58.8766 180.5 58.6468C181.165 58.2383 181.779 57.8298 182.316 57.4213C182.392 57.4723 182.469 57.5234 182.546 57.5745C182.546 57.6 182.546 57.6511 182.546 57.6511C182.546 57.6511 182.597 57.6511 182.623 57.6255C183.313 58.0851 183.85 58.2894 183.927 58.1617C184.003 58.0596 183.697 57.7277 183.211 57.2426C183.39 57.0894 183.569 56.8851 183.697 56.6043C183.773 56.4255 183.824 56.2468 183.85 56.0681C183.901 56.017 183.952 55.966 184.003 55.9404C184.77 56.6298 185.384 56.9617 185.486 56.834C185.589 56.7319 185.18 56.1958 184.54 55.3787C184.745 55.1745 184.949 54.9702 185.128 54.766C186.023 53.7447 186.56 53.0553 186.842 52.6979C186.535 53.8213 186.944 54.8681 187.072 54.7404C186.918 54.6894 187.455 53.8468 187.839 52.7489C188.171 51.6511 188.325 50.6298 188.35 50.6043C188.35 50.5787 187.302 51.166 186.893 52.4426C186.867 52.5192 186.893 52.5957 186.842 52.6723C186.56 53.0043 185.972 53.6936 184.975 54.6894C184.796 54.8681 184.591 55.0468 184.387 55.2255C183.85 54.5362 183.211 53.6936 182.571 52.6979C181.088 50.3745 180.117 48.3574 179.784 48.434C179.503 48.4851 180.014 50.7064 181.6 53.1574C182.188 54.0766 182.827 54.7915 183.415 55.4043C183.211 55.583 182.955 55.8638 182.802 56.1957C182.725 56.3489 182.699 56.5021 182.648 56.6553C182.137 56.0936 181.497 55.3787 180.909 54.5362C179.426 52.4681 178.301 50.6553 177.994 50.783C177.739 50.8851 178.378 52.8511 179.963 55.0468C180.245 55.4298 180.526 55.7872 180.833 56.0936C180.551 56.3489 180.219 56.7575 180.014 57.2936C179.989 57.3702 179.963 57.4723 179.938 57.5489C179.503 56.8085 178.889 55.8383 178.224 54.817C176.767 52.5957 175.795 50.7064 175.488 50.783C175.207 50.834 175.744 52.9787 177.253 55.2766C178.148 56.6553 179.094 57.8043 179.733 58.4681C179.733 58.4681 179.733 58.4936 179.733 58.5192C179.35 58.6979 178.94 58.8766 178.531 59.0553C178.097 58.2638 177.432 57.166 176.665 55.966C175.156 53.5915 173.596 51.8298 173.341 51.983C173.085 52.1362 174.184 54.0766 175.693 56.4255C176.281 57.3702 176.869 58.1617 177.406 58.8255C177.406 58.9021 177.457 58.9787 177.457 58.9787C177.457 58.9787 177.483 58.9787 177.534 59.0043C177.611 59.1064 177.713 59.234 177.79 59.3362C177.688 59.3617 177.585 59.4128 177.457 59.4638C176.972 59.617 176.435 59.7447 175.898 59.8468C175.77 59.6681 175.642 59.4638 175.514 59.2596C175.616 59.2596 175.719 59.234 175.744 59.2085C175.795 59.1319 175.514 58.6979 175.54 58.6723C175.54 58.6723 175.309 58.5702 175.105 58.5957C174.798 58.1362 174.466 57.6255 174.159 57.0894C172.65 54.6383 171.627 52.5447 171.321 52.6468C171.039 52.6979 171.627 54.9958 173.187 57.5489C173.75 58.4936 174.389 59.3106 174.951 59.9745C174.44 60.0255 173.903 60.0511 173.366 60.0511C173.341 60 173.315 59.9745 173.315 59.8979C173.315 59.7702 173.315 59.6681 173.315 59.6426C173.315 59.6426 173.238 59.5149 173.059 59.4638C172.931 59.3872 172.752 59.4638 172.65 59.566C172.446 59.2851 172.267 59.0043 172.036 58.6979C171.857 58.4426 171.653 58.1617 171.448 57.8809C170.093 55.9915 169.326 54.3319 169.045 54.3575C168.738 54.383 169.045 56.3489 170.502 58.366C170.707 58.6723 170.937 58.9021 171.142 59.1575C170.911 59.3106 170.681 59.5149 170.451 59.7702C170.119 59.6936 169.786 59.617 169.428 59.5404C169.249 59.2851 169.07 59.0298 168.891 58.7489C167.332 56.4255 166.82 54.3319 166.513 54.3575C166.283 54.3575 166.258 55.5574 166.871 57.1404C166.513 57.3702 166.079 57.7021 165.721 58.1617C164.672 56.6809 164.084 55.3532 163.777 55.4043C163.598 55.4043 163.624 56.017 163.88 56.8596C163.752 56.9106 163.598 57.0128 163.394 57.1149C163.368 57.1149 163.317 57.0894 163.291 57.0638C163.189 57.0128 163.087 56.9362 162.985 56.8851C161.681 55.1745 160.504 53.9489 160.274 54.0766C160.121 54.1532 160.402 54.7915 160.939 55.6851C160.76 55.583 160.607 55.4553 160.428 55.3532C160.095 54.9447 159.661 54.4596 159.175 53.9234C158.766 53.4638 158.433 53.0809 158.126 52.7234C159.891 53.2596 162.039 53.7702 164.647 53.8213C166.769 53.8213 169.326 53.2085 171.09 51.4213C172.829 49.6596 173.75 47.234 174.491 44.7064C175.258 42.1787 175.77 39.3957 176.946 36.7915C177.56 35.5149 178.352 34.2894 179.554 33.4723C180.73 32.6553 182.29 32.2979 184.003 32.3489C187.404 32.4766 191.24 33.7277 194.717 35.3872C198.22 37.0979 201.417 39.5745 203.795 42.7149C208.653 48.9957 209.957 57.4979 208.448 65.7447L208.73 65.7702ZM164.391 57.5234C164.391 57.5234 164.238 57.4468 164.135 57.3957C164.186 57.2936 164.212 57.1915 164.238 57.1149C164.289 57.2426 164.314 57.3702 164.391 57.5234ZM168.124 59.1319C167.715 58.9787 167.28 58.8255 166.871 58.6468C167.076 58.3404 167.255 58.0596 167.408 57.8043C167.613 58.2383 167.843 58.6723 168.124 59.1319ZM164.749 59.0298C164.954 59.1064 165.133 59.183 165.337 59.2596C165.26 59.4128 165.209 59.5404 165.158 59.6681C165.03 59.4638 164.902 59.2596 164.749 59.0043V59.0298ZM172.062 60.0255C172.062 60.0255 171.857 60 171.755 60C171.806 59.9234 171.832 59.8723 171.883 59.7957C171.96 59.8723 172.011 59.9745 172.088 60.0511L172.062 60.0255ZM181.523 56.6298C181.779 56.8851 182.034 57.1149 182.29 57.3192C181.932 57.5745 181.523 57.8043 181.114 58.034C181.139 57.9575 181.191 57.9064 181.216 57.8298C181.395 57.3957 181.472 56.9872 181.523 56.6298Z" fill="#222528"/>
</svg>
