<svg width="187" height="137" viewBox="0 0 187 137" fill="none" xmlns="http://www.w3.org/2000/svg">
<g opacity="0.1" clip-path="url(#clip0_433_4817)">
<path d="M85.3002 61.3784C85.1941 49.2831 78.6405 38.1693 69.4867 31.6972C64.9231 28.4082 59.7493 26.2331 54.4958 25.1191C49.2954 24.0581 44.2011 23.5807 39.1864 23.4481C29.1836 23.2359 19.738 24.5621 11.1148 26.4719C2.49171 28.3816 -5.33543 30.8219 -12.3931 33.2357C-19.5304 35.4637 -25.7656 38.4345 -30.8333 41.5379C-35.9276 44.6413 -39.9606 47.9038 -42.7731 51.0337C-45.612 54.1371 -47.0979 57.1609 -47.6285 59.3094C-48.1592 61.4579 -47.9735 62.6515 -48 62.625C-47.9735 62.625 -48.1061 61.4579 -47.4693 59.336C-46.8591 57.2405 -45.2671 54.3758 -42.3485 51.4316C-39.4565 48.4874 -35.3704 45.437 -30.2496 42.5724C-25.1023 39.6812 -19.0263 37.0287 -11.8359 35.0128C-4.75171 32.8113 3.10196 30.6097 11.619 28.9652C20.1359 27.3207 29.3959 26.2331 39.0803 26.6045C43.9092 26.8167 48.8708 27.3737 53.7529 28.4347C58.5553 29.5222 63.2516 31.5911 67.3641 34.6149C75.5893 40.5565 81.4265 50.6359 81.5326 61.4049C81.5856 66.7629 80.2325 72.0413 77.7384 76.63C77.3935 76.3913 76.173 77.7441 73.8116 79.8395C73.5993 80.0252 73.387 80.2109 73.1748 80.3966C72.3523 80.8475 71.4502 81.2984 70.495 81.7493C63.5169 85.0649 52.9038 87.4786 41.0702 87.6113C39.9559 87.6113 38.8415 87.6113 37.7271 87.6113C36.5332 87.5847 35.2596 87.5317 33.8533 87.4256C26.5303 86.9481 16.4214 85.4628 5.6491 82.3594C-5.1497 79.2825 -14.5157 75.2508 -21.0428 71.8556C-27.5698 68.487 -31.3109 65.8345 -31.4171 65.9936C-31.4701 66.0467 -27.8617 68.9114 -21.3612 72.4657C-14.8872 76.02 -5.49463 80.1844 5.38378 83.2877C6.47162 83.606 7.53292 83.8978 8.62076 84.1631C2.43865 82.8633 -1.27593 81.8289 -1.30246 81.9615C-1.32899 82.0676 3.23463 83.606 10.8495 85.3036C18.4379 86.9747 29.1571 88.7518 41.0968 88.5662C52.9569 88.4335 63.6496 85.9137 70.6542 82.439C68.5846 83.9509 65.9844 85.5689 62.8005 86.9747C57.7593 89.2293 51.2588 90.9003 43.8827 91.4839C36.5066 92.0939 28.255 91.7226 19.738 90.3964C2.62438 87.7439 -12.3135 82.1737 -22.449 77.1075C-22.8735 76.8953 -23.2715 76.6831 -23.696 76.4709C-24.3063 76.073 -24.9166 75.6752 -25.4737 75.3038C-28.923 72.9696 -30.8599 71.2721 -30.966 71.3782C-31.0191 71.4312 -30.0374 72.5187 -28.127 74.1102C-34.6806 70.3702 -38.1298 67.4525 -38.6074 67.8769C-39.2177 68.3543 -34.6275 74.4285 -24.439 80.5822C-14.3565 86.7625 0.926285 93.1814 18.8358 95.94C27.7774 97.3193 36.5066 97.558 44.3868 96.6031C52.267 95.6748 59.2451 93.4467 64.5517 90.4759C65.5599 89.9189 66.5151 89.3354 67.4172 88.7253C59.5105 95.1443 49.7464 98.3538 40.3539 99.4943C30.7756 100.661 21.4626 99.9187 12.9987 98.3272C4.50819 96.7092 -3.23935 94.1894 -10.0317 91.3247C-23.6695 85.5689 -33.4601 78.3011 -39.3238 72.4657C-45.2141 66.6568 -47.3632 62.4659 -47.4163 62.5189C-47.3632 62.4659 -45.4263 66.7629 -39.7218 72.9166C-34.0703 79.0438 -24.439 86.789 -10.7746 93.1019C-3.95573 96.2318 3.84488 99.0434 12.4945 100.9C21.1442 102.757 30.696 103.765 40.7253 102.73C50.6751 101.696 61.2881 98.4068 70.0174 91.3512C74.3422 87.7969 78.1364 83.553 81.0019 78.4337C83.8409 73.341 85.3798 67.3995 85.3002 61.3784Z" fill="#222528"/>
<path d="M183.047 115.197C182.516 113.552 181.8 112.73 181.11 111.749C180.394 110.82 179.677 109.972 178.934 109.149C172.938 102.704 166.57 97.3458 160.282 92.4653C158.69 91.2451 157.125 90.0781 155.48 88.9905C153.835 87.8765 152.19 86.9216 150.598 85.9402C147.361 84.0039 144.203 82.2002 141.072 80.5292C134.837 77.2136 128.788 74.5081 123.004 72.7044C117.246 70.9007 111.754 69.9989 106.925 70.1845C102.096 70.3437 98.0363 71.6699 95.0646 73.2879C92.093 74.9059 90.1561 76.7096 88.9356 77.9828C87.7151 79.256 87.1844 79.9987 87.1579 79.9987C87.1579 79.9987 87.7682 79.309 89.0417 78.0889C90.3153 76.9218 92.3318 75.2508 95.3034 73.8184C98.2751 72.3861 102.255 71.3251 106.925 71.4047C111.595 71.4047 116.875 72.5187 122.393 74.5081C127.939 76.4974 133.776 79.3356 139.825 82.8103C142.85 84.5344 145.928 86.4176 149.059 88.4335C150.624 89.468 152.243 90.4229 153.728 91.5369C155.267 92.6244 156.78 93.818 158.319 95.0382C164.368 99.9452 170.603 105.436 176.228 111.643C176.918 112.412 177.581 113.208 178.192 114.03C178.775 114.799 179.386 115.754 179.492 116.231L179.545 116.709C179.545 116.921 179.571 117.133 179.545 117.345C179.545 117.611 179.492 117.876 179.439 118.115C177.21 119.52 173.416 121.669 168.056 123.526C163.625 125.064 158.133 126.417 151.977 127.133C148.899 127.478 145.662 127.664 142.319 127.61C138.897 127.584 135.368 127.451 131.786 127.239C124.622 126.788 117.803 125.833 111.833 124.295C105.837 122.783 100.637 120.634 96.6301 118.221C92.5971 115.834 89.7316 113.234 87.9274 111.271C86.0966 109.308 85.2741 108.062 85.2741 108.088C85.2741 108.088 85.9109 109.441 87.4763 111.643C89.0152 113.844 91.6154 116.868 95.5688 119.786C97.9567 121.563 100.849 123.26 104.139 124.746C103.82 124.666 103.635 124.64 103.608 124.693C103.555 124.852 109.525 127.557 117.724 129.865C114.274 128.963 110.48 127.796 106.58 126.258C99.3895 123.446 93.287 119.971 89.1479 117.054C85.0088 114.162 82.8065 111.881 82.6739 112.014C82.6208 112.067 84.6638 114.507 88.7499 117.584C92.8094 120.661 98.9384 124.295 106.208 127.107C113.452 129.971 120.403 131.51 125.471 132.146C130.539 132.783 133.723 132.518 133.723 132.438C133.723 132.438 133.67 132.411 133.59 132.385C135.792 132.385 137.119 132.252 137.119 132.146C137.119 132.014 135.182 131.987 132.078 131.695C129.133 131.43 125.153 130.767 120.828 129.706C124.251 130.316 127.859 130.714 131.521 130.953C135.209 131.191 138.817 131.244 142.293 131.191C145.822 131.138 149.218 130.793 152.402 130.236C157.602 129.335 162.219 127.929 166.146 126.337C166.729 126.47 167.472 126.549 168.348 126.549C168.083 126.629 167.844 126.735 167.578 126.815C163.386 128.194 159.035 129.096 154.71 130.077L148.289 131.616C146.22 132.093 144.124 132.465 142.054 132.783C133.749 134.029 125.551 133.817 117.962 132.518C110.347 131.191 103.29 128.831 96.9219 126.072C90.6868 123.34 85.3537 119.467 82.2759 114.587C81.6126 113.552 81.0819 112.465 80.6309 111.404C81.0289 112.014 81.533 112.677 82.1167 113.367C84.4781 116.284 88.3253 119.839 93.1808 122.836C98.0098 125.86 102.839 127.849 106.394 128.91C109.976 129.998 112.284 130.21 112.311 130.104C112.337 129.945 110.082 129.494 106.606 128.274C103.131 127.053 98.4343 125.011 93.685 122.04C88.9091 119.07 85.0618 115.674 82.6474 112.916C81.4799 111.616 80.6309 110.476 80.0206 109.627C78.9593 106.205 78.8001 102.704 79.2512 99.6535C79.9145 95.0382 81.533 91.2451 83.0453 88.3274C86.2027 82.4655 88.8295 79.7599 88.7764 79.7334C88.856 79.7865 86.0435 82.2798 82.5412 88.0357C80.8431 90.9268 79.0124 94.6933 78.1103 99.4678C77.1816 104.163 77.5265 110.131 80.737 115.542C83.8679 120.979 89.4397 125.303 95.9137 128.38C102.361 131.404 109.551 134.056 117.432 135.594C125.338 137.159 133.908 137.504 142.611 136.311C144.787 136.019 146.963 135.647 149.138 135.17C151.34 134.719 153.463 134.109 155.559 133.658C159.857 132.73 164.368 131.801 168.799 130.343C171.028 129.6 173.23 128.751 175.379 127.637C177.475 126.496 179.571 125.117 181.19 122.995C182.012 121.961 182.649 120.714 182.967 119.361C183.127 118.698 183.206 118.009 183.233 117.319C183.233 116.974 183.233 116.656 183.206 116.311C183.153 115.966 183.18 115.727 183.021 115.17L183.047 115.197ZM173.893 122.465C173.893 122.465 174.159 122.465 174.291 122.465C173.867 122.677 173.442 122.889 172.991 123.101C172.407 123.393 171.85 123.658 171.346 123.897C172.248 123.42 173.097 122.942 173.893 122.465ZM178.245 120.741C177.342 121.855 176.175 122.81 174.795 123.632C173.814 124.162 172.514 124.772 171.001 125.197C169.754 125.542 168.56 125.674 167.578 125.701C167.976 125.542 168.401 125.356 168.772 125.197C169.17 125.011 169.515 124.825 169.887 124.64C169.197 125.011 168.772 125.25 168.799 125.382C168.879 125.621 171.001 125.117 173.389 123.95C175.777 122.783 177.502 121.457 177.369 121.245C177.369 121.059 176.785 120.953 176.069 121.085C177.396 120.184 178.457 119.361 179.306 118.672C179.094 119.414 178.749 120.104 178.245 120.767V120.741Z" fill="#222528"/>
<path d="M186.629 21.1669C186.39 20.6894 186.178 20.3977 185.939 20.0794C185.461 19.4958 184.984 19.0449 184.506 18.6205C183.524 17.7982 182.543 17.1617 181.561 16.5516C179.571 15.358 177.555 14.3766 175.538 13.4482C167.499 9.84084 159.512 7.18837 151.844 4.8542C147.997 3.71364 144.256 2.65265 140.488 1.80386C136.588 1.00812 132.98 0.769397 129.398 0.4511C122.287 -0.0793932 115.601 -0.158967 109.551 0.238903C97.4259 0.95507 87.6884 3.68711 81.8778 7.34752C78.9857 9.12467 77.0754 11.0344 75.961 12.4137C74.8466 13.793 74.4221 14.6418 74.3956 14.6153C74.4221 14.7214 76.2528 11.114 82.1962 7.85149C88.0334 4.56243 97.6913 2.36088 109.631 2.12216C115.601 1.98953 122.154 2.25478 129.159 3.02399C132.608 3.42186 136.349 3.81974 139.825 4.642C143.407 5.54384 147.122 6.6844 150.863 7.90454C158.398 10.3713 166.252 13.1564 173.999 16.7373C175.91 17.6391 177.82 18.6205 179.598 19.708C180.473 20.265 181.349 20.8486 182.065 21.4587C182.782 21.9891 183.365 22.9706 183.18 22.7053C182.967 22.8645 182.702 23.0236 182.145 23.2358C181.137 23.6867 180.102 24.1111 179.067 24.509C176.997 25.3313 174.901 26.1005 172.726 26.8166C164.129 29.7078 155.426 31.6707 146.962 33.66C141.47 34.9332 136.111 36.2064 130.884 37.3204C131.998 36.8695 132.635 36.5512 132.608 36.4981C132.555 36.3655 130.539 37.0552 127.249 37.8509C123.959 38.6997 119.342 39.575 114.168 40.2116C112.337 40.4238 110.586 40.636 108.915 40.7951C106.023 41.0339 103.263 41.1134 100.477 40.9543C93.5256 40.636 86.9986 39.6281 81.5859 37.4C78.9061 36.2594 76.5182 34.774 74.7935 32.8643C73.0954 30.9545 72.0872 28.6468 72.0076 26.3657C71.8219 21.7504 73.5465 17.7982 75.3507 15.0662C77.208 12.3076 79.2776 10.6366 80.7634 9.65517C82.2227 8.70028 83.0983 8.32893 83.0983 8.30241C83.0983 8.30241 82.1962 8.6207 80.6573 9.52254C79.1184 10.4244 76.9162 11.9893 74.8466 14.7214C72.8567 17.4534 70.8402 21.3791 70.7871 26.3922C70.7871 28.9121 71.7954 31.6441 73.5996 33.8457C74.5813 35.0393 75.8018 36.1003 77.1284 37.0021C77.1284 37.2674 79.4102 38.6732 82.435 39.9729C82.8064 40.2647 83.2044 40.5564 83.7085 40.8482C84.531 41.3787 85.5923 41.8827 86.7332 42.3866C85.725 42.0949 84.8494 41.8296 84.1065 41.5644C82.8595 40.9808 81.7186 40.3973 80.7103 39.7872C80.4185 39.5485 80.2593 39.4424 80.1266 39.4424C79.251 38.9119 78.4551 38.3814 77.7917 37.904C76.0406 36.6308 75.0854 35.6494 74.9793 35.7555C74.8997 35.835 75.6957 36.9491 77.3672 38.4079C78.2163 39.1506 79.2776 39.9198 80.5511 40.7156C80.9491 41.3522 81.5859 42.1479 82.5676 43.0232C84.6637 44.9065 88.3252 46.8958 93.1011 48.2486C102.653 51.0071 116.529 51.4315 131.229 48.8321C145.981 46.2592 158.663 41.2195 167.313 36.7103C175.989 32.1746 180.685 28.3551 180.42 27.9837C181.508 27.5328 182.569 27.1084 183.604 26.631C184.082 26.4188 184.851 26.1005 185.514 25.5435C186.363 24.8538 186.974 23.7928 186.921 22.6788C186.921 22.1218 186.788 21.5913 186.549 21.0873L186.629 21.1669ZM147.812 37.2408C149.908 36.7634 152.03 36.3125 154.153 35.8085C150.863 36.8695 147.811 37.6122 145.556 37.957C144.309 38.1692 143.327 38.2753 142.664 38.3549C144.362 37.9835 146.087 37.6122 147.812 37.2408ZM148.422 38.2223C147.228 38.6201 146.06 38.9649 144.919 39.2832C145.636 38.9915 146.193 38.7262 146.564 38.514C147.148 38.4344 147.758 38.3549 148.422 38.2223ZM132.502 40.5034C135.553 39.8933 138.631 39.2567 141.736 38.5671C141.789 38.6732 142.956 38.8058 144.893 38.6732C143.301 39.1771 140.993 39.8933 138.286 40.5299C138.101 40.5299 137.915 40.5829 137.729 40.5829C134.81 40.7951 133.006 40.4768 132.98 40.636C132.98 40.689 133.829 40.9808 135.341 41.14C132.343 41.6705 129.584 41.8031 127.567 41.6705C127.355 41.6705 127.196 41.6439 126.983 41.6174C128.761 41.3522 130.592 40.9808 132.502 40.4768V40.5034ZM93.1276 45.1717C92.3316 44.9065 91.403 44.5882 90.4213 44.2168C90.9519 44.3229 91.4826 44.4025 92.0398 44.4821C92.8888 44.5882 93.7114 44.6412 94.4808 44.6943C101.618 45.9144 107.323 45.0921 107.27 44.8534C107.27 44.7208 105.465 44.7738 102.653 44.6412C102.971 44.5882 103.13 44.5617 103.13 44.5086C103.13 44.2434 99.5751 44.1903 94.8257 43.7924C94.3481 43.7129 93.844 43.6333 93.3664 43.5272C90.4744 42.9702 87.9007 42.1479 85.8577 41.2461C86.7333 41.4848 87.4496 41.6174 87.9272 41.6439C91.8275 42.6519 95.9932 43.2619 100.371 43.5802C101.379 43.6598 102.441 43.7129 103.502 43.7659C102.388 43.819 101.751 43.872 101.751 43.9251C101.751 44.0312 103.528 44.2964 106.394 44.2699C109.286 44.2699 113.266 43.8455 117.591 42.9967C117.75 42.9702 117.883 42.9436 118.015 42.9171C119.475 42.7314 120.934 42.5458 122.42 42.3071C121.385 42.8375 119.899 43.5007 117.962 44.0577C113.956 45.2513 108.198 46.1001 101.804 45.994C98.726 45.9409 95.7809 45.6492 93.1542 45.1717H93.1276ZM166.225 34.4027C157.469 38.2223 144.973 42.7314 130.645 45.2248C120.271 47.055 110.427 47.5589 102.255 46.9223C108.543 47.0019 114.195 46.047 118.121 44.6943C120.589 43.872 122.314 42.8641 123.269 42.201C123.667 42.1214 124.091 42.0418 124.516 41.9888C124.781 41.9888 125.02 41.9357 125.285 41.9092C125.842 42.0683 126.585 42.254 127.514 42.3866C129.663 42.7049 132.714 42.6784 135.951 42.0683C137.225 41.8296 138.419 41.5378 139.533 41.2195C142.293 40.9808 145.636 40.2381 149.165 39.0445C153.436 37.5857 157.231 36.1268 160.043 35.3045C162.856 34.4557 164.66 34.1375 164.633 33.9783C164.633 33.8722 163.227 33.9253 160.972 34.4027C161.396 34.2435 161.794 34.0844 162.166 33.9253C166.066 32.9173 170.019 31.8298 173.946 30.5036C175.14 30.1057 176.281 29.6548 177.449 29.2304C175.007 30.3709 171.213 32.2807 166.225 34.4557V34.4027Z" fill="#222528"/>
<path d="M93.2598 111.457C89.8371 109.202 87.1838 106.576 85.3796 104.056C81.7711 98.9636 81.1344 94.8788 80.6568 95.0114C80.471 95.038 80.4445 96.0724 80.816 97.8761C81.1874 99.6798 81.9834 102.279 83.7346 105.144C85.4592 108.009 88.1921 111.032 91.8005 113.579C95.3824 116.152 99.7868 118.221 104.536 119.812C114.088 122.942 123.083 123.844 129.503 124.321C135.951 124.746 139.957 124.693 139.984 124.321C140.037 123.923 136.057 123.287 129.716 122.358C123.374 121.377 114.592 120.157 105.438 117.133C100.848 115.621 96.709 113.711 93.2863 111.43L93.2598 111.457Z" fill="#222528"/>
<path d="M155.904 118.221C155.904 118.088 151.393 118.592 144.123 118.141C136.853 117.69 126.851 116.417 116.131 113.526C105.412 110.661 96.1258 106.497 90.3682 102.094C84.5044 97.7171 82.6737 93.3405 82.541 93.4732C82.488 93.4732 82.8594 94.5872 84.0003 96.3113C85.1147 98.0354 87.0781 100.343 89.9436 102.624C95.7012 107.266 105.067 111.563 115.866 114.454C126.665 117.372 136.774 118.539 144.07 118.831C151.393 119.123 155.904 118.353 155.877 118.247L155.904 118.221Z" fill="#222528"/>
<path d="M109.1 98.8309C116.051 100.9 122.287 102.969 126.691 104.772C131.096 106.523 133.722 107.876 133.802 107.743C133.855 107.637 131.334 106.099 126.956 104.162C122.605 102.2 116.343 100.025 109.392 97.9291C102.44 95.8336 96.1254 94.0034 91.6414 92.4385C87.1309 90.9266 84.4245 89.7595 84.3449 89.8921C84.3184 89.9982 86.9451 91.351 91.4026 93.0486C95.8601 94.7727 102.148 96.709 109.126 98.8044L109.1 98.8309Z" fill="#222528"/>
<path d="M97.5052 85.94C103.581 88.115 112.125 90.7144 121.464 93.7913C130.804 96.8682 139.082 100.104 144.919 102.836C150.756 105.542 154.232 107.531 154.285 107.398C154.338 107.319 150.995 105.091 145.184 102.226C139.4 99.335 131.096 95.9663 121.73 92.8895C112.364 89.8126 103.82 87.3193 97.691 85.3034C91.5619 83.3141 87.8208 81.9613 87.7677 82.0939C87.7412 82.2 91.4027 83.7915 97.5052 85.94Z" fill="#222528"/>
<path d="M95.6214 77.3196C95.5418 77.6379 113.425 80.5556 133.722 89.521C143.858 93.9241 152.561 98.9372 158.583 102.942C164.633 106.921 168.109 109.786 168.215 109.653C168.268 109.574 164.925 106.523 158.955 102.385C152.985 98.2476 144.282 93.1018 134.094 88.6457C113.69 79.6273 95.5948 77.1074 95.6214 77.2931V77.3196Z" fill="#222528"/>
<path d="M132.423 83.1812C132.529 82.969 126.108 79.8391 117.644 77.4784C109.206 75.1442 102.228 73.8445 102.202 74.0567C102.122 74.3485 108.994 76.0726 117.379 78.3802C125.763 80.7144 132.29 83.4464 132.423 83.1812Z" fill="#222528"/>
<path d="M83.6022 31.4583C89.8374 33.3415 98.7789 35.2778 108.808 35.6226C118.811 35.994 127.859 34.7473 134.253 33.4741C140.674 32.1744 144.521 30.9278 144.495 30.8217C144.442 30.6625 140.541 31.697 134.12 32.811C127.7 33.9251 118.732 35.0656 108.835 34.6943C98.9116 34.376 90.0232 32.5723 83.7614 30.8482C77.4732 29.1241 73.7056 27.6387 73.6525 27.7978C73.626 27.8774 77.314 29.575 83.5757 31.4848L83.6022 31.4583Z" fill="#222528"/>
<path d="M100.291 24.058C106.314 23.7397 111.727 23.3949 115.654 23.501C119.581 23.5806 121.995 23.8988 122.022 23.7397C122.022 23.6336 119.66 23.0766 115.68 22.8379C111.727 22.5461 106.235 22.7848 100.265 23.1296C94.2684 23.4479 88.8558 23.4214 84.9555 22.9174C81.0552 22.44 78.7203 21.7238 78.6672 21.883C78.6407 21.9891 80.9225 22.9174 84.8493 23.5806C88.7762 24.2702 94.295 24.4028 100.291 24.058Z" fill="#222528"/>
<path d="M90.819 15.172C95.7541 15.3311 102.52 15.3842 110.029 15.4637C117.537 15.5433 124.303 15.729 129.212 15.9942C134.12 16.2329 137.145 16.4717 137.172 16.339C137.172 16.2329 134.173 15.7555 129.265 15.3311C124.356 14.9067 117.564 14.6149 110.055 14.5354C102.546 14.4558 95.7541 14.5354 90.8455 14.5354C85.937 14.5354 82.8857 14.5354 82.8857 14.6945C82.8857 14.8271 85.9105 15.0393 90.819 15.1985V15.172Z" fill="#222528"/>
<path d="M168.162 18.5409C168.162 18.5409 163.705 17.2147 156.435 15.1457C149.191 13.1299 139.162 10.1856 127.779 8.16974C116.423 6.10081 105.81 5.99472 98.3282 7.374C90.8195 8.67371 86.6007 10.9018 86.6538 10.9548C86.7069 11.1405 91.0052 9.15115 98.4343 8.03712C105.863 6.84351 116.317 7.0557 127.62 9.0981C138.897 11.114 148.953 13.9521 156.249 15.8088C163.546 17.7186 168.109 18.7 168.136 18.5674L168.162 18.5409Z" fill="#222528"/>
<path d="M-17.8059 61.3781C-8.546 60.8476 4.29582 60.158 18.4377 60.6354C32.5797 61.0863 45.3153 62.9961 54.2303 65.569C63.1718 68.0623 68.2661 70.8739 68.3457 70.6617C68.3988 70.6352 63.3841 67.6114 54.4161 64.9324C45.5011 62.1738 32.6858 60.1314 18.4908 59.6805C4.26928 59.2031 -8.57253 59.9988 -17.8324 60.715C-27.0923 61.4577 -32.7969 62.1473 -32.7969 62.2534C-32.7969 62.386 -27.0393 61.9351 -17.7794 61.3781H-17.8059Z" fill="#222528"/>
<path d="M-14.9405 54.2428C-5.91939 53.1288 6.68364 52.3861 20.5868 52.6513C34.4899 52.9166 47.0664 54.1367 55.9548 56.073C60.4123 57.0279 63.9146 58.1685 66.2495 59.1764C68.5844 60.1843 69.6988 61.0596 69.7518 60.9801C69.7784 60.9535 68.717 59.9721 66.3822 58.8316C64.0738 57.691 60.5715 56.4443 56.0875 55.4099C47.1725 53.2879 34.543 51.9617 20.6133 51.6964C6.6571 51.4577 -5.97245 52.28 -15.0201 53.5797C-24.0943 54.7998 -29.4804 56.7361 -29.4273 56.8953C-29.4008 57.0014 -23.9881 55.3038 -14.9405 54.2428Z" fill="#222528"/>
<path d="M19.7647 41.2987C32.8984 41.1396 44.7585 42.4393 53.1694 44.2429C61.6068 46.0201 66.5684 48.036 66.6214 47.8768C66.6745 47.7972 61.766 45.5427 53.3286 43.5798C44.9177 41.5905 32.9515 40.1847 19.7647 40.3438C-6.7149 40.6091 -27.5696 46.2588 -27.4635 46.4445C-27.4635 46.7628 -6.55571 41.5639 19.7912 41.2987H19.7647Z" fill="#222528"/>
<path d="M51.2321 34.4821C58.6613 35.8614 62.9861 37.7977 63.0392 37.6121C63.0922 37.5325 58.8205 35.384 51.3648 33.819C43.9091 32.2275 33.3225 31.4849 21.7808 32.4928C-1.43527 34.4556 -19.1856 41.4847 -19.053 41.6438C-18.9999 41.9886 -1.22301 35.384 21.8339 33.4477C33.3225 32.4397 43.803 33.0763 51.2321 34.4821Z" fill="#222528"/>
<path d="M20.7463 73.3939C7.74529 71.6963 -3.92909 69.5478 -12.3399 67.7706C-20.7508 66.02 -25.8716 64.5877 -25.9512 64.8264C-26.0308 65.0651 -21.0161 66.9484 -12.6318 69.0703C-4.27401 71.1923 7.45343 73.553 20.5075 75.2506C33.5616 76.9747 45.5278 77.6113 54.1775 77.3195C62.8537 77.0808 68.1072 75.7546 68.0541 75.5158C68.001 75.2506 62.7476 76.0728 54.151 75.9933C45.5809 75.9668 33.7208 75.118 20.7463 73.3939Z" fill="#222528"/>
</g>
<defs>
<clipPath id="clip0_433_4817">
<rect width="235" height="137" fill="white" transform="translate(-48)"/>
</clipPath>
</defs>
</svg>
