<svg width="145" height="137" viewBox="0 0 145 137" fill="none" xmlns="http://www.w3.org/2000/svg">
<path d="M223.559 112.441C224.149 110.7 224.045 108.97 223.919 107.235C223.763 105.516 223.459 103.708 222.982 101.903C222.073 98.3059 220.727 94.5913 219.077 90.8196C215.752 83.2702 211.303 75.3206 205.304 67.8191C203.783 65.9564 202.197 64.1503 200.382 62.5543C198.636 60.9767 196.853 59.5372 195.017 58.2066C191.35 55.5223 187.57 53.3505 183.906 51.481C180.236 49.6345 176.701 48.0214 173.424 46.5512L168.61 44.3737C166.964 43.7107 165.378 43.2857 163.848 42.9251C158.545 41.7506 154.086 41.4684 150.739 41.3607C149.613 38.2969 148.412 35.2377 147.038 32.1813C143.799 25.0493 140.01 18.3126 135.194 12.5584C132.783 9.69281 130.108 7.07706 127.095 4.98727C125.577 3.9393 123.993 3.04623 122.319 2.30191C122.05 2.20498 121.058 1.76668 120.398 1.56502C119.68 1.29885 118.968 1.10787 118.318 0.95839C117.628 0.773574 116.995 0.65326 116.322 0.497613C115.689 0.3773 114.861 0.155519 114.36 0.0951782L114.823 1.03315C114.535 1.00525 114.159 1.02789 113.661 1.14094C112.524 1.42827 111.113 2.55464 110.068 4.24757C109.641 4.92228 109.241 5.67834 108.881 6.46973C107.24 5.88195 105.387 5.53332 103.56 6.00563C101.664 6.45945 100.288 7.91575 99.6592 9.25159C98.9781 10.5981 98.7539 11.8944 98.6419 13.0482C98.5596 13.8153 98.5647 14.5319 98.5883 15.1794C98.4139 14.9107 98.2395 14.642 98.088 14.3795C93.6674 7.79406 89.3931 5.16905 89.4682 5.16452C89.4452 5.15836 93.0608 8.49468 96.5242 15.3415C98.3028 18.7282 100.091 22.9066 101.927 27.6405C103.81 32.3868 105.586 37.6224 108.113 43.1825C113.446 53.8104 118.706 62.9637 121.657 70.0679C124.725 77.1046 125.533 81.9081 125.539 81.8851C125.539 81.8851 125.545 80.4811 125.24 78.0319C126.103 80.6059 127.085 83.6558 128.022 86.9649C129.032 90.3676 129.747 93.4939 130.284 96.1781C129.012 92.927 128.611 91.0193 128.611 91.0193C128.611 91.0193 128.827 93.2475 130.021 97.0693C130.195 97.7078 130.425 98.4108 130.644 99.1598C128.103 98.1584 125.531 97.272 122.979 96.5882L122.335 96.4157C118.565 95.4053 114.795 94.6666 111.045 94.1304C108.681 89.8962 106.832 86.5893 106.32 86.107C106.068 85.6694 105.821 85.2088 105.552 84.7421C104.459 82.846 103.437 81.1418 102.565 79.7984C103.015 79.1298 103.465 78.4613 103.869 77.7804C104.158 78.4497 104.481 79.1773 104.855 79.8942C106.776 83.7628 108.526 86.7966 108.776 86.6909C109.078 86.5746 107.765 83.2882 105.845 79.4196C105.365 78.4524 104.918 77.5436 104.522 76.7223C104.576 76.6134 104.653 76.5107 104.707 76.4018C104.767 76.2699 104.821 76.161 104.904 76.0353C105.079 76.5756 105.334 77.1865 105.652 77.839C106.596 79.7441 107.646 81.1598 107.64 81.1828C107.64 81.1828 107.434 79.3767 106.473 77.4424C106.054 76.6149 105.621 75.9317 105.256 75.3651C105.351 75.1933 105.417 75.0384 105.512 74.8667C105.65 75.2734 105.833 75.6925 106.109 76.1362C107.069 77.7007 108.055 78.8034 108.072 78.8326C108.072 78.8326 107.857 77.2458 106.919 75.6875C106.812 75.5354 106.728 75.3896 106.643 75.2437C106.717 74.9676 106.724 74.5748 106.539 74.254C106.434 74.0037 106.287 73.8164 106.127 73.6751C106.241 73.4343 106.326 73.2103 106.44 72.9696C106.493 73.2305 106.598 73.4807 106.698 73.7539C107.182 74.7962 107.926 75.5135 107.92 75.5366C107.92 75.5366 108.037 74.458 107.535 73.3865C107.301 72.8799 107.014 72.4822 106.777 72.172C107.541 70.33 108.149 68.52 108.555 66.7298C109.273 63.5926 109.364 60.5838 108.783 58.0606C108.349 56.0946 107.516 54.5149 106.577 53.3264C106.468 52.6312 106.366 52.1846 106.262 52.2059C106.193 52.1875 106.148 52.4467 106.107 52.7812C106.034 52.6875 105.944 52.5647 105.864 52.494C105.875 52.1764 105.903 51.888 105.885 51.5872C105.88 50.8706 105.778 50.424 105.694 49.9084C104.881 45.7693 102.497 42.3437 99.8345 39.6819C99.2327 39.0768 98.5956 38.5115 97.9356 37.94C97.5832 36.5879 96.6285 33.9892 95.1988 31.1399C93.1208 27.0318 91.3159 23.8354 91.0428 23.9348C90.7636 24.0573 92.1479 27.5356 94.2092 31.6146C95.3209 33.8114 96.2458 35.7856 96.9446 37.1319C96.4147 36.7186 95.8847 36.3054 95.3486 35.9151C95.0765 35.275 94.754 34.5473 94.3917 33.7844C93.2099 31.2975 91.8555 29.4549 91.6099 29.6357C91.3475 29.7873 92.2371 31.8013 93.3959 34.2821C93.4738 34.4509 93.5518 34.6198 93.6527 34.7948C92.8531 34.2846 92.0472 33.7974 91.2122 33.327L91.1281 33.1812C89.4455 30.2642 88.1762 27.8278 87.8908 27.9733C87.6699 28.0621 88.2544 30.019 89.4777 32.443C89.0195 32.2216 88.5905 31.9834 88.1324 31.7619C88.1094 31.7558 88.0987 31.7036 88.0819 31.6744C86.6343 29.5356 85.4347 27.7591 85.1431 27.9276C84.939 28.0455 85.3911 29.3011 86.3104 30.9285C86.0698 30.8147 85.8231 30.7239 85.6055 30.6163C85.4401 30.498 85.2516 30.3735 85.0694 30.226C84.8613 29.899 84.6364 29.5428 84.3947 29.1574C84.1698 28.8012 83.9555 28.4972 83.7413 28.1932C83.7536 28.1471 83.7659 28.1011 83.7783 28.0551C84.1 27.1302 84.4156 26.2283 84.725 25.3494C84.821 25.819 84.9752 26.2549 85.1956 26.5359C85.4834 26.9336 85.7638 27.0827 85.7346 27.0996C85.7178 27.0704 85.5169 25.9808 85.5324 24.7272C85.5301 24.184 85.4925 23.6807 85.4824 23.2587C85.6517 22.8109 85.7918 22.3798 85.9549 21.955C86.1328 23.0384 86.6331 23.8384 86.6331 23.8384C86.6331 23.8384 86.9167 22.7799 86.8095 21.6167C86.755 21.0842 86.6652 20.5916 86.5676 20.2202C86.8232 19.4502 87.0895 18.7323 87.3036 18.0252C87.3239 18.8691 87.8107 19.4435 87.7877 19.4373C87.7877 19.4373 88.1521 18.7211 88.1885 17.9417C88.2478 17.1684 87.9774 16.4301 87.9836 16.4071C87.9836 16.4071 87.8546 16.5205 87.6948 16.749C88.2447 14.9727 88.6763 13.362 88.9083 11.9445C89.2714 9.9455 89.2522 8.36199 89.0619 7.32455C88.8717 6.2871 88.5857 5.79121 88.6087 5.79737C88.621 5.75135 89.4719 8.00162 88.3672 11.8488C87.4558 15.5258 85.0631 20.409 82.4171 26.6053C82.2579 26.4639 82.1491 26.4101 82.0846 26.4668C81.9971 26.5174 82.0381 26.8243 82.1587 27.2019C82.1341 27.2939 82.0864 27.3798 82.0387 27.4657C81.9418 27.7356 81.8156 28.0225 81.7125 28.3154C80.9235 27.8574 79.5383 27.141 77.851 26.5409C76.513 26.1084 75.1761 25.9475 74.2268 26.0877C74.1808 26.0754 74.1516 26.0922 74.1225 26.1091C72.7901 26.0233 71.686 26.0974 71.0434 26.1965C69.6914 25.9082 68.3456 25.5969 66.9689 25.4007C63.13 25.0133 59.6646 25.0712 56.1992 25.1291C52.7735 25.2223 49.4567 25.3694 46.2885 25.6056C39.9061 26.0657 34.0111 26.7303 28.6908 27.549C18.067 29.2155 9.56916 31.5009 4.63663 34.643C3.24776 35.504 2.26657 36.4988 1.60893 37.4817C1.57977 37.4986 1.55061 37.5154 1.51529 37.5553C1.49847 37.5261 1.48164 37.4969 1.44182 37.4616C1.425 37.4324 1.36835 37.3679 1.30555 37.3264C1.30555 37.3264 1.22591 37.2558 1.01732 37.2985C0.860873 37.3306 0.830045 37.4456 0.776226 37.5545C0.717395 37.958 0.790867 38.0517 0.844168 38.3126C0.838003 38.3356 0.877819 38.3709 0.86549 38.417C0.631718 38.9215 0.446756 39.6118 0.519193 40.4451C0.797005 42.4431 2.20796 43.3391 2.36158 43.1337C2.49054 43.0202 2.30096 42.6242 2.08556 42.0486C2.33628 42.5843 2.70028 43.2491 3.2129 44.003C3.80014 45.1221 4.25611 45.8115 4.41872 45.7565C4.41872 45.7565 4.43105 45.7104 4.46638 45.6706C5.04347 46.3678 5.70637 47.1126 6.5302 47.9006C7.60977 48.9297 8.96074 49.9576 10.485 50.9825C10.6196 51.2159 10.8002 51.4616 10.9914 51.7594C10.867 51.948 10.7425 52.1366 10.6472 52.3084C10.5872 52.4403 10.5272 52.5722 10.4672 52.7041C9.99341 52.7251 8.94145 52.7885 7.38317 53.0861C6.33404 53.3229 4.96135 53.5717 3.63979 54.5493C2.99666 55.0182 2.38051 55.9382 2.46643 56.997C2.51305 57.6507 2.76827 58.2617 3.12778 58.8512C2.99266 58.9877 2.8452 59.1701 2.70224 59.4277C2.52396 59.7252 2.52344 60.095 2.56274 60.5002C2.34465 60.7623 3.45978 63.7739 6.05639 66.5906C8.67432 69.5116 11.2646 71.3401 11.4474 71.1178C11.624 70.9185 10.2674 69.5439 8.46997 67.6072C9.07957 68.0912 9.73514 68.5874 10.4367 69.096C12.6413 71.5364 15.553 73.8209 18.662 75.3692C19.2626 75.7027 19.8463 76.0071 20.4363 76.2885L20.1116 76.0289C20.6449 76.2458 21.1843 76.4396 21.7238 76.6335L21.3699 76.3907C22.5543 77.0287 23.774 77.6268 24.9831 78.1727C29.1873 80.5076 33.7947 82.9013 38.9051 85.2571C41.0658 86.206 43.2769 87.2424 45.8105 87.9952C48.1018 88.7325 50.5602 89.4899 53.0371 90.1782C58.0139 91.5611 63.2823 92.7754 68.8506 93.3303C74.3959 93.879 79.9484 93.6651 85.0102 92.4319C86.541 92.0529 88.0274 91.5634 89.4511 91.0324C88.6766 90.0603 87.9083 89.0653 87.1691 88.0534C86.0661 88.3991 84.9464 88.7156 83.7929 88.9737C79.2145 89.9665 74.2172 90.1318 69.052 89.6357C63.8931 89.1165 58.8361 88.0328 53.9726 86.7789C51.5355 86.1259 49.1904 85.4975 46.7948 84.7816C44.6106 84.1964 42.4376 83.2935 40.3044 82.426C33.6535 79.6574 27.656 76.842 22.3773 74.1945C21.5642 73.4587 19.9221 72.2295 17.9291 70.931C16.4049 69.906 14.9816 69.0561 13.9688 68.5134C13.0378 67.5734 11.6689 66.2448 10.2051 64.7182C10.1255 64.6475 10.052 64.5538 9.99539 64.4893C10.956 65.0427 11.929 65.55 12.9771 66.0528C13.1072 66.211 13.2143 66.363 13.3904 66.5335C12.3272 65.9033 11.6699 65.5052 11.5993 65.585C11.4288 65.7612 13.2986 67.52 16.3442 69.3965C17.0043 69.968 17.7333 70.5579 18.5605 71.1495C22.4727 74.0227 26.4798 74.7018 26.5079 74.4134C26.5263 74.3444 26.3547 74.2491 26.1203 74.1123C26.2353 74.1431 26.3441 74.1969 26.4529 74.2507C29.9494 76.1001 34.0885 77.8504 38.5606 79.3693C46.1961 81.9577 53.287 83.6358 58.4112 84.8362C63.5417 86.0136 66.7285 86.7195 66.7655 86.5815C66.8025 86.4434 63.6896 85.4614 58.6085 84.0999C53.5398 82.6924 46.5027 80.9055 38.9132 78.3293C31.6164 75.8562 25.2695 72.8732 20.994 69.9766C22.4543 70.6885 23.9101 71.3251 25.2986 71.8452C30.0081 74.6854 36.1822 77.3016 43.1027 79.1559C52.103 81.6169 60.4796 82.7269 66.4954 83.451C72.5465 84.1353 76.2828 84.4459 76.3198 84.3078C76.363 84.1468 72.6193 83.5876 66.6007 82.6901C60.6113 81.7757 52.2885 80.5568 43.3801 78.1205C38.6669 76.8576 34.3343 75.2774 30.5586 73.5505C36.2207 75.043 40.2272 75.0808 40.1644 75.0393C40.1521 75.0853 35.4505 73.135 29.1283 70.0599C30.4438 70.1164 31.7593 70.173 33.0872 70.1835C33.1102 70.1897 33.1561 70.202 33.1853 70.1851C33.1853 70.1851 33.2083 70.1913 33.2251 70.2205C35.0315 72.3075 37.0111 73.3805 37.1709 73.152C37.3307 72.9236 36.1087 71.7823 34.6404 70.1805C34.8367 70.1837 35.033 70.187 35.2062 70.1841C35.4833 70.5296 35.8002 70.9105 36.1523 71.2514C37.878 72.9962 39.5632 74.0643 39.7459 73.842C39.9579 73.6029 38.6197 72.1592 36.9508 70.4789C36.8313 70.3729 36.7578 70.2792 36.6446 70.1502C36.893 70.1428 37.1352 70.1584 37.3606 70.1448C38.2164 71.0893 38.8305 71.6485 38.9825 71.5412C39.1053 71.4508 38.8316 70.9089 38.3543 70.1151C38.4232 70.1336 38.5275 70.1122 38.6027 70.1077C38.9639 70.5991 39.4338 71.1442 39.9498 71.7017C41.4472 73.2867 42.9608 74.2595 43.1435 74.0372C43.3202 73.8379 42.5333 72.9119 41.4509 71.7094C41.2843 71.3195 40.9416 70.7591 40.5378 70.059C41.0346 70.0441 41.5315 70.0293 42.0283 70.0144C43.6671 72.4512 45.0602 74.0575 45.2704 73.9166C45.3349 73.8599 45.2525 73.6158 45.0629 73.2198C45.8071 73.9371 46.429 74.375 46.558 74.2616C46.7867 74.0516 45.812 72.6313 44.5462 71.0097C44.2523 70.635 43.9584 70.2603 43.7044 69.921C44.0801 69.8983 44.4558 69.8757 44.8315 69.8531C46.5319 72.0597 48.0265 73.4713 48.1969 73.295C48.2676 73.2153 48.0886 72.8714 47.7628 72.3402C47.8491 72.018 47.5361 71.071 46.6971 70.1557C46.567 69.9975 46.4245 69.8853 46.2821 69.7732C46.7329 69.746 47.1608 69.7127 47.5886 69.6794C49.9924 73.3075 52.1477 75.932 52.358 75.791C52.5974 75.6332 50.9849 73.0063 48.82 69.5901C49.4441 69.56 50.0514 69.5008 50.6525 69.4645C50.8606 69.7916 51.0625 70.1416 51.2936 70.4748C53.6531 73.9925 56.1706 76.3687 56.3702 76.1756C56.5989 75.9656 54.502 73.3074 52.1991 69.8543C52.0752 69.6731 51.9681 69.5211 51.8671 69.3461C52.3701 69.3082 52.8961 69.2765 53.3761 69.2325C53.4097 69.2908 53.4372 69.3722 53.4938 69.4367C55.6397 73.2917 58.4578 75.6498 58.6697 75.4107C58.8755 75.1945 56.6541 72.725 54.6075 69.1432C55.0875 69.0992 55.5675 69.0552 56.0474 69.0111C56.2219 69.2798 56.3901 69.5715 56.5584 69.8632C58.2718 72.6652 60.0799 74.6541 60.3255 74.4733C60.5711 74.2924 59.2004 72.0509 57.5037 69.278C57.4135 69.1552 57.3462 69.0385 57.262 68.8927C57.7942 68.838 58.2742 68.7939 58.7771 68.7561C58.9791 69.1061 59.1748 69.4792 59.3935 69.8584C61.5046 73.3835 63.9593 75.7182 64.1651 75.5021C64.3938 75.2921 62.3933 72.7338 60.3097 69.29C60.169 69.0797 60.0512 68.8755 59.9396 68.6483C60.5698 68.5952 61.1541 68.5298 61.7552 68.4936C62.1467 69.2397 62.6179 70.0565 63.1456 70.9378C64.8591 73.7397 66.6672 75.7286 66.9128 75.5478C67.1583 75.367 65.7876 73.1254 64.091 70.3526C63.6642 69.6463 63.225 68.9861 62.8425 68.3904C63.045 68.3706 63.2934 68.3632 63.4958 68.3434C63.9007 68.3039 64.2764 68.2813 64.6582 68.2357C64.9701 68.9111 65.4014 69.6925 65.937 70.4526C67.5377 72.7558 69.1455 74.2964 69.3619 74.1324C69.6137 73.9286 68.3636 72.0646 66.8425 69.8321C66.414 69.224 66.0484 68.6575 65.7225 68.1262C66.5552 68.0534 67.3649 67.9744 68.0933 67.923C68.3867 68.6675 68.8606 69.6576 69.523 70.7723C70.7008 72.8142 71.8472 74.3298 72.1096 74.1781C72.372 74.0265 71.64 72.252 70.456 70.2331C69.9176 69.2997 69.3775 68.4644 68.9199 67.8732C69.1453 67.8596 69.3707 67.846 69.5961 67.8324C69.7402 67.8464 69.8905 67.8373 70.0576 67.8574C70.3818 68.4869 70.7458 69.1516 71.1435 69.8747C72.5737 72.3542 73.9388 74.249 74.2012 74.0974C74.4636 73.9457 73.5067 71.815 72.0765 69.3356C71.7736 68.8105 71.4646 68.3084 71.1724 67.8356C71.7505 67.7932 72.387 67.7171 73.0296 67.618C73.4519 68.249 73.9645 69.0029 74.5046 69.8382C75.8849 71.8604 76.7963 73.609 77.0985 73.4927C77.3716 73.3932 76.8639 71.3335 75.4331 69.2238C74.994 68.5636 74.5302 67.9954 74.0939 67.5086C75.3023 67.4131 75.9723 67.3954 75.9785 67.3724C75.9785 67.3724 75.6213 67.326 74.9989 67.2578C75.5433 67.1571 76.0878 67.0564 76.5802 66.9663C76.883 67.4914 77.2027 68.0456 77.5392 68.6291C79.2527 71.431 81.0607 73.4199 81.3063 73.2391C81.5519 73.0583 80.1812 70.8167 78.4846 68.0439C78.2092 67.6001 77.9506 67.1856 77.6921 66.7711C77.7151 66.7772 77.7381 66.7834 77.7734 66.7435C77.8194 66.7558 77.8485 66.739 77.9007 66.7283C78.1452 67.2871 78.4526 67.8873 78.8413 68.46C80.5042 71.1745 82.7962 72.5531 82.9683 72.2787C83.1342 72.0272 81.3256 70.4081 79.7866 67.8748C79.5219 67.4833 79.3093 67.0811 79.0906 66.7019C79.7254 66.724 80.3663 66.7231 81.0072 66.7222C81.0084 66.9938 81.06 67.3529 81.2373 67.795C81.4039 68.1849 81.6288 68.5411 81.949 68.7255C82.263 68.933 82.5759 68.8688 82.5961 68.7016C82.6011 68.407 82.5539 68.1231 82.2667 67.3556C82.1843 67.1116 82.0665 66.9074 81.9196 66.72C82.0928 66.7171 82.237 66.7311 82.4102 66.7282C82.976 66.7318 83.5771 66.6956 84.1491 66.6762C84.328 67.0201 84.5238 67.3932 84.7717 67.7555C85.7341 69.2218 86.8798 70.0961 87.1024 69.9091C87.3312 69.6991 86.606 68.543 85.694 67.1642C85.5701 66.983 85.463 66.831 85.339 66.6498C85.888 66.6243 86.4016 66.6386 86.9568 66.59C87.0975 66.8004 87.2445 66.9877 87.4144 67.1812C88.3728 68.2026 89.375 68.693 89.5577 68.4707C89.7697 68.2316 89.0916 67.3594 88.2296 66.4379C89.3169 66.3346 90.398 66.2544 91.5268 66.0883C95.0712 65.4596 98.9229 64.4201 102.072 61.5892C102.822 60.9025 103.489 60.07 104.047 59.1837C104.028 59.2527 104.039 59.3049 104.044 59.3801C103.335 61.6564 102.469 64.7044 101.138 67.9238C99.7536 71.252 97.9803 74.0076 96.4031 75.7552C94.8428 77.532 93.667 78.4254 93.7741 78.5774C93.8414 78.6941 95.2101 78.0004 96.9712 76.302C98.7492 74.6328 100.743 71.7885 102.159 68.3452C102.839 66.7271 103.327 65.1809 103.768 63.7206C103.541 65.485 103.18 67.3857 102.581 69.3461C102.556 69.4381 102.531 69.5301 102.507 69.6222C101.8 70.4194 101.297 70.827 101.37 70.9207C101.404 70.979 101.7 70.8857 102.173 70.5931C99.4326 78.244 94.3847 82.7362 94.6988 82.9437C94.7722 83.0374 96.2457 81.9525 98.1548 79.7019C99.5217 78.0952 101.067 75.8212 102.321 73.0744C102.383 73.4857 102.546 74.072 102.828 74.8625C102.78 74.9483 102.726 75.0572 102.649 75.16C102.145 75.9374 101.618 76.7087 101.045 77.4676C100.735 77.0638 100.525 76.8349 100.46 76.8917C100.373 76.9422 100.5 77.2968 100.744 77.8555C99.2079 79.9101 97.4127 81.9199 95.3678 83.6655C94.6064 84.3 93.8696 84.8424 93.0179 85.3541C92.335 85.7876 91.6184 86.1629 90.9248 86.5442C90.7269 86.6392 90.5458 86.7633 90.3708 86.8644C89.4625 87.3115 88.5373 87.7295 87.6014 88.0952C88.2257 89.0763 88.8561 90.0344 89.5156 90.9757C90.1583 91.8878 90.8717 92.7201 91.5559 93.5693C88.1898 93.9005 85.242 94.4177 82.5208 95.1929C79.9268 95.9529 77.7344 96.8698 75.7809 97.9987C73.1445 99.5612 71.2084 101.361 69.9021 103.477C69.2613 104.489 68.8487 105.661 68.5573 106.84C67.8424 107.117 67.4173 107.324 67.4387 107.428C67.46 107.533 67.8065 107.527 68.3847 107.485C68.3662 107.554 68.3477 107.623 68.3353 107.669C68.2367 108.037 68.3108 108.772 68.4101 109.045C68.5032 109.341 68.6025 109.615 68.7433 109.825C68.9727 110.256 69.2267 110.596 69.4303 110.848C69.9109 111.445 70.4056 111.898 70.8206 112.281C70.917 112.38 71.0197 112.457 71.0993 112.528L71.1144 112.655L71.1391 112.563C72.983 114.142 74.9486 115.36 76.6461 116.382C80.4135 118.6 84.4618 120.597 88.9856 122.475C95.4127 125.159 102.561 127.543 110.838 129.76C112.171 130.118 113.528 130.481 114.867 130.816C124.976 133.278 133.472 134.863 141.58 135.778C146.41 136.332 150.904 136.575 155.304 136.521C157.21 136.489 159.73 136.375 162.371 135.899C162.967 135.787 163.57 135.653 164.26 135.468C164.423 135.413 164.556 135.375 164.69 135.336C165.136 135.234 165.664 135.104 166.59 134.316C167.683 133.179 167.708 131.706 167.617 130.942C167.534 130.056 167.28 129.347 167.038 128.69C165.979 126.113 164.517 124.118 163.087 122.28C161.702 120.553 160.144 118.828 158.309 117.029C155.265 114.043 151.745 111.177 147.568 108.282C146.569 107.595 145.575 106.983 144.564 106.342C144.651 106.292 144.716 106.235 144.751 106.195C144.822 106.116 144.859 105.977 144.896 105.839C145.335 105.488 145.815 105.075 146.27 104.481C146.536 104.133 146.779 103.779 146.969 103.436C147.026 103.5 147.082 103.565 147.162 103.635C149.586 106.085 152.486 108.687 155.859 111.367C162.719 116.756 171.402 122.609 182.02 127.403C187.333 129.739 193.15 131.939 199.727 132.591C201.365 132.734 203.079 132.774 204.815 132.549C206.603 132.313 208.659 131.63 210.164 130.061C211.692 128.497 212.322 126.422 212.498 124.57C212.68 122.695 212.52 120.901 212.226 119.145C211.94 117.638 211.566 116.182 211.14 114.736C211.941 114.876 212.81 115.035 213.731 115.184C215.222 115.78 216.4 115.8 216.461 115.57C216.461 115.57 216.462 115.57 216.468 115.547C217.499 115.651 218.596 115.698 219.793 115.55C219.921 115.535 220.054 115.497 220.165 115.452C220.594 116.332 220.88 116.828 220.962 116.8C221.043 116.773 220.89 116.239 220.611 115.35C221.116 115.214 221.61 115.026 222.118 114.693C222.894 114.186 223.463 113.352 223.743 112.49L223.559 112.441ZM107.544 58.2711C107.702 59.5218 107.708 60.8798 107.522 62.3097C107.557 59.2363 107.114 56.7501 106.829 55.5147C107.15 56.3405 107.423 57.2522 107.544 58.2711ZM96.755 45.5648C97.5289 45.8955 98.0638 46.0141 98.1636 45.9176C98.6246 46.3124 99.0794 46.7302 99.5572 47.1541C100.194 47.7194 100.779 48.2954 101.341 48.8652C101.409 48.9819 101.476 49.0986 101.583 49.2506C101.571 49.2966 101.61 49.332 101.627 49.3611C100.718 48.5255 99.9381 47.8481 99.5091 47.6098C98.7402 46.9845 97.8227 46.2701 96.7841 45.5479L96.755 45.5648ZM105.951 55.2054C105.951 55.2054 105.952 55.477 105.944 55.5982C105.944 55.5982 105.944 55.5982 105.915 55.615C105.915 55.615 105.915 55.615 105.921 55.592C105.952 55.477 105.966 55.3327 105.974 55.2115L105.951 55.2054ZM105.953 54.7374C105.953 54.7374 105.862 54.9843 105.784 55.1853C105.746 55.0517 105.701 54.9412 105.674 54.8599C105.656 54.5591 105.661 54.2645 105.647 54.0389C105.727 54.1096 105.813 54.1572 105.898 54.2049C105.921 54.2111 105.932 54.2632 105.972 54.2986C105.981 54.4489 105.961 54.6162 105.964 54.7896L105.953 54.7374ZM81.2141 29.4396C81.2141 29.4396 81.1681 29.4273 81.1222 29.415C80.6197 29.0831 80.1862 28.7696 79.7864 28.5145C80.1127 28.6759 80.4559 28.8665 80.8053 29.0341C80.9371 29.0941 81.0459 29.1479 81.1547 29.2017C81.1776 29.2079 81.2236 29.2202 81.2466 29.2264C81.2281 29.2954 81.2096 29.3644 81.1911 29.4335L81.2141 29.4396ZM77.8617 27.6042C77.8617 27.6042 77.975 27.7332 78.0485 27.8269C77.7849 27.7069 77.5673 27.5993 77.3498 27.4917C77.5107 27.5348 77.6946 27.5841 77.8556 27.6272L77.8617 27.6042ZM78.2157 28.8582C78.306 28.981 78.4361 29.1392 78.5601 29.3204C78.3487 29.1897 78.1541 29.0883 77.9427 28.9576C77.9611 28.8886 77.9858 28.7966 78.0043 28.7275C78.0733 28.746 78.1529 28.8167 78.2157 28.8582ZM75.5778 27.1155C75.6804 27.1924 75.8228 27.3045 75.9484 27.3875C75.2587 27.2027 74.5813 26.9718 73.8915 26.787C74.4327 26.8827 74.9968 26.9845 75.5778 27.1155ZM77.5962 29.9746C77.8077 30.1052 78.0421 30.242 78.2765 30.3788C78.0236 30.3111 77.7707 30.2433 77.5178 30.1755C77.5363 30.1065 77.5547 30.0375 77.5732 29.9684L77.5962 29.9746ZM21.5365 53.6972C21.5365 53.6972 21.555 53.6281 21.5674 53.5821C22.9082 54.188 24.2552 54.7709 25.596 55.3768C26.0845 55.8529 26.5225 56.2416 26.8977 56.5887C23.219 55.603 19.9071 54.4443 16.9664 53.1878C17.6101 53.3603 18.2309 53.5266 18.818 53.6346L16.1256 51.3595C18.8819 52.9365 20.8435 53.7087 20.9219 53.5078C20.9404 53.4388 20.6954 53.2498 20.2557 52.9594C20.4733 53.067 20.697 53.1516 20.9376 53.2654C21.2791 53.5542 21.5074 53.714 21.5657 53.6803L21.5365 53.6972ZM27.8173 56.8351C27.7102 56.6831 27.5862 56.502 27.4455 56.2916L28.8749 57.1185C28.53 57.0261 28.1852 56.9337 27.8403 56.8413L27.8173 56.8351ZM16.5324 63.0842C15.9952 62.4223 15.4349 61.7543 14.8348 61.051C13.5152 59.5383 12.4193 58.1102 11.5438 56.9631C11.4984 56.581 11.5157 56.2404 11.5622 55.8829C11.726 56.0994 11.8606 56.3328 12.0473 56.5555C12.3642 56.9363 12.6872 57.2942 12.9996 57.5998C12.9536 57.5875 12.9076 57.5752 12.9076 57.5752C12.6789 57.7852 14.5403 60.0349 16.8503 62.7255C17.23 63.1478 17.5867 63.564 17.9266 63.951C17.4409 63.6482 17.0013 63.3578 16.5448 63.0382L16.5324 63.0842ZM1.75405 41.1705C1.7159 41.037 1.68392 40.8805 1.65194 40.7239C1.75739 40.9741 1.84602 41.1952 1.95147 41.4454C2.04626 41.6434 2.14105 41.8415 2.23584 42.0395C2.03393 41.6895 1.86567 41.3977 1.75405 41.1705ZM4.37544 44.9064C4.32214 44.6455 4.24135 44.3032 4.12074 43.9256C5.56547 45.8911 7.50253 47.7665 9.64085 49.3506C8.63591 48.6868 7.69994 48.0414 6.92042 47.3639C5.89583 46.4975 5.08432 45.6635 4.37544 44.9064ZM9.6028 54.6427C9.6028 54.6427 9.55682 54.6304 9.53383 54.6242C9.50467 54.6411 9.50917 54.7163 9.52432 54.8436C9.49966 54.9357 9.475 55.0277 9.45033 55.1198C9.14349 54.1497 8.93143 53.3777 8.73402 53.1028C9.48875 52.8612 10.0456 52.7144 10.3646 52.6273C10.0232 53.3496 9.76927 54.0215 9.6028 54.6427ZM4.69238 55.1273C4.87695 55.8179 5.54498 57.2794 6.52872 58.85C6.80411 59.2937 7.09182 59.6914 7.3627 60.06C7.04866 59.8525 6.71162 59.6389 6.42057 59.4376L4.45129 55.3833C4.45129 55.3833 4.47595 55.2912 4.5281 55.2806C4.56959 55.2177 4.6279 55.184 4.68622 55.1503L4.69238 55.1273ZM2.87679 60.7076C2.69504 60.1903 2.62209 59.7269 2.77289 59.348C2.79138 59.279 2.8267 59.2391 2.86819 59.1763C3.27265 60.5177 4.00234 61.749 4.90696 62.8793C5.41958 63.6332 6.02583 64.3135 6.7717 64.9326L6.72739 64.8221C7.00611 65.0694 7.28483 65.3167 7.56356 65.564C6.41168 64.7128 5.42073 63.9048 4.61989 63.123C3.82406 62.0465 3.22115 61.1698 2.87679 60.7076ZM3.09413 58.7929C3.28538 59.0908 3.47663 59.3886 3.70321 59.6466C3.70603 59.82 3.73801 59.9766 3.76383 60.1561L2.88052 59.1302C2.93434 59.0214 2.99433 58.8895 3.07114 58.7867L3.09413 58.7929ZM9.97653 61.5249C9.64785 60.8202 9.04828 59.7471 8.52102 58.496C7.6331 56.3838 7.1282 54.4975 6.80914 54.5847C6.68185 54.5999 6.62752 55.0786 6.70163 55.8136C6.38643 55.3346 6.14919 55.0244 5.99275 55.0565C5.8593 55.0947 5.86944 55.5167 6.0097 56.0968C5.59804 55.5179 5.26434 55.1079 5.00861 54.8667C5.79303 54.2384 6.76419 53.8328 7.53743 53.5221C7.86265 53.4119 8.16488 53.2956 8.43178 53.2192C8.37013 53.4493 8.30514 53.8758 8.3366 54.4021C8.09821 53.8203 7.90247 53.4473 7.76901 53.4855C7.48528 53.5328 7.54551 55.4232 8.31064 57.6258C8.91084 59.3403 9.78464 60.5856 10.2395 61.0034C10.3954 61.3411 10.5805 61.662 10.7886 61.9891C10.502 61.8629 10.2216 61.7138 9.9642 61.5709L9.97653 61.5249ZM14.7256 66.7926C15.0581 66.931 15.3615 67.0863 15.7109 67.2539C16.1354 67.4169 16.5599 67.58 16.9844 67.7431C17.7118 68.4312 18.5479 69.1732 19.5512 69.9352C18.6181 69.4632 17.7079 68.9974 16.8897 68.5562C16.0749 67.9186 15.3688 67.3349 14.7424 66.8217L14.7256 66.7926ZM29.5276 66.2703C29.2309 65.7222 28.6555 64.9268 27.9191 64.0883C26.7818 62.7231 25.8665 61.5407 25.6041 61.6924C25.3478 61.821 25.8594 63.3145 27.0871 64.8025C27.6137 65.4122 28.1251 65.8945 28.5401 66.277C27.8302 66.2594 27.1495 66.225 26.4457 66.1844C26.2208 65.8282 25.9959 65.472 25.748 65.1096C24.3218 63.0751 23.1126 61.518 22.8564 61.6467C22.594 61.7983 23.4163 63.6956 24.8425 65.7301C24.9496 65.8821 25.0399 66.005 25.1302 66.1278C24.8358 66.1229 24.5184 66.1119 24.2302 66.084C24.2072 66.0778 24.1612 66.0655 24.1382 66.0593C23.8337 65.6325 23.5353 65.1826 23.2263 64.6805C21.5325 62.0811 20.085 59.9422 19.8164 60.1169C19.5831 60.2517 20.5765 62.6141 22.3208 65.3011C22.4615 65.5114 22.5855 65.6926 22.7094 65.8738C22.5485 65.8306 22.3982 65.8397 22.2311 65.8196C21.8974 65.4096 21.553 64.9474 21.1857 64.479C19.3551 62.1142 17.9749 60.092 17.7063 60.2667C17.4501 60.3953 18.4266 62.7286 20.3138 65.1579C20.3873 65.2516 20.4608 65.3452 20.5342 65.4389C20.4423 65.4143 20.3273 65.3835 20.2353 65.3588C19.5988 64.4237 18.7295 63.2537 17.6762 62.0343C16.5097 60.6859 15.392 59.5233 14.5222 58.723C14.5682 58.7353 14.6601 58.7599 14.6601 58.7599C14.7538 58.6864 14.6483 58.4362 14.503 58.1506C14.664 58.1938 14.7913 58.1785 14.8328 58.1157C15.0049 57.8412 13.9696 56.9226 12.8244 55.6786C12.4784 55.3146 12.1554 54.9567 11.8722 54.6342C11.9815 54.3183 12.1368 54.0146 12.2506 53.7738C12.3459 53.6021 12.435 53.4533 12.518 53.3276C12.8948 53.5765 13.1876 53.6796 13.2767 53.5309C13.3827 53.4113 13.2497 53.0797 12.9743 52.636C13.0097 52.5962 13.045 52.5563 13.0741 52.5395C17.4545 55.0449 23.0678 57.3628 29.6479 59.1999C33.9058 60.4148 38.5472 61.4859 43.5033 62.3946C43.9021 63.3893 44.5656 64.7755 45.4282 66.3384C44.8103 66.3454 44.1923 66.3525 43.5744 66.3595C41.7533 63.7753 40.1858 61.9003 39.9632 62.0872C39.7759 62.2343 40.7793 64.0076 42.2925 66.3613C41.8478 66.3655 41.3802 66.3635 40.9125 66.3615C39.1088 63.4366 37.6276 61.2394 37.3652 61.3911C37.1611 61.509 38.118 63.6397 39.6536 66.3694C39.1338 66.3781 38.6432 66.3699 38.1234 66.3786C37.0706 64.7895 36.235 63.6777 36.0309 63.7957C35.8559 63.8968 36.2363 64.9605 36.9688 66.3652C36.5533 66.3525 36.1316 66.3628 35.7161 66.3501C33.9791 63.9118 32.6034 61.9648 32.3471 62.0934C32.1139 62.2282 32.9423 64.1026 34.3882 66.3396C34.0417 66.3454 33.7013 66.3282 33.3317 66.3278C32.9492 65.7321 32.38 64.9137 31.6789 64.0353C30.4131 62.4137 29.3907 61.0793 29.1053 61.2248C28.8491 61.3534 29.4846 63.0281 30.8071 64.7142C31.3213 65.3699 31.8036 65.869 32.2523 66.3099C31.9349 66.2988 31.6175 66.2877 31.294 66.2997C30.9709 65.9419 30.755 65.736 30.6384 65.8034C30.5801 65.8371 30.5829 66.0105 30.6822 66.2837C30.2897 66.2772 29.8742 66.2645 29.4816 66.258L29.5276 66.2703ZM49.8458 66.3136C48.7779 64.5971 48.0819 63.4241 47.8901 63.496C47.7275 63.5511 48.0832 64.7069 48.8353 66.3141C48.1193 66.3196 47.3802 66.3188 46.6641 66.3243C45.737 64.8181 44.9507 63.5223 44.3494 62.5473C46.4159 62.9284 48.5176 63.2696 50.7006 63.5833C50.9542 64.2924 51.3193 65.2287 51.8208 66.3003C51.1798 66.3011 50.5389 66.302 49.8688 66.3198L49.8458 66.3136ZM51.5552 58.8305C52.4748 59.077 53.5033 59.3772 54.613 59.6499C55.4935 60.5024 56.2271 61.1675 56.7172 61.5454C54.3132 61.3206 51.9384 61.0788 49.6511 60.7865C48.9686 59.8391 47.8082 58.4678 46.4364 56.9657C46.8654 57.204 47.9719 57.6731 49.6715 58.2272C51.3714 59.7924 52.6534 60.8018 52.8176 60.6485C52.9466 60.5351 52.4446 59.8334 51.5843 58.8137L51.5552 58.8305ZM62.4127 61.0739C62.7755 61.4671 63.1569 61.7912 63.4984 62.08C62.9158 62.0472 62.3393 61.9914 61.7567 61.9586C61.5593 61.6838 61.2654 61.3091 60.8689 60.8576C61.3702 60.9179 61.8884 61.0074 62.4127 61.0739ZM71.2473 61.3942C72.0509 61.3383 72.7854 61.2638 73.543 61.1955C74.0881 61.7362 74.5934 62.2415 75.0482 62.6593C72.8327 62.5589 70.6631 62.4708 68.5104 62.4119C68.29 62.1309 68.0298 61.8145 67.7527 61.469C68.6589 61.4899 69.5314 61.4524 70.381 61.4087C71.0977 62.0447 71.6231 62.3828 71.7229 62.2862C71.7936 62.2065 71.6085 61.8856 71.2765 61.3774L71.2473 61.3942ZM70.4455 66.7776C70.1242 66.3216 69.8365 65.9239 69.5992 65.6137C70.6433 65.6715 71.6875 65.7293 72.7484 65.8163C71.12 65.8239 70.0406 65.806 70.0142 65.9962C69.9834 66.1112 70.7696 66.3959 72.0481 66.5905C71.5098 66.6682 71.0237 66.7352 70.5375 66.8023C70.5145 66.7961 70.4685 66.7838 70.4455 66.7776ZM67.293 62.357C66.4682 62.3086 65.6663 62.2663 64.8706 62.2011C64.621 61.9369 64.3148 61.6083 64.0086 61.2796C64.0086 61.2796 64.0546 61.2919 64.0776 61.2981C64.8441 61.3802 65.5602 61.3747 66.2869 61.4215C66.6391 61.7625 66.9683 62.0973 67.2869 62.38L67.293 62.357ZM60.9487 61.9394C59.6915 61.8491 58.4634 61.742 57.2353 61.6349C57.0962 61.3264 56.7076 60.7537 56.1137 60.0273C57.1606 60.2585 58.2827 60.4852 59.4401 60.672C60.0144 61.1958 60.5152 61.6259 60.9257 61.9332L60.9487 61.9394ZM55.4578 66.3376C54.6238 65.1277 54.0131 64.3722 53.8673 64.4564C53.7215 64.5407 53.975 65.2498 54.4995 66.3275C53.9796 66.3362 53.466 66.3218 52.9232 66.3244C52.3803 65.3157 51.8985 64.4468 51.5008 63.7237C53.1825 63.977 54.8996 64.1905 56.6396 64.4101C56.8214 64.9274 57.0872 65.5905 57.4327 66.3243C56.7918 66.3252 56.1509 66.3261 55.4869 66.3208L55.4578 66.3376ZM63.8971 66.478C63.6548 66.4624 63.4126 66.4468 63.1642 66.4543C62.5815 66.4215 61.9636 66.4285 61.3518 66.4126C60.8942 65.8214 60.588 65.4927 60.4713 65.5601C60.3839 65.6106 60.4708 65.9299 60.6419 66.395C59.932 66.3774 59.2159 66.3828 58.483 66.3591C58.0792 65.659 57.7258 65.0464 57.423 64.5213C60.7943 64.9068 64.276 65.2478 67.8452 65.5383C68.2086 65.5617 68.5949 65.5912 68.9813 65.6208C69.0744 65.917 69.218 66.3007 69.4412 66.7551C68.0107 66.6678 66.384 66.5772 64.5778 66.5125C64.2396 66.0272 64.0192 65.7462 63.9088 65.7906C63.8275 65.8182 63.8286 66.0898 63.9369 66.5134L63.8971 66.478ZM99.4151 58.9044C97.215 60.9537 93.9751 62.0092 90.7604 62.6029C87.7375 63.1246 84.6567 63.3103 81.613 63.3579C80.4523 63.3675 79.2915 63.377 78.1369 63.3636C78.1369 63.3636 78.1307 63.3866 78.1246 63.4096C77.8027 63.3234 77.4976 63.2663 77.1926 63.2092C77.1191 63.1155 77.0855 63.0572 77.0333 63.0679C77.0103 63.0617 76.9918 63.1308 76.9565 63.1706C76.7956 63.1275 76.6346 63.0844 76.4905 63.0704C76.0497 62.5084 75.4956 61.8174 74.8327 61.0725C75.5275 60.9627 76.1701 60.8636 76.7729 60.7292C77.7666 61.7107 78.5601 62.2439 78.6661 62.1243C78.7951 62.0109 78.3896 61.409 77.7407 60.52C78.3956 60.3749 79.0046 60.2174 79.5154 60.0584C80.9443 61.2551 82.1119 61.8639 82.2302 61.6983C82.3485 61.5327 81.6334 60.7985 80.5432 59.7172C81.4146 59.4081 82.0022 59.1463 82.1833 59.0222C83.1221 59.841 83.9005 60.2469 84.0126 60.1043C84.2245 59.8651 82.9829 58.5213 81.5561 56.8566C80.1294 55.1919 79.0688 53.7239 78.7834 53.8694C78.5272 53.998 79.207 55.7832 80.7241 57.5708C81.171 58.1098 81.6427 58.5568 82.0577 58.9393C81.7571 58.9574 81.096 59.1255 80.1282 59.3347C79.6229 58.8294 79.0441 58.2304 78.4715 57.6084C76.4077 55.3784 75.0275 53.3562 74.7421 53.5017C74.4858 53.6304 75.519 56.0281 77.6563 58.3518C78.0758 58.8095 78.5076 59.2211 78.9058 59.5744C78.3843 59.6813 77.8168 59.7759 77.1972 59.8811C76.6829 59.2254 76.0952 58.476 75.4738 57.6683C73.6432 55.3035 72.263 53.2814 71.9944 53.456C71.7381 53.5846 72.7209 55.8949 74.6019 58.3472C75.0994 58.9737 75.5862 59.5481 76.0455 60.0411C75.409 60.1172 74.7664 60.2163 74.061 60.2739C73.7548 59.9452 73.4318 59.5874 73.0796 59.2464C70.4628 56.5969 68.4971 54.3686 68.2577 54.5264C67.9891 54.701 69.6537 57.3173 72.2873 59.9959C72.4006 60.1249 72.5201 60.2309 72.6334 60.3599C71.9341 60.3945 71.2119 60.4229 70.4436 60.439C69.7824 59.596 68.9053 58.5471 67.9378 57.3754C65.7534 54.7678 64.1634 52.5168 63.901 52.6684C63.6156 52.8139 64.8417 55.4114 67.0828 58.0835C67.8237 58.9972 68.5723 59.7896 69.2307 60.4593C68.3935 60.4569 67.5625 60.4316 66.6855 60.3939C66.3793 60.0652 66.0731 59.7365 65.75 59.3787C63.6632 57.1425 61.9438 55.3747 61.7212 55.5617C61.4756 55.7425 62.848 57.8859 64.9578 60.1282C65.0144 60.1927 65.0711 60.2572 65.1339 60.2987C64.7935 60.2815 64.4761 60.2704 64.1358 60.2532C63.7034 60.2113 63.2941 60.1756 62.8909 60.1169C62.7439 59.9296 62.574 59.7361 62.4271 59.5488C60.6055 57.3343 59.288 55.3536 59.0195 55.5283C58.7862 55.6631 59.6175 57.7108 61.3348 59.9466C60.8105 59.8801 60.2862 59.8136 59.768 59.7241C59.1618 59.0437 58.4989 58.2989 57.7563 57.4834C55.3313 54.762 52.9434 52.9138 52.7545 53.1591C52.5717 53.3814 54.5391 55.5115 56.9641 58.2329C57.3606 58.6844 57.7464 59.0838 58.1323 59.4831C57.073 59.2979 56.0597 59.125 55.1047 58.9185C54.4418 58.1736 53.6993 57.3581 52.8418 56.5118C50.0764 53.7732 47.827 51.5921 47.5982 51.8021C47.3695 52.0121 49.301 54.5519 52.0664 57.2905C52.515 57.7313 52.9469 58.143 53.3495 58.5715C52.3486 58.3526 51.4457 58.1353 50.6349 57.9427C50.0623 57.3207 49.4269 56.6572 48.7516 55.9584C46.3048 53.5025 44.4754 51.4093 44.2298 51.5901C43.9904 51.7479 45.4957 54.2228 47.9824 56.7141C48.232 56.9783 48.4877 57.2194 48.7204 57.4544C47.3409 57.0848 46.4779 56.9029 46.2923 56.9518C46.156 56.8166 46.0259 56.6585 45.8897 56.5233C43.1674 53.6236 41.0548 51.2079 40.8384 51.3719C40.5698 51.5465 42.3645 54.321 45.1036 57.2498C46.4249 58.6643 47.6222 59.8976 48.5655 60.7916C43.4144 60.1512 38.5487 59.3653 34.0435 58.4295C33.7866 57.9167 31.0589 55.6814 28.1224 52.4778C24.9532 49.0391 22.3981 46.1595 22.1463 46.3634C21.9299 46.5273 24.0813 49.7179 27.3072 53.2211C29.6879 55.832 32.1464 57.6005 33.3246 58.2615C32.2547 58.0241 31.1556 57.8036 30.1378 57.5556C29.8619 57.4816 29.586 57.4077 29.3101 57.3338C28.6865 56.994 28.0567 56.6773 27.404 56.3545C26.5179 55.1552 24.8354 53.2493 22.7435 51.3078C19.3776 48.2356 17.0339 45.4867 16.8006 45.6215C16.5029 45.813 18.5792 49.0082 21.962 52.1095C23.1273 53.1863 24.1839 54.2092 25.1104 55.074L21.0564 52.73C20.449 51.7781 19.2612 50.3254 17.6561 48.9581C15.0725 46.7368 12.9588 45.0607 12.7592 45.2538C12.5013 45.4807 14.3706 47.6092 16.9374 49.8013C17.5806 50.3436 18.1717 50.8966 18.7062 51.3851L15.0812 49.2793C14.5193 48.7095 13.8654 48.115 13.1195 47.4959C10.5864 45.3621 8.4357 43.8241 8.22993 44.0402C8.0948 44.1766 8.80201 45.032 10.001 46.1671C9.60285 45.8138 9.11271 45.4359 8.61191 45.0057L4.43712 40.2618C4.4411 40.7068 4.51406 41.1702 4.61 41.6399C3.80132 40.9793 3.24837 40.5598 3.04594 40.5796L2.44252 40.0726C2.14132 39.4493 1.8906 38.9136 1.65054 38.43C1.73069 38.1309 1.76935 37.8946 1.76653 37.7212C2.45166 36.8197 3.47716 35.9354 4.91651 35.1619C9.91133 32.4311 18.43 30.6198 29.0286 29.4152C34.3394 28.8159 40.2188 28.3937 46.5395 28.1637C49.6999 28.0487 52.969 27.9875 56.3408 28.0032C59.6834 28.0357 63.2392 28.1006 66.5813 28.5029C70.0182 29.1032 73.5987 30.0872 77.1573 31.3367C77.1697 31.2907 77.1758 31.2677 77.1882 31.2217C78.1875 31.5387 79.2725 31.9035 80.4496 32.2928C80.7485 32.3729 81.0121 32.4929 81.288 32.5668C81.6435 32.7114 81.999 32.856 82.3316 32.9944C84.6195 33.9281 86.8997 34.983 89.1013 36.2388C92.0062 37.9049 94.7788 39.8809 97.146 42.2662C98.3893 43.5119 99.4392 44.9276 100.297 46.4153C95.8165 42.3539 91.6386 39.8287 91.485 40.0342C91.3252 40.2626 93.6273 42.0632 96.6887 44.7085C95.9182 44.1815 94.9132 43.5176 93.841 42.737C91.4329 41.056 89.7993 39.3359 89.5537 39.5167C89.3434 39.6576 90.2537 41.1346 91.9428 42.6477C90.5241 41.8729 89.0301 41.1027 87.3966 40.3937C78.0966 36.2001 69.6467 36.0076 69.7 36.2685C69.6366 36.5968 77.8528 37.2939 86.9582 41.386C92.4381 43.7422 96.8286 46.6696 99.5215 48.575C99.927 49.1769 100.601 49.9739 101.441 50.791C101.674 51.026 101.873 51.2027 102.089 51.4085C102.11 51.5128 102.102 51.6341 102.113 51.6862C102.129 52.0852 102.117 52.501 102.087 52.8876C102.081 52.9107 102.075 52.9337 102.062 52.9797C101.756 52.651 101.456 52.2993 101.122 51.8893C99.5593 50.0894 98.3669 48.5615 98.1107 48.6902C97.8253 48.8356 98.6476 50.733 100.29 52.6035C100.817 53.2132 101.351 53.7017 101.852 54.1318C101.783 54.4831 101.759 54.8467 101.673 55.1689C101.255 56.6353 100.455 57.8759 99.363 58.9151L99.4151 58.9044ZM102.315 72.7276C102.748 71.7583 103.117 70.7475 103.453 69.6784C103.49 69.5403 103.521 69.4253 103.558 69.2872C103.593 69.2473 103.628 69.2075 103.686 69.1738C104.998 67.7742 106.184 65.2804 106.625 62.4392C106.716 61.8225 106.778 61.2226 106.84 60.6227C106.786 62.1125 106.682 63.7864 106.427 65.5676C106.275 66.686 106.067 67.74 105.825 68.7355C105.108 70.4917 104.211 72.2738 103.141 74.0588C102.8 73.4002 102.537 72.9104 102.351 72.6878L102.315 72.7276ZM151.285 42.173C151.4 42.5736 151.592 43.143 151.835 43.8C151.705 43.6418 151.562 43.5297 151.449 43.4007C151.289 42.9877 151.18 42.5641 151.02 42.1512C151.112 42.1759 151.204 42.2005 151.279 42.196L151.285 42.173ZM117.201 5.86274L118.823 9.28146C119.586 10.9409 120.256 12.5757 120.875 14.2212C120.426 13.139 119.836 11.8464 119.214 10.3974C118.119 7.85991 116.902 5.78265 116.196 4.82909C116.23 4.51764 116.095 4.01269 115.976 3.53691C115.931 3.42639 115.916 3.29902 115.895 3.19466L117.218 5.89191L117.201 5.86274ZM111.688 5.10078C112.259 3.42886 113.07 2.24051 113.882 1.69354C114.274 1.42848 114.628 1.30148 114.895 1.22503L115.358 2.163C115.081 2.18728 114.653 2.86199 114.874 3.78438C115.059 4.47504 115.422 4.86821 115.708 4.99432C115.918 5.59294 116.312 6.51244 116.795 7.65297C114.836 5.0318 113.132 3.39137 112.967 3.54464C112.716 3.74847 114.981 6.6983 117.433 10.5122C119.886 14.3261 121.318 17.7185 121.614 17.6252C121.695 17.5977 121.671 17.3199 121.552 16.8442C121.649 16.944 121.735 16.9916 121.787 16.981C122.115 18.0554 122.397 19.1174 122.656 20.1734C122.042 18.9729 121.266 17.7292 120.398 16.4609C119.9 15.193 118.99 13.3462 117.713 11.4009C115.473 7.98922 113.326 5.51517 113.087 5.67297C112.964 5.76338 113.299 6.44498 113.911 7.47211C113.638 7.20178 113.45 7.07731 113.386 7.13402C113.227 7.26428 113.989 8.65214 115.169 10.5959C114.611 10.1012 114.083 9.58974 113.473 9.1058C112.692 8.52655 111.853 7.98101 110.995 7.50449C111.177 6.6408 111.399 5.81245 111.642 5.08846L111.688 5.10078ZM123.733 26.8245L123.72 26.8705C123.167 25.8097 122.483 24.5907 121.697 23.2949C121.079 22.2908 120.471 21.3389 119.902 20.5205C120.84 21.709 121.693 22.8499 122.397 23.9017C122.869 24.6203 123.279 25.2973 123.633 25.9099C123.651 26.2107 123.692 26.5176 123.716 26.7953L123.733 26.8245ZM107.983 33.8256C107.245 32.0741 106.511 30.3978 105.765 28.7675C105.432 27.9877 105.07 27.2248 104.73 26.468C103.07 22.9157 101.347 19.6918 99.65 16.919C99.817 15.9279 100.079 14.7651 100.448 13.4827C101.018 11.5392 102.292 9.26649 104.229 9.11959C105.224 8.99169 106.403 9.28287 107.658 9.84111C108.557 10.2548 109.495 10.8019 110.414 11.4182C110.728 11.6256 111.059 11.8622 111.367 12.0927C113.476 13.6937 115.346 15.4524 117.019 17.2079C117.074 17.7404 118.747 20.507 120.791 23.9154C121.948 25.853 123.038 27.5757 123.856 28.7564C123.897 29.7047 123.916 30.6469 123.934 31.589C123.499 30.3626 121.898 27.0482 119.875 23.1028C117.372 18.1903 114.376 14.7487 114.147 14.9587C113.925 15.1456 116.433 18.7524 118.925 23.6128C121.239 28.1293 123.43 31.7251 123.955 32.0632C123.94 33.9581 123.869 35.7886 123.713 37.4732C123.66 37.8537 123.591 38.205 123.544 38.5625C123.081 37.6245 121.081 34.6964 119.026 30.9642C116.537 26.5488 114.328 23.0221 114.036 23.1906C113.861 23.2917 114.863 25.5329 116.468 28.5527C116.004 27.9845 115.669 27.6727 115.575 27.7462C115.33 27.927 117.15 30.881 119.089 34.6806C121.028 38.4802 122.656 41.6043 122.964 41.465C123.191 41.3532 122.371 38.9878 120.922 35.936C122.152 37.5975 123.15 38.6541 123.5 38.8217C123.289 40.3436 123.045 41.8072 122.767 43.2124C122.079 41.9183 121.142 40.2617 120.076 38.447C117.769 34.5488 116.279 31.1901 116.006 31.2896C115.71 31.3829 116.78 35.0235 119.137 39.0092C120.445 41.2093 121.666 43.0901 122.54 44.3354C122.401 45.038 122.249 45.7866 122.117 46.4662C122.104 46.5123 122.092 46.5583 122.073 46.6273C121.54 45.7691 120.978 44.8294 120.379 43.7563C118.412 40.2452 116.623 37.4477 116.354 37.6224C116.121 37.7572 117.439 40.749 119.439 44.3185C120.218 45.7355 121.075 46.9516 121.833 47.8945C121.675 48.6661 121.541 49.4439 121.395 50.1696C120.791 49.0212 120.08 47.7209 119.273 46.3207C116.934 42.266 114.828 39.0877 114.566 39.2394C114.303 39.391 116.001 42.8052 118.333 46.8829C119.377 48.6915 120.371 50.3143 121.176 51.5411C121.06 52.2499 120.95 52.9356 120.846 53.5984C120.201 52.5129 119.295 51.1111 118.357 49.5528C116.306 46.2656 115.114 43.3567 114.818 43.45C114.528 43.5203 115.316 46.7402 117.418 50.115C118.614 52.0878 119.84 53.6741 120.713 54.6478C120.62 55.3627 120.533 56.0546 120.482 56.7067C119.846 55.4018 118.18 52.514 116.426 49.0353C114.068 44.4083 112.402 40.5092 112.1 40.6255C111.908 40.6975 112.506 42.88 113.749 45.8763C113.355 45.2284 113.034 44.7724 112.837 44.4976C112.373 43.5596 111.916 42.5986 111.43 41.6544C110.25 39.0693 109.134 36.4275 108.023 33.8609L107.983 33.8256ZM120.319 58.7841C120.023 57.8663 119.574 56.7841 119.051 55.6082C119.643 56.4327 120.107 57.0009 120.386 57.2483C120.342 57.7791 120.328 58.2931 120.296 58.778L120.319 58.7841ZM119.08 57.9835C119.598 59.0841 120.005 59.9576 120.323 60.6101C120.321 60.7082 120.313 60.8295 120.335 60.9338C119.947 59.9913 119.525 58.9905 119.103 57.9896L119.08 57.9835ZM124.435 73.7716C124.265 72.9367 124.038 72.0373 123.77 71.1026C124.064 71.4773 124.349 71.7016 124.472 71.6112C124.711 71.4534 124.457 70.4727 123.923 69.2446C123.63 68.5002 123.125 67.9948 122.731 67.7167C122.1 65.7475 121.374 63.6784 120.487 61.4679C120.495 61.3467 120.509 61.2025 120.494 61.0751C120.69 61.4482 120.824 61.6816 120.899 61.677C121.033 61.6388 120.913 60.8914 120.58 59.7418C120.605 59.6498 120.583 59.5454 120.591 59.4242C120.686 58.2413 120.895 56.8176 121.194 55.2451C121.523 55.58 121.751 55.7398 121.809 55.7061C121.903 55.6325 121.703 55.1843 121.316 54.5134C121.436 53.8798 121.592 53.2063 121.754 52.5099C122.414 53.4511 122.877 54.0193 122.971 53.9457C123.117 53.8615 122.706 52.9128 121.992 51.4391C122.184 50.6276 122.39 49.7701 122.601 48.8895C123.343 49.705 123.907 50.1767 124.007 50.0801C124.113 49.9605 123.606 49.1836 122.847 47.9691C122.958 47.555 123.057 47.1868 123.174 46.7496C123.267 46.4045 123.378 45.9903 123.476 45.6221C123.629 45.7865 123.749 45.8925 123.801 45.8818C123.889 45.8312 123.789 45.558 123.618 45.0929C124.199 42.8318 124.824 40.4096 125.28 37.6957C125.8 34.2837 125.977 30.6812 125.899 26.7392C125.787 22.8371 125.142 18.62 123.799 14.4374C123.153 12.3408 122.357 10.2532 121.463 8.16399L120.257 5.39934L120.059 4.85289C120.059 4.85289 120.335 4.92682 120.45 4.95762L121.063 5.24516C122.506 5.92788 123.889 6.74249 125.23 7.71817C127.887 9.66337 130.317 12.0901 132.54 14.8313C136.962 20.3073 140.587 26.8275 143.738 33.7385C144.878 36.2883 145.92 38.8364 146.887 41.3891C146.931 41.4996 146.976 41.6101 147.02 41.7207C149.043 47.047 150.794 52.3747 152.184 57.5807C154.246 65.3346 154.98 73.0779 154.006 80.1167C153.197 86.2627 151.106 91.7691 148.661 96.6629C148.49 95.828 148.041 94.376 147.439 92.7597C146.523 90.2946 145.882 88.2731 145.575 88.3142C145.268 88.3554 145.484 90.5835 146.406 93.1239C147.111 95.0886 147.922 96.6622 148.369 97.2012C148.1 97.7456 147.801 98.3069 147.509 98.8452C147.068 99.6641 146.616 100.431 146.164 101.198C145.986 101.495 145.802 101.816 145.64 102.142C145.686 102.155 145.697 102.207 145.737 102.242L144.587 103.315C144.358 103.525 144.181 103.724 143.975 103.94C143.724 103.133 142.994 101.532 142.345 99.6318C141.42 97.0163 141.412 94.7453 141.101 94.7113C140.825 94.6374 140.303 97.1364 141.295 99.9668C142.049 102.117 143.102 103.706 143.67 104.253C143.34 104.658 143.051 105 142.85 105.291C142.615 105.154 142.398 105.047 142.163 104.91C141.928 104.132 141.676 103.324 141.455 102.402C140.598 99.1636 140.263 96.4597 139.939 96.4716C139.668 96.4729 139.498 99.3129 140.394 102.685C140.523 103.213 140.688 103.701 140.859 104.166C140.133 103.749 139.413 103.31 138.681 102.916C138.746 102.49 138.783 101.982 138.712 101.42C138.513 99.8627 137.805 98.7358 137.805 98.7358C137.805 98.7358 137.627 100.044 137.798 101.521C137.865 102.007 137.944 102.448 138.029 102.865C137.749 102.716 137.445 102.561 137.159 102.435C137.181 102.169 137.186 101.875 137.151 101.545C136.985 100.415 136.347 99.5782 136.347 99.5782C136.347 99.5782 136.082 100.568 136.231 101.668C136.013 101.56 135.772 101.447 135.555 101.339C135.552 101.166 135.549 100.992 135.523 100.813C135.357 100.053 134.964 99.405 134.947 99.3758C134.947 99.3758 134.497 100.044 134.616 100.89C134.478 100.853 134.352 100.77 134.243 100.716C134.016 100.187 133.794 99.634 133.549 99.0752C131.631 94.7386 130.643 91.0705 130.359 91.1177C130.336 91.1116 130.288 91.1975 130.31 91.3018C129.965 89.8285 129.587 88.2967 129.106 86.6882C127.563 81.3178 125.778 76.6714 124.494 73.7379L124.435 73.7716ZM155.796 85.2081C155.919 85.7591 156.092 86.4957 156.313 87.4181C156.544 88.3927 156.848 89.5592 157.173 90.83C156.799 89.7432 156.504 89.097 156.399 89.1183C156.214 89.1672 156.824 92.3149 158.06 96.7153C157.925 96.4819 157.814 96.2547 157.679 96.0213C157.086 94.9252 156.526 93.8874 156.017 92.9371C155.512 91.0508 155.075 89.5528 154.758 88.5306C155.146 87.4507 155.471 86.3294 155.779 85.1789L155.796 85.2081ZM160.39 100.62C160.252 100.213 160.138 99.8122 159.994 99.4285C160.383 100.371 160.802 101.198 161.193 101.945C160.968 101.588 160.693 101.145 160.367 100.613L160.39 100.62ZM151.627 98.4688C151.447 97.8533 151.248 97.3069 151.06 96.8126C151.209 96.532 151.358 96.2513 151.508 95.9707C151.556 96.5262 151.65 97.094 151.767 97.668C151.712 97.8751 151.644 98.1282 151.604 98.4626L151.627 98.4688ZM138.613 103.169C138.613 103.169 138.656 103.008 138.658 102.91C139.539 103.393 140.326 103.949 141.078 104.545C140.266 104.081 139.477 103.623 138.613 103.169ZM143.791 105.642C143.791 105.642 143.724 105.797 143.689 105.837C143.643 105.824 143.603 105.789 143.587 105.76C143.645 105.726 143.732 105.676 143.791 105.642ZM154.401 89.4953C154.437 89.7271 154.484 90.011 154.538 90.2719C154.437 90.0968 154.346 89.974 154.262 89.8282C154.293 89.7131 154.324 89.5981 154.378 89.4892L154.401 89.4953ZM75.09 101.957C75.1293 102.362 75.2527 102.913 75.3913 103.591C75.0829 103.731 74.7515 103.864 74.4661 104.009C74.341 103.556 74.2204 103.179 74.1396 102.837C74.416 102.541 74.7614 102.263 75.0838 101.98L75.09 101.957ZM73.533 103.537C73.5571 103.815 73.6043 104.099 73.6621 104.435C73.6037 104.469 73.5454 104.502 73.4871 104.536C73.3985 104.315 73.3099 104.094 73.2381 103.902C73.321 103.776 73.45 103.663 73.5268 103.56L73.533 103.537ZM76.1937 103.264C75.9172 102.548 75.6726 101.99 75.4999 101.623C75.9036 101.312 76.3073 101.001 76.7569 100.702C76.8131 101.136 77.0021 101.902 77.3028 102.895C76.9254 103.016 76.5481 103.137 76.1937 103.264ZM95.7095 89.38C95.9205 90.8916 96.2851 92.1977 96.7008 93.2215C96.5045 93.2183 96.3082 93.215 96.112 93.2118C96.066 93.1994 96.0138 93.2101 95.9847 93.227C96.0362 92.5749 95.8801 91.226 95.4269 89.6988C95.2361 89.0312 95.0207 88.4556 94.793 87.926C95.0677 87.7283 95.3425 87.5307 95.6172 87.333C95.6179 87.9744 95.6292 88.6679 95.7324 89.3861L95.7095 89.38ZM106.832 93.6674C106.796 93.4357 106.556 92.9521 106.204 92.2414C106.473 92.7081 106.759 93.204 107.052 93.6769C106.983 93.6584 106.908 93.6629 106.832 93.6674ZM106.521 93.6334C105.824 93.5698 105.126 93.5061 104.428 93.4425C104.349 93.0021 104.207 92.5201 103.951 92.0074C103.235 90.6319 102.198 89.8115 102.198 89.8115C102.198 89.8115 102.441 91.1098 103.123 92.427C103.302 92.7709 103.487 93.0918 103.656 93.3835C103.171 93.3523 102.693 93.2981 102.202 93.2899C102.003 92.4719 101.786 91.6247 101.559 90.7253C100.695 87.5099 100.403 84.6449 100.22 82.8449C100.291 82.7651 100.368 82.6624 100.439 82.5827C100.943 83.8276 101.767 85.6267 102.713 87.7053C104.139 90.7509 105.815 93.0496 106.515 93.6564L106.521 93.6334ZM99.537 83.6482C99.5053 85.514 99.7147 88.135 100.48 90.979C100.68 91.797 100.905 92.523 101.123 93.272C100.927 93.2687 100.753 93.2716 100.557 93.2684C100.278 92.3797 99.9876 91.4388 99.71 90.4519C99.1136 88.1712 98.8835 86.0872 98.927 84.5452C98.9517 84.4532 98.9472 84.378 98.9427 84.3028C99.1484 84.0867 99.3772 83.8767 99.583 83.6605L99.537 83.6482ZM94.3362 89.9985C94.6476 91.0437 94.9376 91.9846 95.2035 92.6477C94.5361 91.8277 93.8749 90.9846 93.249 90.1017C93.1514 89.7303 93.0476 89.3819 92.9376 89.0565C93.2645 88.8481 93.5852 88.6628 93.9121 88.4545C94.0311 88.9302 94.1607 89.4582 94.3362 89.9985ZM131.629 99.6211C131.509 98.5039 131.364 97.2072 131.111 95.7585C131.467 96.9143 131.913 98.1929 132.491 99.5314C132.586 99.7295 132.664 99.8983 132.735 100.09C132.363 99.9164 131.978 99.7887 131.606 99.6149L131.629 99.6211ZM133.523 100.646C133.523 100.646 133.73 100.702 133.815 100.75C134.085 100.846 134.349 100.966 134.618 101.063C134.629 101.116 134.64 101.168 134.673 101.226C134.1 100.974 133.51 100.692 132.914 100.434C133.121 100.49 133.328 100.545 133.552 100.63L133.523 100.646ZM135.527 101.627C135.527 101.627 135.552 101.535 135.547 101.46C135.771 101.545 136.018 101.636 136.235 101.743C136.256 101.848 136.284 101.929 136.288 102.004C136.025 101.884 135.79 101.747 135.527 101.627ZM104.532 85.3318C106.13 88.103 107.608 90.4966 108.589 91.8939C108.93 92.5525 109.288 93.2403 109.663 93.9572C109.23 93.9153 108.781 93.8443 108.349 93.8024C104.645 87.8529 102.375 82.8056 102.131 82.8882C102.02 82.9326 102.324 84.099 103.033 85.8674C102.235 84.2478 101.461 82.9059 100.864 82.0062C101.236 81.5386 101.578 81.0878 101.927 80.614C102.626 81.9604 103.522 83.5816 104.515 85.3027L104.532 85.3318ZM98.0445 85.1719C97.9806 85.87 97.9672 86.6556 98.0335 87.5118C97.8604 88.5259 97.7995 90.4086 98.3285 92.5726C98.3818 92.8335 98.4766 93.0315 98.5299 93.2924C98.2064 93.3044 97.866 93.2871 97.5486 93.2761C97.2726 92.191 96.9494 90.822 96.7446 89.2874C96.611 88.3145 96.5632 87.3892 96.5598 86.5744C96.7824 86.3874 97.0049 86.2005 97.1984 86.0303C97.4916 85.7636 97.7389 85.4846 98.0091 85.2118L98.0445 85.1719ZM72.3377 105.239C72.3377 105.239 72.4621 105.051 72.5159 104.942C72.5266 104.994 72.5434 105.023 72.5541 105.075C72.4666 105.126 72.4021 105.182 72.3377 105.239ZM71.7234 108.083C71.7234 108.083 71.5367 107.861 71.4924 107.75C71.545 107.37 71.6437 107.001 71.7883 106.646C71.8175 106.629 71.8528 106.589 71.8819 106.572C72.2363 106.445 72.5907 106.318 72.9742 106.174C73.0354 106.314 73.0903 106.477 73.1515 106.616C74.252 109.131 75.8828 110.678 76.1054 110.491C76.1054 110.491 76.1054 110.491 76.1116 110.468C76.3471 110.876 76.5889 111.261 76.8199 111.594C75.9389 111.112 75.0764 110.56 74.1971 109.979C74.0642 109.648 73.9144 109.287 73.7187 108.914C73.0641 107.678 72.6193 106.671 72.3126 106.712C72.058 106.743 72.0598 107.656 72.4631 108.725C72.2242 108.513 71.9853 108.301 71.7756 108.073L71.7234 108.083ZM77.9124 112.208C77.4967 111.184 76.6144 109.419 75.685 107.369C75.3563 106.665 75.0966 105.978 74.8706 105.351C75.179 105.211 75.4582 105.089 75.7375 104.966C76 105.826 76.3068 106.796 76.7057 107.791C77.5902 110.099 78.6503 111.937 79.3496 112.914C79.0233 112.752 78.6907 112.614 78.3643 112.452C78.2096 112.386 78.0671 112.274 77.9124 112.208ZM163.866 130.134C164.025 130.645 164.127 131.092 164.133 131.439C164.126 131.462 164.114 131.508 164.108 131.531L163.655 131.656C163.655 131.656 163.47 131.705 163.395 131.709C163.267 131.725 163.14 131.74 163.036 131.761C162.956 131.691 162.86 131.591 162.815 131.48C162.687 131.224 162.651 130.992 162.608 130.783L162.731 130.693C162.731 130.693 162.731 130.693 162.725 130.716C162.853 130.972 162.965 131.2 163.118 131.364C163.158 131.399 163.174 131.428 163.214 131.464L163.283 131.482C163.283 131.482 163.277 131.505 163.288 131.557L163.256 131.401C163.17 130.983 163.004 130.594 162.785 130.214C162.394 129.468 161.787 128.788 161.388 128.163L161.038 128.365C159.448 126.484 157.661 124.599 155.618 122.844C151.316 119.126 142.431 114.945 142.304 114.96C141.456 114.906 133.198 111.608 132.387 111.415C136.748 113.348 149.801 119.263 154.922 123.693C157.449 125.85 159.603 128.203 161.452 130.498C161.608 130.836 161.787 131.18 161.978 131.478C162.069 131.601 162.165 131.701 162.232 131.817L162.381 131.537C162.375 131.56 162.415 131.595 162.426 131.647C162.413 131.693 162.453 131.728 162.441 131.774C162.353 131.825 162.324 131.842 162.266 131.876C162.266 131.876 162.289 131.882 162.312 131.888C162.155 131.92 161.999 131.952 161.826 131.955C159.969 132.172 157.912 132.213 155.333 132.09C150.925 131.895 146.588 131.251 142.16 130.582C135.923 129.577 129.473 128.268 122.583 126.668C122.266 125.917 121.3 124.376 120.239 122.538C118.826 120.088 117.776 118.031 117.473 118.147C117.2 118.247 117.813 120.556 119.277 123.094C120.135 124.582 121.074 125.77 121.749 126.469C120.754 126.227 119.713 125.973 118.696 125.725C118.326 124.714 117.742 123.398 116.987 121.987C115.419 119.101 113.873 116.96 113.617 117.089C113.355 117.241 114.486 119.64 116.037 122.497C116.63 123.593 117.19 124.631 117.661 125.448C117.132 125.306 116.62 125.194 116.085 125.075C115.947 125.038 115.832 125.007 115.694 124.97C115.329 124.034 114.817 122.91 114.202 121.71C112.672 118.685 111.344 116.283 111.065 116.405C110.786 116.528 111.682 119.16 113.23 122.214C113.699 123.129 114.118 123.956 114.516 124.679C113.619 124.439 112.745 124.205 111.842 123.987C111.46 123.022 110.955 121.875 110.34 120.675C108.786 117.644 107.482 115.248 107.202 115.37C106.923 115.493 107.82 118.125 109.367 121.179C109.836 122.094 110.295 122.956 110.687 123.702C110.388 123.622 110.112 123.548 109.813 123.468C109.673 122.888 108.634 121.155 107.627 118.937C106.417 116.368 105.727 114.161 105.444 114.209C105.137 114.25 105.367 116.703 106.637 119.411C107.482 121.315 108.584 122.72 109.255 123.344C109.071 123.294 108.887 123.245 108.726 123.202C107.899 122.98 107.117 122.771 106.312 122.555C106.001 121.51 105.281 119.689 104.264 117.69C102.711 114.66 101.406 112.263 101.127 112.386C100.848 112.508 101.744 115.141 103.298 118.171C104.169 119.885 104.958 121.354 105.537 122.323C104.939 122.162 104.318 121.996 103.72 121.836C103.191 120.683 102.387 119.086 101.511 117.298C99.8244 113.936 99.0081 111.004 98.7014 111.046C98.3947 111.087 98.7674 114.294 100.521 117.773C101.241 119.223 101.982 120.507 102.606 121.488C101.962 121.315 101.348 121.126 100.71 120.931C100.353 119.873 99.7767 118.436 99.0582 116.887C97.6274 113.766 96.0205 111.486 95.7581 111.638C95.4957 111.79 96.6545 114.27 98.0685 117.362C98.6479 118.602 99.183 119.732 99.6587 120.624C98.8141 120.373 97.9758 120.099 97.1374 119.825C96.5872 118.568 95.7739 116.821 94.9241 114.842C93.2689 110.996 92.2322 107.783 91.9193 107.847C91.6356 107.895 92.2119 111.354 93.9008 115.259C94.5946 116.9 95.3501 118.311 96.0064 119.448C95.4377 119.271 94.8523 119.065 94.2837 118.888C94.0553 117.717 93.1174 115.148 91.5588 112.412C89.4785 108.772 87.8127 105.884 87.5397 105.983C87.2313 106.122 88.5225 109.305 90.5798 112.939C91.9702 115.383 93.0252 117.515 93.6522 118.67C92.5671 118.305 91.505 117.946 90.4491 117.565C87.0407 116.306 83.4439 114.923 79.9272 113.241C79.6939 112.365 78.6635 110.14 77.6017 107.39C77.209 106.372 76.85 105.412 76.5124 104.557C76.8729 104.407 77.2105 104.251 77.525 104.089C77.916 105.205 78.4203 106.45 79.0501 107.778C80.9 111.726 82.9291 114.637 83.1685 114.479C83.4371 114.305 81.856 111.193 80.0398 107.303C79.4436 106.033 78.904 104.828 78.4424 103.792C78.9638 103.685 79.473 103.624 79.9132 103.545C79.9733 104.424 80.8618 107.178 82.6134 110.113C84.6785 113.626 86.6084 116.264 86.8416 116.129C87.1332 115.961 85.6009 113.035 83.5464 109.574C81.8622 106.755 80.7264 104.281 80.1969 103.498C81.2904 103.372 82.0249 103.297 82.0283 103.101C82.0468 103.032 81.8062 102.918 81.4613 102.825C82.2559 102.619 82.9983 102.423 83.6824 102.261C83.7054 102.268 83.7575 102.257 83.7867 102.24C89.6991 101.235 102.844 100.737 102.792 100.378C102.762 100.123 89.6025 100.124 83.5858 101.15C81.4202 101.507 79.4767 102.047 77.8736 102.604C77.4058 101.591 77.0603 100.857 76.8354 100.501C78.0264 99.7348 79.3429 99.0518 80.8204 98.4119C81.7193 98.1842 82.6641 97.9688 83.6611 97.7427C87.9143 96.86 92.8784 95.2554 98.5268 95.5112C104.218 95.6058 110.511 96.0341 116.94 97.2388C123.375 98.4206 129.245 100.61 134.478 102.875C137.94 104.395 141.053 106.018 143.82 107.647C143.961 107.858 144.108 108.045 144.225 108.249C144.91 108.729 145.612 109.237 146.29 109.74C149.79 112.404 153.173 115.505 156.296 118.932C157.968 120.785 159.353 122.513 160.565 124.243C161.67 125.822 163.009 127.907 163.741 130.051L163.866 130.134ZM148.241 101.631C148.29 101.817 148.362 102.008 148.428 102.223C148.421 102.246 148.415 102.269 148.409 102.292C148.572 103.248 149.071 103.777 149.374 103.932C149.595 104.213 149.798 104.465 150.008 104.694C149.16 103.998 148.34 103.285 147.584 102.614C147.791 102.299 148.005 101.962 148.218 101.625L148.241 101.631ZM207.366 127.535C206.636 128.326 205.503 128.787 204.171 128.973C202.765 129.163 201.31 129.168 199.834 129.068C193.952 128.578 188.263 126.634 183.062 124.525C172.645 120.18 163.803 114.827 156.78 109.862C154.834 108.478 153.056 107.113 151.387 105.803C151.644 105.946 151.805 105.989 151.869 105.932C152.081 105.693 150.787 104.36 149.74 102.476C149.639 102.301 149.561 102.132 149.483 101.964C149.432 101.235 149.497 100.438 149.215 100.387C149.146 100.369 149.03 100.436 148.93 100.533C149.06 100.321 149.185 100.133 149.316 99.9211C149.678 99.3031 150.041 98.6851 150.41 98.0441C150.561 98.6764 150.729 99.3379 150.878 100.068C151.518 102.829 152.573 104.962 152.858 104.816C153.085 104.704 152.735 103.254 152.284 101.259C152.327 101.098 152.407 100.799 152.431 100.435C152.594 101.021 152.74 101.579 152.865 102.031C153.131 103.064 153.24 103.759 153.24 103.759C153.24 103.759 153.373 103.08 153.322 101.981C153.301 100.866 153.038 99.3647 152.707 97.7472C152.46 96.6452 152.252 95.6768 152.116 94.8021C152.23 94.5613 152.344 94.3205 152.458 94.0797C152.629 95.556 152.86 97.2701 153.122 99.1408C153.874 104.521 155.762 108.603 156.047 108.458C156.303 108.329 154.952 104.268 154.205 98.9624C153.871 96.53 153.476 94.3278 153.141 92.635C153.441 91.9755 153.717 91.3098 153.971 90.638C154.109 91.0448 154.297 91.539 154.518 92.0916C154.426 92.4368 154.23 93.0749 154.099 94.0261C153.919 95.433 153.96 97.3924 154.329 99.5133C155.123 103.721 156.542 106.888 156.512 106.905C156.558 106.917 156.005 103.465 155.238 99.3378C154.881 97.2691 154.618 95.3984 154.566 94.0281C154.54 93.2072 154.556 92.595 154.579 92.2313C154.763 92.6504 154.94 93.0925 155.157 93.5699C155.57 95.4315 156.053 97.5833 156.673 99.8701C158.46 106.81 161.044 112.065 161.323 111.943C161.579 111.814 159.488 106.469 157.734 99.5873C157.539 98.8445 157.354 98.1538 157.17 97.4631C157.826 98.6008 158.513 99.6234 159.128 100.454C159.249 100.832 159.353 101.18 159.473 101.558C160.594 104.916 161.849 107.866 162.981 109.896C164.106 111.949 165.069 113.045 165.169 112.949C165.292 112.858 164.585 111.633 163.668 109.538C162.867 107.745 161.938 105.326 160.997 102.583C161.333 102.894 161.561 103.054 161.625 102.998C161.632 102.975 161.65 102.906 161.606 102.795C161.606 102.795 161.639 102.853 161.656 102.883C161.825 103.174 161.982 103.414 162.157 103.682C162.471 104.531 162.809 105.386 163.203 106.306C165.291 111.206 167.999 114.619 168.244 114.438C168.49 114.258 166.247 110.673 164.21 105.86C162.137 101.088 160.757 97.0432 160.438 97.1304C160.385 97.1411 160.364 97.4065 160.46 97.8761C160.117 96.9459 159.804 95.9989 159.487 94.9767C158.522 91.956 157.732 89.2041 157.032 87.2163C156.586 85.9377 156.215 85.0244 155.952 84.5346C156.297 83.2461 156.58 81.9161 156.822 80.5507C156.989 79.5596 157.133 78.5624 157.231 77.5529C157.259 77.6342 157.309 77.7217 157.337 77.8031C157.268 78.426 158.146 81.4972 160.509 84.4487C163.074 87.7502 165.73 89.7936 165.901 89.6173C165.965 89.5606 165.864 89.3856 165.684 89.1399C167.106 90.7294 168.008 91.6862 168.13 91.5958C168.253 91.5054 167.534 90.3263 166.213 88.542C165.672 87.8049 165.004 86.9849 164.309 86.0835C163.757 84.9245 162.907 83.3156 161.898 81.5654C159.946 78.1816 158.16 75.5576 157.898 75.7092C157.694 75.8271 158.444 77.5326 159.681 79.8124C158.702 78.317 157.947 76.9061 157.35 75.6365C157.754 69.5301 157.061 63.1048 155.479 56.6879C154.608 53.2239 153.547 49.7337 152.388 46.2418C152.422 46.3001 152.478 46.3646 152.512 46.4229C152.901 46.9957 153.227 47.5269 153.542 48.0059C153.831 48.6752 154.136 49.3737 154.488 50.0844C156.621 54.7251 158.905 58.2472 159.173 58.0726C159.413 57.9148 157.616 54.2274 155.478 49.6098C154.959 48.5091 154.458 47.4376 154.001 46.4766C154.372 46.7486 154.839 47.1203 155.444 47.5291C155.799 48.6849 156.291 49.9758 156.909 51.3497C158.7 55.3317 160.194 58.494 160.467 58.3946C160.769 58.2783 159.684 54.88 157.915 50.9042C157.526 50.0599 157.182 49.2279 156.865 48.4772C157.431 48.8507 158.065 49.2426 158.762 49.676C159.234 50.7643 159.774 51.9694 160.37 53.2389C162.449 57.6186 164.366 61.0422 164.645 60.9198C164.924 60.7973 163.439 57.1439 161.354 52.7872C160.985 52.0473 160.656 51.3427 160.322 50.6611C160.813 50.9408 161.299 51.2436 161.831 51.5587C162.204 52.3738 162.656 53.2596 163.161 54.1347C165.353 58.002 167.136 61.0941 167.387 60.9885C167.695 60.8492 166.309 57.469 164.111 53.6247C163.909 53.2747 163.707 52.9246 163.528 52.5807C163.951 52.842 164.357 53.0741 164.803 53.3415C164.881 53.5104 164.982 53.6854 165.054 53.8773C166.622 57.0351 168.28 59.4028 168.542 59.2512C168.775 59.1164 167.846 57.067 166.557 54.4281C166.683 54.5111 166.791 54.5649 166.917 54.6479C167.591 55.0751 168.259 55.5254 168.944 56.0048C168.994 56.0923 169.028 56.1506 169.078 56.2381C171.018 59.2981 172.424 61.8696 172.703 61.7472C172.924 61.6584 172.359 59.904 171.185 57.6657C171.247 57.7072 171.287 57.7425 171.35 57.784C171.39 57.8193 171.447 57.8838 171.486 57.9192C172.06 58.8128 172.707 59.8 173.417 60.8288C175.884 64.4984 177.865 67.4956 178.128 67.3439C178.332 67.226 177.302 65.0016 175.571 62.1705C181.107 68.734 187.061 77.1362 193.098 86.7935C196.094 91.6161 199.118 96.7915 201.883 102.292C203.496 105.56 205.095 108.973 206.375 112.473C206.126 112.85 205.883 113.204 205.601 113.523C205.565 113.563 205.524 113.626 205.489 113.666L206.893 113.943C206.893 113.943 206.827 113.728 206.783 113.618L207.192 113.653C207.092 113.75 206.992 113.847 206.916 113.949C207.559 115.873 208.103 117.794 208.462 119.765C209.018 122.75 208.946 125.961 207.418 127.525L207.366 127.535ZM176.619 59.6398C179.47 62.7958 181.964 65.1658 182.187 64.9789C182.345 64.8486 181.488 63.6325 180.09 61.9509C181.374 62.8621 182.811 63.9376 184.428 65.2588C189.816 69.6127 196.77 76.3096 202.179 85.1823C204.864 89.601 206.848 94.1524 207.844 98.439C208.619 101.705 208.739 104.844 208.249 107.5C207.204 105.148 206.088 102.876 204.959 100.65C202.023 95.0544 198.849 89.888 195.657 85.0622C189.305 75.5672 182.999 67.4654 177.068 61.0917C176.538 60.3087 176.026 59.5548 175.541 58.8822C175.752 59.0129 176.043 59.2141 176.443 59.4693C176.477 59.5276 176.539 59.5691 176.573 59.6274L176.619 59.6398ZM217.623 113.168C217.623 113.168 217.647 113.076 217.678 112.961C217.889 113.462 218.066 113.904 218.205 114.212C217.951 114.243 217.69 114.296 217.442 114.303C217.341 113.759 217.215 113.034 216.974 112.279C216.491 110.769 216.022 109.484 216.028 109.461C216.028 109.461 215.979 109.645 215.922 109.95C215.733 109.185 215.487 108.354 215.231 107.472C215.833 108.718 216.385 109.877 216.813 110.855C216.841 110.936 216.891 111.024 216.919 111.105C217.335 112.401 217.541 113.196 217.675 113.158L217.623 113.168ZM211.145 103.59C211.232 103.909 211.359 104.264 211.486 104.619C211.646 105.031 211.813 105.421 211.992 105.765C211.986 105.788 211.973 105.834 211.984 105.886C211.748 105.478 211.562 105.255 211.451 105.3C211.428 105.294 211.42 105.415 211.402 105.484C211.284 105.28 211.166 105.076 211.042 104.894C211.107 104.468 211.103 104.023 211.145 103.59ZM211.826 111.442C211.826 111.442 211.8 111.263 211.773 111.181C211.806 111.24 211.857 111.327 211.89 111.386C211.935 111.496 212.002 111.613 212.069 111.73C211.996 111.636 211.916 111.565 211.82 111.465L211.826 111.442ZM211.777 108.865C212.043 109.528 212.338 110.174 212.629 110.745C212.549 110.674 212.476 110.581 212.39 110.533C212.312 110.364 212.263 110.178 212.162 110.003C211.391 108.465 210.883 107.145 210.895 107.099C210.895 107.099 210.784 107.513 210.802 108.184C210.684 107.98 210.577 107.828 210.48 107.728C210.597 107.291 210.652 106.812 210.746 106.369C211.039 107.113 211.4 107.974 211.771 108.888L211.777 108.865ZM210.377 108.021C210.386 108.171 210.389 108.345 210.408 108.547C210.364 108.437 210.343 108.332 210.292 108.245C210.311 108.176 210.329 108.107 210.377 108.021ZM213.767 113.763C213.822 113.925 213.883 114.065 213.944 114.205C213.75 114.103 213.555 114.002 213.337 113.894C213.268 113.876 213.235 113.817 213.166 113.799C213.408 113.815 213.627 113.824 213.761 113.786L213.767 113.763ZM214.335 112.287C214.335 112.287 214.398 112.329 214.404 112.306C214.497 112.232 214.45 111.948 214.33 111.571C214.432 111.648 214.518 111.695 214.576 111.661C214.722 111.577 214.62 111.131 214.446 110.492C214.656 110.721 214.889 110.956 215.098 111.185C214.948 111.564 214.74 112.248 214.933 113.089C215.046 113.588 215.259 113.99 215.467 114.317C215.247 114.307 215.028 114.298 214.809 114.289C214.8 114.138 214.751 113.952 214.719 113.796C214.836 113.729 214.666 113.165 214.358 112.293L214.335 112.287ZM212.128 102.497C212.227 102.77 212.327 103.044 212.42 103.34L213.467 106.605L213.922 108.033C213.965 108.242 214.053 108.463 214.131 108.632C213.955 108.462 213.796 108.32 213.637 108.179C213.459 107.737 213.299 107.324 213.126 106.957C213.248 106.595 213.018 105.522 212.549 104.238C212.107 103.034 211.592 102.107 211.267 101.847C211.255 101.523 211.267 101.206 211.255 100.882L212.151 102.503L212.128 102.497ZM210.123 111.085C210.123 111.085 210.117 111.108 210.133 111.137C210.133 111.137 210.123 111.085 210.106 111.056L210.123 111.085ZM215.98 114.331C215.981 113.961 215.937 113.481 215.818 113.005C215.964 113.562 216.09 114.015 216.176 114.334C216.108 114.316 216.026 114.344 215.98 114.331ZM216.529 113.664C216.657 113.921 216.775 114.125 216.916 114.335C216.794 114.327 216.69 114.349 216.569 114.341C216.566 114.168 216.553 113.942 216.545 113.693L216.529 113.664ZM209.447 92.0867C209.365 91.8426 209.288 91.5755 209.206 91.3315C209.44 91.8381 209.657 92.3155 209.924 92.8804C209.773 92.6179 209.598 92.3492 209.47 92.0928L209.447 92.0867ZM175.49 58.7947C174.887 57.918 174.352 57.1579 173.928 56.625C174.053 56.708 174.179 56.791 174.328 56.8802C174.836 57.5589 175.407 58.2791 176.07 59.0239C175.823 58.9331 175.645 58.8608 175.49 58.7947ZM174.04 55.1015C173.564 54.5793 173.184 54.157 172.872 53.8513C173.756 54.5074 174.914 55.3356 176.26 56.2883C175.511 55.8656 174.75 55.4889 174.04 55.1015ZM172.954 55.8461C173.028 56.2114 173.378 57.0204 173.938 58.0582C173.381 57.5636 172.829 57.0459 172.23 56.6141C171.86 56.3422 171.477 56.1162 171.1 55.8673C170.082 54.6081 169.373 53.8509 169.25 53.9413C169.163 53.9919 169.312 54.3526 169.609 54.9007C169.54 54.8822 169.477 54.8407 169.438 54.8054C169.139 54.3555 168.841 53.9056 168.582 53.4911C169.727 54.0937 171.118 54.7871 172.629 55.5865C172.725 55.6863 172.851 55.7693 172.947 55.8691L172.954 55.8461ZM210.749 113.99C210.683 113.775 210.595 113.554 210.529 113.339C210.575 113.351 210.632 113.416 210.667 113.376C210.754 113.326 210.747 113.077 210.66 112.758C210.819 112.899 211.025 113.053 211.242 113.16C211.352 113.486 211.544 113.784 211.81 114.077C211.447 114.054 211.089 114.007 210.749 113.99ZM218.535 114.177C218.403 113.476 218.078 112.205 217.499 110.595C217.416 110.351 217.311 110.101 217.205 109.85C217.146 109.613 217.093 109.352 217.016 109.085C216.995 108.98 216.951 108.87 216.929 108.765C217.886 110.896 218.704 112.718 219.345 114.098C219.084 114.152 218.813 114.153 218.529 114.2L218.535 114.177ZM219.943 113.889C219.508 112.662 218.91 111.121 218.207 109.33C218.063 108.674 217.823 107.821 217.443 106.757C216.875 105.199 215.971 103.33 214.885 101.312C214.858 101.231 214.807 101.143 214.78 101.062C211.132 92.5134 207.287 85.9837 206.95 86.1399C206.441 85.1896 205.937 84.2163 205.376 83.2767C199.567 73.7791 191.557 67.4402 185.516 63.7746C182.653 62.0456 180.219 60.8264 178.437 60.0282C178.137 59.6766 177.791 59.3126 177.474 58.9317C177.231 58.6445 176.981 58.3804 176.732 58.1162C176.962 58.1778 177.135 58.1749 177.153 58.1059C177.153 58.1059 177.166 58.0599 177.149 58.0307C182.283 61.034 185.77 64.114 185.97 63.9208C186.063 63.8473 185.616 63.3083 184.822 62.5035C189.473 66.0188 192.828 68.7672 193.004 68.5679C193.21 68.3517 188.82 64.0434 182.723 59.5737C176.633 55.0811 171.274 52.0913 171.108 52.3428C171.06 52.4287 171.481 52.7881 172.216 53.3551C172.152 53.4118 172.251 53.685 172.464 54.0872C171.295 53.2068 170.433 52.6551 170.285 52.8376C170.215 52.9173 170.326 53.1445 170.563 53.4547C169.509 52.9749 168.574 52.6011 167.771 52.2873C166.898 51.042 166.247 50.2512 166.101 50.3354C165.985 50.4028 166.177 50.9723 166.584 51.8457C165.705 51.5364 165.131 51.3824 165.089 51.4453C165.052 51.5834 165.755 51.9937 166.986 52.644C167.142 52.9817 167.344 53.3318 167.539 53.7048C167.539 53.7048 167.493 53.6925 167.47 53.6864C166.847 53.3466 166.24 53.0361 165.639 52.7025C164.191 49.9223 162.794 47.8709 162.555 48.0287C162.351 48.1467 163.011 49.7293 164.053 51.9077C163.595 51.6862 163.166 51.448 162.748 51.2619C161.321 48.586 160.384 46.6579 160.169 46.7237C159.977 46.7956 160.372 48.3565 161.311 50.5562C160.79 50.2933 160.292 50.0365 159.811 49.809C158.408 47.0411 157.315 45.145 157.117 45.2399C156.948 45.318 157.47 46.8637 158.402 49.0864C157.756 48.7405 157.155 48.4069 156.617 48.1149C155.586 45.6189 154.923 43.8629 154.714 43.9057C154.529 43.9546 154.725 45.3388 155.32 47.3479C154.725 46.9913 154.263 46.6947 153.903 46.475C153.033 44.6635 152.306 43.2358 151.795 42.3837C154.935 42.8057 158.867 43.4894 163.337 44.8349C164.767 45.2921 166.253 45.8137 167.697 46.4964L172.269 48.9299C175.462 50.624 178.885 52.3797 182.396 54.3565C185.885 56.327 189.456 58.5417 192.87 61.1581C194.592 62.458 196.254 63.8897 197.897 65.3904C199.477 66.8497 200.973 68.5329 202.421 70.302C208.149 77.4349 212.695 85.1145 216.223 92.2745C217.969 95.8744 219.445 99.3773 220.514 102.746C221.051 104.419 221.427 106.049 221.712 107.655C221.957 109.225 222.103 110.793 221.776 112.012C221.528 113.031 220.825 113.632 219.895 113.975L219.943 113.889Z" fill="#222528"/>
</svg>
