<svg width="45" height="41" viewBox="0 0 45 41" fill="none" xmlns="http://www.w3.org/2000/svg">
<path d="M11.4814 40.1393C8.19328 40.1393 5.56277 38.9298 3.58989 36.5106C1.71095 33.9948 0.771484 30.7531 0.771484 26.7857C0.771484 21.3669 2.18069 16.4803 4.99909 12.1258C7.91144 7.67463 12.3269 3.94918 18.2456 0.949463L19.7957 3.27182C16.9773 5.01359 14.3938 7.48111 12.0451 10.6744C9.79037 13.7708 8.66301 16.9157 8.66301 20.109C8.66301 20.9798 8.89787 21.7056 9.36761 22.2862C9.83734 22.77 10.5419 23.0119 11.4814 23.0119C13.8301 23.0119 15.803 23.8828 17.4001 25.6246C19.0911 27.2696 19.9366 29.3016 19.9366 31.7208C19.9366 34.1399 19.0911 36.172 17.4001 37.817C15.803 39.3652 13.8301 40.1393 11.4814 40.1393ZM35.8606 40.1393C32.5724 40.1393 29.9419 38.9298 27.9691 36.5106C26.0901 33.9948 25.1507 30.7531 25.1507 26.7857C25.1507 21.3669 26.5599 16.4803 29.3783 12.1258C32.2906 7.67463 36.7061 3.94918 42.6247 0.949463L44.1749 3.27182C41.3565 5.01359 38.7729 7.48111 36.4243 10.6744C34.1695 13.7708 33.0422 16.9157 33.0422 20.109C33.0422 20.9798 33.2771 21.7056 33.7468 22.2862C34.2165 22.77 34.9211 23.0119 35.8606 23.0119C38.2093 23.0119 40.1821 23.8828 41.7792 25.6246C43.4703 27.2696 44.3158 29.3016 44.3158 31.7208C44.3158 34.1399 43.4703 36.172 41.7792 37.817C40.1821 39.3652 38.2093 40.1393 35.8606 40.1393Z" fill="#2BAE4A"/>
</svg>
