<svg width="174" height="270" viewBox="0 0 174 270" fill="none" xmlns="http://www.w3.org/2000/svg">
<path d="M49.3006 116.313C49.3006 116.313 33.3569 149.245 19.3486 132.535C5.34043 115.825 29.0124 109.559 29.0124 109.559C29.0124 109.559 0.494629 112.929 0.494629 97.4726C0.494629 82.0163 20.7968 91.68 20.7968 91.68C20.7968 91.68 -5.57651 71.1133 7.26204 62.4382C16.2017 56.3949 37.7014 78.2148 37.7014 78.2148C37.7014 78.2148 29.4858 56.8822 39.0938 56.3949C48.7019 55.9075 55.0515 86.8482 55.0515 86.8482C55.0515 86.8482 60.3568 64.0535 70.0206 70.612C79.6843 77.1705 62.4316 102.486 62.4316 102.486C62.4316 102.486 74.8524 90.2179 78.2361 98.9208C81.6198 107.624 62.4316 113.416 62.4316 113.416C62.4316 113.416 62.2923 145.318 51.6678 141.447C41.0433 137.576 49.3006 116.313 49.3006 116.313Z" fill="#2BAE4A"/>
<path d="M83.2906 187.83C83.2906 187.83 83.2906 114.391 39.595 92.1533" stroke="#263238" stroke-linecap="round" stroke-linejoin="round"/>
<path d="M55.2193 103.878C55.2193 103.878 43.0213 106.05 29.2498 121.033" stroke="#263238" stroke-linecap="round" stroke-linejoin="round"/>
<path d="M46.6825 96.4702C46.6825 96.4702 33.2312 100.578 20.2256 99.0881" stroke="#263238" stroke-linecap="round" stroke-linejoin="round"/>
<path d="M50.4702 99.4083C56.7533 95.2001 61.7125 89.2945 64.7708 82.3784" stroke="#263238" stroke-linecap="round" stroke-linejoin="round"/>
<path d="M132.195 137.966C132.195 137.966 145.646 165.745 157.468 151.653C169.29 137.562 149.308 132.256 149.308 132.256C149.308 132.256 173.37 135.111 173.37 122.064C173.37 109.016 156.243 117.162 156.243 117.162C156.243 117.162 178.522 99.8119 167.661 92.4875C160.114 87.405 141.97 105.8 141.97 105.8C141.97 105.8 148.932 87.8088 140.758 87.405C132.585 87.0012 127.293 113.096 127.293 113.096C127.293 113.096 122.809 93.8521 114.664 99.3942C106.518 104.936 121.069 126.297 121.069 126.297C121.069 126.297 110.584 115.937 107.729 123.289C104.874 130.641 121.069 135.515 121.069 135.515C121.069 135.515 121.18 162.417 130.148 159.187C139.115 155.956 132.195 137.966 132.195 137.966Z" fill="#2BAE4A"/>
<path opacity="0.1" d="M132.195 137.966C132.195 137.966 145.646 165.745 157.468 151.653C169.291 137.562 149.309 132.256 149.309 132.256C149.309 132.256 173.37 135.111 173.37 122.064C173.37 109.016 156.243 117.162 156.243 117.162C156.243 117.162 178.523 99.8119 167.661 92.4875C160.114 87.405 141.97 105.8 141.97 105.8C141.97 105.8 148.933 87.8088 140.759 87.405C132.585 87.0012 127.294 113.096 127.294 113.096C127.294 113.096 122.81 93.8521 114.664 99.3942C106.518 104.936 121.069 126.297 121.069 126.297C121.069 126.297 110.584 115.937 107.73 123.289C104.875 130.641 121.069 135.515 121.069 135.515C121.069 135.515 121.181 162.417 130.148 159.187C139.116 155.956 132.195 137.966 132.195 137.966Z" fill="#11405A"/>
<path d="M130.566 122.663C111.559 136.378 108.844 183.931 108.844 183.931" stroke="#263238" stroke-linecap="round" stroke-linejoin="round"/>
<path d="M124.954 128.177C132.624 131.132 139.53 135.777 145.159 141.767" stroke="#263238" stroke-linecap="round" stroke-linejoin="round"/>
<path d="M136.707 99.4082C136.707 109.796 130.552 122.662 130.552 122.662L135.064 124.055" stroke="#263238" stroke-linecap="round" stroke-linejoin="round"/>
<path d="M138.782 125.169C138.782 125.169 150.242 127.731 158.931 125.169" stroke="#263238" stroke-linecap="round" stroke-linejoin="round"/>
<path d="M91.3106 66.3789C91.3106 66.3789 59.1307 67.7714 61.1498 50.5326C62.8347 36.1345 85.6154 45.7565 85.6154 45.7565C85.6154 45.7565 66.9285 23.9643 79.7671 15.3589C92.6056 6.75345 100.292 31.8178 100.292 31.8178C100.292 31.8178 108.48 -4.38629 122.836 1.39245C132.834 5.45845 116.556 35.4661 116.556 35.4661C116.556 35.4661 135.48 22.558 141.272 30.314C147.065 38.07 119.076 54.724 119.076 54.724C119.076 54.724 140.966 46.4388 140.896 58.1216C140.827 69.8044 110.192 69.5677 110.192 69.5677C110.192 69.5677 127.306 73.0628 121.959 80.7074C116.612 88.352 101.072 75.6527 101.072 75.6527C101.072 75.6527 80.1152 90.8167 77.3999 79.8301C74.6845 68.8436 91.3106 66.3789 91.3106 66.3789Z" fill="#2BAE4A"/>
<path opacity="0.2" d="M91.3101 66.3789C91.3101 66.3789 59.1302 67.7714 61.1493 50.5326C62.8342 36.1345 85.6149 45.7565 85.6149 45.7565C85.6149 45.7565 66.928 23.9643 79.7666 15.3589C92.6051 6.75345 100.292 31.8178 100.292 31.8178C100.292 31.8178 108.479 -4.38629 122.836 1.39245C132.833 5.45845 116.556 35.4661 116.556 35.4661C116.556 35.4661 135.479 22.558 141.272 30.314C147.064 38.07 119.076 54.724 119.076 54.724C119.076 54.724 140.966 46.4388 140.896 58.1216C140.826 69.8044 110.192 69.5677 110.192 69.5677C110.192 69.5677 127.305 73.0628 121.958 80.7074C116.611 88.352 101.071 75.6527 101.071 75.6527C101.071 75.6527 80.1147 90.8167 77.3994 79.8301C74.6841 68.8436 91.3101 66.3789 91.3101 66.3789Z" fill="white"/>
<path d="M95.7525 187.83C95.7525 187.83 90.6143 96.9299 108.828 36.0513" stroke="#263238" stroke-linecap="round" stroke-linejoin="round"/>
<path d="M73.4033 52.6491C73.4033 52.6491 86.966 51.5072 102.993 60.3076" stroke="#263238" stroke-linecap="round" stroke-linejoin="round"/>
<path d="M84.6841 24.02C84.6841 24.02 98.2467 37.3041 103.775 56.3949" stroke="#263238" stroke-linecap="round" stroke-linejoin="round"/>
<path d="M104.984 50.7694C104.984 50.7694 113.799 41.0221 124.952 38.5156" stroke="#263238" stroke-linecap="round" stroke-linejoin="round"/>
<ellipse cx="96.0005" cy="262.5" rx="41" ry="7.5" fill="#D4D9DC"/>
<path d="M130.272 178.835H60.9688L66.5386 241.677C66.5977 242.338 66.9019 242.953 67.3914 243.402C67.881 243.85 68.5205 244.099 69.1843 244.1L70.5768 259.626C70.6391 260.288 70.9462 260.904 71.4381 261.352C71.9299 261.8 72.5711 262.048 73.2364 262.049H118.004C118.668 262.048 119.308 261.799 119.797 261.351C120.287 260.902 120.591 260.287 120.65 259.626L122.042 244.1C122.708 244.099 123.349 243.851 123.841 243.403C124.333 242.955 124.64 242.339 124.702 241.677L130.272 178.835Z" fill="white" stroke="#263238" stroke-linecap="round" stroke-linejoin="round"/>
<path d="M130.719 183.973H60.5243C59.2107 183.969 57.952 183.446 57.0231 182.517C56.0943 181.588 55.5708 180.329 55.5671 179.016C55.5708 177.702 56.0943 176.443 57.0231 175.515C57.952 174.586 59.2107 174.062 60.5243 174.059H130.719C132.031 174.062 133.288 174.586 134.215 175.515C135.141 176.445 135.662 177.703 135.662 179.016C135.662 180.328 135.141 181.587 134.215 182.516C133.288 183.445 132.031 183.969 130.719 183.973Z" fill="#263238" stroke="#263238" stroke-linecap="round" stroke-linejoin="round"/>
<path d="M109.26 244.281H113.855" stroke="#263238" stroke-linecap="round" stroke-linejoin="round"/>
<path d="M77.3745 244.281H104.653" stroke="#263238" stroke-linecap="round" stroke-linejoin="round"/>
</svg>
