<svg width="313" height="73" viewBox="0 0 313 73" fill="none" xmlns="http://www.w3.org/2000/svg">
<path d="M311.648 1.10498H1V71.7577H311.648V1.10498Z" fill="white" stroke="#11405A" stroke-linecap="round" stroke-linejoin="round"/>
<path d="M38.1891 43.827L33.2587 39.9971L34.0666 46.1545C34.1197 46.5484 34.0899 46.9494 33.9791 47.3305C33.8683 47.7117 33.6791 48.0643 33.4241 48.3647C33.1692 48.6652 32.8544 48.9066 32.5008 49.0728C32.1471 49.239 31.7628 49.3262 31.3736 49.3285C30.9826 49.3292 30.596 49.2442 30.2399 49.0793C29.8837 48.9145 29.5664 48.6735 29.3092 48.3727C29.052 48.0719 28.8609 47.7182 28.7489 47.3356C28.6369 46.9529 28.6065 46.5502 28.6598 46.1545L29.4677 39.9971L24.4546 43.827C24.147 44.0672 23.7931 44.2379 23.4161 44.328C23.0391 44.418 22.6478 44.4253 22.2679 44.3492C21.888 44.2732 21.5282 44.1157 21.2123 43.8871C20.8965 43.6584 20.6318 43.3638 20.4357 43.0229V42.8959C20.2404 42.5526 20.1191 42.1708 20.0797 41.7758C20.0404 41.3809 20.0839 40.9819 20.2074 40.6054C20.3309 40.229 20.5315 39.8837 20.7959 39.5928C21.0603 39.3018 21.3825 39.0717 21.7408 38.9179L27.3962 36.5057L21.7408 34.0723C21.3825 33.9185 21.0603 33.6884 20.7959 33.3975C20.5315 33.1065 20.3309 32.7613 20.2074 32.3848C20.0839 32.0084 20.0404 31.6094 20.0797 31.2144C20.1191 30.8195 20.2404 30.4376 20.4357 30.0943V29.9885C20.6172 29.6341 20.8712 29.3236 21.1804 29.0781C21.4895 28.8326 21.8467 28.6578 22.2278 28.5655C22.6088 28.4732 23.0048 28.4656 23.389 28.5431C23.7732 28.6207 24.1366 28.7817 24.4546 29.0152L29.3849 32.8451L28.577 26.6876C28.5234 26.2929 28.5537 25.8911 28.6658 25.5095C28.778 25.1279 28.9694 24.7755 29.2269 24.4763C29.4845 24.1771 29.8021 23.9381 30.1583 23.7756C30.5144 23.6131 30.9007 23.531 31.2907 23.5348C31.679 23.5341 32.063 23.6184 32.4166 23.7822C32.7702 23.9461 33.0853 24.1855 33.3406 24.4844C33.5959 24.7832 33.7854 25.1346 33.8964 25.5146C34.0073 25.8947 34.0371 26.2947 33.9838 26.6876L33.1759 32.8451L38.1062 29.0152C38.415 28.7758 38.7701 28.6064 39.148 28.5179C39.5258 28.4294 39.9178 28.424 40.2978 28.5021C40.6779 28.5801 41.0373 28.7398 41.3523 28.9705C41.6673 29.2013 41.9307 29.4978 42.125 29.8404V29.9462C42.3203 30.2895 42.4417 30.6713 42.481 31.0663C42.5204 31.4613 42.4769 31.8603 42.3534 32.2367C42.2299 32.6131 42.0292 32.9584 41.7648 33.2494C41.5004 33.5403 41.1783 33.7704 40.8199 33.9242L35.1646 36.3576L40.8199 38.7698C41.1783 38.9236 41.5004 39.1537 41.7648 39.4447C42.0292 39.7356 42.2299 40.0808 42.3534 40.4573C42.4769 40.8337 42.5204 41.2327 42.481 41.6277C42.4417 42.0227 42.3203 42.4045 42.125 42.7478V42.8748C41.9406 43.215 41.6886 43.5122 41.3852 43.7472C41.0818 43.9822 40.7337 44.1499 40.3631 44.2395C39.9926 44.3292 39.6078 44.3388 39.2334 44.2677C38.8591 44.1967 38.5034 44.0466 38.1891 43.827Z" fill="#11405A"/>
<path d="M82.9818 43.7952L78.0469 39.9431L78.8556 46.1362C78.9055 46.5336 78.8726 46.9372 78.7592 47.3206C78.6457 47.7039 78.4543 48.0582 78.1976 48.3599C77.9408 48.6617 77.6245 48.9041 77.2697 49.071C76.9149 49.238 76.5296 49.3258 76.1393 49.3285C75.7496 49.3262 75.365 49.2385 75.0111 49.0714C74.6571 48.9042 74.342 48.6614 74.0868 48.3592C73.8317 48.057 73.6423 47.7023 73.5314 47.319C73.4205 46.9356 73.3906 46.5324 73.4438 46.1362L74.2317 39.9431L69.3175 43.7952C69.0097 44.0368 68.6554 44.2085 68.2781 44.2991C67.9008 44.3896 67.5091 44.3969 67.1288 44.3205C66.7486 44.244 66.3884 44.0856 66.0723 43.8556C65.7562 43.6256 65.4912 43.3294 65.2949 42.9864V42.8588C65.0995 42.5135 64.9781 42.1294 64.9386 41.7322C64.8992 41.3349 64.9428 40.9336 65.0664 40.555C65.19 40.1764 65.3908 39.8292 65.6555 39.5365C65.9201 39.2438 66.2426 39.0124 66.6012 38.8577L72.2411 36.4316L66.6012 33.9842C66.2426 33.8295 65.9201 33.5981 65.6555 33.3054C65.3908 33.0127 65.19 32.6655 65.0664 32.2869C64.9428 31.9083 64.8992 31.507 64.9386 31.1097C64.9781 30.7125 65.0995 30.3284 65.2949 29.9831V29.8767C65.4894 29.5321 65.7531 29.2339 66.0684 29.0018C66.3837 28.7698 66.7435 28.6092 67.1238 28.5307C67.5042 28.4522 67.8965 28.4576 68.2747 28.5466C68.6529 28.6355 69.0084 28.8061 69.3175 29.0467L74.2317 32.8988L73.4438 26.7057C73.3903 26.3106 73.4202 25.9083 73.5312 25.526C73.6423 25.1437 73.832 24.7903 74.0875 24.4898C74.343 24.1892 74.6584 23.9483 75.0124 23.7836C75.3663 23.6188 75.7506 23.5339 76.1393 23.5347C76.5286 23.5344 76.9136 23.6193 77.2684 23.7839C77.6232 23.9485 77.9398 24.1889 78.1969 24.489C78.454 24.7891 78.6457 25.1421 78.7593 25.5244C78.8729 25.9067 78.9057 26.3094 78.8556 26.7057L78.0469 32.8988L82.9818 29.0467C83.2892 28.8064 83.643 28.6361 84.0196 28.5473C84.3963 28.4585 84.787 28.4532 85.1658 28.5318C85.5446 28.6103 85.9027 28.7709 86.2161 29.0029C86.5296 29.2348 86.7913 29.5327 86.9836 29.8767V29.9831C87.1791 30.3284 87.3005 30.7125 87.3399 31.1097C87.3793 31.507 87.3358 31.9083 87.2122 32.2869C87.0885 32.6655 86.8877 33.0127 86.6231 33.3054C86.3584 33.5981 86.036 33.8295 85.6773 33.9842L80.0167 36.4316L85.6773 38.8577C86.036 39.0124 86.3584 39.2438 86.6231 39.5365C86.8877 39.8292 87.0885 40.1764 87.2122 40.555C87.3358 40.9336 87.3793 41.3349 87.3399 41.7322C87.3005 42.1294 87.1791 42.5135 86.9836 42.8588V42.9864C86.7895 43.3288 86.5265 43.6247 86.2122 43.8546C85.8979 44.0844 85.5395 44.2428 85.1608 44.3194C84.7822 44.3959 84.392 44.3887 84.0163 44.2983C83.6405 44.2079 83.2879 44.0364 82.9818 43.7952Z" fill="#11405A"/>
<path d="M127.793 43.7952L122.863 39.9431L123.675 46.1362C123.725 46.5336 123.692 46.9372 123.578 47.3206C123.464 47.7039 123.272 48.0582 123.015 48.3599C122.757 48.6617 122.44 48.9041 122.084 49.071C121.728 49.238 121.341 49.3258 120.95 49.3285C120.558 49.3258 120.172 49.238 119.816 49.071C119.46 48.9041 119.143 48.6617 118.885 48.3599C118.628 48.0582 118.436 47.7039 118.322 47.3206C118.208 46.9372 118.175 46.5336 118.225 46.1362L119.036 39.9431L114.19 43.7952C113.881 44.0368 113.526 44.2085 113.147 44.2991C112.769 44.3896 112.376 44.3969 111.995 44.3205C111.613 44.244 111.252 44.0856 110.935 43.8556C110.618 43.6256 110.352 43.3294 110.155 42.9864V42.8588C109.959 42.5135 109.837 42.1294 109.798 41.7322C109.758 41.3349 109.802 40.9336 109.926 40.555C110.05 40.1764 110.251 39.8292 110.517 39.5365C110.782 39.2438 111.106 39.0124 111.465 38.8577L117.144 36.4316L111.465 33.9842C111.106 33.8295 110.782 33.5981 110.517 33.3054C110.251 33.0127 110.05 32.6655 109.926 32.2869C109.802 31.9083 109.758 31.507 109.798 31.1097C109.837 30.7125 109.959 30.3284 110.155 29.9831V29.8767C110.35 29.5321 110.615 29.2339 110.931 29.0018C111.247 28.7698 111.608 28.6092 111.99 28.5307C112.371 28.4522 112.765 28.4576 113.144 28.5466C113.523 28.6355 113.88 28.806 114.19 29.0467L119.12 32.8988L118.308 26.7057C118.258 26.3094 118.291 25.9067 118.405 25.5244C118.519 25.1421 118.711 24.7891 118.969 24.489C119.227 24.1889 119.545 23.9485 119.9 23.7839C120.256 23.6193 120.643 23.5344 121.033 23.5347C121.424 23.5344 121.81 23.6193 122.166 23.7839C122.522 23.9485 122.839 24.1889 123.097 24.489C123.355 24.7891 123.547 25.1421 123.661 25.5244C123.775 25.9067 123.808 26.3094 123.758 26.7057L122.947 32.8988L127.793 28.8977C128.103 28.6571 128.46 28.4866 128.839 28.3976C129.218 28.3087 129.612 28.3032 129.993 28.3817C130.375 28.4602 130.736 28.6208 131.052 28.8529C131.368 29.0849 131.633 29.3831 131.828 29.7277V29.8342C132.028 30.1773 132.154 30.5603 132.196 30.9574C132.239 31.3546 132.198 31.7564 132.076 32.1358C131.954 32.5153 131.753 32.8634 131.488 33.1566C131.222 33.4497 130.899 33.6812 130.538 33.8352L124.86 36.2826L130.518 38.7088C130.877 38.8635 131.201 39.0949 131.466 39.3875C131.732 39.6802 131.933 40.0274 132.057 40.406C132.181 40.7846 132.225 41.1859 132.185 41.5832C132.146 41.9804 132.024 42.3645 131.828 42.7098V42.8375C131.644 43.1923 131.388 43.5025 131.076 43.7473C130.765 43.9921 130.406 44.1657 130.024 44.2564C129.641 44.3472 129.244 44.353 128.859 44.2734C128.475 44.1938 128.111 44.0308 127.793 43.7952Z" fill="#11405A"/>
<path d="M172.683 43.7952L167.752 39.9432L168.56 46.1362C168.613 46.5324 168.583 46.9356 168.473 47.319C168.362 47.7023 168.173 48.057 167.918 48.3592C167.663 48.6614 167.348 48.9042 166.994 49.0714C166.641 49.2385 166.256 49.3262 165.867 49.3285C165.476 49.3292 165.09 49.2437 164.733 49.0779C164.377 48.9121 164.06 48.6697 163.803 48.3672C163.546 48.0646 163.354 47.7089 163.242 47.3241C163.13 46.9392 163.1 46.5342 163.153 46.1362L163.961 39.9432L159.031 43.7952C158.723 44.0368 158.37 44.2085 157.993 44.2991C157.616 44.3896 157.224 44.3969 156.844 44.3205C156.464 44.244 156.105 44.0856 155.789 43.8556C155.473 43.6257 155.208 43.3294 155.012 42.9865V42.8588C154.817 42.5135 154.696 42.1295 154.656 41.7322C154.617 41.335 154.66 40.9337 154.784 40.555C154.907 40.1764 155.108 39.8292 155.372 39.5365C155.637 39.2439 155.959 39.0125 156.317 38.8578L161.973 36.4316L156.317 33.9842C155.959 33.8295 155.637 33.5981 155.372 33.3055C155.108 33.0128 154.907 32.6656 154.784 32.287C154.66 31.9084 154.617 31.5071 154.656 31.1098C154.696 30.7126 154.817 30.3285 155.012 29.9832V29.8768C155.206 29.5322 155.47 29.234 155.785 29.0019C156.1 28.7699 156.459 28.6093 156.839 28.5308C157.219 28.4523 157.611 28.4577 157.989 28.5467C158.367 28.6356 158.722 28.8061 159.031 29.0468L163.961 32.8989L163.153 26.7058C163.1 26.3089 163.13 25.9048 163.242 25.521C163.354 25.1372 163.546 24.7827 163.803 24.4818C164.061 24.1808 164.379 23.9405 164.735 23.777C165.091 23.6136 165.477 23.531 165.867 23.5348C166.255 23.5341 166.639 23.6189 166.993 23.7837C167.347 23.9485 167.662 24.1893 167.917 24.4899C168.172 24.7905 168.362 25.1438 168.473 25.5261C168.584 25.9084 168.614 26.3107 168.56 26.7058L167.752 32.8989L172.683 29.0468C172.991 28.8061 173.347 28.6356 173.724 28.5467C174.102 28.4577 174.494 28.4523 174.874 28.5308C175.254 28.6093 175.614 28.7699 175.929 29.0019C176.244 29.234 176.507 29.5322 176.701 29.8768V29.9832C176.897 30.3285 177.018 30.7126 177.057 31.1098C177.097 31.5071 177.053 31.9084 176.93 32.287C176.806 32.6656 176.606 33.0128 176.341 33.3055C176.077 33.5981 175.755 33.8295 175.396 33.9842L169.762 36.4316L175.396 38.8578C175.755 39.0125 176.077 39.2439 176.341 39.5365C176.606 39.8292 176.806 40.1764 176.93 40.555C177.053 40.9337 177.097 41.335 177.057 41.7322C177.018 42.1295 176.897 42.5135 176.701 42.8588V42.9865C176.505 43.3294 176.241 43.6257 175.925 43.8556C175.609 44.0856 175.249 44.244 174.869 44.3205C174.489 44.3969 174.098 44.3896 173.721 44.2991C173.344 44.2085 172.99 44.0368 172.683 43.7952Z" fill="#11405A"/>
<path d="M217.558 43.7952L212.623 39.9431L213.432 46.1362C213.482 46.5336 213.449 46.9372 213.336 47.3206C213.222 47.7039 213.031 48.0582 212.774 48.3599C212.517 48.6617 212.201 48.9041 211.846 49.071C211.491 49.238 211.106 49.3258 210.716 49.3285C210.326 49.3262 209.941 49.2385 209.587 49.0714C209.234 48.9042 208.918 48.6614 208.663 48.3592C208.408 48.057 208.219 47.7023 208.108 47.319C207.997 46.9356 207.967 46.5324 208.02 46.1362L208.808 39.9431L203.894 43.7952C203.586 44.0368 203.232 44.2085 202.855 44.2991C202.477 44.3896 202.085 44.3969 201.705 44.3205C201.325 44.244 200.965 44.0856 200.649 43.8556C200.333 43.6256 200.068 43.3294 199.871 42.9864V42.8588C199.676 42.5135 199.554 42.1294 199.515 41.7322C199.476 41.3349 199.519 40.9336 199.643 40.555C199.766 40.1764 199.967 39.8292 200.232 39.5365C200.497 39.2438 200.819 39.0124 201.178 38.8577L206.818 36.4316L201.178 33.9842C200.819 33.8295 200.497 33.5981 200.232 33.3054C199.967 33.0127 199.766 32.6655 199.643 32.2869C199.519 31.9083 199.476 31.507 199.515 31.1097C199.554 30.7125 199.676 30.3284 199.871 29.9831V29.8767C200.066 29.5321 200.33 29.2339 200.645 29.0018C200.96 28.7698 201.32 28.6092 201.7 28.5307C202.081 28.4522 202.473 28.4576 202.851 28.5466C203.229 28.6355 203.585 28.8061 203.894 29.0467L208.808 32.8988L208.02 26.7057C207.967 26.3106 207.997 25.9083 208.108 25.526C208.219 25.1437 208.408 24.7903 208.664 24.4898C208.919 24.1892 209.235 23.9483 209.589 23.7836C209.943 23.6188 210.327 23.5339 210.716 23.5347C211.105 23.5344 211.49 23.6193 211.845 23.7839C212.2 23.9485 212.516 24.1889 212.773 24.489C213.03 24.7891 213.222 25.1421 213.336 25.5244C213.449 25.9067 213.482 26.3094 213.432 26.7057L212.623 32.8988L217.558 29.0467C217.866 28.8064 218.219 28.6361 218.596 28.5473C218.973 28.4585 219.363 28.4532 219.742 28.5318C220.121 28.6103 220.479 28.7709 220.793 29.0029C221.106 29.2348 221.368 29.5327 221.56 29.8767V29.9831C221.756 30.3284 221.877 30.7125 221.916 31.1097C221.956 31.507 221.912 31.9083 221.789 32.2869C221.665 32.6655 221.464 33.0127 221.199 33.3054C220.935 33.5981 220.612 33.8295 220.254 33.9842L214.593 36.4316L220.254 38.8577C220.612 39.0124 220.935 39.2438 221.199 39.5365C221.464 39.8292 221.665 40.1764 221.789 40.555C221.912 40.9336 221.956 41.3349 221.916 41.7322C221.877 42.1294 221.756 42.5135 221.56 42.8588V42.9864C221.366 43.3288 221.103 43.6247 220.789 43.8546C220.474 44.0844 220.116 44.2428 219.737 44.3194C219.359 44.3959 218.968 44.3887 218.593 44.2983C218.217 44.2079 217.864 44.0364 217.558 43.7952Z" fill="#11405A"/>
<path d="M292.583 36.4426C292.583 36.4426 283.542 48.2072 272.386 48.2072C261.231 48.2072 252.21 36.4426 252.21 36.4426C252.21 36.4426 261.231 24.6562 272.386 24.6562C283.542 24.6562 292.583 36.4426 292.583 36.4426Z" fill="white" stroke="#11405A" stroke-linecap="round" stroke-linejoin="round"/>
<path d="M279.126 36.4317C279.126 37.8734 278.731 39.2828 277.992 40.4815C277.252 41.6803 276.201 42.6146 274.972 43.1663C273.742 43.718 272.389 43.8624 271.084 43.5812C269.779 43.2999 268.58 42.6056 267.639 41.5862C266.698 40.5667 266.057 39.2678 265.797 37.8538C265.538 36.4398 265.671 34.9741 266.18 33.6421C266.689 32.3101 267.552 31.1716 268.658 30.3706C269.765 29.5696 271.066 29.1421 272.397 29.1421C274.181 29.1421 275.893 29.9101 277.155 31.2772C278.417 32.6442 279.126 34.4983 279.126 36.4317Z" fill="#2BAE4A" stroke="#11405A" stroke-linecap="round" stroke-linejoin="round"/>
</svg>
