<svg width="263" height="653" viewBox="0 0 263 653" fill="none" xmlns="http://www.w3.org/2000/svg">
<path d="M201.221 184.098C196.997 173.835 207.324 142.79 211.949 130.056C212.218 129.319 212.663 128.66 213.246 128.135C213.829 127.611 214.532 127.237 215.293 127.048C216.053 126.858 216.849 126.858 217.61 127.047C218.371 127.237 219.074 127.61 219.657 128.134C223.881 131.872 228.928 139.137 229.773 152.611C229.773 152.611 262 209.356 262 235.248C262 259.513 214.018 310.05 214.018 310.05C208.608 308.37 204.036 304.702 201.221 299.786C201.221 299.786 219.15 255.437 233.067 236.43C233.089 236.452 205.972 195.46 201.221 184.098Z" fill="#2BAE4A"/>
<path opacity="0.2" d="M206.604 200.698C206.604 200.698 221.957 167.985 227.722 170.921C233.488 173.856 248.44 229.018 242.717 237.804C236.994 246.589 205.78 308.614 197.966 307.368C190.152 306.122 206.604 200.698 206.604 200.698Z" fill="#11405A"/>
<path d="M201.221 184.098C196.997 173.835 207.324 142.79 211.949 130.056C212.218 129.319 212.663 128.66 213.246 128.135C213.829 127.611 214.532 127.237 215.293 127.048C216.053 126.858 216.849 126.858 217.61 127.047C218.371 127.237 219.074 127.61 219.657 128.134C223.881 131.872 228.928 139.137 229.773 152.611C229.773 152.611 262 209.356 262 235.248C262 259.513 214.018 310.05 214.018 310.05C208.608 308.37 204.036 304.702 201.221 299.786C201.221 299.786 219.15 255.437 233.067 236.43C233.089 236.452 205.972 195.46 201.221 184.098Z" stroke="#263238" stroke-linecap="round" stroke-linejoin="round"/>
<path d="M205.297 295.774L198.053 307.368C198.053 307.368 175.498 314.422 173.154 321.877C170.81 329.331 182.362 339.722 189.226 337.631C196.089 335.54 207.282 314.844 207.282 314.844L216.405 304.285L205.297 295.774Z" fill="white" stroke="#263238" stroke-linecap="round" stroke-linejoin="round"/>
<path d="M219.511 307.115L214.633 312.733C207.772 310.814 201.908 306.34 198.245 300.23L201.201 293.198C201.201 293.198 205.362 302.955 219.511 307.115Z" fill="#92E3A9" stroke="#263238" stroke-linecap="round" stroke-linejoin="round"/>
<path d="M190.597 617.939L196.933 644.232C197.143 645.113 197.152 646.03 196.957 646.915C196.762 647.799 196.37 648.628 195.809 649.34C195.248 650.051 194.533 650.626 193.719 651.021C192.904 651.417 192.01 651.623 191.104 651.623H154.104C153.228 651.624 152.362 651.433 151.567 651.063C150.773 650.694 150.068 650.156 149.503 649.486C148.938 648.817 148.526 648.031 148.295 647.186C148.065 646.34 148.022 645.455 148.17 644.591C148.456 642.615 149.153 640.72 150.215 639.029C151.277 637.337 152.681 635.887 154.337 634.771C162.784 629.28 166.797 612.089 166.797 612.089L190.597 617.939Z" fill="#2BAE4A" stroke="#263238" stroke-linecap="round" stroke-linejoin="round"/>
<path d="M99.4295 622.332C99.4295 622.332 105.406 630.927 106.378 646.259C106.409 646.952 106.299 647.645 106.056 648.294C105.812 648.944 105.439 649.537 104.959 650.039C104.479 650.54 103.903 650.939 103.265 651.212C102.626 651.484 101.94 651.624 101.246 651.623H35.6301C34.3495 651.63 33.0984 651.238 32.0507 650.502C31.003 649.765 30.2105 648.721 29.7833 647.514C29.3561 646.306 29.3154 644.996 29.6668 643.765C30.0182 642.533 30.7443 641.441 31.7443 640.641C34.5366 638.564 37.8458 637.293 41.311 636.967C57.4034 634.855 71.6585 627.463 74.235 617.96L99.4295 622.332Z" fill="#2BAE4A" stroke="#263238" stroke-linecap="round" stroke-linejoin="round"/>
<path d="M201.22 299.787C201.22 299.787 208.654 330.535 205.719 396.932L203.818 472.115C203.818 472.115 214.504 524.911 193.998 620.494C193.998 620.494 187.662 634.644 162.13 616.946L159.173 471.122L132.458 310.05L201.22 299.787Z" fill="#11405A"/>
<path opacity="0.2" d="M148.088 367.641C148.088 367.641 158.985 411.082 163.378 436.466C167.77 461.851 193.894 459.908 197.041 476.592C200.187 493.276 169.586 473.656 172.564 533.612C175.542 593.568 186.249 626.344 169.439 625.858C152.628 625.373 152.142 578.13 152.142 578.13L141.9 434.143V414.123L139.45 376.109L148.088 367.641Z" fill="#11405A"/>
<path d="M201.22 299.787C201.22 299.787 208.654 330.535 205.719 396.932L203.818 472.115C203.818 472.115 214.504 524.911 193.998 620.494C193.998 620.494 187.662 634.644 162.13 616.946L159.173 471.122L132.458 310.05L201.22 299.787Z" stroke="#263238" stroke-linecap="round" stroke-linejoin="round"/>
<path d="M197.041 488.418C198.177 489.921 199.227 491.486 200.188 493.107" stroke="#263238" stroke-linecap="round" stroke-linejoin="round"/>
<path d="M195.708 471.861C195.708 471.861 171.211 466.011 169.542 471.861C168.106 476.951 181.348 470.974 194.42 485.25" stroke="#263238" stroke-linecap="round" stroke-linejoin="round"/>
<path d="M153.24 378.2C134.233 408.885 107.476 469.264 107.476 469.264C107.476 469.264 111.51 476.254 107.476 487.975C107.476 487.975 118.035 528.755 102.724 626.26C102.724 626.26 89.5462 634.707 70.4972 619.924C70.4972 619.924 60.9938 473.361 64.6473 453.594C68.3008 433.826 102.661 303.271 102.661 303.271H178.181" fill="#11405A"/>
<path opacity="0.2" d="M157.526 380.333C157.526 380.333 146.016 386.183 123.947 380.333C101.878 374.483 120.167 399.34 112.86 426.456C105.553 453.572 85.0256 466.011 88.3201 477.711C91.6146 489.411 101.371 492.367 103.462 523.855C105.553 555.343 77.9297 613.504 88.8058 625.415C99.6819 637.326 126.038 609.153 126.038 609.153L148.086 459.866L157.526 380.333Z" fill="#11405A"/>
<path d="M153.24 378.2C134.233 408.885 107.476 469.264 107.476 469.264C107.476 469.264 111.51 476.254 107.476 487.975C107.476 487.975 118.035 528.755 102.724 626.26C102.724 626.26 89.5462 634.707 70.4972 619.924C70.4972 619.924 60.9938 473.361 64.6473 453.594C68.3009 433.826 102.661 303.271 102.661 303.271H178.181" stroke="#263238" stroke-linecap="round" stroke-linejoin="round"/>
<path d="M93.4942 474.438C84.8145 473.128 73.7272 472.326 74.1707 476.254C74.8887 482.843 90.3687 476.148 99.7876 487.236" stroke="#263238" stroke-linecap="round" stroke-linejoin="round"/>
<path d="M103.461 476.254C103.461 476.254 101.94 475.916 99.5962 475.473" stroke="#263238" stroke-linecap="round" stroke-linejoin="round"/>
<path d="M43.0209 96.0339L41.6482 82.0956C41.6482 82.0956 44.3936 67.5871 43.0209 62.6665C41.6482 57.7458 29.6106 26.5536 25.7881 27.9263C21.9656 29.299 31.5324 46.2573 31.2578 51.1568C31.2578 51.1568 26.1682 51.4313 24.9222 54.7047C24.9222 54.7047 20.0861 55.5284 19.8115 59.8999C18.6308 60.6534 17.677 61.7136 17.0521 62.9671C16.4272 64.2207 16.1546 65.6205 16.2636 67.0169C16.7916 71.663 26.1049 84.2497 26.1049 84.2497L25.5558 102.306L43.0209 96.0339Z" fill="white" stroke="#263238" stroke-linecap="round" stroke-linejoin="round"/>
<path d="M123.989 72.4868C123.989 72.4868 129.374 61.9275 130.156 57.9572C130.726 55.1906 129.586 49.5097 130.156 46.722C131.465 40.2808 140.483 22.5623 140.483 22.5623C140.845 21.8007 141.398 21.1458 142.088 20.6616L147.368 27.1662H161.686L183.565 56.0565L172.794 81.9902L175.941 85.7282C174.019 87.6288 172.794 88.727 172.794 88.727L175.941 107.544L145.108 110.669L144.39 98.7373H135.013C133.747 98.7373 132.533 98.2344 131.638 97.3393C130.743 96.4443 130.24 95.2303 130.24 93.9645V77.6186L126.017 76.3937C125.609 76.2992 125.227 76.1175 124.896 75.8609C124.566 75.6044 124.295 75.2792 124.102 74.9078C123.909 74.5364 123.799 74.1277 123.78 73.7097C123.76 73.2917 123.832 72.8745 123.989 72.4868Z" fill="white" stroke="#263238" stroke-linecap="round" stroke-linejoin="round"/>
<path d="M198.561 63.0888C186.143 81.3776 172.796 88.7268 172.796 88.7268L167.538 75.6544C167.538 75.6544 178.097 74.5351 176.513 64.2714C174.042 49.1294 161.73 62.7509 161.73 62.7509L159.069 51.0512C159.069 51.0512 152.501 43.9976 152.966 41.5267C153.318 39.732 153.783 37.9615 154.36 36.2259C154.36 36.2259 130.601 13.6078 133.115 1C133.115 1 152.903 5.01254 176.513 9.44746C205.256 14.6426 212.584 42.477 198.561 63.0888Z" fill="#263238" stroke="#263238" stroke-linecap="round" stroke-linejoin="round"/>
<path d="M134.928 98.7373C134.928 98.7373 151.463 95.9285 157.778 88.1779C164.092 80.4274 159.066 88.727 156.11 93.4787C149.774 103.637 144.389 98.7373 134.928 98.7373Z" fill="#263238"/>
<path d="M145.108 74.9575C143.968 76.2489 142.529 77.2416 140.916 77.849C139.304 78.4564 137.568 78.66 135.858 78.4421" stroke="#263238" stroke-width="0.75" stroke-linecap="round" stroke-linejoin="round"/>
<path d="M133.068 54.7469C133.068 56.2252 133.617 57.4078 134.314 57.4078C135.011 57.4078 135.539 56.2252 135.539 54.7469C135.539 53.2686 134.99 52.0859 134.314 52.0859C133.638 52.0859 133.068 53.2897 133.068 54.7469Z" fill="#263238"/>
<path d="M133.303 46.9754C135.013 46.6002 136.801 46.8444 138.348 47.6643C139.895 48.4842 141.101 49.8266 141.75 51.4525" stroke="#263238" stroke-width="0.75" stroke-linecap="round" stroke-linejoin="round"/>
<path d="M192.057 115.759C192.057 115.759 192.057 101.314 167.158 103.552C136.895 106.298 124.689 121.799 124.689 121.799L192.057 115.759Z" fill="#11405A" stroke="#263238" stroke-linecap="round" stroke-linejoin="round"/>
<path d="M143.229 113.161C124.37 115.273 91.4887 119.814 93.4527 170.52C95.4167 221.225 102.724 303.229 102.724 303.229C102.724 303.229 197.04 343.524 207.747 306.143C207.747 306.143 202.847 263.906 218.475 198.164C234.103 132.422 227.028 104.017 143.229 113.161Z" fill="#2BAE4A"/>
<path opacity="0.2" d="M88.6803 255.374C88.6803 255.374 100.992 258.331 138.71 237.803C197.843 205.555 204.474 158.228 221.073 166C237.672 173.772 204.664 326.396 204.664 326.396L143.42 330.24H86.6529L88.6803 255.374Z" fill="#11405A"/>
<path d="M143.229 113.161C124.37 115.273 91.4887 119.814 93.4527 170.52C95.4167 221.225 102.724 303.229 102.724 303.229C102.724 303.229 197.04 343.524 207.747 306.144C207.747 306.144 202.847 263.906 218.475 198.164C234.103 132.422 227.028 104.017 143.229 113.161Z" stroke="#263238" stroke-linecap="round" stroke-linejoin="round"/>
<path d="M252.095 234.319C253.151 234.572 254.27 234.889 255.453 235.269" stroke="#263238" stroke-width="0.75" stroke-linecap="round" stroke-linejoin="round"/>
<path d="M236.509 235.269C236.509 235.269 240.479 232.439 249.18 233.748" stroke="#263238" stroke-width="0.75" stroke-linecap="round" stroke-linejoin="round"/>
<path d="M135.944 114.09C135.944 114.09 103.273 114.302 88.6381 123.087C88.6381 123.087 62.7677 118.694 52.5041 123.087L43.233 88.4313C43.233 88.4313 31.0264 82.5603 25.1765 91.3456C25.1765 91.3456 20.7838 144.142 28.0909 148.472C35.3979 152.801 93.432 166.042 93.432 166.042C93.432 166.042 130.495 154.892 135.944 114.09Z" fill="#2BAE4A"/>
<path opacity="0.2" d="M93.7066 157.088C93.7066 157.088 95.4172 143.508 70.476 145.261C45.5349 147.014 26.1269 147.5 23.656 135.779C21.1851 124.058 -6.16352 103.784 2.53736 141.735L11.3438 179.748L63.8025 183.212L93.7066 157.088Z" fill="#11405A"/>
<path d="M135.944 114.09C135.944 114.09 103.273 114.302 88.6381 123.087C88.6381 123.087 62.7677 118.694 52.5041 123.087L43.233 88.4313C43.233 88.4313 31.0264 82.5603 25.1765 91.3456C25.1765 91.3456 20.7838 144.142 28.0909 148.472C35.3979 152.801 93.432 166.042 93.432 166.042C93.432 166.042 130.495 154.892 135.944 114.09Z" stroke="#263238" stroke-linecap="round" stroke-linejoin="round"/>
<path d="M46.4409 125.685C43.6203 127.985 41.1948 130.732 39.2606 133.815" stroke="#263238" stroke-width="0.75" stroke-linecap="round" stroke-linejoin="round"/>
<path d="M51.7217 123.425C50.9264 123.422 50.1402 123.595 49.4198 123.932" stroke="#263238" stroke-width="0.75" stroke-linecap="round" stroke-linejoin="round"/>
<path d="M219.17 183.212C220.31 172.272 223.394 152.189 222.19 138.292" stroke="#263238" stroke-width="0.75" stroke-linecap="round" stroke-linejoin="round"/>
<path d="M207.302 282.575V301.539" stroke="#7F7F7F" stroke-width="0.75" stroke-linecap="round" stroke-linejoin="round"/>
<path d="M175.117 330.282C175.117 330.282 172.054 351.718 162.636 364.959L175.117 330.282Z" fill="#19587B"/>
<path d="M175.117 330.282C175.117 330.282 172.054 351.718 162.636 364.959" stroke="#263238" stroke-linecap="round" stroke-linejoin="round"/>
<path d="M45.893 84.4399L48.0049 92.296C48.0049 92.296 33.7287 88.917 21.0997 95.6961L22.388 86.5095C22.388 86.5095 30.5609 80.4062 45.893 84.4399Z" fill="#11405A" stroke="#263238" stroke-linecap="round" stroke-linejoin="round"/>
<path d="M123.883 286.968C134.168 291.529 154.569 295.542 194.631 291.593" stroke="#263238" stroke-width="0.75" stroke-linecap="round" stroke-linejoin="round"/>
<path d="M113.58 278.562C114.456 280.503 115.861 282.157 117.635 283.335" stroke="#263238" stroke-width="0.75" stroke-linecap="round" stroke-linejoin="round"/>
<path d="M85.2588 124.08L68.5962 134.386" stroke="#263238" stroke-width="0.75" stroke-linecap="round" stroke-linejoin="round"/>
<path d="M111.278 210.814C100.627 198.278 94.0034 182.822 92.2715 166.464" stroke="#263238" stroke-width="0.75" stroke-linecap="round" stroke-linejoin="round"/>
<path d="M120.991 207.751C134.531 223.389 151.442 235.751 170.451 243.907" stroke="#263238" stroke-width="0.75" stroke-linecap="round" stroke-linejoin="round"/>
<path d="M112.711 197.023C114.295 199.304 115.963 201.521 117.716 203.696" stroke="#263238" stroke-width="0.75" stroke-linecap="round" stroke-linejoin="round"/>
<path d="M107.623 189.378C108.426 190.73 109.27 192.039 110.115 193.349" stroke="#263238" stroke-width="0.75" stroke-linecap="round" stroke-linejoin="round"/>
<path d="M198.919 269.798C177.546 279.565 153.77 282.819 130.558 279.154" stroke="#263238" stroke-width="0.75" stroke-linecap="round" stroke-linejoin="round"/>
<path d="M141.75 7.54659C139.569 6.59671 137.489 5.42927 135.542 4.06201" stroke="#7F7F7F" stroke-width="0.75" stroke-linecap="round" stroke-linejoin="round"/>
<path d="M193.195 57.4079C193.195 57.4079 204.916 35.9092 191.379 24.1883C181.052 15.2763 162.636 14.4315 147.896 9.82764" stroke="#7F7F7F" stroke-width="0.75" stroke-linecap="round" stroke-linejoin="round"/>
<path d="M183.334 42.1388C183.992 40.1845 184.1 38.0868 183.646 36.0752C183.191 34.0637 182.192 32.2161 180.757 30.7347C172.711 23.0898 149.227 22.2873 137.527 10.6509" stroke="#7F7F7F" stroke-width="0.75" stroke-linecap="round" stroke-linejoin="round"/>
<path d="M178.562 52.086C179.532 50.7491 180.393 49.3366 181.138 47.8623" stroke="#7F7F7F" stroke-width="0.75" stroke-linecap="round" stroke-linejoin="round"/>
</svg>
