<svg width="77" height="77" viewBox="0 0 77 77" fill="none" xmlns="http://www.w3.org/2000/svg">
<path d="M76.0332 26.0889H0.626991V76.2092H76.0332V26.0889Z" fill="#2BAE4A"/>
<path d="M76.0334 76.8364H0.627131C0.460806 76.8364 0.301282 76.7703 0.183672 76.6527C0.0660625 76.5351 0 76.3756 0 76.2092V26.0388C0 25.8724 0.0660625 25.7129 0.183672 25.5953C0.301282 25.4777 0.460806 25.4116 0.627131 25.4116H76.0334C76.1997 25.4116 76.3592 25.4777 76.4768 25.5953C76.5944 25.7129 76.6605 25.8724 76.6605 26.0388V76.2092C76.6605 76.3756 76.5944 76.5351 76.4768 76.6527C76.3592 76.7703 76.1997 76.8364 76.0334 76.8364ZM1.25426 75.5821H75.4062V26.6659H1.25426V75.5821Z" fill="#11405A"/>
<path d="M76.0332 26.0889L38.3301 51.149L0.626991 26.0889H76.0332Z" fill="#11405A"/>
<path d="M38.33 51.7762C38.2062 51.7737 38.0852 51.7391 37.9788 51.6758L0.275652 26.5906C0.165637 26.5145 0.0822616 26.4057 0.0372627 26.2797C-0.00773628 26.1537 -0.0120897 26.0168 0.0248035 25.8882C0.0650318 25.7603 0.145191 25.6486 0.253547 25.5696C0.361903 25.4906 0.492744 25.4484 0.626844 25.4492H76.0331C76.1659 25.4509 76.2947 25.4946 76.4011 25.5741C76.5074 25.6537 76.5857 25.7649 76.6248 25.8919C76.6639 26.0188 76.6616 26.1548 76.6184 26.2804C76.5751 26.406 76.4932 26.5146 76.3843 26.5906L38.6812 51.6758C38.5747 51.7391 38.4537 51.7737 38.33 51.7762ZM2.69637 26.6909L38.33 50.3965L73.951 26.716L2.69637 26.6909Z" fill="#11405A"/>
<path d="M10.6245 33.012V0.626953H65.9626V32.7486L38.3312 51.1486L10.6245 33.012Z" fill="white"/>
<path d="M38.3313 51.7759C38.2075 51.7735 38.0865 51.7389 37.9801 51.6756L10.286 33.539C10.1992 33.4807 10.1277 33.4024 10.0775 33.3107C10.0273 33.2191 9.99989 33.1167 9.99754 33.0122V0.627131C9.99754 0.460806 10.0636 0.301301 10.1812 0.183692C10.2988 0.0660816 10.4583 0 10.6247 0H65.9251C66.0914 0 66.2509 0.0660816 66.3685 0.183692C66.4861 0.301301 66.5522 0.460806 66.5522 0.627131V32.7488C66.5534 32.8526 66.5288 32.955 66.4807 33.047C66.4325 33.1389 66.3623 33.2175 66.2763 33.2756L38.6825 51.6756C38.5761 51.7389 38.4551 51.7735 38.3313 51.7759ZM11.2518 32.6735L38.3313 50.3963L65.3356 32.4227V1.21664H11.2518V32.6735Z" fill="#11405A"/>
<path d="M54.4855 12.5048H21.0844C20.9181 12.5048 20.7586 12.4387 20.641 12.3211C20.5234 12.2034 20.4573 12.0439 20.4573 11.8776C20.4573 11.7113 20.5234 11.5518 20.641 11.4342C20.7586 11.3166 20.9181 11.2505 21.0844 11.2505H54.4855C54.6518 11.2505 54.8113 11.3166 54.9289 11.4342C55.0465 11.5518 55.1126 11.7113 55.1126 11.8776C55.1126 12.0439 55.0465 12.2034 54.9289 12.3211C54.8113 12.4387 54.6518 12.5048 54.4855 12.5048Z" fill="#11405A"/>
<path d="M54.4855 20.8837H21.0844C20.9181 20.8837 20.7586 20.8176 20.641 20.7C20.5234 20.5824 20.4573 20.4229 20.4573 20.2565C20.4573 20.0902 20.5234 19.9307 20.641 19.8131C20.7586 19.6955 20.9181 19.6294 21.0844 19.6294H54.4855C54.6518 19.6294 54.8113 19.6955 54.9289 19.8131C55.0465 19.9307 55.1126 20.0902 55.1126 20.2565C55.1126 20.4229 55.0465 20.5824 54.9289 20.7C54.8113 20.8176 54.6518 20.8837 54.4855 20.8837Z" fill="#11405A"/>
<path d="M54.4855 29.2997H21.0844C20.9181 29.2997 20.7586 29.2336 20.641 29.116C20.5234 28.9984 20.4573 28.8389 20.4573 28.6725C20.4573 28.5062 20.5234 28.3467 20.641 28.2291C20.7586 28.1115 20.9181 28.0454 21.0844 28.0454H54.4855C54.6518 28.0454 54.8113 28.1115 54.9289 28.2291C55.0465 28.3467 55.1126 28.5062 55.1126 28.6725C55.1126 28.8389 55.0465 28.9984 54.9289 29.116C54.8113 29.2336 54.6518 29.2997 54.4855 29.2997Z" fill="#11405A"/>
<path d="M0.626991 76.2092L38.4179 44.7397L76.0332 76.2092H0.626991Z" fill="#2BAE4A"/>
<path d="M76.034 76.836H0.627812C0.500143 76.8347 0.375895 76.7945 0.271683 76.7208C0.16747 76.647 0.0882554 76.5432 0.0446231 76.4232C0.000990807 76.3032 -0.00497748 76.1728 0.0275132 76.0493C0.060004 75.9258 0.129399 75.8152 0.226439 75.7322L38.0174 44.2502C38.1301 44.1564 38.2721 44.105 38.4187 44.105C38.5654 44.105 38.7074 44.1564 38.8201 44.2502L76.448 75.7197C76.545 75.8026 76.6144 75.9133 76.6469 76.0367C76.6794 76.1602 76.6734 76.2907 76.6298 76.4107C76.5861 76.5306 76.5069 76.6345 76.4027 76.7082C76.2985 76.782 76.1743 76.8222 76.0466 76.8234L76.034 76.836ZM2.3587 75.5817H74.3032L38.4187 45.5547L2.3587 75.5817Z" fill="#11405A"/>
</svg>
