<svg width="149" height="180" viewBox="0 0 149 180" fill="none" xmlns="http://www.w3.org/2000/svg">
<path d="M121.06 121.831C117.172 120.062 111.104 113.106 110.619 112.556C106.632 116.023 102.416 119.22 97.9997 122.126C95.4434 123.828 92.8064 125.477 90.1426 127.085C91.4879 126.536 92.6584 126.04 92.8333 125.999C97.6902 124.579 107.929 124.659 111.117 129.364C111.623 130.157 111.955 131.047 112.093 131.977C112.231 132.906 112.171 133.854 111.917 134.759C111.664 135.664 111.222 136.506 110.62 137.229C110.019 137.953 109.271 138.543 108.426 138.96C104.902 140.863 100.072 139.818 96.6408 138.25C93.21 136.682 87.8419 130.825 86.4696 129.27L83.3887 131.093C78.4376 134.001 73.5 136.869 68.7373 139.831C67.0556 140.877 65.4411 141.962 63.8132 143.048C64.9971 142.566 65.9927 142.15 66.1542 142.11C71.0111 140.689 81.2495 140.77 84.4381 145.487C84.9437 146.281 85.2762 147.171 85.414 148.1C85.5519 149.03 85.492 149.978 85.2383 150.883C84.9845 151.788 84.5426 152.629 83.9412 153.353C83.3398 154.077 82.5923 154.667 81.7473 155.084C78.2224 156.974 73.4059 155.928 69.9616 154.36C66.5174 152.792 61.6875 147.511 60.0327 145.662C58.4047 146.814 56.7768 147.98 55.2565 149.173C54.234 150.018 53.198 150.755 52.2159 151.653L49.3099 154.199C47.507 155.915 45.6369 157.671 43.9283 159.386C42.7309 160.579 41.6008 161.718 40.4706 162.884C42.1255 161.826 45.4217 159.815 45.7042 159.681C50.3055 157.55 60.5035 156.116 64.2975 160.257C64.9187 160.964 65.3838 161.793 65.6626 162.69C65.9415 163.587 66.0279 164.533 65.9163 165.466C65.8046 166.398 65.4974 167.297 65.0146 168.104C64.5318 168.911 63.8841 169.607 63.1136 170.149C59.9116 172.548 55.0412 172.253 51.3549 171.221C47.3187 170.082 40.5917 164.386 39.6903 163.662C37.8067 165.592 36.0039 167.482 34.3087 169.278C30.5954 173.299 27.3934 176.904 24.7295 180L21.5948 177.99C24.4335 174.813 27.8643 171.074 31.8601 166.972C33.7571 165.002 35.8156 162.951 37.9547 160.861C36.3056 158.532 34.7918 156.111 33.4208 153.61C29.2769 154.682 21.0297 153.744 19.9668 153.61C19.469 156.29 19.0116 158.81 18.6214 161.236C17.7738 166.316 17.1415 170.886 16.6572 174.8L13.2668 172.628C13.8184 169.077 14.4776 165.056 15.2983 160.66C15.7961 157.979 16.3881 155.124 17.007 152.216C15.9979 151.827 7.69684 148.583 4.77733 145.621C2.08655 142.941 -0.496613 138.759 0.0819092 134.805C0.19104 133.873 0.495712 132.973 0.976151 132.165C1.45659 131.357 2.1021 130.659 2.8708 130.116C3.63951 129.572 4.51427 129.196 5.43835 129.011C6.36246 128.826 7.31526 128.837 8.235 129.042C13.7377 130.382 17.3164 139.992 17.6528 145.032C17.6528 145.327 17.5182 148.57 17.3837 150.621C17.6393 149.428 17.8815 148.275 18.164 147.042C18.7156 144.63 19.3345 142.217 19.9937 139.644L21.0835 135.891C21.4198 134.631 21.9445 133.344 22.4289 132.044C23.4783 129.082 24.6892 126.134 25.9807 123.171C23.855 122.689 16.3208 120.866 13.2802 118.601C10.2396 116.336 7.02414 112.61 7.01068 108.629C6.97464 107.691 7.13705 106.755 7.48743 105.883C7.83778 105.011 8.36826 104.222 9.04442 103.567C9.72058 102.913 10.5273 102.407 11.4123 102.083C12.2973 101.759 13.2409 101.624 14.1816 101.687C19.8323 102.236 24.8237 111.136 25.9135 116.068C25.9135 116.376 26.344 120.008 26.5189 122.005C27.2992 120.236 28.0796 118.467 28.9406 116.711C31.4027 111.618 34.0531 106.552 36.6766 101.472C37.4839 99.9173 38.2642 98.3626 39.058 96.8078C38.3045 96.647 29.3039 94.6634 25.8866 92.1168C22.8594 89.8651 19.6305 86.1391 19.617 82.145C19.5827 81.2063 19.7469 80.2709 20.099 79.3994C20.451 78.528 20.983 77.74 21.6604 77.0866C22.3378 76.4333 23.1456 75.9291 24.0313 75.6068C24.9169 75.2844 25.8607 75.1512 26.8014 75.2157C32.4386 75.7652 37.4435 84.6647 38.5198 89.597C38.6005 89.9723 39.1387 95.1861 39.206 96.5264C40.9415 93.0952 42.6502 89.6641 44.1839 86.2195C46.2827 81.5674 48.0803 76.7862 49.5655 71.9051C49.2157 71.8247 39.8114 69.8009 36.3134 67.2007C33.2862 64.9356 30.0573 61.2096 30.0438 57.2289C30.0095 56.2902 30.1737 55.3548 30.5258 54.4833C30.8778 53.6119 31.4098 52.8239 32.0872 52.1705C32.7646 51.5172 33.5724 51.0129 34.4581 50.6906C35.3437 50.3683 36.2875 50.2351 37.2282 50.2996C42.8654 50.8491 47.8703 59.7486 48.9466 64.6809C49.0273 65.0562 49.6059 70.6721 49.6328 71.7041C49.7135 71.4226 49.8346 71.1412 49.9153 70.8463C51.2566 65.909 52.1571 60.8633 52.6061 55.768C52.8886 52.9668 53.0097 50.2594 53.0501 47.619C51.2607 47.4313 43.0941 46.4395 39.6903 44.4425C36.2865 42.4454 32.8153 39.1751 32.3579 35.2078C32.2214 34.2791 32.2823 33.3321 32.5366 32.4282C32.7909 31.5244 33.233 30.6839 33.8343 29.9611C34.4355 29.2383 35.1824 28.6494 36.0266 28.2326C36.8709 27.8158 37.7936 27.5802 38.7351 27.5413C44.3992 27.4609 50.3458 35.7574 51.9737 40.5422C52.0545 40.8103 52.6599 43.5445 53.0635 45.5549C53.0635 44.3621 53.0635 43.1424 53.0635 42.0031C53.0635 37.7276 52.7003 33.8139 52.3908 30.356C52.2025 28.3857 51.9872 26.6165 51.7719 24.9948C50.1171 23.8823 43.4978 19.3387 41.4393 16.0684C39.3809 12.7981 37.7798 8.24109 39.206 4.51506C39.5134 3.62764 40.0046 2.81445 40.6477 2.12823C41.2908 1.44202 42.0714 0.89809 42.939 0.531641C43.8066 0.165192 44.7418 -0.0155828 45.684 0.00105221C46.6262 0.0176872 47.5544 0.231367 48.4084 0.628212C53.4806 3.16137 54.9202 13.2538 54.1398 18.2531C54.1398 18.682 52.2428 25.3031 52.1486 25.2494L52.0545 25.1824C52.2966 26.7774 52.5254 28.4796 52.7541 30.356C53.1442 33.8139 53.5344 37.7276 53.6824 42.0165C53.8962 46.64 53.8378 51.2719 53.5075 55.8886C53.1689 61.0613 52.3629 66.1931 51.0992 71.2216C51.0992 71.2216 51.0992 71.3288 51.0992 71.3958C51.9737 69.9885 54.5703 66.1285 54.7991 65.8604C58.0684 62.0003 66.6654 56.4783 71.9125 58.6228C72.7734 59.0056 73.5439 59.5643 74.1741 60.2628C74.8042 60.9613 75.28 61.784 75.5705 62.6775C75.861 63.5709 75.9597 64.5152 75.8603 65.4492C75.7609 66.3831 75.4656 67.2858 74.9934 68.0987C73.1099 71.6237 68.5086 73.4599 64.7684 73.9826C60.5573 74.6393 51.6374 72.1732 50.9243 71.9721C49.5183 77.0588 47.7744 82.0468 45.7042 86.9031C44.5068 89.7311 43.2152 92.5457 41.8833 95.3603C42.6905 94.1675 43.4036 93.1086 43.5247 92.9612C46.794 89.1145 55.4045 83.5791 60.6515 85.737C61.5051 86.1297 62.2666 86.6964 62.8869 87.4004C63.5071 88.1043 63.9723 88.93 64.2525 89.8242C64.5326 90.7183 64.6215 91.661 64.5134 92.5915C64.4053 93.522 64.1026 94.4195 63.6248 95.2263C61.7278 98.7513 57.1266 100.587 53.3864 101.124C49.6462 101.66 41.9506 99.7833 39.9325 99.207C39.4078 100.279 38.91 101.365 38.3853 102.437C35.8694 107.57 33.3266 112.677 30.9991 117.77C30.1784 119.566 29.4249 121.362 28.685 123.131C29.3846 122.072 30.0304 121.188 30.0304 121.067C33.3131 117.207 41.9102 111.685 47.1572 113.83C48.0332 114.205 48.8191 114.761 49.4628 115.462C50.1066 116.163 50.5934 116.992 50.8911 117.894C51.1888 118.796 51.2906 119.751 51.1896 120.696C51.0886 121.64 50.7872 122.553 50.3055 123.373C48.4084 126.884 43.8072 128.667 40.067 129.256C36.3268 129.846 29.3846 128.077 26.9763 127.447C26.2633 129.297 25.5502 131.173 24.9448 133.009C24.5546 134.269 24.0972 135.449 23.7743 136.749L22.7652 140.515C22.2136 142.941 21.6217 145.434 21.1373 147.806C20.801 149.468 20.4915 151.036 20.1821 152.631C20.9893 150.835 22.6173 147.35 22.7922 147.082C25.2619 143.381 28.6435 140.372 32.6135 138.344C32.8731 137.924 33.1655 137.525 33.488 137.151C34.0959 136.432 34.8486 135.849 35.6973 135.44C36.5459 135.03 37.4716 134.802 38.4143 134.772C39.3569 134.742 40.2954 134.909 41.1688 135.263C42.0423 135.618 42.8312 136.151 43.4843 136.829C47.3052 141.011 45.0046 150.942 42.4753 155.325C42.3273 155.58 40.3899 158.207 39.1521 159.842C40.0266 158.984 40.8742 158.153 41.8429 157.295C43.6323 155.566 45.4889 153.904 47.4667 152.108L50.4534 149.589C51.4356 148.717 52.5792 147.927 53.642 147.082C56.1714 145.193 58.8083 143.397 61.526 141.641C60.0057 140.059 54.7991 134.403 53.4537 130.838C52.1083 127.273 51.5432 122.408 53.7362 119.07C54.2271 118.269 54.8814 117.58 55.6567 117.047C56.432 116.514 57.311 116.149 58.2369 115.976C59.1628 115.803 60.1148 115.825 61.0314 116.042C61.9479 116.259 62.8086 116.665 63.5576 117.234C67.9705 120.799 67.217 130.972 65.3738 135.676C65.2662 135.971 63.571 139.201 62.6023 140.957C64.2437 139.912 65.8582 138.866 67.5534 137.861C72.4237 134.979 77.4555 132.205 82.4469 129.417L87.0212 126.83C86.4696 126.281 80.0656 119.687 78.626 115.693C77.2806 112.141 76.729 107.262 78.922 103.925C79.4128 103.124 80.0671 102.434 80.8424 101.901C81.6178 101.368 82.4968 101.003 83.4227 100.83C84.3485 100.657 85.3006 100.68 86.2171 100.897C87.1337 101.113 87.9943 101.519 88.7433 102.089C93.1562 105.654 92.3894 115.813 90.5596 120.518C90.4251 120.88 87.9765 125.517 87.2903 126.67C90.6404 124.766 94.0173 122.85 97.1521 120.813C101.482 118.09 105.63 115.09 109.57 111.833C109.314 111.578 102.587 104.716 101.121 100.628C99.8563 97.0759 99.224 92.1972 101.417 88.8599C101.908 88.0589 102.562 87.3696 103.337 86.8365C104.113 86.3035 104.992 85.9385 105.918 85.7654C106.844 85.5923 107.796 85.6149 108.712 85.8317C109.629 86.0484 110.489 86.4545 111.238 87.0237C115.651 90.5889 114.884 100.762 113.055 105.466C112.907 105.828 110.283 110.827 109.731 111.699L110.445 111.149C114.303 107.771 117.851 104.057 121.046 100.051C122.849 97.8667 124.437 95.682 125.943 93.5107C124.598 92.3581 118.288 87.0371 116.526 83.5121C114.763 79.9871 113.714 75.3363 115.53 71.7845C115.929 70.9349 116.502 70.1782 117.213 69.5633C117.924 68.9485 118.757 68.4891 119.657 68.215C120.558 67.9408 121.506 67.858 122.44 67.9719C123.375 68.0858 124.275 68.3938 125.082 68.8761C129.859 71.9319 130.222 82.1316 128.93 87.0103C128.85 87.2783 127.84 89.8919 127.06 91.7817C127.733 90.8033 128.406 89.7981 129.051 88.8331C131.365 85.2411 133.276 81.7965 134.931 78.7407C135.859 76.9983 136.666 75.4033 137.406 73.9022C136.639 72.066 133.639 64.6407 133.733 60.7807C133.827 56.9206 135.011 52.2296 138.267 49.9109C139.015 49.3382 139.875 48.9286 140.792 48.7085C141.709 48.4885 142.662 48.4629 143.589 48.6335C144.517 48.8042 145.398 49.1672 146.175 49.6989C146.953 50.2307 147.609 50.9194 148.102 51.7203C150.914 56.6258 146.528 65.847 143.111 69.573C142.815 69.8947 137.621 74.4115 137.581 74.3177C137.577 74.282 137.577 74.2461 137.581 74.2105C136.895 75.6714 136.155 77.2261 135.294 78.9149C133.706 82.0109 131.863 85.4957 129.616 89.1547C127.216 93.1166 124.584 96.9341 121.732 100.587C118.58 104.708 115.068 108.542 111.238 112.047L111.09 112.168C112.611 111.471 116.889 109.675 117.239 109.581C122.109 108.16 132.334 108.241 135.523 112.958C136.028 113.752 136.361 114.642 136.499 115.571C136.636 116.501 136.577 117.449 136.323 118.354C136.069 119.259 135.627 120.1 135.026 120.824C134.424 121.548 133.677 122.138 132.832 122.555C129.32 124.445 124.504 123.373 121.06 121.831Z" fill="#2BAE4A"/>
</svg>
