<svg width="118" height="123" viewBox="0 0 118 123" fill="none" xmlns="http://www.w3.org/2000/svg">
<path d="M101.583 1.18361H15.7195C11.8644 1.18361 8.1672 2.71505 5.44125 5.441C2.7153 8.16694 1.18387 11.8641 1.18387 15.7192V73.9088C1.18387 77.7639 2.7153 81.461 5.44125 84.187C8.1672 86.9129 11.8644 88.4444 15.7195 88.4444H66.1441L89.2021 120.924V88.4444H101.583C103.494 88.4475 105.387 88.0738 107.153 87.3447C108.92 86.6156 110.525 85.5454 111.877 84.1954C113.229 82.8453 114.302 81.2419 115.034 79.4768C115.766 77.7117 116.143 75.8196 116.143 73.9088V15.7192C116.143 13.8083 115.766 11.9163 115.034 10.1512C114.302 8.3861 113.229 6.78268 111.877 5.43262C110.525 4.08255 108.92 3.01236 107.153 2.28327C105.387 1.55418 103.494 1.1805 101.583 1.18361Z" fill="#11405A"/>
<path d="M89.202 122.108C89.3193 122.131 89.4398 122.131 89.5571 122.108C89.7967 122.037 90.0067 121.89 90.156 121.689C90.3054 121.489 90.3859 121.246 90.3856 120.996V89.5571H101.583C105.754 89.5571 109.755 87.9017 112.707 84.9545C115.659 82.0072 117.32 78.009 117.326 73.8378V15.7192C117.32 11.5481 115.659 7.54986 112.707 4.60261C109.755 1.65536 105.754 -4.71612e-06 101.583 0H15.7193C11.5522 0.00626159 7.55754 1.66442 4.61097 4.61099C1.66439 7.55756 0.00627136 11.5522 7.62939e-06 15.7192V73.9089C0.00627136 78.0759 1.66439 82.0705 4.61097 85.0171C7.55754 87.9637 11.5522 89.6218 15.7193 89.6281H65.4338L88.1367 121.611C88.2587 121.776 88.4201 121.908 88.6062 121.995C88.7922 122.082 88.997 122.121 89.202 122.108ZM101.583 2.36736C105.127 2.36735 108.525 3.7733 111.033 6.27659C113.541 8.77987 114.953 12.1759 114.959 15.7192V73.9089C114.953 77.4522 113.541 80.8482 111.033 83.3515C108.525 85.8548 105.127 87.2607 101.583 87.2607H89.202C88.888 87.2607 88.587 87.3855 88.365 87.6075C88.143 87.8294 88.0183 88.1305 88.0183 88.4444V117.208L67.0909 87.7579C66.9845 87.6051 66.8429 87.4802 66.6781 87.3937C66.5133 87.3072 66.3301 87.2616 66.1439 87.2607H15.7193C12.1801 87.2545 8.78759 85.8458 6.28498 83.3432C3.78237 80.8406 2.37363 77.4481 2.36737 73.9089V15.7192C2.37363 12.18 3.78237 8.78758 6.28498 6.28497C8.78759 3.78236 12.1801 2.37361 15.7193 2.36736H101.583Z" fill="#11405A"/>
<path d="M53.2439 74.0037H52.9599C51.6816 73.951 50.4329 73.6029 49.3116 72.9868C48.1903 72.3708 47.2269 71.5034 46.497 70.4527L30.8961 48.0812C30.2315 47.191 29.7527 46.1763 29.4882 45.0974C29.2236 44.0184 29.1787 42.8973 29.3562 41.8006C29.5336 40.704 29.9298 39.6542 30.5211 38.7138C31.1125 37.7733 31.8868 36.9614 32.7983 36.3262C33.7097 35.6911 34.7396 35.2457 35.8266 35.0166C36.9136 34.7875 38.0356 34.7793 39.1259 34.9925C40.2161 35.2057 41.2524 35.636 42.173 36.2578C43.0936 36.8795 43.8798 37.6801 44.4848 38.6118L53.9542 52.0347L86.7657 12.1447C88.1744 10.4944 90.1742 9.4625 92.3355 9.27073C94.4968 9.07896 96.6471 9.74262 98.3243 11.1191C100.002 12.4957 101.072 14.4752 101.305 16.6324C101.539 18.7896 100.917 20.9523 99.5731 22.6558L59.8252 70.9972C59.0259 71.9621 58.0187 72.7337 56.879 73.2544C55.7393 73.775 54.4966 74.0312 53.2439 74.0037Z" fill="#2BAE4A"/>
<path d="M92.9917 9.06676C94.9121 9.05865 96.7735 9.72945 98.2473 10.9606C99.0899 11.6481 99.7884 12.4951 100.303 13.4532C100.817 14.4112 101.138 15.4614 101.246 16.5435C101.353 17.6256 101.246 18.7183 100.931 19.759C100.616 20.7997 100.098 21.7679 99.4072 22.608L59.6593 70.9494C58.8799 71.8968 57.9005 72.6598 56.7913 73.1837C55.6821 73.7076 54.4705 73.9795 53.2438 73.9797H52.9597C51.6814 73.9269 50.4327 73.5788 49.3115 72.9628C48.1902 72.3467 47.2268 71.4793 46.4968 70.4286L30.896 48.0571C30.2313 47.1669 29.7526 46.1522 29.488 45.0732C29.2235 43.9943 29.1786 42.8732 29.356 41.7766C29.5335 40.6799 29.9297 39.6301 30.521 38.6897C31.1123 37.7492 31.8867 36.9373 32.7981 36.3022C33.7096 35.667 34.7394 35.2216 35.8265 34.9925C36.9135 34.7634 38.0355 34.7552 39.1257 34.9684C40.216 35.1816 41.2522 35.6119 42.1728 36.2337C43.0934 36.8554 43.8796 37.656 44.4846 38.5877L53.9541 52.0106L86.7656 12.1206C87.5368 11.17 88.5114 10.4044 89.6176 9.87999C90.7237 9.3556 91.9333 9.08577 93.1575 9.09042M93.1575 4.3557C91.2343 4.34982 89.3339 4.77159 87.5938 5.59046C85.8537 6.40933 84.3175 7.60481 83.0962 9.09042L54.2617 44.151L48.4854 35.8652C46.4249 33.2646 43.4494 31.5487 40.1664 31.068C36.8835 30.5873 33.5408 31.3781 30.8213 33.2788C28.1017 35.1795 26.2102 38.0467 25.5334 41.2949C24.8565 44.5431 25.4452 47.9271 27.1792 50.7559L42.7801 73.1511C43.9342 74.7939 45.45 76.1498 47.2108 77.1143C48.9716 78.0788 50.9303 78.6263 52.936 78.7144H53.4569C55.3794 78.7169 57.2788 78.2937 59.0183 77.4751C60.7579 76.6565 62.2947 75.4627 63.5181 73.9797L103.053 25.6382C104.625 23.7323 105.623 21.4184 105.929 18.9667C106.236 16.515 105.838 14.0268 104.783 11.7927C103.728 9.5585 102.059 7.67062 99.9711 6.34955C97.8832 5.02847 95.4625 4.32874 92.9917 4.33204L93.1575 4.3557Z" fill="#11405A"/>
</svg>
