<svg width="192" height="681" viewBox="0 0 192 681" fill="none" xmlns="http://www.w3.org/2000/svg">
<path d="M148.719 270.497C148.719 270.497 156.507 312.967 157.691 325.538C158.874 338.108 160.058 389.243 151.11 423.925C145.76 444.751 138.362 464.996 129.022 484.364C129.022 484.364 123.056 508.889 119.553 515.471C116.049 522.052 86.0546 572.903 86.0546 572.903C86.0546 572.903 87.8538 593.83 89.0374 597.428C90.2211 601.027 94.4351 623.138 93.2277 629.719C92.0204 636.3 90.2448 640.491 92.044 648.871C93.8432 657.251 96.2342 665.608 92.044 672.805C87.8538 680.002 77.6741 680.57 74.6913 676.38C72.0092 672.94 70.0449 668.997 68.9144 664.784C67.7839 660.571 67.5104 656.174 68.11 651.854C69.9092 640.017 75.8986 624.345 74.6913 617.764C73.4727 612.589 71.6699 607.57 69.3174 602.802C69.3174 602.802 46.5671 649.463 45.3835 653.061C44.1998 656.66 41.7851 671.598 40.6487 676.38C39.5124 681.162 32.8601 674.581 30.4691 671.645C28.078 668.71 19.1058 656.092 20.9996 647.711C22.8935 639.331 28.1017 624.393 28.1017 624.393L19.1768 636.229C19.0023 636.506 18.7318 636.709 18.4171 636.798C18.1024 636.887 17.7658 636.857 17.4721 636.713C17.1784 636.569 16.9482 636.321 16.8259 636.018C16.7035 635.715 16.6977 635.377 16.8094 635.069C18.4903 629.317 20.7629 621.694 21.5442 620.25C22.7515 617.882 23.3434 610.07 28.1254 603.513C32.9075 596.955 46.0699 602.897 46.0699 602.897L56.2496 570.606C56.2496 570.606 37.6895 509.6 41.2879 489.24C44.8863 468.881 46.6618 453.967 45.4781 449.776C44.2944 445.586 21.5442 382.473 21.5442 369.286C21.5442 356.1 20.9523 324.425 28.1254 307.072C33.0076 295.575 38.6055 284.395 44.8863 273.598L148.719 270.497Z" fill="white"/>
<path d="M80.8698 680.191H81.4853C83.7988 680.08 86.0501 679.405 88.043 678.225C90.036 677.045 91.7102 675.396 92.9196 673.421C96.9678 666.461 95.287 658.506 93.5352 650.812L93.0617 648.634C91.9624 643.697 92.1088 638.563 93.4878 633.696C93.7482 632.513 94.0086 631.329 94.269 629.956C95.5001 623.09 91.2388 600.719 90.0315 597.073C88.6628 589.173 87.691 581.208 87.1196 573.21C89.7 568.831 117.043 522.312 120.452 516.062C123.861 509.813 129.566 486.968 130.087 484.813C139.425 465.435 146.854 445.193 152.269 424.375C161.076 390.261 160.176 339.292 158.874 325.561C157.69 313.085 149.973 270.852 149.878 270.425L149.712 269.431H148.695L43.9627 272.438L43.6313 273.006C37.3342 283.862 31.713 295.097 26.7994 306.646C20.0051 323.075 20.0761 352.383 20.1234 366.469V369.31C20.1234 380.2 35.0851 423.759 41.4296 442.272C42.8501 446.367 43.797 449.374 44.0811 450.108C44.6966 452.238 44.957 460.169 39.8672 489.051C36.3635 508.842 53.077 565.09 54.7342 570.606L45.0754 601.382C41.5244 600.009 31.3447 596.789 26.9177 602.873C24.1336 607.017 22.1874 611.665 21.1888 616.557C20.9539 617.662 20.6292 618.747 20.2182 619.8C19.6263 621.007 18.0165 626.05 15.4834 634.809C15.3108 635.37 15.3425 635.975 15.5731 636.515C15.8036 637.055 16.2181 637.497 16.7429 637.76C17.2677 638.024 17.869 638.094 18.4402 637.956C19.0113 637.819 19.5154 637.484 19.8631 637.011L24.3373 631.116C22.6565 636.158 20.5496 642.953 19.6026 647.687C17.4957 657.559 28.93 672 29.4035 672.592C29.877 673.184 35.6533 680.262 39.37 679.457C39.9764 679.328 40.5285 679.016 40.9518 678.563C41.3751 678.11 41.6493 677.538 41.7374 676.924C42.2582 674.841 42.9921 670.911 43.7733 666.745C44.7439 661.536 45.8566 655.665 46.4958 653.7C47.3954 651.025 61.2207 622.404 69.2934 605.809C71.1575 609.784 72.5786 613.952 73.531 618.237C74.1938 621.907 72.371 628.985 70.4297 636.49C69.0017 641.579 67.8401 646.739 66.9497 651.949C66.3131 656.417 66.5846 660.967 67.748 665.328C68.9114 669.688 70.9427 673.77 73.7204 677.327C74.6162 678.316 75.7255 679.088 76.9643 679.584C78.2031 680.081 79.5388 680.288 80.8698 680.191ZM147.748 271.727C148.931 278.214 155.441 314.34 156.507 325.68C157.809 339.292 158.708 389.835 149.973 423.664C144.602 444.393 137.22 464.548 127.933 483.843V484.079C127.933 484.34 121.943 508.534 118.463 514.855C114.983 521.176 85.3204 571.672 84.989 572.263L84.7996 572.571V572.95C84.7996 573.826 86.6224 594.067 87.8535 597.76C89.0845 601.453 93.1563 623.067 91.9963 629.459C91.7596 630.761 91.4992 631.968 91.2625 633.128C89.8063 638.321 89.6518 643.793 90.8126 649.06L91.2861 651.238C92.967 658.838 94.5295 665.987 90.9548 672.142C89.958 673.783 88.5728 675.153 86.9213 676.131C85.2699 677.11 83.403 677.667 81.4853 677.753C80.4095 677.898 79.3145 677.782 78.2927 677.416C77.2709 677.049 76.3523 676.442 75.6143 675.646C73.0089 672.334 71.0997 668.53 70.0013 664.462C68.9029 660.394 68.6379 656.145 69.2224 651.972C69.9563 647.238 71.3294 641.887 72.6551 636.75C74.6673 628.985 76.5612 621.67 75.8036 617.48C74.5864 612.19 72.7427 607.064 70.3114 602.21L69.2461 600.056L68.2044 602.21C67.2575 604.128 45.4068 648.989 44.1995 652.611C43.5129 654.718 42.4476 660.447 41.4059 665.987C40.6247 670.106 39.9146 673.989 39.3937 676.025C39.2754 676.498 39.1096 676.758 38.9202 676.806C37.6656 677.066 34.0435 674.202 31.2974 670.793C27.4149 665.916 20.4549 654.884 21.97 647.853C23.7218 639.638 29.072 624.819 29.072 624.677L31.6998 617.385L18.0875 635.353L16.7144 634.904L17.8508 635.235C21.1414 623.943 22.1357 621.22 22.4435 620.605C22.9438 619.406 23.3244 618.161 23.5798 616.888C24.5139 612.297 26.331 607.931 28.93 604.033C33.0729 598.304 45.2884 603.749 45.5015 603.82L46.7089 604.365L57.3856 570.441V570.085C57.1962 569.494 38.9439 509.126 42.4476 489.288C46.4011 466.916 47.7978 453.446 46.6142 449.279C46.3774 448.474 45.4068 445.634 43.939 441.349C38.139 424.469 22.6328 379.632 22.6328 369.144V366.303C22.6328 352.383 22.5144 323.383 29.1194 307.404C33.8942 296.149 39.3574 285.199 45.4778 274.616L147.748 271.727Z" fill="#11405A"/>
<path d="M47.9853 595.937L56.0106 570.512C56.0106 570.512 37.4505 509.505 41.0489 489.146C44.6473 468.786 46.4228 453.872 45.2391 449.682C44.0554 445.492 23.4121 382.212 21.3052 369.192C17.5698 348.249 19.8519 326.676 27.8864 306.978C32.7686 295.48 38.3665 284.3 44.6473 273.503L148.811 270.497C148.811 270.497 156.6 312.967 157.783 325.538C158.967 338.108 160.151 389.243 151.202 423.925C145.822 444.754 138.392 464.999 129.02 484.364C129.02 484.364 123.054 508.889 119.55 515.471C116.047 522.052 86.0524 572.903 86.0524 572.903C86.0524 572.903 87.094 584.929 88.112 592.315C83.9746 595.329 79.1636 597.288 74.0972 598.02L69.3625 602.755C69.3625 602.755 55.6318 608.792 47.9853 595.937Z" fill="#11405A"/>
<path d="M61.8836 605.359C64.5399 605.348 67.1717 604.851 69.6486 603.891L70.0036 603.655L74.4779 599.156C79.6073 598.34 84.4728 596.328 88.682 593.285L89.3213 592.883L89.2029 592.149C88.3033 585.615 87.38 575.27 87.1906 573.21C89.771 568.831 117.114 522.312 120.523 516.062C123.932 509.813 129.637 486.968 130.158 484.813C139.472 465.432 146.877 445.19 152.269 424.375C161.076 390.261 160.176 339.292 158.874 325.561C157.69 313.085 149.973 270.852 149.878 270.425L149.712 269.431H148.695L43.9627 272.438L43.6313 273.006C37.3342 283.862 31.713 295.097 26.7994 306.646C18.723 326.523 16.4093 348.273 20.1234 369.405C21.8043 379.845 34.9431 421.131 41.2403 440.993C42.7791 445.847 43.8443 449.161 44.0811 450.013C44.6966 452.144 44.957 460.074 39.8672 488.956C36.3635 508.747 53.077 564.996 54.7342 570.512L46.6852 596.103L46.9455 596.552C48.3793 599.257 50.534 601.511 53.1708 603.066C55.8075 604.62 58.8233 605.414 61.8836 605.359ZM68.4885 601.808C66.8314 602.471 55.8705 606.33 49.2893 595.795L57.2436 570.512V570.156C57.0542 569.565 38.8019 509.197 42.3055 489.359C46.259 466.987 47.6558 453.517 46.4721 449.35C46.2354 448.498 45.1701 445.16 43.6076 440.283C37.8076 422.031 24.2426 379.276 22.5618 369.026C18.9032 348.305 21.1595 326.972 29.072 307.475C33.8416 296.218 39.3049 285.267 45.4305 274.687L147.842 271.727C149.026 278.214 155.536 314.34 156.601 325.68C157.904 339.292 158.803 389.835 150.068 423.664C144.696 444.393 137.315 464.548 128.027 483.843V484.079C128.027 484.34 122.038 508.534 118.558 514.855C115.078 521.176 85.4151 571.672 85.0837 572.263L84.8943 572.571V572.95C84.8943 573.068 85.8886 584.313 86.8592 591.676C83.0542 594.385 78.6533 596.138 74.0281 596.789H73.602L68.4885 601.808Z" fill="#11405A"/>
<path d="M63.4447 546.625C63.7049 546.628 63.9584 546.543 64.1645 546.384C64.3706 546.225 64.5173 546.001 64.581 545.749C67.3035 535.285 71.0202 521.2 73.2929 513.411C77.4121 499.207 90.4799 463.01 90.6219 462.631C90.6333 462.537 90.6333 462.442 90.6219 462.347L101.346 353.757L121.208 340.902C121.472 340.732 121.657 340.465 121.723 340.158C121.79 339.852 121.732 339.532 121.563 339.268C121.385 339.008 121.114 338.826 120.806 338.76C120.497 338.694 120.175 338.749 119.906 338.913L99.5705 352.076C99.424 352.174 99.3012 352.303 99.211 352.455C99.1209 352.606 99.0658 352.776 99.0497 352.952L88.3019 461.968C87.4023 464.454 74.9974 498.97 70.9729 512.748C68.6056 520.56 64.9834 534.67 62.261 545.157C62.1811 545.459 62.2234 545.779 62.3785 546.05C62.5337 546.32 62.7891 546.518 63.0896 546.601L63.4447 546.625Z" fill="white"/>
<path d="M58.9968 563.907C59.2591 563.907 59.5141 563.821 59.7234 563.663C59.9327 563.505 60.0848 563.283 60.1568 563.031C60.1568 563.031 61.0327 559.527 62.3821 554.272C62.4606 553.958 62.4111 553.626 62.2446 553.348C62.0782 553.071 61.8083 552.871 61.4944 552.792C61.1804 552.714 60.8482 552.763 60.5707 552.93C60.2932 553.096 60.0933 553.366 60.0148 553.68C58.6654 558.936 57.7894 562.439 57.7894 562.439C57.7503 562.59 57.7413 562.747 57.763 562.901C57.7847 563.056 57.8366 563.204 57.9157 563.338C57.9949 563.472 58.0998 563.59 58.2244 563.683C58.3489 563.777 58.4907 563.845 58.6417 563.883L58.9968 563.907Z" fill="white"/>
<path d="M94.2932 356.645H94.672C94.8202 356.594 94.9569 356.515 95.0742 356.411C95.1915 356.307 95.2871 356.181 95.3553 356.041C95.4236 355.9 95.4632 355.747 95.4719 355.59C95.4805 355.434 95.4581 355.277 95.4059 355.13C93.0385 348.335 88.0908 338.748 80.3732 326.721C80.3011 326.571 80.1979 326.437 80.0704 326.329C79.9429 326.221 79.794 326.141 79.6335 326.095C79.473 326.049 79.3045 326.037 79.1391 326.061C78.9737 326.084 78.8152 326.142 78.6739 326.231C78.5326 326.321 78.4118 326.439 78.3194 326.578C78.227 326.717 78.1651 326.874 78.1378 327.039C78.1105 327.204 78.1183 327.372 78.1609 327.534C78.2034 327.696 78.2796 327.846 78.3846 327.976C84.3209 336.733 89.275 346.117 93.1569 355.958C93.256 356.173 93.4172 356.354 93.6198 356.476C93.8223 356.598 94.0569 356.657 94.2932 356.645Z" fill="white"/>
<path d="M74.3846 320.803C74.6227 320.805 74.855 320.73 75.0475 320.59C75.307 320.416 75.4874 320.147 75.5495 319.841C75.6115 319.535 75.5502 319.217 75.3789 318.956C71.9936 313.938 69.5552 310.552 69.5315 310.505C69.3463 310.251 69.0677 310.08 68.7569 310.031C68.4461 309.983 68.1287 310.059 67.8744 310.245C67.6201 310.43 67.4498 310.708 67.401 311.019C67.3521 311.33 67.4287 311.647 67.614 311.902C67.614 311.902 69.9813 315.287 73.414 320.282C73.5215 320.441 73.6659 320.572 73.835 320.662C74.0041 320.753 74.1927 320.801 74.3846 320.803Z" fill="white"/>
<path d="M21.3086 620.155C22.516 617.788 23.1078 609.975 27.8899 603.418C28.6 602.505 29.5029 601.76 30.5342 601.236C31.5654 600.712 32.6995 600.423 33.8556 600.388C29.7837 610.686 33.5715 618.924 31.4882 626.736C29.1209 635.709 27.2981 643.474 30.8728 650.055C34.4475 656.636 43.4434 660.234 43.4434 660.234H43.6092C42.4965 666.011 41.2418 673.279 40.4605 676.356C39.2532 681.091 32.672 674.557 30.2809 671.621C27.8899 668.686 18.9176 656.068 20.8115 647.687C22.7054 639.307 27.9136 624.369 27.9136 624.369L17.5445 638.052C17.4207 638.211 17.2459 638.322 17.0497 638.367C16.8534 638.412 16.6477 638.388 16.4671 638.299C16.2864 638.21 16.1419 638.062 16.0579 637.879C15.9739 637.696 15.9555 637.49 16.0058 637.295C17.7576 631.471 20.4801 621.812 21.3086 620.155Z" fill="#11405A"/>
<path d="M38.6825 679.268C38.8949 679.291 39.1092 679.291 39.3217 679.268C39.928 679.139 40.4801 678.826 40.9034 678.374C41.3267 677.921 41.6009 677.349 41.689 676.735C42.2098 674.652 42.9437 670.722 43.725 666.579C44.1037 664.543 44.4826 662.46 44.8613 660.566L45.098 659.382L43.9143 659.169C43.9143 659.169 35.3445 655.689 32.0775 649.558C28.8106 643.426 30.3021 636.443 32.7878 627.115C33.5357 623.624 33.7275 620.037 33.3559 616.486C32.7442 611.226 33.3518 605.896 35.1315 600.909L35.8417 599.109L33.9241 599.275C32.5994 599.319 31.301 599.656 30.1221 600.262C28.9433 600.868 27.9133 601.727 27.1062 602.779C24.322 606.922 22.3757 611.571 21.3771 616.462C21.1422 617.568 20.8176 618.652 20.4065 619.705C19.7673 621.031 18.0391 626.807 15.0089 637.011C14.8813 637.472 14.9182 637.963 15.1132 638.4C15.3082 638.837 15.6492 639.192 16.0777 639.405C16.5061 639.618 16.9953 639.675 17.4612 639.566C17.9271 639.458 18.3407 639.19 18.631 638.81L24.5257 631.021C22.8449 636.064 20.7379 642.858 19.791 647.593C17.684 657.465 29.1184 671.906 29.5919 672.497C30.0653 673.089 35.0131 679.268 38.6825 679.268ZM42.2572 661.11C41.9495 662.744 41.6181 664.472 41.3103 666.177C40.5291 670.272 39.8188 674.178 39.298 676.19C39.1797 676.664 39.0139 676.924 38.8245 676.972C37.5698 677.232 33.9478 674.368 31.2016 670.959C27.3192 666.082 20.3591 655.05 21.8743 648.019C23.6261 639.804 28.9763 624.985 28.9763 624.843L30.9176 619.421C31.0625 621.806 30.855 624.199 30.302 626.523C27.769 635.993 26.1119 643.923 29.8286 650.718C33.0245 656.376 39.9609 659.974 42.2572 661.11ZM30.9176 618.498L17.613 636.04C20.0988 627.399 21.8269 621.836 22.3477 620.771C22.8481 619.572 23.2288 618.327 23.4841 617.054C24.4182 612.463 26.2353 608.097 28.8343 604.199C29.5842 603.105 30.6876 602.303 31.9592 601.927C30.6517 606.678 30.2344 611.63 30.7282 616.533C30.8703 617.149 30.8939 617.788 30.9176 618.498Z" fill="#11405A"/>
<path d="M67.8244 653.156C68.7003 655.997 69.8367 659.501 70.9494 662.625C73.3167 669.207 81.129 669.728 86.5029 663.833C89.883 659.566 91.7781 654.313 91.9005 648.871C93.6997 657.252 96.0907 665.608 91.9005 672.805C87.7102 680.002 77.5306 680.57 74.5477 676.38C69.4279 669.779 67.0229 661.471 67.8244 653.156Z" fill="#11405A"/>
<path d="M80.8678 680.191H81.4833C83.7968 680.081 86.048 679.406 88.041 678.226C90.0339 677.045 91.7081 675.396 92.9176 673.421C96.9658 666.461 95.285 658.506 93.5331 650.812L90.7396 637.839V648.895C90.6188 654.055 88.8335 659.037 85.6498 663.099C84.6431 664.408 83.3117 665.431 81.7877 666.066C80.2636 666.701 78.5999 666.927 76.9616 666.721C75.8305 666.479 74.7836 665.942 73.9271 665.164C73.0706 664.387 72.4351 663.397 72.0849 662.294C71.1379 659.69 70.0963 656.518 68.96 652.825L67.2792 647.38L66.6636 653.061C65.8215 661.663 68.3033 670.261 73.6 677.09C74.4849 678.139 75.6033 678.966 76.8654 679.504C78.1275 680.043 79.4983 680.278 80.8678 680.191ZM92.1127 655.5C93.2964 661.513 93.7935 667.195 90.8817 672.19C89.885 673.83 88.4997 675.2 86.8483 676.179C85.1968 677.157 83.3299 677.714 81.4123 677.8C80.3364 677.945 79.2414 677.83 78.2197 677.463C77.1979 677.096 76.2792 676.49 75.5412 675.693C72.2886 671.39 70.1059 666.376 69.173 661.063L69.8596 663.028C70.3498 664.515 71.2225 665.847 72.3901 666.89C73.5578 667.933 74.9792 668.65 76.5118 668.97C78.5527 669.257 80.6331 669.006 82.5473 668.242C84.4614 667.478 86.1428 666.227 87.4253 664.614C89.6691 661.978 91.2734 658.858 92.1127 655.5Z" fill="#11405A"/>
<path d="M157.642 123.413C157.642 123.413 166.733 126.585 166.354 127.769C165.976 128.952 180.866 203.524 180.866 203.524C180.866 203.524 191.448 230.985 190.336 240.786C189.223 250.587 180.866 262.353 171.515 262.353C168.482 262.417 165.49 261.648 162.864 260.128C160.238 258.609 158.08 256.397 156.625 253.736C154.66 250.99 147.984 238.04 147.984 238.04C147.984 238.04 150.351 262.755 151.132 265.099C151.913 267.443 155.867 273.716 153.878 275.681C150.859 278.243 147.403 280.24 143.675 281.576C123.951 285.642 103.814 287.351 83.6863 286.666C57.0062 285.103 40.9318 278.048 40.9318 278.048C40.0502 275.11 38.9989 272.225 37.7832 269.408C37.002 268.224 35.4158 266.283 35.4158 266.283C35.4158 266.283 10.3219 263.537 8.75946 261.95C7.19701 260.364 2.86472 253.736 3.26717 243.13C3.66962 232.524 -0.26022 140.789 1.68102 138.824C5.2123 136.317 8.94135 134.1 12.8313 132.196L58.2608 106.794L126.015 115.695L157.642 123.413Z" fill="#2BAE4A"/>
<path d="M93.0378 288.039C110.138 287.878 127.182 286.07 143.936 282.642C147.85 281.252 151.476 279.158 154.636 276.463C156.696 274.403 154.636 270.237 153.169 266.993C152.795 266.222 152.463 265.432 152.174 264.626C151.748 263.3 150.612 253.002 149.807 243.888C151.89 247.818 154.542 252.695 155.702 254.328L156.057 254.825C157.633 257.518 159.904 259.739 162.631 261.255C165.359 262.771 168.444 263.526 171.563 263.442C181.459 263.442 190.289 251.605 191.567 240.834C192.775 230.844 182.524 204.14 182.098 202.956C176.44 174.548 167.894 131.202 167.681 127.887C167.941 126.964 167.681 125.52 158.211 122.229H158.093L126.418 114.441L58.5455 105.54C58.2918 105.499 58.0318 105.549 57.8116 105.682L12.382 131.06C8.38637 133.003 4.56827 135.293 0.971375 137.901C-0.235977 139.109 -0.354385 148.72 1.37379 206.436C1.89461 223.955 2.34442 239.106 2.20238 242.988C1.77625 253.973 6.27428 260.933 8.02612 262.708C9.77797 264.484 25.3315 266.236 34.9193 267.301C35.3927 267.917 36.3633 269.148 36.9078 269.976C38.0668 272.692 39.0629 275.475 39.8907 278.309C39.9473 278.466 40.0352 278.61 40.1491 278.733C40.2631 278.855 40.4007 278.952 40.5536 279.019C41.2164 279.327 57.125 286.122 83.7104 287.755C86.6696 287.968 89.8419 288.039 93.0378 288.039ZM147.961 236.786H147.629C147.365 236.866 147.136 237.034 146.981 237.263C146.826 237.491 146.754 237.766 146.777 238.041C147.037 240.574 149.144 262.945 149.973 265.36C150.21 265.999 150.612 266.875 151.062 267.869C151.914 269.645 153.903 273.859 153.003 274.735C150.13 277.152 146.852 279.044 143.321 280.322C123.72 284.358 103.71 286.051 83.7104 285.364C69.4143 284.747 55.298 281.936 41.8556 277.031C41.0209 274.16 39.9846 271.352 38.7544 268.627C37.9495 267.443 36.387 265.502 36.387 265.407C36.2895 265.285 36.1676 265.183 36.0291 265.11C35.8906 265.037 35.7384 264.993 35.5821 264.981C23.8874 263.703 10.9616 261.832 9.5412 260.957C8.14445 259.56 4.09631 253.144 4.4751 243.059C4.61713 239.082 4.16731 223.907 3.6465 206.342C2.88895 181.082 1.75262 143.086 2.69957 139.393C6.10643 137.04 9.68303 134.943 13.4 133.119L58.5218 107.907L125.873 116.737L157.383 124.502C160.139 125.376 162.79 126.551 165.29 128.006C165.526 130.373 167.444 141.973 179.778 203.643C179.943 204.116 190.289 231.128 189.247 240.526C188.206 249.925 180.133 261.051 171.587 261.051C168.85 261.131 166.142 260.466 163.753 259.128C161.364 257.789 159.383 255.828 158.022 253.452L157.643 252.908C155.773 250.28 149.168 237.496 149.12 237.378C149.006 237.176 148.835 237.013 148.629 236.908C148.423 236.803 148.191 236.76 147.961 236.786ZM165.266 127.414C165.237 127.594 165.237 127.778 165.266 127.958C165.191 127.787 165.174 127.596 165.219 127.414H165.266Z" fill="#11405A"/>
<path d="M147.961 167.825C149.949 158.521 158.022 143.654 158.093 143.488L156.01 142.375C155.678 142.991 147.7 157.692 145.641 167.327L147.961 167.825Z" fill="#11405A"/>
<path d="M159.795 217.563C159.982 217.561 160.166 217.518 160.334 217.436C160.502 217.354 160.65 217.235 160.766 217.089C164.506 211.857 174.662 210.508 174.781 210.484C174.936 210.464 175.086 210.413 175.222 210.335C175.358 210.257 175.477 210.153 175.573 210.029C175.668 209.905 175.738 209.763 175.779 209.611C175.82 209.46 175.831 209.302 175.811 209.147C175.79 208.991 175.74 208.841 175.661 208.705C175.583 208.57 175.479 208.45 175.355 208.355C175.231 208.259 175.089 208.189 174.938 208.148C174.786 208.107 174.628 208.097 174.473 208.117C174.023 208.117 163.181 209.608 158.825 215.669C158.734 215.796 158.669 215.94 158.634 216.092C158.599 216.245 158.595 216.402 158.621 216.557C158.648 216.711 158.704 216.858 158.788 216.99C158.872 217.122 158.981 217.236 159.109 217.326C159.309 217.472 159.548 217.555 159.795 217.563Z" fill="#11405A"/>
<path d="M156.72 215.053C156.949 215.056 157.173 214.993 157.366 214.871C157.56 214.749 157.713 214.574 157.809 214.367C159.349 212.34 161.355 210.716 163.657 209.632C163.936 209.488 164.147 209.238 164.242 208.938C164.338 208.639 164.31 208.313 164.166 208.034C164.021 207.755 163.772 207.544 163.472 207.449C163.172 207.353 162.847 207.381 162.568 207.525C161.976 207.833 156.91 210.531 155.631 213.349C155.51 213.635 155.503 213.958 155.613 214.249C155.724 214.54 155.942 214.777 156.223 214.911C156.377 214.993 156.546 215.042 156.72 215.053Z" fill="#11405A"/>
<path d="M147.961 239.153C148.094 239.176 148.23 239.176 148.363 239.153C148.511 239.103 148.648 239.023 148.764 238.919C148.881 238.815 148.975 238.688 149.041 238.547C149.108 238.405 149.145 238.252 149.15 238.096C149.156 237.94 149.13 237.784 149.073 237.638L146.895 231.436L153.264 218.344L157.762 219.93C157.935 220 158.123 220.025 158.309 220.005C158.495 219.984 158.673 219.918 158.827 219.812C158.827 219.812 167.918 213.822 174.025 214.888C180.133 215.953 184.134 223.978 184.158 224.049C184.296 224.332 184.541 224.548 184.838 224.65C185.135 224.752 185.461 224.732 185.744 224.594C186.026 224.456 186.242 224.211 186.345 223.914C186.447 223.616 186.426 223.29 186.288 223.008C186.099 222.629 181.554 213.822 174.452 212.568C168.225 211.455 160.129 216.19 158.022 217.515L153.074 215.74C152.797 215.647 152.495 215.658 152.225 215.772C151.955 215.885 151.735 216.092 151.607 216.356L144.504 230.844C144.44 230.989 144.406 231.146 144.406 231.305C144.406 231.464 144.44 231.622 144.504 231.767L146.872 238.443C146.967 238.653 147.12 238.831 147.313 238.957C147.506 239.083 147.73 239.151 147.961 239.153Z" fill="#11405A"/>
<path d="M27.3673 166.617C27.5153 166.65 27.669 166.65 27.8171 166.617C28.1066 166.492 28.3357 166.258 28.4551 165.966C28.5746 165.674 28.575 165.347 28.4562 165.055C26.586 160.699 20.6913 147.347 20.6913 147.347L18.5134 148.317C18.5134 148.317 24.4081 161.646 26.2783 166.001C26.382 166.197 26.5397 166.359 26.7327 166.469C26.9257 166.578 27.1459 166.629 27.3673 166.617Z" fill="#11405A"/>
<path d="M35.3674 267.396C35.6686 267.394 35.9572 267.275 36.1723 267.064L58.9937 245.521C59.1046 245.411 59.1926 245.28 59.2527 245.136C59.3128 244.992 59.3438 244.837 59.3438 244.681C59.3438 244.525 59.3128 244.37 59.2527 244.226C59.1926 244.081 59.1046 243.95 58.9937 243.84C58.8857 243.73 58.7567 243.643 58.6144 243.583C58.4722 243.523 58.3194 243.492 58.1651 243.492C58.0107 243.492 57.858 243.523 57.7157 243.583C57.5734 243.643 57.4445 243.73 57.3365 243.84L34.5151 265.383C34.3378 265.544 34.2135 265.756 34.1588 265.989C34.1041 266.222 34.1216 266.467 34.2088 266.69C34.2961 266.913 34.449 267.105 34.6474 267.239C34.8458 267.374 35.0804 267.445 35.3201 267.443L35.3674 267.396Z" fill="#11405A"/>
<path d="M44.32 264.2C44.499 264.242 44.6854 264.242 44.8645 264.2L67.7094 252.363C67.9888 252.218 68.1994 251.969 68.2949 251.669C68.3903 251.37 68.3628 251.044 68.2184 250.765C68.074 250.486 67.8245 250.275 67.5249 250.179C67.2252 250.084 66.8999 250.112 66.6205 250.256L43.7754 262.093C43.5449 262.217 43.3621 262.415 43.2557 262.654C43.1493 262.893 43.1254 263.161 43.1876 263.416C43.2499 263.67 43.3949 263.897 43.5998 264.06C43.8047 264.223 44.058 264.314 44.32 264.318V264.2Z" fill="#11405A"/>
<path d="M132.504 283.802C132.796 283.802 133.077 283.693 133.292 283.496C133.507 283.298 133.64 283.027 133.664 282.736C133.697 282.426 133.606 282.115 133.411 281.871C133.216 281.627 132.932 281.47 132.622 281.434L72.2071 274.924C72.0528 274.904 71.8961 274.916 71.7463 274.958C71.5966 275 71.4568 275.072 71.3353 275.169C71.2139 275.266 71.1131 275.387 71.0392 275.523C70.9653 275.66 70.9197 275.811 70.9051 275.966C70.8718 276.276 70.9627 276.587 71.1578 276.831C71.3529 277.075 71.6365 277.232 71.9468 277.268L132.362 283.802H132.504Z" fill="#11405A"/>
<path d="M89.6274 212.757H89.7458C89.9015 212.742 90.0528 212.696 90.1908 212.623C90.3289 212.549 90.451 212.449 90.5501 212.328C90.6491 212.207 90.7232 212.067 90.768 211.917C90.8128 211.768 90.8274 211.61 90.8111 211.455C90.4086 207.833 83.5197 140.292 83.4486 139.605C83.4331 139.45 83.3871 139.299 83.3132 139.161C83.2394 139.024 83.1392 138.902 83.0183 138.803C82.8974 138.704 82.7581 138.63 82.6086 138.585C82.459 138.54 82.3021 138.525 82.1466 138.54C81.9912 138.556 81.8403 138.602 81.7026 138.676C81.5649 138.749 81.4432 138.85 81.3443 138.97C81.2453 139.091 81.1712 139.231 81.1261 139.38C81.0809 139.53 81.0657 139.687 81.0813 139.842C81.0813 140.529 88.0176 208.069 88.4201 211.715C88.4604 212.006 88.6051 212.272 88.8273 212.464C89.0496 212.655 89.3339 212.759 89.6274 212.757Z" fill="#11405A"/>
<path d="M95.3331 261.761H95.4515C95.6073 261.746 95.7585 261.701 95.8966 261.627C96.0346 261.554 96.1567 261.453 96.2558 261.332C96.3548 261.211 96.4288 261.072 96.4737 260.922C96.5185 260.772 96.5331 260.615 96.5168 260.459L94.4809 238.017C94.4451 237.709 94.2925 237.427 94.0546 237.229C93.8166 237.03 93.5116 236.931 93.2025 236.951C93.0469 236.963 92.8952 237.006 92.7561 237.077C92.617 237.148 92.4933 237.245 92.3921 237.364C92.2908 237.483 92.2142 237.62 92.1664 237.769C92.1186 237.918 92.1006 238.074 92.1135 238.23L94.1731 260.672C94.1966 260.965 94.3284 261.239 94.5429 261.441C94.7573 261.642 95.039 261.756 95.3331 261.761Z" fill="#11405A"/>
<path d="M53.9776 95.4072L59.9907 110.629L79.8055 133.261L97.4896 109.919L96.0456 80.4219L73.7924 100.71L53.9776 95.4072Z" fill="white"/>
<path d="M79.8759 135.155L98.6964 110.298V109.872L97.1103 77.8652L73.4367 99.4082L51.9885 93.6555L59.0905 111.411L79.8759 135.155ZM96.2818 109.517L79.7103 131.367L60.9845 110.061L55.9183 97.2302L74.076 102.107L94.956 83.1681L96.2818 109.517Z" fill="#11405A"/>
<path d="M71.9911 1.99138C71.9911 1.99138 106.862 14.6094 111.668 24.5286C115.732 33.9085 118.849 43.671 120.972 53.6708C120.972 54.8781 137.543 61.5067 140.81 66.5965C144.077 71.6863 140.526 86.7427 140.81 90.9566C141.094 95.1705 156.435 99.9762 157.95 109.28C158.975 113.972 158.87 118.841 157.642 123.484L130.891 119.27C130.891 119.27 113.467 126.183 104.14 122.585C94.8123 118.986 93.9364 100.947 94.5283 94.9338C95.1201 88.9207 96.0434 80.4929 96.0434 80.4929L83.7094 45.5981L55.7746 37.1703L38.0432 53.7418L54.3306 96.5436C54.3306 96.5436 59.4677 106.936 58.5681 109.635C57.6685 112.334 49.4538 115.056 49.4538 115.056L12.7834 132.196C11.8453 129.394 11.5381 126.419 11.8839 123.484C12.4757 118.749 20.3116 108.451 20.3116 105.445C20.3116 102.438 10.0847 90.7199 14.8904 80.2088C19.6962 69.6978 24.8096 63.9688 27.5084 58.5712C30.2072 53.1736 25.1411 42.9229 30.515 29.7131C35.8889 16.5033 53.6677 5.06895 58.4735 2.37017C63.2792 -0.328617 71.9911 1.99138 71.9911 1.99138Z" fill="#11405A"/>
<path d="M12.1445 133.735L50.0222 116.074C51.3716 115.624 58.7341 113.044 59.752 109.943C60.77 106.841 56.7219 98.4847 55.4435 95.9516L39.4875 54.002L56.059 38.4722L82.7864 46.5212L94.8126 80.5638C94.6469 82.0552 93.8656 89.3467 93.3448 94.7679C92.824 99.8104 93.1081 119.53 103.69 123.626C112.757 127.13 128.524 121.377 131.009 120.43L158.4 124.739L158.731 123.839C160.023 119.029 160.145 113.98 159.086 109.114C158.116 103.125 152.197 99.0291 147.415 95.7385C144.906 94.0103 142.065 92.0454 141.97 91.0038C142.001 88.9111 142.175 86.8229 142.491 84.754C143.296 78.1727 144.29 69.9817 141.781 66.0992C139.556 62.6429 132.312 58.8077 126.867 56.0143C125.243 55.2133 123.663 54.3283 122.132 53.3628C119.952 43.3353 116.78 33.5494 112.662 24.1497C107.691 13.9227 73.7668 1.54141 72.4174 1.02059C72.0623 1.02059 63.1847 -1.48881 58.0002 1.42304C57.7871 1.42304 35.7944 14.0411 29.5919 29.3578C27.1362 35.8618 26.3231 42.8711 27.2246 49.7644C27.7148 52.5535 27.528 55.4194 26.6801 58.1212C25.4026 60.3353 24.0037 62.4771 22.4899 64.5368C19.2056 69.3166 16.3233 74.3606 13.8727 79.6168C10.1559 87.7132 14.7249 96.354 17.4474 101.515C18.1773 102.718 18.7576 104.006 19.1756 105.35C18.3388 107.867 17.1598 110.257 15.6719 112.452C13.4579 115.74 11.8021 119.372 10.7714 123.2C10.3842 126.327 10.7162 129.501 11.7421 132.48L12.1445 133.735ZM55.4435 35.8207L36.6467 53.3628L53.2182 96.8985C55.5855 101.775 57.9528 107.812 57.4557 109.185C56.9585 110.558 52.721 112.641 49.0753 113.92L13.565 130.491C12.9945 128.234 12.8421 125.891 13.1152 123.579C14.1927 120.078 15.7887 116.758 17.8499 113.73C20.2172 109.635 21.6613 107.054 21.6613 105.397C21.3307 103.637 20.6461 101.961 19.649 100.473C16.9739 95.3834 12.9258 87.6895 16.1454 80.6348C18.5448 75.4955 21.3636 70.5626 24.5732 65.8862C26.0896 63.6858 27.4807 61.4016 28.7397 59.0445C29.7775 56.0005 30.0379 52.7453 29.4972 49.5751C28.6959 43.0314 29.5087 36.391 31.8646 30.2338C37.8303 15.6745 59.0892 3.57734 59.3022 3.45897C63.4688 1.09161 71.2574 3.10386 71.8966 3.26958C73.3407 3.79039 106.389 15.9823 110.863 25.1913C114.866 34.4201 117.943 44.0234 120.049 53.86C120.049 54.949 120.996 55.4934 126.062 58.1212C131.128 60.749 138.183 64.4421 140.076 67.4013C141.97 70.3605 141.094 78.9303 140.432 84.4699C140.083 86.6864 139.901 88.9259 139.887 91.1695C140.053 93.5369 142.846 95.3834 146.374 97.8218C150.753 100.852 156.222 104.616 157.05 109.659C157.837 113.82 157.837 118.092 157.05 122.253L131.009 118.157L130.702 118.276C130.536 118.276 113.586 124.975 104.803 121.59C96.0199 118.205 95.3334 101.065 95.9489 95.1704C96.5644 89.2756 97.4404 80.7532 97.4404 80.7532V80.4691V80.2323L84.917 44.722L55.4435 35.8207Z" fill="#11405A"/>
<path d="M59.3756 26.3276C59.3756 26.3276 86.4109 38.3538 88.5179 44.0591C90.6248 49.7645 96.3301 76.2315 96.046 80.4217C95.762 84.612 77.699 106.273 74.1006 106.889C70.5022 107.504 51.9658 96.7565 48.6515 94.3418C45.3372 91.9271 34.4474 55.7775 34.7315 50.0722C35.0156 44.3669 56.3691 26.6591 59.3756 26.3276Z" fill="white"/>
<path d="M73.8635 108.073H74.2896C78.4561 107.386 96.8742 85.2512 97.2293 80.5402C97.5844 75.8291 91.6659 49.1727 89.63 43.6804C87.4283 37.6674 62.6658 26.5171 59.8487 25.2861L59.5646 25.144H59.2568C55.8952 25.4755 33.9025 43.3253 33.5474 50.0013C33.2396 55.896 44.2005 92.6137 47.9646 95.2888C50.3556 97.0643 68.7736 108.073 73.8635 108.073ZM59.2568 27.5824C69.5785 32.3171 86.0317 40.6976 87.4047 44.4853C89.559 50.2854 95.146 76.3499 94.8619 80.3508C94.6015 83.9728 77.1777 105.066 73.9108 105.705C71.1646 106.179 53.5989 96.4725 49.3613 93.3949C46.6625 91.359 35.607 55.7776 35.9147 50.1433C36.1752 45.1955 55.9899 28.8371 59.2568 27.5824Z" fill="#11405A"/>
<path d="M33.8763 55.3987C44.6951 52.1554 56.1058 34.0925 59.4437 28.5529C62.687 33.0508 72.914 45.7399 88.4912 49.8591L89.1068 47.4917C71.3279 42.757 60.4854 25.7594 60.367 25.5937L59.3017 23.8892L58.3312 25.641C58.2128 25.8778 44.8608 49.5276 33.1898 53.0313L33.8763 55.3987Z" fill="#11405A"/>
<path d="M95.3337 51.7527L95.7835 49.3854C86.9769 47.6098 60.3915 25.5934 60.1311 25.3804L58.616 27.2032C59.7287 28.1738 85.9353 49.8588 95.3337 51.7527Z" fill="#11405A"/>
<path d="M65.2699 83.689C66.01 83.7164 66.7504 83.6448 67.4715 83.476C67.7855 83.3881 68.0517 83.1791 68.2115 82.8949C68.3713 82.6108 68.4117 82.2748 68.3238 81.9609C68.2359 81.6469 68.0269 81.3808 67.7428 81.221C67.4586 81.0611 67.1226 81.0207 66.8087 81.1086C65.5172 81.3187 64.1963 81.2589 62.9291 80.933C61.6619 80.607 60.476 80.0219 59.4462 79.2147C59.1968 79.0456 58.8923 78.978 58.5948 79.0256C58.2973 79.0732 58.0292 79.2325 57.8451 79.471C57.6609 79.7095 57.5746 80.0092 57.6038 80.3091C57.633 80.609 57.7754 80.8865 58.0021 81.085C60.1065 82.6664 62.6401 83.5742 65.2699 83.689Z" fill="#11405A"/>
<path d="M66.9268 90.341C69.0933 90.314 71.2296 89.8297 73.196 88.92C75.1623 88.0102 76.9144 86.6955 78.3375 85.0618C78.5066 84.8124 78.5743 84.508 78.5267 84.2105C78.479 83.913 78.3197 83.6448 78.0813 83.4606C77.8428 83.2765 77.543 83.1903 77.2431 83.2194C76.9433 83.2486 76.6658 83.3911 76.4673 83.6177C74.5638 85.8105 71.9741 87.2942 69.1197 87.8273C66.2654 88.3603 63.3146 87.9112 60.7481 86.5533C60.6051 86.4911 60.4512 86.4577 60.2953 86.455C60.1394 86.4523 59.9845 86.4803 59.8394 86.5374C59.6943 86.5946 59.5618 86.6797 59.4497 86.7881C59.3375 86.8964 59.2478 87.0258 59.1856 87.1688C59.1234 87.3118 59.09 87.4656 59.0873 87.6215C59.0846 87.7774 59.1126 87.9324 59.1698 88.0775C59.227 88.2226 59.3121 88.355 59.4204 88.4671C59.5287 88.5793 59.6581 88.6691 59.8012 88.7312C62.036 89.7653 64.4645 90.314 66.9268 90.341Z" fill="#11405A"/>
<path d="M67.1847 56.6773C67.4222 56.6758 67.6536 56.6015 67.8475 56.4643C67.8475 56.4643 74.9496 51.7295 81.4125 54.7598C81.6982 54.8916 82.0245 54.9046 82.3197 54.7958C82.615 54.687 82.8549 54.4655 82.9867 54.1798C83.1186 53.8941 83.1315 53.5677 83.0228 53.2725C82.914 52.9773 82.6924 52.7373 82.4067 52.6055C74.6655 49.0781 66.8532 54.2863 66.5218 54.4994C66.3919 54.5872 66.2808 54.7001 66.1949 54.8313C66.109 54.9624 66.05 55.1094 66.0213 55.2636C65.9927 55.4178 65.995 55.5761 66.0281 55.7294C66.0611 55.8827 66.1244 56.0279 66.214 56.1565C66.32 56.317 66.4641 56.4486 66.6336 56.5395C66.803 56.6304 66.9924 56.6777 67.1847 56.6773Z" fill="#11405A"/>
<path d="M41.0253 59.0683C41.3405 59.0667 41.6441 58.9486 41.8776 58.7369C45.1919 55.4226 52.8384 58.3581 52.9331 58.3817C53.2189 58.4686 53.5271 58.4442 53.7957 58.3134C54.0642 58.1826 54.2734 57.9551 54.3813 57.6765C54.4891 57.3979 54.4876 57.0889 54.3771 56.8114C54.2666 56.5338 54.0552 56.3083 53.7854 56.1801C53.4303 56.0381 44.6001 52.6527 40.1968 57.056C39.9784 57.2813 39.8562 57.5827 39.8562 57.8965C39.8562 58.2102 39.9784 58.5116 40.1968 58.7369C40.4242 58.9433 40.7183 59.0609 41.0253 59.0683Z" fill="#11405A"/>
<path d="M72.6063 64.5369C72.7957 66.3597 74.0977 67.7091 75.4945 67.5671C76.252 67.3708 76.9042 66.8891 77.3146 66.2228C77.725 65.5565 77.8617 64.7572 77.6961 63.9924C77.483 62.1932 76.2046 60.8438 74.7842 60.9858C74.0329 61.1819 73.3866 61.6611 72.9806 62.323C72.5746 62.985 72.4405 63.7783 72.6063 64.5369Z" fill="#11405A"/>
<path d="M48.8628 68.0879C48.7989 68.4901 48.8284 68.9016 48.9492 69.2905C49.07 69.6794 49.2788 70.0353 49.5593 70.3305C49.8398 70.6257 50.1845 70.8523 50.5667 70.9928C50.949 71.1333 51.3584 71.1838 51.7634 71.1405C52.1683 71.0972 52.5578 70.9612 52.9017 70.7431C53.2455 70.5249 53.5346 70.2305 53.7463 69.8826C53.958 69.5347 54.0868 69.1427 54.1225 68.7371C54.1583 68.3314 54.1002 67.923 53.9526 67.5434C53.7632 65.7205 52.4612 64.3711 51.0644 64.5132C50.3069 64.7094 49.6546 65.1911 49.2442 65.8575C48.8338 66.5238 48.6972 67.323 48.8628 68.0879Z" fill="#11405A"/>
<path d="M107.408 123.01L96.7782 141.76L83.3316 128.313L97.4883 109.919L107.408 123.01Z" fill="#2BAE4A"/>
<path d="M96.7765 142.943H96.9422C97.1225 142.915 97.2943 142.847 97.4456 142.744C97.5969 142.642 97.724 142.508 97.8181 142.352L108.424 123.721C108.551 123.527 108.619 123.301 108.619 123.07C108.619 122.838 108.551 122.612 108.424 122.419L98.5046 109.327C98.3898 109.185 98.2458 109.069 98.0825 108.988C97.9191 108.906 97.7402 108.86 97.5577 108.854C97.3769 108.852 97.1984 108.894 97.0375 108.976C96.8767 109.059 96.7383 109.179 96.6345 109.327L82.4303 127.721C82.2357 127.935 82.1278 128.214 82.1278 128.503C82.1278 128.792 82.2357 129.07 82.4303 129.284L95.8769 142.659C95.9994 142.766 96.1424 142.846 96.2971 142.895C96.4519 142.944 96.6151 142.96 96.7765 142.943ZM105.985 123.105L96.5161 139.819L84.916 128.219L97.4867 111.884L105.985 123.105Z" fill="#11405A"/>
<path d="M74.8564 129.024L65.2923 142.825L49.4547 114.985L58.2139 106.723L74.8564 129.024Z" fill="#2BAE4A"/>
<path d="M65.2906 144.009C65.4801 144.008 65.6667 143.963 65.8353 143.876C66.0039 143.79 66.1498 143.665 66.2612 143.512L75.7307 129.71C75.8691 129.504 75.943 129.26 75.943 129.012C75.943 128.763 75.8691 128.52 75.7307 128.313L59.1592 106.037C59.0637 105.897 58.9369 105.781 58.789 105.699C58.641 105.617 58.476 105.57 58.307 105.563C58.1434 105.541 57.977 105.558 57.8209 105.611C57.6648 105.664 57.5232 105.753 57.4073 105.871L48.5298 114.251C48.3341 114.431 48.2045 114.67 48.1615 114.932C48.1186 115.194 48.1649 115.463 48.293 115.695L64.1543 143.535C64.2517 143.709 64.3922 143.855 64.5622 143.958C64.7321 144.062 64.926 144.12 65.125 144.127L65.2906 144.009ZM73.387 129.047L65.3853 140.6L50.9444 115.222L58.0465 108.499L73.387 129.047Z" fill="#11405A"/>
<path d="M119.625 222.558H140.434L143.038 174.406H117.021L119.625 222.558Z" fill="white"/>
<path d="M118.511 223.742H141.545L144.291 173.222H115.883L118.511 223.742ZM139.32 221.374H120.76L118.274 175.59H141.782L139.32 221.374Z" fill="#11405A"/>
<path d="M114.749 170.311H145.785V177.602H114.749V170.311Z" fill="#11405A"/>
<path d="M113.565 178.785H146.968V169.126H113.565V178.785ZM144.601 176.418H115.932V171.494H144.601V176.418Z" fill="#11405A"/>
<path d="M118.603 166.877H141.424V170.31H118.603V166.877Z" fill="#11405A"/>
<path d="M117.443 171.494H142.608V165.694H117.443V171.494ZM140.241 169.127H119.81V168.061H140.241V169.127Z" fill="#11405A"/>
<path d="M144.029 226.866C144.029 226.985 144.029 227.103 144.029 227.151C144.65 228.941 145.781 230.511 147.283 231.667C148.784 232.824 150.59 233.517 152.48 233.661C153.507 233.766 154.545 233.656 155.527 233.338C156.51 233.02 157.415 232.501 158.185 231.814C159.601 230.275 160.438 228.292 160.553 226.204C160.942 224.274 160.838 222.277 160.251 220.398C159.663 218.52 158.611 216.82 157.191 215.456C156.197 214.272 152.456 211.218 152.172 209.703L150.065 193.132C150.065 193.132 129.422 188.397 127.647 188.657C127.279 188.71 126.93 188.849 126.626 189.062C126.322 189.275 126.072 189.556 125.897 189.883C125.722 190.211 125.626 190.574 125.618 190.945C125.609 191.316 125.688 191.684 125.847 192.019C126.297 193.368 129.422 194.031 130.109 194.244C130.795 194.457 140.88 196.943 140.88 196.943L144.455 201.204C142.715 200.337 140.92 199.585 139.081 198.955C138.394 198.955 127.244 197.393 125.847 197.18C125.441 197.162 125.038 197.25 124.675 197.433C124.313 197.617 124.004 197.891 123.778 198.229C123.552 198.566 123.417 198.956 123.386 199.362C123.354 199.767 123.427 200.173 123.598 200.542C124.498 202.341 125.161 202.767 125.847 202.767C126.534 202.767 137.684 204.803 137.684 204.803L143.958 210.177C143.958 210.177 135.435 207.478 134.488 207.478C133.541 207.478 125.753 207.265 125.516 208.614C125.34 209.298 125.427 210.023 125.76 210.646C126.094 211.268 126.648 211.743 127.315 211.976C128.878 212.426 134.938 213.325 134.938 213.325L141.685 216.9H135.175C135.175 216.9 128.878 218.936 127.552 219.267C126.226 219.599 125.184 220.167 127.102 222.179C129.02 224.191 142.845 222.582 142.845 222.582C142.845 222.582 143.792 225.778 144.029 226.866Z" fill="white"/>
<path d="M153.286 234.987C155.432 235.031 157.511 234.242 159.086 232.785C160.736 231.068 161.718 228.818 161.856 226.44C162.263 224.349 162.143 222.189 161.507 220.155C160.87 218.122 159.737 216.279 158.21 214.793C157.903 214.438 157.334 213.87 156.672 213.254C155.44 212.222 154.364 211.019 153.476 209.68L151.25 192.232L150.445 192.043C145.569 190.93 129.494 187.308 127.6 187.545C127.119 187.599 126.656 187.762 126.246 188.02C125.836 188.278 125.49 188.625 125.233 189.036C124.929 189.549 124.74 190.121 124.679 190.714C124.617 191.306 124.685 191.905 124.878 192.469C125.47 194.197 128.098 194.836 129.613 195.333L129.991 195.452C130.631 195.665 138.159 197.511 140.479 198.08C140.098 197.905 139.689 197.8 139.271 197.772C138.467 197.772 127.648 196.233 126.227 195.996C125.607 195.951 124.985 196.069 124.424 196.337C123.863 196.606 123.382 197.017 123.028 197.528C122.674 198.04 122.46 198.635 122.407 199.255C122.353 199.875 122.462 200.498 122.724 201.062C123.458 202.506 124.405 203.974 126.038 203.974C126.653 203.974 133.14 205.158 137.401 205.915L139.129 207.383C137.706 206.921 136.25 206.565 134.774 206.318H134.418C126.488 206.318 124.949 206.981 124.641 208.449C124.395 209.424 124.529 210.457 125.017 211.336C125.506 212.216 126.311 212.877 127.269 213.183C128.76 213.609 133.756 214.367 134.845 214.533L137.212 215.787H135.058C132.69 216.592 128.524 217.823 127.6 217.989C127.099 218.001 126.611 218.154 126.193 218.431C125.774 218.707 125.442 219.095 125.233 219.551C124.783 220.806 125.707 222.037 126.417 222.866C128.405 225.091 138.798 224.144 142.183 223.765C142.183 224.168 142.349 224.665 142.467 225.162C142.586 225.659 142.775 226.748 142.894 227.174C142.917 227.32 142.957 227.463 143.012 227.6C143.71 229.605 144.978 231.363 146.66 232.658C148.342 233.953 150.365 234.729 152.481 234.892L153.286 234.987ZM149.12 194.173L151.132 209.987C151.298 211.36 152.86 212.923 155.038 214.982C155.518 215.409 155.977 215.859 156.411 216.332C157.728 217.57 158.702 219.127 159.242 220.852C159.781 222.577 159.866 224.412 159.489 226.18C159.403 228.001 158.682 229.735 157.453 231.08C156.808 231.641 156.055 232.064 155.241 232.325C154.427 232.585 153.569 232.677 152.718 232.596C151.055 232.47 149.465 231.861 148.145 230.843C146.824 229.825 145.83 228.443 145.285 226.867L144.077 226.985L145.237 226.701C145.237 226.298 144.977 225.517 144.835 224.76C144.196 221.635 144.101 221.256 142.988 221.374C136.833 222.084 129.258 222.25 128.24 221.374C127.994 221.108 127.779 220.814 127.6 220.498H128.003C129.305 220.262 134.442 218.628 135.626 218.131H146.658L135.389 212.189C133.708 211.952 129.139 211.242 127.908 210.887C127.574 210.765 127.292 210.531 127.11 210.224C126.929 209.918 126.86 209.558 126.914 209.206C129.364 208.693 131.874 208.526 134.371 208.709H134.75C135.389 208.709 139.863 210.082 143.817 211.337L149.356 213.089L138.419 203.619H138.112C133.874 202.838 126.677 201.583 126.014 201.583C125.872 201.583 125.446 201.228 124.831 199.973C124.738 199.793 124.699 199.589 124.72 199.388C124.741 199.186 124.821 198.994 124.949 198.837C125.043 198.687 125.171 198.561 125.324 198.47C125.476 198.38 125.648 198.327 125.825 198.316C126.511 198.435 138.348 200.115 139.248 200.115C139.65 200.115 142.112 201.299 144.125 202.246L149.049 204.613L141.686 195.854H141.331C137.472 194.907 131.151 193.345 130.631 193.179L130.157 193.037C127.648 192.327 127.198 191.853 127.127 191.688C127.031 191.467 126.982 191.23 126.982 190.989C126.982 190.749 127.031 190.511 127.127 190.291C127.205 190.165 127.312 190.06 127.44 189.986C127.569 189.912 127.713 189.87 127.861 189.865C129.021 189.746 139.603 191.901 149.12 194.055V194.173Z" fill="#11405A"/>
<path d="M35.2283 217.208L39.679 223.15C39.679 223.15 39.679 258.66 38.2823 261.619C36.8855 264.578 26.0193 272.769 20.1719 272.769C14.3246 272.769 2.8666 259.394 2.32211 257.169C1.77762 254.943 16.8103 211.715 16.5262 210.603C16.2422 209.49 17.8993 208.093 19.8642 208.093C21.8291 208.093 35.2283 217.208 35.2283 217.208Z" fill="#2BAE4A"/>
<path d="M20.125 273.882C26.5642 273.882 37.7618 265.478 39.3242 262.045C40.8867 258.612 40.8157 229.02 40.8157 223.078C40.8253 222.821 40.7412 222.568 40.579 222.368L36.1284 216.497L35.8443 216.237C30.7308 212.733 21.8532 206.767 19.8409 206.767C19.0921 206.756 18.3499 206.909 17.6668 207.215C16.9836 207.522 16.3762 207.975 15.8874 208.543C15.6613 208.818 15.4925 209.136 15.3909 209.477C15.2892 209.819 15.2568 210.177 15.2956 210.531C15.0588 211.833 12.5022 219.646 10.0164 227.221C2.53558 250.09 0.783714 255.985 1.11515 257.31C1.8727 260.222 13.6858 273.882 20.125 273.882ZM38.4483 223.481C38.4483 240.407 37.9986 259.228 37.17 261.074C35.8916 263.868 25.3332 271.514 20.125 271.514C14.9168 271.514 4.027 258.991 3.41148 256.813C3.41148 255.109 8.73801 238.821 12.2654 228.026C17.6629 211.597 17.805 210.886 17.6393 210.247C17.8892 209.903 18.2219 209.626 18.6067 209.444C18.9915 209.262 19.416 209.18 19.8409 209.206C24.9187 211.753 29.7731 214.722 34.3528 218.083L38.4483 223.481Z" fill="#11405A"/>
<path d="M19.7669 196.067L19.0567 211.076C19.0567 211.076 19.8852 217.207 23.7914 219.717C26.6055 221.304 29.7702 222.166 33.0004 222.226L35.5098 217.207L39.3923 213.301L19.7669 196.067Z" fill="white"/>
<path d="M33.004 223.41H33.7141L36.484 217.918L41.2187 213.183L18.7998 193.487L17.9712 210.958C17.9712 211.431 18.9419 217.871 23.2505 220.664C26.2214 222.379 29.5745 223.323 33.004 223.41ZM37.7387 213.373L34.519 216.687L32.3411 221.019C29.5785 220.862 26.8928 220.05 24.5052 218.652C21.0962 216.474 20.2913 210.911 20.2913 210.84L20.9067 198.506L37.7387 213.373Z" fill="#11405A"/>
<path d="M15.2481 175.66L43.4906 169.766L61.1748 216.947L37.2881 221.279L15.2481 175.66Z" fill="#11405A"/>
<path d="M36.6967 222.605L62.7376 217.87L44.2012 168.44L13.4256 174.855L36.6967 222.605ZM59.5653 216.047L37.9751 219.977L16.9766 176.536L42.7334 171.068L59.5653 216.047Z" fill="#11405A"/>
<path d="M19.1305 187.639C19.1305 187.639 38.0694 188.492 38.2824 190.007C38.4955 191.522 37.8563 193.368 37.2171 193.581C36.5779 193.794 19.7697 196.114 19.7697 196.114C19.7697 196.114 15.035 195.049 15.3664 191.261C15.3557 190.771 15.4469 190.283 15.6341 189.829C15.8214 189.375 16.1007 188.965 16.4544 188.625C16.8081 188.285 17.2285 188.021 17.6891 187.852C18.1497 187.682 18.6405 187.61 19.1305 187.639Z" fill="white"/>
<path d="M19.7188 197.275H19.9319C26.2527 196.423 36.9532 194.907 37.5924 194.718C39.0838 194.221 39.6756 191.498 39.4389 189.841C39.2968 188.823 39.0837 187.474 19.1979 186.527C17.9233 186.471 16.6736 186.893 15.6943 187.711C15.2191 188.163 14.84 188.706 14.5797 189.308C14.3194 189.91 14.1831 190.558 14.1792 191.214C14.227 192.683 14.785 194.089 15.7571 195.19C16.7292 196.292 18.0546 197.021 19.5057 197.251L19.7188 197.275ZM36.6927 192.374C35.2487 192.635 25.8503 193.96 19.8372 194.742C19.0796 194.529 16.4045 193.558 16.5229 191.167C16.5218 190.84 16.5887 190.515 16.7193 190.215C16.85 189.915 17.0415 189.645 17.2818 189.422C17.5221 189.2 17.806 189.03 18.1154 188.922C18.4249 188.815 18.7532 188.773 19.0796 188.8V187.616V188.8C25.1294 188.927 31.1603 189.521 37.1189 190.575C37.1142 191.199 36.9685 191.814 36.6927 192.374Z" fill="#11405A"/>
<path d="M29.8516 195.002C29.8516 195.002 46.4232 193.108 47.2991 194.173C48.175 195.239 48.9799 196.683 46.4705 197.748C40.2505 199.819 33.9295 201.573 27.5316 203.003C26.3795 202.938 25.2555 202.622 24.2376 202.078C23.2197 201.535 22.3323 200.776 21.6369 199.855C21.3253 199.355 21.1258 198.793 21.0522 198.209C20.9786 197.625 21.0327 197.031 21.2108 196.47L29.8516 195.002Z" fill="white"/>
<path d="M27.5585 204.211C34.109 202.793 40.5742 201.007 46.9235 198.86C47.4794 198.685 47.9849 198.379 48.3971 197.967C48.8092 197.555 49.1158 197.049 49.2908 196.493C49.3728 195.924 49.3214 195.343 49.1406 194.796C48.9599 194.25 48.6547 193.753 48.2492 193.345C47.8231 192.8 47.0182 191.782 29.7601 193.747L20.5511 195.333L20.2907 195.854C20.0133 196.573 19.9053 197.347 19.9751 198.114C20.0449 198.882 20.2906 199.623 20.6931 200.281C21.4687 201.41 22.4887 202.349 23.6772 203.029C24.8658 203.71 26.1925 204.114 27.5585 204.211ZM46.4974 195.144C46.9472 195.759 46.9235 195.972 46.9235 196.02C46.9235 196.067 46.6631 196.375 45.9765 196.683C43.3251 197.772 28.7421 201.749 27.4874 201.843C26.5697 201.767 25.677 201.505 24.8632 201.073C24.0495 200.642 23.3315 200.05 22.7527 199.334C22.4458 198.783 22.2753 198.166 22.2556 197.535L30.0442 196.209C35.509 195.43 41.0249 195.066 46.5447 195.12L46.4974 195.144Z" fill="#11405A"/>
<path d="M38.4706 200.47C38.4706 200.47 51.0887 197.961 51.7279 199.216C52.367 200.47 52.5564 202.577 51.3017 203.429C50.0471 204.282 33.2151 208.874 32.1735 209.3C31.1318 209.727 28.5988 208.472 27.7702 206.791C27.2748 205.588 27.1997 204.254 27.5572 203.003L38.4706 200.47Z" fill="white"/>
<path d="M31.698 210.579C32.0127 210.574 32.3245 210.518 32.6212 210.413C32.929 210.271 35.2964 209.584 37.6164 208.921C42.4887 207.717 47.2802 206.207 51.9626 204.4C52.747 203.696 53.2596 202.74 53.411 201.697C53.5625 200.655 53.3431 199.592 52.7911 198.695C52.3886 197.913 51.7495 196.611 38.2556 199.31L26.6555 202.009L26.4661 202.648C25.9932 204.21 26.0939 205.889 26.7502 207.383C27.2535 208.277 27.967 209.035 28.829 209.592C29.6911 210.149 30.6758 210.488 31.698 210.579ZM50.8972 200.068C51.2287 200.943 51.2523 202.103 50.7552 202.435C49.8319 202.956 41.4988 205.37 37.0482 206.649C33.8049 207.596 32.3135 208.046 31.8163 208.211C31.3142 208.179 30.825 208.038 30.3825 207.799C29.94 207.559 29.5547 207.227 29.2531 206.824C28.9516 206.421 28.741 205.958 28.6359 205.466C28.5307 204.974 28.5335 204.465 28.6441 203.974L38.8237 201.606C42.7869 200.693 46.8315 200.177 50.8972 200.068Z" fill="#11405A"/>
<path d="M38.0679 207.833C38.0679 207.833 47.5374 205.939 47.9398 207.004C48.3423 208.07 48.579 210.366 46.6851 210.981C44.7912 211.597 33.854 216.024 31.9602 214.769C30.0663 213.515 30.7055 210.153 30.7055 210.153L38.0679 207.833Z" fill="white"/>
<path d="M33.0728 216.166C37.394 215.593 41.6112 214.405 45.5961 212.638L47.0638 212.118C47.495 211.978 47.8923 211.75 48.2305 211.448C48.5688 211.147 48.8406 210.778 49.0287 210.366C49.5274 209.144 49.5274 207.776 49.0287 206.554C48.721 205.726 48.2475 204.589 37.8312 206.673H37.7128L29.6638 209.206V209.916C29.6638 210.318 28.9535 214.082 31.4156 215.74C31.9216 216.023 32.4927 216.17 33.0728 216.166ZM46.9691 207.856C47.1118 208.343 47.1118 208.861 46.9691 209.348C46.915 209.473 46.8339 209.584 46.7316 209.675C46.6293 209.765 46.5083 209.831 46.3773 209.869L44.8385 210.413C36.0083 213.68 33.3332 214.035 32.6467 213.775C31.9601 213.514 31.818 211.952 31.8654 211.052L38.352 208.945C41.1871 208.332 44.0705 207.967 46.9691 207.856Z" fill="#11405A"/>
</svg>
