<svg width="22" height="22" viewBox="0 0 22 22" fill="none" xmlns="http://www.w3.org/2000/svg">
<path d="M7.11719 10.65C8.01759 12.5094 9.52112 14.0091 11.3828 14.9047C11.5201 14.9697 11.672 14.9979 11.8235 14.9864C11.975 14.9749 12.1209 14.9241 12.2469 14.8391L14.9812 13.0125C15.1021 12.9306 15.2417 12.8806 15.387 12.8672C15.5324 12.8538 15.6788 12.8775 15.8125 12.936L20.9313 15.1344C21.1062 15.2072 21.2524 15.3355 21.3472 15.4996C21.4421 15.6636 21.4804 15.8543 21.4563 16.0422C21.294 17.3085 20.6759 18.4723 19.7177 19.3158C18.7594 20.1593 17.5266 20.6247 16.25 20.625C12.3049 20.625 8.52139 19.0579 5.73179 16.2682C2.94218 13.4786 1.375 9.69513 1.375 5.75004C1.37529 4.47341 1.84073 3.24062 2.68425 2.28236C3.52776 1.3241 4.69154 0.706024 5.95781 0.543786C6.14576 0.519643 6.33643 0.557954 6.50047 0.652819C6.66451 0.747684 6.79281 0.893841 6.86562 1.06879L9.06406 6.19847C9.12123 6.3301 9.14515 6.47377 9.1337 6.61683C9.12226 6.75988 9.07581 6.89792 8.99844 7.01879L7.17188 9.79691C7.09056 9.92256 7.04283 10.067 7.03325 10.2163C7.02368 10.3657 7.05258 10.515 7.11719 10.65V10.65Z" stroke="white" stroke-linecap="round" stroke-linejoin="round"/>
</svg>
