<svg width="14" height="18" viewBox="0 0 14 18" fill="none" xmlns="http://www.w3.org/2000/svg">
<path d="M10.5542 14.4685C10.5432 14.7768 10.4156 15.0682 10.199 15.2816C9.98248 15.4949 9.69388 15.6136 9.39408 15.6134H9.39401H4.60536H4.60528C4.30587 15.6136 4.0176 15.4952 3.80111 15.2824C3.58462 15.0696 3.45679 14.7788 3.44512 14.471C3.44512 14.4709 3.44512 14.4708 3.44511 14.4708L3.1931 6.66941C3.18675 6.47274 3.10425 6.28623 2.96304 6.15107C2.82175 6.01583 2.63324 5.94315 2.4389 5.9497C2.24456 5.95626 2.06123 6.04149 1.92906 6.18585C1.79696 6.33014 1.72668 6.52172 1.73303 6.71838L1.83297 6.71516L1.73303 6.71839L1.98506 14.5209L1.98506 14.521C2.00801 15.2139 2.29395 15.8708 2.78294 16.3524C3.27191 16.834 3.92552 17.1024 4.60536 17.1C4.60548 17.1 4.6056 17.1 4.60572 17.1L10.5542 14.4685ZM10.5542 14.4685C10.5542 14.4685 10.5542 14.4684 10.5543 14.4684L10.8063 6.66941C10.8126 6.47274 10.8951 6.28623 11.0363 6.15107C11.1776 6.01583 11.3661 5.94315 11.5605 5.9497C11.7548 5.95626 11.9381 6.04149 12.0703 6.18585C12.2024 6.33014 12.2727 6.52172 12.2663 6.71839L12.0143 14.5183C12.0143 14.5183 12.0143 14.5183 12.0143 14.5183C11.992 15.2117 11.7064 15.8693 11.2173 16.3514C10.7283 16.8336 10.0743 17.1024 9.39401 17.1L10.5542 14.4685ZM13.1 4.01947V4.11947C13.1 4.31615 13.0236 4.50521 12.8869 4.64495C12.7502 4.78476 12.5643 4.86372 12.3699 4.86372H1.63009C1.43573 4.86372 1.24979 4.78476 1.11306 4.64495C0.976392 4.50521 0.9 4.31615 0.9 4.11947C0.9 3.92279 0.976392 3.73373 1.11306 3.594C1.24979 3.45418 1.43573 3.37522 1.63009 3.37522H3.58336H3.58363C3.75777 3.3757 3.92624 3.30993 4.05617 3.19013C4.18616 3.07027 4.26829 2.90482 4.28594 2.72581L4.38546 2.73562M13.1 4.01947L12.9924 4.21947C12.9718 4.3533 12.9103 4.47803 12.8155 4.57503C12.6973 4.69585 12.537 4.76372 12.3699 4.76372H1.63009C1.46298 4.76372 1.30271 4.69585 1.18455 4.57503C1.06638 4.4542 1 4.29034 1 4.11947C1 3.9486 1.06638 3.78474 1.18455 3.66392C1.30271 3.5431 1.46298 3.47522 1.63009 3.47522H3.58336C3.783 3.47577 3.9757 3.40035 4.12396 3.26364C4.27222 3.12694 4.36543 2.93872 4.38546 2.73562M13.1 4.01947H13.0928C13.0715 3.85959 12.9996 3.70984 12.8863 3.594C12.7496 3.45418 12.5636 3.37522 12.3693 3.37522L10.416 3.37522L10.4157 3.37522C10.2416 3.3757 10.0731 3.30993 9.9432 3.19013C9.81321 3.07027 9.73108 2.90482 9.71343 2.72581M13.1 4.01947L10.416 3.47522M4.38546 2.73562L4.28593 2.72591C4.33478 2.22537 4.56416 1.7609 4.93 1.42319C5.29588 1.08544 5.77203 0.898728 6.26576 0.900007M4.38546 2.73562C4.43195 2.25919 4.65026 1.81752 4.99783 1.49666C5.34541 1.17581 5.79736 0.998761 6.26563 1.00001M6.26576 0.900007C6.26581 0.900007 6.26586 0.900007 6.2659 0.900007L6.26563 1.00001M6.26576 0.900007H6.26563V1.00001M6.26576 0.900007H7.73361M6.26563 1.00001H7.73374M7.73361 0.900007C7.73356 0.900007 7.73352 0.900007 7.73347 0.900007L7.73374 1.00001M7.73361 0.900007H7.73374V1.00001M7.73361 0.900007C8.22734 0.898728 8.70349 1.08544 9.06937 1.42319C9.43519 1.76088 9.66456 2.22531 9.71343 2.72581M7.73374 1.00001C8.20201 0.998761 8.65396 1.17581 9.00154 1.49666C9.34911 1.81752 9.56742 2.25919 9.61391 2.73562M10.416 3.47522C10.2164 3.47577 10.0237 3.40035 9.87541 3.26364C9.72715 3.12694 9.63394 2.93872 9.61391 2.73562M10.416 3.47522H12.3693M10.416 3.47522H12.3693M9.61391 2.73562L9.71344 2.72591C9.71344 2.72587 9.71344 2.72584 9.71343 2.72581M9.61391 2.73562L9.71343 2.72581M8.26114 2.87683L8.26115 2.87683C8.2479 2.74205 8.18623 2.61756 8.08871 2.52728C7.99128 2.43707 7.86499 2.38738 7.73437 2.38722C7.73433 2.38722 7.7343 2.38722 7.73426 2.38722M8.26114 2.87683L7.73437 2.28722L7.73426 2.38722M8.26114 2.87683L8.26131 2.87828C8.2805 3.04799 8.31873 3.21472 8.37516 3.37522L8.26114 2.87683ZM7.73426 2.38722H6.26637M7.73426 2.38722H6.26637M6.26637 2.38722L6.26626 2.38722L6.26637 2.38722ZM12.3693 3.47522C12.5364 3.47522 12.6967 3.5431 12.8148 3.66392M12.3693 3.47522L12.8148 3.66392M12.8148 3.66392C12.933 3.78474 12.9994 3.9486 12.9994 4.11947L12.8148 3.66392ZM4.60536 15.7134H9.39401C9.72041 15.7136 10.0342 15.5844 10.2692 15.3528C10.5043 15.1212 10.6423 14.8055 10.6542 14.4719L4.60536 15.7134ZM6.21378 13.2363V7.75047C6.21378 7.55379 6.13739 7.36473 6.00073 7.225C5.86399 7.08518 5.67805 7.00622 5.4837 7.00622C5.28934 7.00622 5.1034 7.08518 4.96667 7.225C4.83 7.36473 4.75361 7.55379 4.75361 7.75047V13.2388C4.75361 13.4355 4.83 13.6246 4.96667 13.7643C5.1034 13.9041 5.28934 13.9831 5.4837 13.9831C5.67805 13.9831 5.86399 13.9041 6.00073 13.7643C6.13739 13.6246 6.21378 13.4355 6.21378 13.2388V13.2363ZM9.24702 13.2363V7.75047C9.24702 7.55379 9.17063 7.36473 9.03396 7.225C8.89723 7.08518 8.71129 7.00622 8.51693 7.00622C8.32258 7.00622 8.13664 7.08518 7.9999 7.225C7.86324 7.36473 7.78685 7.55379 7.78685 7.75047V13.2388C7.78685 13.4355 7.86324 13.6246 7.9999 13.7643C8.13664 13.9041 8.32258 13.9831 8.51693 13.9831C8.71129 13.9831 8.89723 13.9041 9.03396 13.7643C9.17063 13.6246 9.24702 13.4355 9.24702 13.2388V13.2363Z" fill="#FF6C60" stroke="#FF6C60" stroke-width="0.2"/>
</svg>
