<svg width="16" height="19" viewBox="0 0 16 19" fill="none" xmlns="http://www.w3.org/2000/svg">
<path d="M6.38251 12.525L6.87206 12.0355L5.98456 11.1476L5.49539 11.6376C5.21045 11.4491 4.89322 11.3083 4.55309 11.2205V10.4888H2.97783V11.2205C2.63094 11.3098 2.30583 11.4547 2.016 11.6496L1.54673 11.1795L0.659612 12.0667L1.13677 12.5442C0.954316 12.8235 0.816913 13.1351 0.731317 13.4666H0V15.0411H0.730942C0.81879 15.3809 0.959572 15.6996 1.14803 15.9845L0.658861 16.4733L1.54598 17.3604L2.03553 16.8709C2.32122 17.0605 2.63995 17.2013 2.98083 17.2891V18.0201H4.55009V17.2899C4.88308 17.2043 5.19506 17.0661 5.47549 16.884L5.98419 17.3924L6.87168 16.5056L6.37049 16.0037C6.56609 15.7131 6.71138 15.3857 6.80072 15.037H7.53129V13.4726H6.80072C6.71363 13.1313 6.57247 12.8111 6.38251 12.525ZM3.76583 15.5453C3.05291 15.5453 2.47514 14.9675 2.47514 14.2546C2.47514 13.5417 3.05291 12.9639 3.76583 12.9639C4.47838 12.9639 5.05653 13.5417 5.05653 14.2546C5.05653 14.9675 4.47838 15.5453 3.76583 15.5453Z" fill="#FF6C60"/>
<path d="M15.9826 3.15991H15.4818H15.1402H14.4813H13.9801H12.9717C12.6864 1.36953 11.1401 0 9.26898 0C7.39902 0 5.85191 1.36953 5.56697 3.15991H4.03939H2.53809V4.55196V9.69859H4.03939V4.55196H5.51516V6.7339H7.01984V4.55196H11.5185V6.7339H13.0232V4.55196H13.9801H14.4723V12.3772V12.658V12.7759C14.4843 13.2373 14.4595 13.5388 14.4291 13.7366C14.4231 13.7756 14.4179 13.8147 14.4085 13.853C14.3781 14.0005 14.3484 14.0587 14.3484 14.0587L14.3462 14.0546C14.1262 14.617 13.5826 15.0168 12.9425 15.0168H12.1477H11.11H8.32142V16.5185H12.674H13.1902H13.5597C13.5597 16.5185 15.9999 16.4362 15.9999 13.6795V3.15991H15.9826ZM7.1182 3.15991C7.39939 2.23675 8.25385 1.56437 9.26898 1.56437C10.2841 1.56437 11.1386 2.23713 11.4198 3.15991H7.1182Z" fill="#FF6C60"/>
</svg>
