<svg width="13" height="16" viewBox="0 0 13 16" fill="none" xmlns="http://www.w3.org/2000/svg">
<path d="M11.3853 5.71516L11.1284 13.5151C11.1065 14.1831 10.8259 14.8163 10.3461 15.2802C9.86629 15.7442 9.2251 16.0024 8.5586 16H3.67605C3.00998 16.0024 2.36916 15.7446 1.88945 15.2812C1.40973 14.8178 1.12883 14.1853 1.10628 13.5177L0.849307 5.71516C0.843685 5.54429 0.905978 5.37818 1.02248 5.25338C1.13899 5.12857 1.30016 5.05529 1.47055 5.04965C1.64093 5.04401 1.80658 5.10648 1.93103 5.22331C2.05549 5.34014 2.12857 5.50177 2.13419 5.67264L2.39117 13.4745C2.40396 13.8076 2.54496 14.1227 2.78455 14.3537C3.02414 14.5847 3.34368 14.7137 3.67605 14.7134H8.5586C8.8914 14.7136 9.21131 14.5844 9.45096 14.3528C9.69062 14.1212 9.83134 13.8055 9.84348 13.4719L10.1005 5.67264C10.1061 5.50177 10.1792 5.34014 10.3036 5.22331C10.4281 5.10648 10.5937 5.04401 10.7641 5.04965C10.9345 5.05529 11.0957 5.12857 11.2122 5.25338C11.3287 5.37818 11.391 5.54429 11.3853 5.71516ZM12.2353 3.11947C12.2353 3.29034 12.1676 3.4542 12.0471 3.57503C11.9266 3.69585 11.7632 3.76372 11.5929 3.76372H0.642441C0.472055 3.76372 0.308648 3.69585 0.188167 3.57503C0.0676854 3.4542 0 3.29034 0 3.11947C0 2.9486 0.0676854 2.78474 0.188167 2.66392C0.308648 2.5431 0.472055 2.47522 0.642441 2.47522H2.63401C2.83757 2.47577 3.03404 2.40035 3.18521 2.26364C3.33638 2.12694 3.43142 1.93872 3.45184 1.73562C3.49925 1.25919 3.72183 0.817517 4.07622 0.496665C4.43061 0.175812 4.89143 -0.0012391 5.36888 6.52812e-06H6.86577C7.34322 -0.0012391 7.80404 0.175812 8.15843 0.496665C8.51282 0.817517 8.73541 1.25919 8.78281 1.73562C8.80323 1.93872 8.89827 2.12694 9.04944 2.26364C9.20061 2.40035 9.39709 2.47577 9.60064 2.47522H11.5922C11.7626 2.47522 11.926 2.5431 12.0465 2.66392C12.167 2.78474 12.2347 2.9486 12.2347 3.11947H12.2353ZM4.56711 2.47522H7.66882C7.5844 2.28178 7.52919 2.0768 7.505 1.86705C7.48908 1.70824 7.41495 1.56102 7.29698 1.4539C7.179 1.34677 7.02557 1.28738 6.86641 1.28722H5.36952C5.21037 1.28738 5.05694 1.34677 4.93896 1.4539C4.82098 1.56102 4.74685 1.70824 4.73094 1.86705C4.70654 2.07684 4.65176 2.28181 4.56711 2.47522ZM5.21405 12.2363V6.75047C5.21405 6.5796 5.14637 6.41574 5.02589 6.29492C4.90541 6.1741 4.742 6.10622 4.57161 6.10622C4.40123 6.10622 4.23782 6.1741 4.11734 6.29492C3.99686 6.41574 3.92917 6.5796 3.92917 6.75047V12.2388C3.92917 12.4097 3.99686 12.5736 4.11734 12.6944C4.23782 12.8152 4.40123 12.8831 4.57161 12.8831C4.742 12.8831 4.90541 12.8152 5.02589 12.6944C5.14637 12.5736 5.21405 12.4097 5.21405 12.2388V12.2363ZM8.30677 12.2363V6.75047C8.30677 6.5796 8.23908 6.41574 8.1186 6.29492C7.99812 6.1741 7.83471 6.10622 7.66432 6.10622C7.49394 6.10622 7.33053 6.1741 7.21005 6.29492C7.08957 6.41574 7.02188 6.5796 7.02188 6.75047V12.2388C7.02188 12.4097 7.08957 12.5736 7.21005 12.6944C7.33053 12.8152 7.49394 12.8831 7.66432 12.8831C7.83471 12.8831 7.99812 12.8152 8.1186 12.6944C8.23908 12.5736 8.30677 12.4097 8.30677 12.2388V12.2363Z" fill="#FF6C60"/>
</svg>
