<svg width="16" height="14" viewBox="0 0 16 14" fill="none" xmlns="http://www.w3.org/2000/svg">
<path d="M13.1613 0.000499964H2.83871C2.08609 0.00129405 1.36453 0.29128 0.832344 0.806833C0.30016 1.32239 0.0008197 2.0214 0 2.7505V11.25C0 12.766 1.27329 14 2.83871 14H13.1613C14.7262 14 16 12.766 16 11.25V2.75C16 1.234 14.7262 0.000499964 13.1613 0.000499964ZM2.83871 1.5005H13.1613C13.873 1.5005 14.4516 2.0615 14.4516 2.7505V6.1595L12.2426 4.0195C12.101 3.88236 11.91 3.80376 11.7098 3.80022C11.5096 3.79668 11.3157 3.86847 11.169 4.0005L7.35897 7.428L5.43019 5.56C5.28853 5.42262 5.09738 5.34382 4.89697 5.34018C4.69655 5.33654 4.50249 5.40835 4.35561 5.5405L1.54839 8.0655V2.75C1.54839 2.061 2.12748 1.5005 2.83871 1.5005ZM13.1613 12.5H2.83871C2.49662 12.4996 2.16866 12.3678 1.92677 12.1334C1.68487 11.8991 1.5488 11.5814 1.54839 11.25V10.1125L4.86245 7.132L6.22348 8.45L5.6671 8.95C5.51652 9.08533 5.42761 9.27306 5.41991 9.47189C5.41222 9.67073 5.48637 9.86438 5.62606 10.0103C5.76576 10.1561 5.95954 10.2423 6.16479 10.2497C6.37004 10.2572 6.56994 10.1853 6.72052 10.05L11.6759 5.5915L14.4516 8.2805V11.2495C14.4516 11.9385 13.873 12.5 13.1613 12.5Z" fill="#FF6C60"/>
</svg>
