<svg width="31" height="22" viewBox="0 0 31 22" fill="none" xmlns="http://www.w3.org/2000/svg">
<path d="M8.03931 4.60626H10.1833V16.879H8.03931V4.60626Z" fill="white"/>
<path d="M9.0039 16.879V6.12355C9.0039 5.62531 9.01997 5.12386 9.0039 4.62562V4.60312L8.03957 5.56745H10.1836L9.21926 4.60312V15.3586C9.21926 15.8569 9.20319 16.3583 9.21926 16.8565V16.879L10.1836 15.9147H8.03957C7.5349 15.9147 7.05273 16.3583 7.07523 16.879C7.09774 17.403 7.49954 17.8434 8.03957 17.8434H10.1836C10.7043 17.8434 11.1479 17.403 11.1479 16.879V6.12355C11.1479 5.62531 11.1576 5.12386 11.1479 4.62562V4.60312C11.1479 4.08238 10.7075 3.63879 10.1836 3.63879H8.03957C7.51883 3.63879 7.07523 4.07917 7.07523 4.60312V15.3586C7.07523 15.8569 7.06559 16.3583 7.07523 16.8565V16.879C7.07523 17.3837 7.51883 17.8659 8.03957 17.8434C8.56352 17.8209 9.0039 17.4191 9.0039 16.879ZM5.57088 16.879V6.12355C5.57088 5.62531 5.58052 5.12386 5.57088 4.62562V4.60312C5.57088 4.09845 5.12729 3.61629 4.60655 3.63879C4.0826 3.66129 3.64222 4.06309 3.64222 4.60312V15.3586C3.64222 15.8569 3.63257 16.3583 3.64222 16.8565V16.879C3.64222 17.3837 4.08581 17.8659 4.60655 17.8434C5.12729 17.8209 5.57088 17.4191 5.57088 16.879ZM12.5751 4.60633V15.3618C12.5751 15.8601 12.5655 16.3615 12.5751 16.8598V16.8823C12.5751 17.3869 13.0187 17.8691 13.5395 17.8466C14.0634 17.8241 14.5038 17.4223 14.5038 16.8823V6.12676C14.5038 5.62852 14.5134 5.12707 14.5038 4.62883V4.60633C14.5038 4.10167 14.0602 3.6195 13.5395 3.642C13.0187 3.6645 12.5751 4.06631 12.5751 4.60633ZM17.7536 4.60633H19.2515V16.879H17.7536V4.60633Z" fill="white"/>
<path d="M16.789 4.60623V15.3617C16.789 15.86 16.7794 16.3614 16.789 16.8597V16.8822C16.789 17.4029 17.2294 17.8465 17.7533 17.8465H19.2513C19.772 17.8465 20.2156 17.4061 20.2156 16.8822V6.12666C20.2156 5.62842 20.2252 5.12697 20.2156 4.62873V4.60623C20.2156 4.08549 19.7752 3.6419 19.2513 3.6419H17.7533C17.2487 3.6419 16.7633 4.08549 16.789 4.60623C16.8115 5.13019 17.2133 5.57056 17.7533 5.57056H19.2513L18.2869 4.60623V15.3617C18.2869 15.86 18.2709 16.3614 18.2869 16.8597V16.8822L19.2513 15.9178H17.7533L18.7177 16.8822V6.12666C18.7177 5.62842 18.7273 5.12697 18.7177 4.62873V4.60623C18.7177 4.10157 18.2741 3.6194 17.7533 3.6419C17.2294 3.6644 16.789 4.06621 16.789 4.60623ZM22.8643 4.60623H25.6673V16.8789H22.8643V4.60623Z" fill="white"/>
<path d="M23.8286 16.879V6.1235C23.8286 5.62526 23.8447 5.12381 23.8286 4.62557V4.60307L22.8643 5.5674H25.6673L24.7029 4.60307V15.3586C24.7029 15.8568 24.6869 16.3583 24.7029 16.8565V16.879L25.6673 15.9147H22.8643C22.3596 15.9147 21.8774 16.3583 21.8999 16.879C21.9224 17.403 22.3243 17.8433 22.8643 17.8433H25.6673C26.188 17.8433 26.6316 17.403 26.6316 16.879V6.1235C26.6316 5.62526 26.6412 5.12381 26.6316 4.62557V4.60307C26.6316 4.08233 26.1912 3.63874 25.6673 3.63874H22.8643C22.3435 3.63874 21.8999 4.07912 21.8999 4.60307V15.3586C21.8999 15.8568 21.8903 16.3583 21.8999 16.8565V16.879C21.8999 17.3837 22.3435 17.8658 22.8643 17.8433C23.3882 17.8208 23.8286 17.419 23.8286 16.879ZM1.92866 5.19131V0.96433L0.96433 1.92866H5.19131C5.69598 1.92866 6.17814 1.48507 6.15564 0.96433C6.13314 0.440378 5.73134 0 5.19131 0H0.96433C0.443592 0 0 0.440378 0 0.96433V5.19131C0 5.69598 0.443592 6.17814 0.96433 6.15564C1.48828 6.13314 1.92866 5.73134 1.92866 5.19131ZM30.2736 5.19131V0.96433C30.2736 0.443592 29.8332 0 29.3092 0H25.0822C24.5776 0 24.0954 0.443592 24.1179 0.96433C24.1404 1.48828 24.5422 1.92866 25.0822 1.92866H29.3092L28.3449 0.96433V5.19131C28.3449 5.69598 28.7885 6.17814 29.3092 6.15564C29.83 6.13314 30.2736 5.73134 30.2736 5.19131ZM0 16.294V20.521C0 21.0417 0.440378 21.4853 0.96433 21.4853H5.19131C5.69598 21.4853 6.17814 21.0417 6.15564 20.521C6.13314 19.997 5.73134 19.5566 5.19131 19.5566H0.96433L1.92866 20.521V16.294C1.92866 15.7893 1.48507 15.3071 0.96433 15.3296C0.443592 15.3521 0 15.7539 0 16.294ZM28.3449 16.294V20.521L29.3092 19.5566H25.0822C24.5776 19.5566 24.0954 20.0002 24.1179 20.521C24.1404 21.0449 24.5422 21.4853 25.0822 21.4853H29.3092C29.83 21.4853 30.2736 21.0449 30.2736 20.521V16.294C30.2736 15.7893 29.83 15.3071 29.3092 15.3296C28.7853 15.3521 28.3449 15.7539 28.3449 16.294Z" fill="white"/>
</svg>
