<svg width="40" height="31" viewBox="0 0 40 31" fill="none" xmlns="http://www.w3.org/2000/svg">
<path d="M12.125 17.3125H27.875" stroke="#351C05" stroke-width="2" stroke-linecap="round" stroke-linejoin="round"/>
<path d="M6.875 10.75V6.8125C6.875 5.42011 7.42812 4.08476 8.41269 3.10019C9.39726 2.11562 10.7326 1.5625 12.125 1.5625H27.875C29.2674 1.5625 30.6027 2.11562 31.5873 3.10019C32.5719 4.08476 33.125 5.42011 33.125 6.8125V10.75" stroke="#351C05" stroke-width="2" stroke-linecap="round" stroke-linejoin="round"/>
<path d="M12.125 22.5625V16C12.125 14.9617 11.8171 13.9466 11.2402 13.0833C10.6633 12.2199 9.8434 11.547 8.88409 11.1496C7.92478 10.7523 6.86918 10.6483 5.85078 10.8509C4.83238 11.0535 3.89692 11.5535 3.16269 12.2877C2.42847 13.0219 1.92845 13.9574 1.72588 14.9758C1.52331 15.9942 1.62727 17.0498 2.02463 18.0091C2.42199 18.9684 3.0949 19.7883 3.95826 20.3652C4.82162 20.9421 5.83665 21.25 6.875 21.25V27.8125C6.875 28.1606 7.01328 28.4944 7.25943 28.7406C7.50557 28.9867 7.83941 29.125 8.1875 29.125H31.8125C32.1606 29.125 32.4944 28.9867 32.7406 28.7406C32.9867 28.4944 33.125 28.1606 33.125 27.8125V21.25C34.1634 21.25 35.1784 20.9421 36.0417 20.3652C36.9051 19.7883 37.578 18.9684 37.9754 18.0091C38.3727 17.0498 38.4767 15.9942 38.2741 14.9758C38.0716 13.9574 37.5715 13.0219 36.8373 12.2877C36.1031 11.5535 35.1676 11.0535 34.1492 10.8509C33.1308 10.6483 32.0752 10.7523 31.1159 11.1496C30.1566 11.547 29.3367 12.2199 28.7598 13.0833C28.1829 13.9466 27.875 14.9617 27.875 16V22.5625" stroke="#351C05" stroke-width="2" stroke-linecap="round" stroke-linejoin="round"/>
</svg>
