<svg width="22" height="20" viewBox="0 0 22 20" fill="none" xmlns="http://www.w3.org/2000/svg">
<path d="M11.5345 17.8656L19.1283 10.2719C20.9939 8.39687 21.2658 5.33124 19.5033 3.37187C19.0612 2.8781 18.5232 2.47963 17.922 2.20082C17.3208 1.92201 16.669 1.76871 16.0066 1.75028C15.3441 1.73186 14.6848 1.84869 14.0691 2.09365C13.4533 2.33861 12.8939 2.70655 12.4251 3.17499L11.0001 4.60937L9.772 3.37187C7.897 1.50624 4.83138 1.23437 2.872 2.99687C2.37823 3.43888 1.97977 3.97694 1.70096 4.57815C1.42215 5.17936 1.26885 5.83111 1.25042 6.49356C1.23199 7.15602 1.34883 7.81528 1.59379 8.43106C1.83875 9.04684 2.20669 9.60621 2.67513 10.075L10.4658 17.8656C10.6079 18.0065 10.8 18.0855 11.0001 18.0855C11.2003 18.0855 11.3923 18.0065 11.5345 17.8656Z" stroke="#CC833D" stroke-width="2" stroke-linecap="round" stroke-linejoin="round"/>
</svg>
