<svg width="26" height="20" viewBox="0 0 26 20" fill="none" xmlns="http://www.w3.org/2000/svg">
<path d="M2.67475 7.94813C2.67475 16.2515 11.7184 18.1693 13.0225 19.5423C11.697 19.5423 8.76796 18.9321 7.6776 18.3219C4.6203 16.6438 1.41335 13.7888 0.494023 10.7813C-0.703241 5.70344 0.32298 4.00354 3.05958 1.82414C-0.42531 4.89698 0.622296 9.32117 1.17817 10.7813C3.78649 16.9707 9.3666 18.8014 11.2052 18.9321C6.75827 17.3848 3.50855 14.094 2.37543 11.6095C0.767675 6.93696 2.64624 3.13904 3.78649 1.82414C8.06243 -1.92429 12.6746 0.887138 14.0701 3.28435C16.3791 7.25077 15.8874 10.7813 15.6522 15.5759C16.5454 14.3337 17.4054 13.1786 19.2868 11.9146C23.0924 9.69165 26 11.4351 26 13.7888C25.5296 18.6924 19.073 19.5423 14.6688 20C17.8971 19.0411 22.2586 18.3219 23.9262 16.1425C25.5938 13.9632 24.0972 11.9146 21.1896 12.4376C17.9659 13.047 16.2132 15.851 14.6755 18.3111L14.6688 18.3219C14.7115 17.1015 14.9467 14.6388 15.2246 10.3673C14.797 3.02282 11.9108 1.93311 8.06243 1.82414C3.73518 1.66723 2.66762 5.84142 2.67475 7.94813Z" fill="#F92672"/>
</svg>
