<svg width="28" height="28" viewBox="0 0 28 28" fill="none" xmlns="http://www.w3.org/2000/svg">
<path d="M10.1172 13.65C11.0176 15.5094 12.5211 17.0091 14.3828 17.9047C14.5201 17.9697 14.672 17.9979 14.8235 17.9864C14.975 17.9749 15.1209 17.9241 15.2469 17.8391L17.9812 16.0125C18.1021 15.9306 18.2417 15.8806 18.387 15.8672C18.5324 15.8538 18.6788 15.8775 18.8125 15.936L23.9313 18.1344C24.1062 18.2072 24.2524 18.3355 24.3472 18.4996C24.4421 18.6636 24.4804 18.8543 24.4563 19.0422C24.294 20.3085 23.6759 21.4723 22.7177 22.3158C21.7594 23.1593 20.5266 23.6247 19.25 23.625C15.3049 23.625 11.5214 22.0579 8.73179 19.2682C5.94218 16.4786 4.375 12.6951 4.375 8.75004C4.37529 7.47341 4.84073 6.24062 5.68425 5.28236C6.52776 4.3241 7.69154 3.70602 8.95781 3.54379C9.14576 3.51964 9.33643 3.55795 9.50047 3.65282C9.66451 3.74768 9.79281 3.89384 9.86562 4.06879L12.0641 9.19847C12.1212 9.3301 12.1451 9.47377 12.1337 9.61683C12.1223 9.75988 12.0758 9.89792 11.9984 10.0188L10.1719 12.7969C10.0906 12.9226 10.0428 13.067 10.0333 13.2163C10.0237 13.3657 10.0526 13.515 10.1172 13.65V13.65Z" stroke="#0F053F" stroke-linecap="round" stroke-linejoin="round"/>
</svg>
