<svg width="66" height="52" viewBox="0 0 66 52" fill="none" xmlns="http://www.w3.org/2000/svg">
<path d="M6.78975 20.6651C6.78975 42.2538 29.7466 47.2402 33.0572 50.81C29.6923 50.81 22.2571 49.2235 19.4893 47.6369C11.7285 43.2739 3.58773 35.851 1.25406 28.0315C-1.78515 14.8289 0.819873 10.4092 7.76663 4.74276C-1.07963 12.7322 1.57967 24.235 2.99073 28.0315C9.61186 44.1238 23.7767 48.8835 28.4441 49.2235C17.1556 45.2004 8.90633 36.6443 6.02993 30.1847C1.94871 18.0361 6.71737 8.1615 9.61186 4.74276C20.4662 -5.00316 32.174 2.30656 35.7165 8.5393C41.5778 18.852 40.3296 28.0315 39.7326 40.4974C41.9998 37.2676 44.1828 34.2644 48.9587 30.9779C58.6191 25.1983 66 29.7314 66 35.851C64.806 48.6002 48.416 50.81 37.2361 52C45.4311 49.5068 56.5025 47.6369 60.7357 41.9706C64.9688 36.3043 61.1698 30.9779 53.7889 32.3379C45.6058 33.9221 41.1566 41.2127 37.2532 47.6089L37.2361 47.6369C37.3446 44.4639 37.9416 38.0608 38.6471 26.9548C37.5617 7.85934 30.2351 5.02608 20.4662 4.74276C9.48162 4.33479 6.77166 15.1877 6.78975 20.6651Z" fill="#F92672"/>
</svg>
