<svg width="26" height="32" viewBox="0 0 26 32" fill="none" xmlns="http://www.w3.org/2000/svg">
<path d="M12.9996 17.0768C15.3787 17.0768 17.3073 15.1482 17.3073 12.7691C17.3073 10.39 15.3787 8.46143 12.9996 8.46143C10.6205 8.46143 8.69189 10.39 8.69189 12.7691C8.69189 15.1482 10.6205 17.0768 12.9996 17.0768Z" stroke="#CC833D" stroke-width="2.5" stroke-linecap="round" stroke-linejoin="round"/>
<path d="M23.7689 12.7692C23.7689 22.4615 12.9997 30 12.9997 30C12.9997 30 2.23047 22.4615 2.23047 12.7692C2.23047 9.91305 3.36508 7.17386 5.3847 5.15423C7.40433 3.13461 10.1435 2 12.9997 2C15.8559 2 18.5951 3.13461 20.6147 5.15423C22.6343 7.17386 23.7689 9.91305 23.7689 12.7692V12.7692Z" stroke="#CC833D" stroke-width="2.5" stroke-linecap="round" stroke-linejoin="round"/>
</svg>
