<svg width="995" height="413" viewBox="0 0 995 413" fill="none" xmlns="http://www.w3.org/2000/svg">
<g style="mix-blend-mode:multiply">
<path d="M595.039 190.213C566.96 227.205 568.3 277.114 579.762 300.113C575.079 284.384 574.702 262.215 580.914 244.559C626.668 114.812 977.595 293.24 986.149 56.8027C947.306 210.796 688.7 70.3987 595.039 190.213Z" fill="url(#paint0_radial_6_9449)"/>
<path d="M994.835 0.284668C945.455 147.555 692.269 -23.9425 589.506 82.6156C558.632 115.624 556.744 165.117 566.884 189.287C563.145 173.161 564.221 151.181 571.661 134.545C626.498 12.1056 970.816 232.87 994.854 0.284668H994.835Z" fill="url(#paint1_radial_6_9449)"/>
<path d="M9.62061 56.8027C18.1747 293.24 369.101 114.812 414.855 244.559C421.068 262.196 420.69 284.384 416.007 300.113C427.469 277.132 428.81 227.205 400.73 190.213C307.07 70.3987 48.4446 210.796 9.62061 56.8027Z" fill="url(#paint2_radial_6_9449)"/>
<path d="M406.282 82.6156C303.501 -23.9425 50.3329 147.555 0.934326 0.284668C24.9727 232.87 369.29 12.1245 424.127 134.545C431.567 151.2 432.643 173.161 428.904 189.287C439.045 165.117 437.156 115.624 406.282 82.6156Z" fill="url(#paint3_radial_6_9449)"/>
</g>
<path d="M579.762 250.787C575.079 237.645 574.702 219.082 580.914 204.335C626.668 95.8127 977.595 245.047 986.149 47.2827C947.306 176.085 688.7 58.6504 595.039 158.864C566.96 189.813 568.3 231.545 579.762 250.787Z" fill="url(#paint4_linear_6_9449)"/>
<path d="M566.865 158.091C563.126 144.589 564.203 126.216 571.643 112.299C626.48 9.89482 970.797 194.535 994.835 0C945.455 123.175 692.269 -20.2617 589.506 68.8672C558.632 96.4745 556.744 137.885 566.884 158.091H566.865Z" fill="url(#paint5_linear_6_9449)"/>
<path d="M416.007 250.787C420.69 237.645 421.068 219.082 414.855 204.335C369.101 95.8127 18.1747 245.047 9.62061 47.2827C48.4634 176.085 307.07 58.6504 400.73 158.864C428.81 189.813 427.469 231.545 416.007 250.787Z" fill="url(#paint6_linear_6_9449)"/>
<path d="M428.904 158.091C432.643 144.589 431.567 126.216 424.127 112.299C369.309 9.89482 24.9727 194.535 0.934326 0C50.314 123.175 303.501 -20.2617 406.263 68.8672C437.137 96.4745 439.026 137.885 428.885 158.091H428.904Z" fill="url(#paint7_linear_6_9449)"/>
<path style="mix-blend-mode:multiply" d="M576.67 316.506C629.625 263.551 629.625 177.693 576.67 124.738C523.715 71.7826 437.857 71.7826 384.902 124.738C331.946 177.693 331.946 263.551 384.902 316.506C437.857 369.461 523.715 369.461 576.67 316.506Z" fill="url(#paint8_radial_6_9449)"/>
<path d="M494.599 304.891C550.342 304.891 595.53 259.703 595.53 203.96C595.53 148.218 550.342 103.029 494.599 103.029C438.856 103.029 393.668 148.218 393.668 203.96C393.668 259.703 438.856 304.891 494.599 304.891Z" fill="white"/>
<path d="M494.599 98.4233C436.306 98.4233 389.061 145.669 389.061 203.962C389.061 262.254 436.325 309.5 494.599 309.5C552.873 309.5 600.137 262.254 600.137 203.962C600.137 145.669 552.873 98.4233 494.599 98.4233ZM592.603 210.495C589.903 210.552 587.769 212.78 587.826 215.481C587.882 217.728 589.431 219.559 591.508 220.088C591.111 222.486 590.62 224.866 590.054 227.207L540.769 211.477L507.421 205.85C507.515 205.284 507.572 204.698 507.591 204.113L541.241 207.644L592.83 204.037C592.83 206.209 592.735 208.362 592.584 210.495H592.603ZM587.844 234.874C587.75 234.855 587.656 234.798 587.561 234.779C584.936 234.137 582.293 235.761 581.67 238.386C581.122 240.671 582.274 242.975 584.332 243.956C583.312 246.26 582.217 248.526 581.028 250.717L537.256 222.958L506.477 209.079C506.741 208.494 506.911 207.89 507.081 207.266L538.861 218.861L589.884 227.887C589.28 230.266 588.6 232.589 587.844 234.874ZM538.049 291.542C536.633 289.257 533.612 288.559 531.308 289.994C529.306 291.24 528.513 293.733 529.325 295.867C527.248 296.66 525.114 297.377 522.962 298.038L511.367 247.393L499.263 215.915C499.811 215.707 500.321 215.424 500.849 215.16L514.88 245.864L544.356 288.653C542.374 289.824 540.334 290.938 538.257 291.958C538.182 291.807 538.125 291.674 538.049 291.542ZM512.387 300.096C511.594 297.509 508.856 296.074 506.269 296.886C504.078 297.566 502.719 299.643 502.851 301.853C500.358 302.06 497.828 302.192 495.279 302.211L498.376 250.358L495.619 216.727C496.393 216.67 497.148 216.557 497.866 216.368L504.06 249.546L522.32 298.227C519.109 299.171 515.824 299.964 512.463 300.568C512.425 300.417 512.406 300.266 512.368 300.096H512.387ZM457.739 289.881C455.435 289.371 453.169 290.579 452.244 292.638C450.469 291.788 448.732 290.881 446.994 289.918L475.074 246.241L489.104 215.575C489.67 215.839 490.275 216.047 490.898 216.236L479.115 247.865L469.711 299.02C466.841 298.265 464.008 297.377 461.251 296.395C461.346 296.169 461.421 295.942 461.478 295.697C462.063 293.072 460.383 290.447 457.758 289.881H457.739ZM408.34 240.237C407.056 238.292 404.639 237.555 402.543 238.348C401.788 236.29 401.089 234.213 400.447 232.098L450.884 220.485L482.419 208.324C482.627 208.909 482.891 209.438 483.194 209.967L452.527 224.205L410.002 253.889C408.718 251.736 407.509 249.527 406.395 247.261C406.584 247.167 406.773 247.091 406.943 246.978C409.209 245.505 409.832 242.465 408.34 240.199V240.237ZM396.689 195.918C396.935 195.936 397.161 195.955 397.407 195.936C400.107 195.766 402.147 193.444 401.977 190.744C401.826 188.459 400.107 186.646 397.955 186.268C398.332 184.21 398.748 182.171 399.257 180.169L448.429 195.861L481.796 201.488C481.702 202.055 481.645 202.64 481.626 203.225L447.939 199.675L396.349 203.282C396.349 200.789 396.482 198.335 396.689 195.899V195.918ZM401.731 171.823C401.958 171.898 402.184 171.992 402.43 172.03C405.074 172.559 407.642 170.822 408.17 168.178C408.605 165.912 407.396 163.703 405.376 162.777C406.32 160.738 407.302 158.736 408.378 156.773L451.904 184.38L482.797 198.297C482.533 198.863 482.325 199.468 482.136 200.091L450.28 188.459L399.39 179.451C400.051 176.845 400.844 174.296 401.712 171.804L401.731 171.823ZM451.715 116.513C453.245 118.742 456.285 119.308 458.513 117.779C460.439 116.457 461.138 113.964 460.25 111.868C462.252 111.132 464.273 110.452 466.331 109.829L477.812 159.945L489.992 191.631C489.444 191.839 488.934 192.103 488.424 192.367L474.3 161.456L445.087 119.082C447.108 117.892 449.166 116.778 451.281 115.739C451.394 116.004 451.526 116.268 451.715 116.513ZM397.992 221.901C398.2 221.863 398.427 221.825 398.634 221.75C401.202 220.9 402.581 218.124 401.712 215.556C400.995 213.385 398.88 212.063 396.689 212.252C396.463 209.532 396.312 206.775 396.312 203.981L447.882 207.266L481.626 204.623C481.683 205.416 481.777 206.19 481.985 206.926L448.732 213.158L400.239 231.399C399.333 228.283 398.578 225.111 397.992 221.863V221.901ZM491.332 191.216L485.101 157.811L467.029 109.64C469.786 108.847 472.581 108.148 475.414 107.582C475.451 107.884 475.527 108.186 475.64 108.469C476.547 111 479.341 112.321 481.891 111.415C484.1 110.622 485.403 108.394 485.082 106.165C487.971 105.882 490.898 105.731 493.844 105.712L490.766 156.999L493.542 190.857C492.786 190.913 492.031 191.027 491.313 191.216H491.332ZM506.968 110.792C509.215 110.792 511.084 109.262 511.651 107.204C514.011 107.619 516.353 108.092 518.656 108.677L502.7 157.547L496.827 190.989C496.223 190.876 495.6 190.819 494.958 190.8L498.376 156.999L494.58 105.693C497.11 105.693 499.603 105.826 502.077 106.014C502.133 108.677 504.286 110.811 506.949 110.811L506.968 110.792ZM530.307 117.042C532.498 117.628 534.707 116.608 535.783 114.738C537.861 115.702 539.919 116.721 541.92 117.816L514.105 161.078L499.981 191.933C499.414 191.669 498.81 191.48 498.206 191.31L510.064 159.454L519.374 108.828C521.904 109.489 524.378 110.263 526.814 111.113C526.172 113.7 527.72 116.344 530.307 117.023V117.042ZM551.268 129.052C553.232 130.166 555.649 129.751 557.159 128.221C559.444 130.109 561.653 132.111 563.749 134.207L525.077 168.159L502.983 193.935C502.417 193.463 501.831 193.028 501.208 192.651L520.733 164.855L542.544 118.232C544.885 119.554 547.189 120.932 549.417 122.443C548.114 124.784 548.926 127.749 551.268 129.071V129.052ZM568.47 146.009C570.094 147.595 572.53 147.803 574.4 146.689C575.873 148.728 577.27 150.805 578.592 152.958L532.781 176.581L505.155 196.22C504.815 195.748 504.437 195.294 504.041 194.879L530.439 173.56L564.297 134.717C565.713 136.133 567.073 137.625 568.395 139.136C566.525 141.062 566.563 144.14 568.489 146.009H568.47ZM580.782 166.8C581.953 168.763 584.294 169.594 586.39 168.971C587.184 171.048 587.92 173.163 588.562 175.297L538.276 186.872L506.684 199.052C506.458 198.486 506.174 197.957 505.872 197.428L536.652 183.134L578.95 153.6C580.216 155.715 581.386 157.887 582.501 160.096C580.178 161.474 579.423 164.477 580.82 166.8H580.782ZM590.922 184.682C590.922 184.682 590.771 184.701 590.715 184.72C588.109 185.456 586.617 188.175 587.372 190.762C588.014 193.01 590.129 194.426 592.358 194.294C592.641 197.277 592.811 200.298 592.811 203.339L541.26 200.053L507.496 202.697C507.421 201.904 507.307 201.148 507.1 200.393L540.429 194.143L588.77 175.958C589.62 178.809 590.356 181.717 590.941 184.682H590.922ZM430.774 129.26C430.944 129.467 431.132 129.656 431.34 129.845C433.38 131.601 436.476 131.375 438.233 129.335C439.724 127.598 439.762 125.086 438.497 123.311C440.423 121.971 442.406 120.687 444.445 119.478L467.728 165.327L487.197 193.085C486.668 193.444 486.177 193.878 485.705 194.312L464.14 168.103L424.995 134.585C426.846 132.734 428.791 130.959 430.793 129.26H430.774ZM424.486 135.113L458.777 173.484L484.723 195.332C484.251 195.88 483.817 196.446 483.458 197.069L455.586 177.733L408.737 156.149C410.115 153.695 411.569 151.278 413.137 148.955C413.344 149.106 413.571 149.257 413.835 149.37C416.252 150.56 419.179 149.54 420.369 147.104C421.389 145.008 420.766 142.535 419.009 141.156C420.766 139.06 422.597 137.04 424.504 135.076L424.486 135.113ZM419.406 267.202C419.633 267.032 419.84 266.843 420.029 266.635C421.842 264.634 421.672 261.537 419.651 259.724C417.895 258.157 415.308 258.081 413.477 259.422C412.381 257.817 411.324 256.174 410.304 254.493L456.379 230.757L483.892 211.213C484.232 211.685 484.61 212.138 485.006 212.573L458.721 233.797L424.618 272.923C422.805 271.073 421.068 269.166 419.406 267.202ZM425.09 273.414L464.084 239.198L486.064 213.573C486.63 214.064 487.197 214.499 487.839 214.876L468.446 242.503L446.428 289.578C443.671 288.011 440.989 286.331 438.384 284.518C438.535 284.31 438.686 284.102 438.799 283.876C440.045 281.478 439.082 278.532 436.684 277.304C434.607 276.228 432.114 276.813 430.679 278.551C428.753 276.908 426.884 275.208 425.109 273.414H425.09ZM486.366 301.834C486.366 301.664 486.404 301.494 486.385 301.324C486.271 298.642 484.005 296.546 481.286 296.66C479.001 296.754 477.151 298.416 476.717 300.568C474.545 300.172 472.411 299.719 470.296 299.19L486.423 249.791L492.239 216.595C492.862 216.708 493.504 216.765 494.146 216.784L490.747 250.339L494.58 302.211H494.561C491.804 302.211 489.066 302.06 486.347 301.853L486.366 301.834ZM558.934 278.154C558.783 277.984 558.651 277.795 558.481 277.644C556.517 275.794 553.42 275.907 551.57 277.871C549.908 279.646 549.833 282.308 551.268 284.178C549.209 285.632 547.094 287.029 544.923 288.332L521.413 242.03L502.058 214.423C502.587 214.045 503.096 213.63 503.569 213.177L525.001 239.255L564.429 273.018C562.654 274.812 560.823 276.511 558.915 278.154H558.934ZM564.92 272.527L530.364 233.854L504.532 212.1C504.985 211.553 505.419 210.967 505.778 210.325L533.555 229.586L580.669 251.283C579.234 253.908 577.666 256.476 576.005 258.931C575.854 258.818 575.703 258.685 575.514 258.591C573.153 257.307 570.17 258.194 568.886 260.574C567.753 262.689 568.319 265.257 570.151 266.711C568.489 268.712 566.733 270.639 564.92 272.508V272.527Z" fill="#000080"/>
<path d="M310.318 390.773C305.767 390.773 302.349 387.317 302.349 382.71V336.559L302.009 328.704C301.858 325.324 304.294 322.378 307.655 321.887C309.902 321.566 312.13 321.396 314.321 321.396C318.872 321.396 322.289 324.852 322.289 329.459V375.61L322.629 383.465C322.78 386.845 320.345 389.791 316.983 390.282C314.736 390.603 312.508 390.773 310.318 390.773Z" fill="white"/>
<path d="M341.89 391.208C339.303 391.208 336.962 390.471 335.111 389.112C334.243 389.735 333.223 390.15 332.128 390.301C330.145 390.566 327.992 390.698 325.726 390.698C321.138 390.698 317.663 387.299 317.663 382.805V351.345C315.907 350.212 314.698 348.286 314.604 346.058C314.434 341.771 316.228 339.109 317.776 337.636C319.854 335.615 322.743 334.596 326.33 334.596C328.03 334.596 329.616 334.955 331.014 335.615C332.713 334.955 334.507 334.596 336.32 334.596C340.323 334.596 343.816 336.05 346.403 338.807C348.915 341.488 350.199 345.038 350.199 349.381V374.458C351.974 375.591 353.182 377.536 353.258 379.764C353.428 384.032 351.634 386.695 350.086 388.167C348.651 389.565 346.063 391.208 341.871 391.208H341.89Z" fill="white"/>
<path d="M369.214 391.207C367.383 391.207 365.683 390.867 364.191 390.206C362.511 390.867 360.736 391.207 358.904 391.207C354.806 391.207 351.275 389.677 348.65 386.769C346.158 384.031 344.893 380.368 344.893 375.912V351.061C344.893 345.113 347.517 341.506 349.708 339.523C351.936 337.503 354.655 336.238 357.828 335.709V330.988C357.828 329.912 357.658 328.798 357.318 327.627C356.449 324.625 357.809 321.433 360.566 319.96C363.228 318.544 366.099 317.827 369.12 317.827C374.577 317.827 377.429 321.792 377.429 325.72V374.457C379.204 375.59 380.412 377.535 380.488 379.764C380.658 384.031 378.864 386.694 377.334 388.167C375.88 389.564 373.312 391.226 369.214 391.226V391.207Z" fill="white"/>
<path d="M388.437 391.206C378.486 391.206 372.292 385.446 372.292 376.174V349.53C372.292 342.298 376.617 334.575 388.74 334.575C398.88 334.575 405.187 340.693 405.187 350.55C405.187 353.949 404.545 357.14 403.28 360.067C402.619 361.578 401.826 362.937 400.9 364.146C403.752 365.921 404.847 368.772 404.847 371.227V377.364C404.847 381.745 402.921 385.559 399.39 388.071C396.463 390.167 392.781 391.224 388.437 391.224V391.206Z" fill="white"/>
<path d="M407.585 403.706C402.128 403.706 399.276 399.741 399.276 395.813V351.324C397.501 350.191 396.312 348.246 396.217 346.018C396.047 341.75 397.841 339.088 399.39 337.596C401.467 335.575 404.356 334.556 407.982 334.556C409.643 334.556 411.192 334.896 412.57 335.538C414.232 334.896 415.988 334.556 417.801 334.556C421.899 334.556 425.43 336.085 428.055 338.993C430.547 341.731 431.812 345.395 431.812 349.851V374.701C431.812 380.65 429.188 384.256 426.997 386.239C424.769 388.26 422.05 389.525 418.877 390.054V390.167L419.444 395.435C419.746 398.362 418.084 401.138 415.365 402.252C413.042 403.196 410.436 403.668 407.604 403.668L407.585 403.706Z" fill="white"/>
<path d="M441.896 391.206C431.944 391.206 425.751 385.446 425.751 376.174V349.53C425.751 342.298 430.075 334.575 442.198 334.575C452.338 334.575 458.645 340.693 458.645 350.55C458.645 353.949 458.003 357.14 456.738 360.067C456.077 361.578 455.284 362.937 454.359 364.146C457.21 365.921 458.305 368.772 458.305 371.227V377.364C458.305 381.745 456.379 385.559 452.848 388.071C449.921 390.167 446.239 391.224 441.896 391.224V391.206Z" fill="white"/>
<path d="M476.962 391.206C474.375 391.206 472.034 390.469 470.183 389.11C469.314 389.733 468.295 390.148 467.199 390.299C465.217 390.564 463.064 390.696 460.798 390.696C456.209 390.696 452.735 387.297 452.735 382.803V351.343C450.96 350.21 449.77 348.265 449.676 346.037C449.506 341.769 451.3 339.107 452.829 337.615C454.925 335.594 457.796 334.575 461.383 334.575C463.083 334.575 464.669 334.934 466.066 335.594C467.766 334.934 469.541 334.575 471.373 334.575C475.376 334.575 478.869 336.029 481.456 338.786C483.968 341.467 485.252 345.017 485.252 349.36V374.437C487.027 375.57 488.235 377.515 488.311 379.743C488.462 384.011 486.687 386.674 485.157 388.146C483.722 389.544 481.135 391.187 476.943 391.187L476.962 391.206Z" fill="white"/>
<path d="M504.267 391.205C502.436 391.205 500.736 390.865 499.244 390.205C497.564 390.865 495.789 391.205 493.957 391.205C489.878 391.205 486.328 389.676 483.703 386.787C481.211 384.03 479.946 380.385 479.946 375.929V351.078C479.946 345.13 482.57 341.524 484.761 339.541C486.989 337.52 489.708 336.255 492.881 335.726V331.006C492.881 329.929 492.711 328.815 492.371 327.663C491.502 324.661 492.843 321.451 495.619 319.997C498.281 318.58 501.152 317.863 504.173 317.863C509.63 317.863 512.482 321.828 512.482 325.756V374.494C514.257 375.627 515.465 377.572 515.541 379.8C515.711 384.067 513.917 386.73 512.368 388.203C510.933 389.6 508.346 391.243 504.248 391.243L504.267 391.205Z" fill="white"/>
<path d="M523.509 391.206C513.558 391.206 507.364 385.446 507.364 376.174V349.53C507.364 342.298 511.689 334.575 523.812 334.575C533.952 334.575 540.259 340.693 540.259 350.55C540.259 353.949 539.617 357.14 538.352 360.067C537.691 361.578 536.898 362.937 535.972 364.146C538.824 365.921 539.9 368.772 539.9 371.227V377.364C539.9 381.764 537.955 385.559 534.443 388.071C531.535 390.148 527.853 391.224 523.509 391.224V391.206Z" fill="white"/>
<path d="M558.575 391.206C555.988 391.206 553.647 390.469 551.796 389.11C550.928 389.733 549.908 390.148 548.813 390.299C546.83 390.564 544.677 390.696 542.411 390.696C537.823 390.696 534.348 387.297 534.348 382.803V351.343C532.573 350.21 531.384 348.265 531.289 346.037C531.119 341.769 532.913 339.107 534.462 337.615C536.539 335.594 539.428 334.575 543.016 334.575C544.715 334.575 546.301 334.915 547.699 335.594C549.398 334.934 551.173 334.575 553.005 334.575C557.008 334.575 560.502 336.029 563.089 338.786C565.619 341.467 566.884 345.036 566.884 349.36V374.437C568.659 375.57 569.868 377.515 569.943 379.743C570.094 384.011 568.319 386.674 566.771 388.146C565.336 389.544 562.749 391.187 558.575 391.187V391.206Z" fill="white"/>
<path d="M576.873 391.206C567.432 391.206 561.578 385.012 561.578 375.06V349.53C561.578 342.298 565.902 334.575 578.063 334.575C582.463 334.575 586.145 335.708 588.977 337.955C592.188 340.504 593.944 344.205 593.944 348.416V355.403C593.944 358.538 592.15 362.352 587.146 363.712C585.257 364.297 583.199 364.429 581.179 364.203V369.452C581.443 369.301 581.707 369.169 581.991 369.056C583.671 368.357 585.578 368.376 587.24 369.131C591.885 371.227 594.548 375.023 594.548 379.592C594.548 382.066 593.491 384.37 591.64 385.994C588.109 389.468 583.143 391.224 576.873 391.224V391.206Z" fill="white"/>
<path d="M603.253 391.206C593.302 391.206 587.108 385.446 587.108 376.174V349.53C587.108 342.298 591.432 334.575 603.555 334.575C613.696 334.575 620.003 340.693 620.003 350.55C620.003 353.949 619.361 357.14 618.096 360.067C617.435 361.578 616.642 362.937 615.716 364.146C618.568 365.921 619.663 368.772 619.663 371.227V377.364C619.663 381.764 617.718 385.559 614.206 388.071C611.298 390.148 607.615 391.224 603.272 391.224L603.253 391.206Z" fill="white"/>
<path d="M643.003 390.356H632.541C628.897 390.356 625.932 387.392 625.932 383.747V338.805C624.119 337.691 622.873 335.708 622.797 333.442C622.628 329.231 624.403 326.531 625.913 325.02C628.047 322.886 631.012 321.81 634.713 321.81C636.507 321.81 638.168 322.207 639.641 322.943C641.53 322.188 643.475 321.81 645.476 321.81C654.748 321.81 660.507 327.532 660.507 336.766V374.721C660.507 379.574 658.638 383.634 655.126 386.485C651.972 389.053 647.893 390.337 643.003 390.337V390.356Z" fill="white"/>
<path d="M678.579 391.206C676.69 391.206 674.972 390.866 673.48 390.205C671.762 390.866 669.93 391.206 668.023 391.206C663.642 391.206 659.752 389.336 657.108 385.937C654.767 382.954 653.577 379.12 653.577 374.551C653.577 369.735 655.05 365.581 657.901 362.295C655.277 360.501 654.257 357.763 654.257 355.403V348.416C654.257 344.035 656.183 340.221 659.695 337.728C662.622 335.632 666.304 334.575 670.648 334.575C680.599 334.575 686.793 340.334 686.793 349.606V374.437C688.568 375.57 689.776 377.515 689.852 379.743C690.022 384.011 688.228 386.674 686.679 388.146C685.244 389.544 682.657 391.187 678.56 391.187L678.579 391.206Z" fill="white"/>
<path d="M698.236 404.14C693.874 404.14 690.267 403.177 687.51 401.27C684.074 398.91 682.185 395.303 682.185 391.149V387.995C682.185 386.258 682.752 384.275 684.149 382.614C682.846 380.291 682.185 377.515 682.185 374.286V351.324C680.429 350.191 679.221 348.265 679.126 346.037C678.994 342.713 680.165 339.711 682.45 337.577C683.923 336.198 686.547 334.556 690.664 334.556C693.723 334.556 695.894 335.519 697.367 336.576C698.217 335.991 699.218 335.594 700.257 335.462C702.239 335.198 704.392 335.065 706.658 335.065C711.247 335.065 714.721 338.464 714.721 342.959V389.77C714.721 394.397 712.814 398.343 709.339 400.892C706.394 403.045 702.674 404.122 698.236 404.122V404.14Z" fill="white"/>
<path d="M308.958 382.73V336.428L308.618 328.422C310.544 328.138 312.451 327.987 314.321 327.987C315.227 327.987 315.68 328.478 315.68 329.441V375.743L316.02 383.75C314.094 384.033 312.187 384.184 310.318 384.184C309.411 384.184 308.958 383.693 308.958 382.73Z" fill="#000080"/>
<path d="M330.655 376.763C330.655 379.539 330.863 381.862 331.259 383.75C329.56 383.976 327.709 384.09 325.726 384.09C324.763 384.09 324.272 383.655 324.272 382.806V349.099C324.272 347.909 324.065 347.06 323.63 346.55C323.196 346.04 322.403 345.776 321.213 345.776C321.157 344.303 321.534 343.17 322.365 342.377C323.177 341.584 324.499 341.187 326.331 341.187C328.162 341.187 329.446 342.075 330.239 343.831C332.109 342.075 334.148 341.187 336.32 341.187C338.491 341.187 340.266 341.905 341.588 343.321C342.929 344.737 343.59 346.758 343.59 349.363V376.688C343.59 377.877 343.798 378.727 344.232 379.237C344.647 379.747 345.459 380.011 346.668 380.011C346.724 381.484 346.347 382.617 345.516 383.41C344.685 384.203 343.495 384.6 341.909 384.6C340.323 384.6 339.152 384.109 338.378 383.146C337.604 382.183 337.226 380.596 337.226 378.387V349.873C337.226 348.004 336.263 347.06 334.337 347.06C332.751 347.06 331.523 347.947 330.674 349.703V376.763H330.655Z" fill="#000080"/>
<path d="M364.437 330.969C364.437 329.269 364.173 327.532 363.663 325.776C365.362 324.869 367.175 324.416 369.101 324.416C370.234 324.416 370.801 324.85 370.801 325.7V376.685C370.801 377.875 371.008 378.724 371.443 379.234C371.877 379.744 372.67 380.008 373.879 380.008C373.935 381.481 373.558 382.614 372.727 383.407C371.896 384.2 370.725 384.597 369.196 384.597C366.93 384.597 365.476 383.709 364.852 381.953C363.096 383.709 361.113 384.597 358.885 384.597C356.657 384.597 354.882 383.842 353.522 382.35C352.163 380.839 351.483 378.705 351.483 375.93V351.079C351.483 348.247 352.352 346.037 354.127 344.432C355.883 342.846 358.262 342.053 361.283 342.053H364.437V330.987V330.969ZM364.437 347.472H361.113C360.15 347.472 359.376 347.775 358.772 348.36C358.168 348.945 357.884 349.738 357.884 350.702V375.816C357.884 377.799 358.696 378.8 360.358 378.8C361.208 378.8 362.02 378.479 362.775 377.818C363.549 377.157 364.097 376.477 364.437 375.741V347.491V347.472Z" fill="#000080"/>
<path d="M378.92 376.178V349.533C378.92 343.982 382.206 341.187 388.759 341.187C395.311 341.187 398.597 344.303 398.597 350.553C398.597 353.046 398.144 355.349 397.237 357.445C396.331 359.542 395.084 361.128 393.498 362.204L385.322 367.812V375.555C385.322 377.934 386.436 379.123 388.683 379.123C390.93 379.123 392.044 377.783 392.044 375.12V373.156L391.799 369.153C392.535 368.983 393.291 368.889 394.046 368.889C394.801 368.889 395.538 369.002 396.217 369.229C397.577 369.569 398.257 370.229 398.257 371.192V377.33C398.257 379.596 397.369 381.371 395.575 382.655C393.782 383.939 391.421 384.562 388.475 384.562C382.112 384.562 378.939 381.748 378.939 376.14L378.92 376.178ZM392.025 350.308C392.025 349.175 391.686 348.287 391.006 347.626C390.326 346.965 389.476 346.644 388.456 346.644C386.36 346.644 385.303 347.532 385.303 349.288V361.449L389.382 358.39C391.138 357.087 392.025 354.386 392.025 350.308Z" fill="#000080"/>
<path d="M412.268 383.748V390.565L412.872 396.192C411.343 396.815 409.587 397.136 407.604 397.136C406.471 397.136 405.905 396.702 405.905 395.852V349.135C405.905 347.945 405.697 347.095 405.263 346.585C404.828 346.076 404.035 345.811 402.827 345.811C402.77 344.338 403.148 343.205 403.978 342.412C404.79 341.619 406.131 341.223 407.982 341.223C409.832 341.223 411.116 342.11 411.853 343.866C413.609 342.11 415.592 341.223 417.82 341.223C420.048 341.223 421.823 341.978 423.183 343.47C424.542 344.98 425.222 347.114 425.222 349.89V374.74C425.222 377.573 424.335 379.782 422.578 381.387C420.822 382.974 418.443 383.767 415.422 383.767H412.268V383.748ZM412.268 378.309H415.592C416.555 378.309 417.329 378.007 417.933 377.422C418.537 376.818 418.821 376.043 418.821 375.08V349.966C418.821 347.983 417.99 346.982 416.347 346.982C415.497 346.982 414.685 347.303 413.93 347.964C413.156 348.625 412.608 349.305 412.268 350.041V378.29V378.309Z" fill="#000080"/>
<path d="M432.36 376.178V349.533C432.36 343.982 435.646 341.187 442.198 341.187C448.751 341.187 452.036 344.303 452.036 350.553C452.036 353.046 451.583 355.349 450.677 357.445C449.77 359.542 448.524 361.128 446.938 362.204L438.761 367.812V375.555C438.761 377.934 439.876 379.123 442.123 379.123C444.37 379.123 445.484 377.783 445.484 375.12V373.156L445.238 369.153C445.975 368.983 446.73 368.889 447.485 368.889C448.241 368.889 448.977 369.002 449.657 369.229C451.017 369.569 451.696 370.229 451.696 371.192V377.33C451.696 379.596 450.809 381.371 449.015 382.655C447.221 383.939 444.861 384.562 441.915 384.562C435.551 384.562 432.379 381.748 432.379 376.14L432.36 376.178ZM445.465 350.308C445.465 349.175 445.125 348.287 444.445 347.626C443.765 346.965 442.916 346.644 441.896 346.644C439.8 346.644 438.743 347.532 438.743 349.288V361.449L442.821 358.39C444.577 357.087 445.465 354.386 445.465 350.308Z" fill="#000080"/>
<path d="M465.727 376.763C465.727 379.539 465.934 381.862 466.331 383.75C464.631 383.976 462.781 384.09 460.798 384.09C459.835 384.09 459.344 383.655 459.344 382.806V349.099C459.344 347.909 459.136 347.06 458.702 346.55C458.287 346.04 457.475 345.776 456.285 345.776C456.228 344.303 456.606 343.17 457.437 342.377C458.268 341.584 459.571 341.187 461.402 341.187C463.234 341.187 464.518 342.075 465.311 343.831C467.181 342.075 469.201 341.187 471.392 341.187C473.582 341.187 475.338 341.905 476.66 343.321C478.001 344.737 478.662 346.758 478.662 349.363V376.688C478.662 377.877 478.869 378.727 479.304 379.237C479.719 379.747 480.531 380.011 481.721 380.011C481.777 381.484 481.4 382.617 480.569 383.41C479.738 384.203 478.548 384.6 476.943 384.6C475.338 384.6 474.186 384.109 473.412 383.146C472.638 382.183 472.26 380.596 472.26 378.387V349.873C472.26 348.004 471.297 347.06 469.371 347.06C467.785 347.06 466.558 347.947 465.708 349.703V376.763H465.727Z" fill="#000080"/>
<path d="M499.509 330.969C499.509 329.269 499.263 327.532 498.735 325.776C500.434 324.869 502.247 324.416 504.173 324.416C505.306 324.416 505.873 324.85 505.873 325.7V376.685C505.873 377.875 506.08 378.724 506.515 379.234C506.949 379.744 507.742 380.008 508.95 380.008C509.007 381.481 508.629 382.614 507.799 383.407C506.968 384.2 505.797 384.597 504.267 384.597C502.001 384.597 500.547 383.709 499.924 381.953C498.168 383.709 496.185 384.597 493.957 384.597C491.729 384.597 489.954 383.842 488.594 382.35C487.235 380.858 486.555 378.705 486.555 375.93V351.079C486.555 348.247 487.424 346.037 489.199 344.432C490.955 342.846 493.334 342.053 496.355 342.053H499.509V330.987V330.969ZM499.509 347.472H496.185C495.222 347.472 494.448 347.775 493.844 348.36C493.24 348.964 492.956 349.738 492.956 350.702V375.816C492.956 377.799 493.768 378.8 495.43 378.8C496.28 378.8 497.092 378.479 497.847 377.818C498.621 377.157 499.169 376.477 499.509 375.741V347.491V347.472Z" fill="#000080"/>
<path d="M513.973 376.178V349.533C513.973 343.982 517.24 341.187 523.812 341.187C530.383 341.187 533.65 344.303 533.65 350.553C533.65 353.046 533.196 355.349 532.29 357.445C531.384 359.542 530.137 361.128 528.551 362.204L520.375 367.812V375.555C520.375 377.934 521.489 379.123 523.736 379.123C525.983 379.123 527.097 377.783 527.097 375.12V373.156L526.833 369.153C527.569 368.983 528.325 368.889 529.08 368.889C529.835 368.889 530.572 369.002 531.252 369.229C532.611 369.569 533.291 370.229 533.291 371.192V377.33C533.291 379.596 532.403 381.371 530.61 382.655C528.816 383.939 526.455 384.562 523.509 384.562C517.146 384.562 513.973 381.748 513.973 376.14V376.178ZM527.078 350.308C527.078 349.175 526.738 348.287 526.059 347.626C525.379 346.965 524.529 346.644 523.509 346.644C521.413 346.644 520.356 347.532 520.356 349.288V361.449L524.435 358.39C526.191 357.087 527.078 354.386 527.078 350.308Z" fill="#000080"/>
<path d="M547.34 376.763C547.34 379.539 547.529 381.862 547.944 383.75C546.245 383.976 544.394 384.09 542.412 384.09C541.449 384.09 540.958 383.655 540.958 382.806V349.099C540.958 347.909 540.75 347.06 540.316 346.55C539.881 346.04 539.088 345.776 537.88 345.776C537.823 344.303 538.201 343.17 539.031 342.377C539.843 341.584 541.165 341.187 542.997 341.187C544.829 341.187 546.113 342.075 546.906 343.831C548.775 342.075 550.815 341.187 552.986 341.187C555.158 341.187 556.933 341.905 558.255 343.321C559.595 344.737 560.256 346.758 560.256 349.363V376.688C560.256 377.877 560.464 378.727 560.898 379.237C561.333 379.747 562.126 380.011 563.334 380.011C563.391 381.484 563.013 382.617 562.182 383.41C561.351 384.203 560.162 384.6 558.576 384.6C556.989 384.6 555.819 384.109 555.044 383.146C554.27 382.183 553.893 380.596 553.893 378.387V349.873C553.893 348.004 552.93 347.06 551.003 347.06C549.417 347.06 548.19 347.947 547.34 349.703V376.763Z" fill="#000080"/>
<path d="M584.521 375.135C586.787 376.155 587.92 377.628 587.92 379.554C587.92 380.177 587.675 380.687 587.146 381.083C584.88 383.406 581.443 384.577 576.855 384.577C571.076 384.577 568.168 381.404 568.168 375.041V349.51C568.168 343.959 571.454 341.164 578.044 341.164C580.933 341.164 583.199 341.825 584.861 343.128C586.504 344.431 587.335 346.187 587.335 348.396V355.383C587.335 356.346 586.655 357.007 585.295 357.347C584.616 357.574 583.898 357.687 583.124 357.687C582.35 357.687 581.613 357.592 580.877 357.423C581.047 356.176 581.141 354.836 581.141 353.419V350.606C581.141 349.189 580.877 348.17 580.367 347.547C579.857 346.923 578.969 346.602 577.723 346.602C575.627 346.602 574.57 347.49 574.57 349.246V374.021C574.57 375.777 574.853 377.061 575.419 377.854C575.986 378.647 576.93 379.044 578.271 379.044C579.611 379.044 580.896 378.61 582.142 377.76C583.388 376.91 584.181 376.023 584.521 375.116V375.135Z" fill="#000080"/>
<path d="M593.717 376.178V349.533C593.717 343.982 596.984 341.187 603.555 341.187C610.127 341.187 613.394 344.303 613.394 350.553C613.394 353.046 612.94 355.349 612.034 357.445C611.128 359.542 609.881 361.128 608.295 362.204L600.119 367.812V375.555C600.119 377.934 601.233 379.123 603.48 379.123C605.727 379.123 606.841 377.783 606.841 375.12V373.156L606.577 369.153C607.313 368.983 608.069 368.889 608.824 368.889C609.579 368.889 610.316 369.002 610.995 369.229C612.355 369.569 613.035 370.229 613.035 371.192V377.33C613.035 379.596 612.147 381.371 610.353 382.655C608.56 383.939 606.199 384.562 603.253 384.562C596.89 384.562 593.717 381.748 593.717 376.14V376.178ZM606.822 350.308C606.822 349.175 606.482 348.287 605.803 347.626C605.123 346.965 604.273 346.644 603.253 346.644C601.157 346.644 600.1 347.532 600.1 349.288V361.449L604.179 358.39C605.935 357.087 606.822 354.386 606.822 350.308Z" fill="#000080"/>
<path d="M645.457 328.418C651.066 328.418 653.879 331.194 653.879 336.765V374.72C653.879 377.553 652.897 379.762 650.934 381.367C648.97 382.953 646.326 383.746 642.984 383.746H632.522V336.689C632.522 335.443 632.296 334.555 631.843 334.008C631.389 333.46 630.558 333.196 629.369 333.196C629.312 331.723 629.709 330.552 630.558 329.703C631.408 328.853 632.787 328.418 634.694 328.418C636.601 328.418 637.923 329.363 638.659 331.232C640.869 329.363 643.135 328.418 645.476 328.418H645.457ZM643.833 334.027C642.304 334.027 640.774 334.801 639.245 336.331V378.119H643.154C644.343 378.119 645.306 377.817 646.043 377.232C646.779 376.627 647.157 375.797 647.157 374.72V337.275C647.157 335.122 646.043 334.046 643.833 334.046V334.027Z" fill="#000080"/>
<path d="M670.648 341.187C676.992 341.187 680.184 344.001 680.184 349.609V376.669C680.184 377.858 680.391 378.708 680.826 379.218C681.26 379.728 682.053 379.992 683.262 379.992C683.318 381.465 682.941 382.598 682.11 383.391C681.279 384.184 680.108 384.581 678.579 384.581C676.199 384.581 674.745 383.693 674.235 381.937C672.479 383.693 670.402 384.581 668.023 384.581C665.644 384.581 663.736 383.674 662.32 381.862C660.904 380.049 660.186 377.613 660.186 374.535C660.186 369.89 662.15 366.358 666.059 363.979L673.801 359.39V350.194C673.801 347.815 672.687 346.625 670.44 346.625C668.193 346.625 667.079 347.966 667.079 350.629V353.442L667.343 357.445C666.607 357.615 665.851 357.71 665.096 357.71C664.341 357.71 663.604 357.597 662.924 357.37C661.565 357.03 660.885 356.369 660.885 355.406V348.419C660.885 346.153 661.772 344.378 663.566 343.094C665.36 341.81 667.721 341.187 670.666 341.187H670.648ZM669.703 368.171C667.834 369.417 666.89 371.514 666.89 374.422C666.89 377.33 667.777 378.802 669.571 378.802C671.365 378.802 672.762 377.783 673.782 375.743V365.452L669.703 368.171Z" fill="#000080"/>
<path d="M701.71 349.022C701.71 346.246 701.503 343.923 701.106 342.035C702.806 341.808 704.656 341.695 706.639 341.695C707.602 341.695 708.093 342.129 708.093 342.979V389.791C708.093 392.34 707.206 394.266 705.412 395.569C703.618 396.872 701.22 397.533 698.217 397.533C695.215 397.533 692.873 396.966 691.23 395.833C689.587 394.7 688.757 393.133 688.757 391.15V387.997C688.757 387.034 689.436 386.354 690.796 385.957C691.476 385.787 692.193 385.693 692.968 385.693C693.742 385.693 694.478 385.769 695.215 385.957C695.045 387.317 694.969 388.507 694.969 389.526V389.961C694.969 391.377 696.083 392.094 698.33 392.094C700.577 392.094 701.692 391.094 701.692 389.111V380.689C700.275 382.105 698.444 382.823 696.197 382.823C693.95 382.823 692.156 382.105 690.796 380.651C689.436 379.197 688.757 377.082 688.757 374.306V349.116C688.757 347.927 688.549 347.077 688.115 346.567C687.699 346.057 686.887 345.793 685.697 345.793C685.641 344.377 686.056 343.262 686.925 342.432C687.812 341.601 689.04 341.204 690.626 341.204C692.212 341.204 693.364 341.657 694.082 342.564C694.799 343.47 695.139 344.981 695.139 347.077V374.231C695.139 376.1 695.876 377.045 697.348 377.045C698.142 377.045 698.972 376.78 699.822 376.233C700.672 375.685 701.295 375.081 701.692 374.401V349.041L701.71 349.022Z" fill="#000080"/>
<path d="M440.253 324.244C437.307 324.244 434.078 323.206 431.756 320.675C430.736 321.997 429.225 322.941 427.469 323.206C424.958 323.564 422.465 323.753 420.029 323.753C415.384 323.753 411.872 320.203 411.872 315.501V264.271C409.719 263.157 408.189 260.948 408.189 258.398C408.189 251.034 413.212 246.275 420.992 246.275C423.919 246.275 427.129 247.295 429.452 249.788C430.472 248.428 432.001 247.465 433.776 247.201C436.288 246.842 438.78 246.653 441.216 246.653C445.862 246.653 449.374 250.203 449.374 254.905V306.249C451.526 307.363 453.056 309.572 453.056 312.121C453.056 319.486 448.033 324.244 440.253 324.244Z" fill="white"/>
<path d="M471.807 324.244C469.654 324.244 467.691 323.828 466.029 323.035C464.084 323.847 461.988 324.244 459.797 324.244C455.02 324.244 450.979 322.299 448.109 318.598C445.578 315.369 444.294 311.195 444.294 306.21C444.294 300.583 446.164 295.768 449.733 292.067C446.352 290.254 445.068 287.119 445.068 284.438V276.507C445.068 271.824 447.127 267.764 450.884 265.083C454.038 262.817 458.06 261.684 462.8 261.684C473.733 261.684 480.248 267.745 480.248 277.867V306.645C482.231 307.74 483.628 309.798 483.722 312.177C483.892 316.691 482.004 319.504 480.399 321.053C478.869 322.525 476.15 324.263 471.788 324.263L471.807 324.244Z" fill="white"/>
<path d="M485.649 338.465C480.04 338.465 477.113 334.405 477.113 330.402V279.266C475.131 278.171 473.733 276.131 473.639 273.752C473.469 269.239 475.338 266.425 476.962 264.858C479.172 262.724 482.25 261.648 486.102 261.648C488.009 261.648 489.784 262.063 491.332 262.838C493.221 262.044 495.222 261.648 497.281 261.648C501.662 261.648 505.476 263.291 508.271 266.388C510.952 269.333 512.312 273.299 512.312 278.133V306.401C512.312 312.822 509.498 316.73 507.138 318.864C504.57 321.187 501.359 322.603 497.602 323.094V324.057L498.244 330.1C498.546 333.027 496.884 335.802 494.165 336.917C491.635 337.955 488.783 338.465 485.667 338.465H485.649Z" fill="white"/>
<path d="M516.9 338.465C511.292 338.465 508.365 334.405 508.365 330.402V279.266C506.382 278.171 504.985 276.131 504.891 273.752C504.721 269.239 506.59 266.425 508.214 264.858C510.423 262.724 513.501 261.648 517.354 261.648C519.261 261.648 521.036 262.063 522.584 262.838C524.473 262.044 526.474 261.648 528.532 261.648C532.913 261.648 536.728 263.291 539.522 266.388C542.204 269.333 543.563 273.299 543.563 278.133V306.401C543.563 312.822 540.75 316.73 538.389 318.864C535.821 321.187 532.611 322.603 528.853 323.094V324.057L529.495 330.1C529.798 333.027 528.136 335.802 525.417 336.917C522.886 337.955 520.035 338.465 516.919 338.465H516.9Z" fill="white"/>
<path d="M556.687 338.956C551.91 338.956 547.982 337.917 544.999 335.84C541.354 333.329 539.334 329.495 539.334 325.077V321.489C539.334 319.525 540.032 317.278 541.788 315.484C540.164 312.878 539.334 309.668 539.334 305.91V279.266C537.351 278.171 535.954 276.131 535.859 273.752C535.708 270.24 536.954 267.067 539.352 264.82C540.901 263.366 543.677 261.648 548.077 261.648C551.645 261.648 554.081 262.819 555.705 264.178C556.668 263.366 557.839 262.838 559.104 262.668C561.314 262.365 563.731 262.214 566.261 262.214C570.963 262.214 574.513 265.67 574.513 270.278V323.509C574.513 329.873 571.378 333.499 568.754 335.425C565.562 337.747 561.503 338.918 556.687 338.918V338.956Z" fill="white"/>
<path d="M418.481 315.504V262.083C418.481 260.723 418.198 259.779 417.65 259.231C417.102 258.684 416.158 258.401 414.799 258.401C414.799 254.718 416.857 252.887 420.992 252.887C424.41 252.887 426.129 255.115 426.129 259.571V284.837H435.136V262.876L434.758 253.774C436.949 253.453 439.12 253.283 441.235 253.283C442.274 253.283 442.784 253.831 442.784 254.926V308.441C442.784 309.801 443.048 310.745 443.614 311.293C444.162 311.84 445.106 312.123 446.466 312.123C446.466 315.806 444.408 317.637 440.272 317.637C436.854 317.637 435.136 315.409 435.136 310.953V291.201H426.129V307.554L426.506 316.655C424.316 316.976 422.144 317.146 420.029 317.146C418.991 317.146 418.481 316.599 418.481 315.504Z" fill="#000080"/>
<path d="M462.8 268.278C470.032 268.278 473.639 271.469 473.639 277.852V308.632C473.639 309.991 473.884 310.954 474.356 311.54C474.847 312.125 475.754 312.408 477.113 312.408C477.17 314.089 476.736 315.373 475.81 316.279C474.866 317.186 473.544 317.639 471.788 317.639C469.069 317.639 467.426 316.638 466.86 314.637C464.858 316.638 462.498 317.639 459.797 317.639C457.097 317.639 454.925 316.6 453.32 314.542C451.715 312.484 450.903 309.708 450.903 306.215C450.903 300.927 453.132 296.924 457.588 294.205L466.388 288.974V278.513C466.388 275.813 465.122 274.453 462.573 274.453C460.024 274.453 458.759 275.964 458.759 279.004V282.195L459.042 286.746C458.211 286.935 457.343 287.029 456.474 287.029C455.605 287.029 454.774 286.897 454 286.633C452.452 286.236 451.678 285.5 451.678 284.404V276.473C451.678 273.886 452.697 271.885 454.718 270.431C456.757 268.977 459.439 268.259 462.8 268.259V268.278ZM461.742 298.963C459.609 300.38 458.551 302.759 458.551 306.082C458.551 309.406 459.571 311.068 461.591 311.068C463.612 311.068 465.217 309.897 466.388 307.574V295.867L461.742 298.963Z" fill="#000080"/>
<path d="M490.955 316.676V324.418L491.635 330.801C489.897 331.518 487.896 331.858 485.63 331.858C484.346 331.858 483.704 331.367 483.704 330.404V277.267C483.704 275.907 483.458 274.944 482.986 274.359C482.495 273.773 481.589 273.49 480.229 273.49C480.154 271.809 480.607 270.525 481.532 269.619C482.476 268.712 483.987 268.259 486.083 268.259C488.179 268.259 489.652 269.26 490.483 271.262C492.484 269.26 494.731 268.259 497.262 268.259C499.792 268.259 501.813 269.109 503.361 270.827C504.909 272.546 505.684 274.982 505.684 278.135V306.403C505.684 309.632 504.683 312.144 502.681 313.957C500.68 315.77 497.979 316.676 494.561 316.676H490.974H490.955ZM490.955 310.482H494.731C495.827 310.482 496.714 310.142 497.394 309.463C498.074 308.783 498.414 307.895 498.414 306.8V278.249C498.414 275.983 497.469 274.868 495.6 274.868C494.637 274.868 493.712 275.246 492.843 275.983C491.974 276.719 491.351 277.512 490.955 278.362V310.501V310.482Z" fill="#000080"/>
<path d="M522.225 316.676V324.418L522.905 330.801C521.168 331.518 519.166 331.858 516.9 331.858C515.616 331.858 514.974 331.367 514.974 330.404V277.267C514.974 275.907 514.729 274.944 514.257 274.359C513.766 273.773 512.859 273.49 511.5 273.49C511.424 271.809 511.877 270.525 512.803 269.619C513.747 268.712 515.257 268.259 517.354 268.259C519.45 268.259 520.922 269.26 521.753 271.262C523.755 269.26 526.002 268.259 528.532 268.259C531.063 268.259 533.083 269.109 534.632 270.827C536.18 272.546 536.954 274.982 536.954 278.135V306.403C536.954 309.632 535.954 312.144 533.952 313.957C531.95 315.77 529.25 316.676 525.832 316.676H522.244H522.225ZM522.225 310.482H526.002C527.097 310.482 527.985 310.142 528.665 309.463C529.344 308.783 529.684 307.895 529.684 306.8V278.249C529.684 275.983 528.74 274.868 526.871 274.868C525.908 274.868 524.982 275.246 524.114 275.983C523.245 276.719 522.622 277.512 522.225 278.362V310.501V310.482Z" fill="#000080"/>
<path d="M560.653 277.172C560.653 274.018 560.426 271.356 559.973 269.241C561.918 268.977 563.995 268.844 566.261 268.844C567.356 268.844 567.904 269.335 567.904 270.298V323.53C567.904 326.438 566.884 328.629 564.845 330.12C562.805 331.612 560.086 332.349 556.668 332.349C553.251 332.349 550.607 331.707 548.737 330.404C546.868 329.12 545.924 327.345 545.924 325.079V321.491C545.924 320.396 546.698 319.621 548.246 319.168C549.021 318.979 549.852 318.885 550.72 318.885C551.589 318.885 552.439 318.979 553.288 319.168C553.099 320.717 553.005 322.076 553.005 323.228V323.719C553.005 325.324 554.27 326.136 556.819 326.136C559.369 326.136 560.653 325.003 560.653 322.756V313.182C559.029 314.787 556.952 315.599 554.402 315.599C551.853 315.599 549.814 314.768 548.265 313.126C546.717 311.483 545.943 309.085 545.943 305.912V277.266C545.943 275.907 545.697 274.944 545.225 274.358C544.734 273.773 543.828 273.49 542.468 273.49C542.412 271.885 542.865 270.6 543.866 269.675C544.866 268.731 546.264 268.278 548.077 268.278C549.889 268.278 551.192 268.788 552.004 269.826C552.816 270.865 553.213 272.564 553.213 274.963V305.837C553.213 307.97 554.044 309.028 555.724 309.028C556.631 309.028 557.556 308.726 558.538 308.103C559.501 307.498 560.218 306.8 560.672 306.025V277.191L560.653 277.172Z" fill="#000080"/>
<defs>
<radialGradient id="paint0_radial_6_9449" cx="0" cy="0" r="1" gradientUnits="userSpaceOnUse" gradientTransform="translate(494.637 -313.14) scale(582.284 774.438)">
<stop stop-color="#D8E2EB"/>
<stop offset="0.64" stop-color="#CFD8E0"/>
<stop offset="0.68" stop-color="#D6DDE4"/>
<stop offset="0.88" stop-color="#F3F5F7"/>
<stop offset="1" stop-color="white"/>
</radialGradient>
<radialGradient id="paint1_radial_6_9449" cx="0" cy="0" r="1" gradientUnits="userSpaceOnUse" gradientTransform="translate(494.637 -313.141) scale(582.284 774.437)">
<stop stop-color="#D8E2EB"/>
<stop offset="0.64" stop-color="#CFD8E0"/>
<stop offset="0.68" stop-color="#D6DDE4"/>
<stop offset="0.88" stop-color="#F3F5F7"/>
<stop offset="1" stop-color="white"/>
</radialGradient>
<radialGradient id="paint2_radial_6_9449" cx="0" cy="0" r="1" gradientUnits="userSpaceOnUse" gradientTransform="translate(494.637 707.321) scale(582.265 774.412)">
<stop stop-color="#D8E2EB"/>
<stop offset="0.64" stop-color="#CFD8E0"/>
<stop offset="0.68" stop-color="#D6DDE4"/>
<stop offset="0.88" stop-color="#F3F5F7"/>
<stop offset="1" stop-color="white"/>
</radialGradient>
<radialGradient id="paint3_radial_6_9449" cx="0" cy="0" r="1" gradientUnits="userSpaceOnUse" gradientTransform="translate(494.637 -313.141) scale(582.265 774.412)">
<stop stop-color="#D8E2EB"/>
<stop offset="0.64" stop-color="#CFD8E0"/>
<stop offset="0.68" stop-color="#D6DDE4"/>
<stop offset="0.88" stop-color="#F3F5F7"/>
<stop offset="1" stop-color="white"/>
</radialGradient>
<linearGradient id="paint4_linear_6_9449" x1="571.488" y1="123.374" x2="965.546" y2="167.157" gradientUnits="userSpaceOnUse">
<stop stop-color="#00B429"/>
<stop offset="0.26" stop-color="#18B420"/>
<stop offset="0.79" stop-color="#55B409"/>
<stop offset="1" stop-color="#6FB400"/>
</linearGradient>
<linearGradient id="paint5_linear_6_9449" x1="959.832" y1="34.0305" x2="567.212" y2="107.674" gradientUnits="userSpaceOnUse">
<stop stop-color="#FFCC01"/>
<stop offset="1" stop-color="#FF6A00"/>
</linearGradient>
<linearGradient id="paint6_linear_6_9449" x1="422.187" y1="125.605" x2="28.1482" y2="169.386" gradientUnits="userSpaceOnUse">
<stop stop-color="#00B429"/>
<stop offset="0.26" stop-color="#18B420"/>
<stop offset="0.79" stop-color="#55B409"/>
<stop offset="1" stop-color="#6FB400"/>
</linearGradient>
<linearGradient id="paint7_linear_6_9449" x1="35.9934" y1="33.9802" x2="428.613" y2="107.624" gradientUnits="userSpaceOnUse">
<stop stop-color="#FFCC01"/>
<stop offset="1" stop-color="#FF6A00"/>
</linearGradient>
<radialGradient id="paint8_radial_6_9449" cx="0" cy="0" r="1" gradientUnits="userSpaceOnUse" gradientTransform="translate(480.788 220.606) scale(135.601)">
<stop stop-color="#D8E2EB"/>
<stop offset="0.64" stop-color="#CFD8E0"/>
<stop offset="0.68" stop-color="#D6DDE4"/>
<stop offset="0.88" stop-color="#F3F5F7"/>
<stop offset="1" stop-color="white"/>
</radialGradient>
</defs>
</svg>
