<svg width="1920" height="670" viewBox="0 0 1920 670" fill="none" xmlns="http://www.w3.org/2000/svg">
<path d="M0 670H1920V0L1919.67 0.227845C1913.15 4.68756 1902.83 11.7462 1892.51 33.6157C1881.02 23.2344 1860.53 8.40387 1832.05 9.39257C1803.56 10.3813 1781.07 26.6948 1767.58 43.9971C1739.59 36.5819 1712.61 41.5253 1685.62 66.2429C1664.13 37.0762 1634.65 28.6722 1616.66 28.6722C1574.68 30.2542 1555.86 58.9924 1551.69 73.1638C1501.72 28.1779 1445.75 53.8841 1427.76 83.5452C1392.57 79.1949 1365.79 90.3013 1356.79 96.3983C1341.8 87.0056 1316.81 81.5677 1287.33 84.5339C1267.84 58.3333 1240.85 50.918 1223.86 49.9293C1206.87 48.9406 1184.88 54.3785 1163.39 74.6468C1147.9 41.5254 1124.91 31.144 1098.43 30.1553C1071.94 29.1666 1044.96 42.5141 1028.46 68.7147C1012.97 52.8954 998.48 42.5141 969.495 42.5141C940.51 42.5141 911.026 61.7938 901.031 97.387C888.537 89.4774 869.547 82.5565 829.068 84.5339C806.08 55.3672 784.092 51.4124 764.102 49.9293C744.112 48.4463 723.623 57.3446 705.632 74.6469C692.139 43.5028 669.651 30.6497 640.167 30.1553C610.682 29.661 586.694 46.9632 570.703 68.7147C562.707 58.3333 543.717 42.0197 514.232 42.0197C473.254 42.0197 449.766 69.7034 442.769 100.353C424.279 87.5 403.29 81.0734 368.308 84.5339C327.829 31.144 266.861 49.435 243.373 74.1525C235.877 56.8503 220.885 31.1439 178.407 30.1552C144.425 29.3643 117.605 55.2022 108.444 68.2201C59.9688 17.302 6.99636 53.3896 0 63.7709V670Z" fill="#612881"/>
</svg>
