<svg width="1920" height="670" viewBox="0 0 1920 670" fill="none" xmlns="http://www.w3.org/2000/svg">
<path d="M-44 670H2356V0L2355.58 0.227699C2347.44 4.6874 2334.54 11.7459 2321.64 33.6157C2307.28 23.2344 2281.66 8.40387 2246.06 9.39257C2210.45 10.3813 2182.34 26.6948 2165.47 43.9971C2130.49 36.5819 2096.76 41.5253 2063.03 66.2429C2036.17 37.0762 1999.31 28.6722 1976.82 28.6722C1924.35 30.2542 1900.82 58.9924 1895.61 73.1638C1833.15 28.1779 1763.18 53.8841 1740.7 83.5452C1696.72 79.1949 1663.24 90.3013 1651.99 96.3983C1633.25 87.0056 1602.02 81.5677 1565.16 84.5339C1540.8 58.3333 1507.07 50.918 1485.83 49.9293C1464.59 48.9406 1437.1 54.3785 1410.24 74.6468C1390.88 41.5254 1362.14 31.144 1329.03 30.1553C1295.93 29.1666 1262.19 42.5141 1241.58 68.7147C1222.22 52.8954 1204.1 42.5141 1167.87 42.5141C1131.64 42.5141 1094.78 61.7938 1082.29 97.387C1066.67 89.4774 1042.93 82.5565 992.335 84.5339C963.6 55.3672 936.114 51.4124 911.127 49.9293C886.141 48.4463 860.529 57.3446 838.041 74.6469C821.174 43.5028 793.064 30.6497 756.208 30.1553C719.352 29.661 689.368 46.9632 669.378 68.7147C659.384 58.3333 635.646 42.0197 598.79 42.0197C547.567 42.0197 518.207 69.7034 509.462 100.353C486.349 87.5 460.112 81.0734 416.385 84.5339C365.787 31.144 289.576 49.435 260.217 74.1525C250.846 56.8503 232.106 31.1439 179.009 30.1552C136.531 29.3643 103.007 55.2022 91.5544 68.2201C30.961 17.302 -35.2546 53.3896 -44 63.7709V670Z" fill="#612881"/>
</svg>
