<svg width="78" height="61" viewBox="0 0 78 61" fill="none" xmlns="http://www.w3.org/2000/svg">
<g opacity="0.1">
<path d="M5.51738 47.8562C3.87227 46.1683 2.33007 44.3954 1.06616 42.3895C-0.122373 40.5038 -0.320946 38.539 0.489289 36.4554C2.06628 32.3997 4.08389 28.5799 6.46966 24.9565C6.70447 24.6004 6.77984 24.2913 6.65664 23.8766C5.29997 19.3403 5.58696 14.8304 6.85231 10.3234C7.46543 8.14171 8.49163 6.2721 10.3455 4.93143C12.2964 3.52043 14.4865 3.17318 16.8201 3.43252C20.706 3.86329 24.4833 4.68674 27.959 6.58565C28.2822 6.76294 28.5707 6.66478 28.8606 6.56954C32.8537 5.25817 36.9513 4.74975 41.1358 4.98125C42.2417 5.04279 43.3491 5.17026 44.4449 5.34169C44.8913 5.41202 45.2087 5.34316 45.5711 5.07942C49.0961 2.51383 53.0531 0.941664 57.2941 0.148985C60.967 -0.538198 64.4094 1.19221 66.1719 4.50506C68.3649 8.62669 69.5738 13.0194 69.1201 17.7198C68.9838 19.1381 69.3651 20.0465 70.2652 21.0517C72.9118 24.0041 75.2121 27.2275 77.1572 30.7016C78.1501 32.4745 78.2544 34.3045 77.5297 36.1917C76.1093 39.8928 74.0221 43.1807 71.4725 46.1815C71.3943 46.2723 71.3261 46.3734 71.2537 46.4687C71.0768 46.6181 70.8841 46.5727 70.7116 46.4819C69.5578 45.8723 68.4461 45.1998 67.4996 44.2811C67.3532 44.139 67.2605 43.9778 67.2953 43.7639C67.604 43.0284 68.2055 42.5111 68.6751 41.8958C70.2999 39.7595 71.7204 37.5075 72.7843 35.0225C73.1727 34.117 73.1191 33.3653 72.619 32.5463C71.145 30.1331 69.5477 27.8107 67.7518 25.6305C66.5778 24.2063 65.3921 22.7909 64.0877 21.4839C63.7644 21.1586 63.6644 20.8158 63.7862 20.3601C65.0124 15.7842 64.163 11.4648 62.1541 7.30361C61.3366 5.60836 59.8191 4.51971 57.5579 5.08088C54.4373 5.85451 51.466 6.96221 48.786 8.78787C48.225 9.17029 47.6655 9.5615 47.2133 10.0758C46.7379 10.6164 46.1828 10.7088 45.5088 10.5476C43.481 10.0597 41.4228 9.88238 39.3356 9.86626C35.641 9.83842 32.0855 10.5197 28.6504 11.8619C27.9967 12.1168 27.4981 12.0802 26.9053 11.6773C24.2615 9.88677 21.2684 9.04574 18.1608 8.57541C17.2564 8.43915 16.3548 8.2516 15.4301 8.26332C13.7284 8.2853 12.3616 9.17175 11.8166 10.8025C10.3411 15.2099 10.0208 19.6348 11.8761 24.0275C12.1978 24.7894 12.1399 25.3638 11.6485 26.0436C9.04531 29.6451 6.94653 33.5382 5.2217 37.6437C4.80716 38.6298 4.86659 39.4459 5.49564 40.3001C6.49285 41.6555 7.54949 42.9492 8.75832 44.117C9.03227 44.3808 9.36129 44.6225 9.39752 45.0591C9.3352 45.5397 8.97139 45.8108 8.64382 46.076C7.85822 46.7104 7.00306 47.2452 6.14644 47.7742C5.96816 47.8841 5.75509 48.0951 5.51304 47.8562H5.51738Z" fill="#662E87"/>
<path d="M5.51743 47.8559C6.98281 47.1775 8.31049 46.3043 9.38452 45.0691C9.4425 44.6984 9.72659 44.4889 9.96285 44.2501C13.1386 41.0266 14.904 37.1321 15.333 32.6192C15.5693 30.1401 15.7707 27.6609 16.7404 25.3269C18.4087 21.3107 21.3409 18.8536 25.5602 17.9554C29.6969 17.0748 32.9408 18.5708 35.5468 21.7649C36.3803 22.7862 37.0282 23.932 37.6326 25.1027C37.7413 25.3137 37.8225 25.6038 38.0993 25.6126C38.437 25.6243 38.4805 25.2858 38.5834 25.0529C39.2574 23.5291 40.0778 22.0946 41.1692 20.8345C43.3419 18.3261 46.0393 17.0895 49.3774 17.3781C52.2226 17.6243 54.7403 18.6572 56.7941 20.6572C58.7625 22.5737 59.8611 25.0016 60.4786 27.6727C60.8859 29.4368 60.9352 31.2536 61.299 33.0221C62.0831 36.8302 63.834 40.1108 66.5271 42.8845C66.8112 43.1775 67.1677 43.412 67.3199 43.8207C68.4461 44.9827 69.7405 45.8911 71.2537 46.4655C71.4537 46.5915 71.6639 46.7057 71.8538 46.8479C72.4103 47.264 72.5872 47.9937 72.2872 48.5856C71.9741 49.2069 71.2523 49.4984 70.5841 49.2347C70.1202 49.0515 69.6782 48.8113 69.2259 48.5959C68.1983 48.2633 67.4185 47.5233 66.5546 46.9255C66.101 46.612 65.6966 46.2237 65.2429 45.9043C60.9265 42.0347 58.5581 37.1614 57.9174 31.3943C57.7232 29.6463 57.4623 27.9115 56.7985 26.2646C55.336 22.6338 52.5937 20.732 48.8034 20.4594C46.4669 20.2909 44.6276 21.4441 43.2013 23.2814C41.6635 25.2624 40.8025 27.5554 40.2097 29.9672C40.0357 30.6778 39.8836 31.3928 39.7604 32.1152C39.6024 33.0397 39.0342 33.5745 38.2326 33.5921C37.4326 33.6097 36.8716 33.1379 36.6615 32.1621C36.273 30.3672 35.7759 28.6089 35.0265 26.9357C34.2351 25.1672 33.2509 23.5247 31.7116 22.2939C30.1636 21.0558 28.4229 20.6191 26.4777 20.9796C22.5048 21.7181 20.1524 24.1679 19.1059 28.0346C18.5725 30.0038 18.6058 32.0463 18.3015 34.0434C17.5347 39.0823 15.3837 43.4076 11.7181 46.9373C10.6455 47.8398 9.60194 48.7834 8.39456 49.5102C8.19164 49.6318 8.03075 49.8413 7.7597 49.8193C7.48431 49.9585 7.20747 50.0904 6.93642 50.2354C5.98125 50.7468 5.25653 50.6369 4.80285 49.9043C4.37092 49.2069 4.63907 48.4362 5.51598 47.853L5.51743 47.8559Z" fill="#662E87"/>
<path d="M65.3399 45.8223C66.6357 46.7483 67.9315 47.6743 69.2273 48.6003C63.1788 54.4362 55.9317 57.8399 47.7583 59.2963C42.2838 60.2722 36.7745 60.341 31.2507 59.6729C24.4557 58.8509 18.0811 56.7908 12.2399 53.1513C10.66 52.1666 9.11197 51.1263 7.75964 49.8252C9.02935 48.8567 10.2991 47.8897 11.5688 46.9212C11.8876 46.9051 12.1094 47.1073 12.3399 47.2787C17.9535 51.456 24.2963 53.7549 31.1506 54.7088C34.0191 55.1073 36.9122 55.2934 39.8067 55.1776C45.2928 54.9579 50.6485 54.0524 55.7171 51.8047C58.8726 50.4054 61.8164 48.6545 64.4109 46.341C64.679 46.1021 64.9355 45.8267 65.337 45.8237L65.3399 45.8223Z" fill="#662E87"/>
<path d="M38.5037 38.2371C39.6763 38.2605 40.6083 38.47 41.4113 39.0752C42.2954 39.7418 42.3983 40.6268 41.6823 41.4708C41.3852 41.821 41.0547 42.1477 40.7112 42.4525C40.0734 43.018 40.0445 44.1228 40.6721 44.8129C41.2272 45.4254 42.2505 45.4371 42.8868 44.8349C43.3187 44.4246 43.5347 43.8737 43.8202 43.3668C43.9579 43.1221 44.0652 42.7924 44.4131 42.7909C44.803 42.7895 45.0117 43.1118 45.1653 43.4034C45.3972 43.8444 45.4248 44.3323 45.3088 44.8276C44.6913 47.4811 41.5809 48.6254 39.4038 46.9639C38.9849 46.643 38.8168 46.6664 38.4399 47.021C36.4093 48.9287 33.1118 48.0525 32.2711 45.4137C32.0928 44.854 32.1059 44.3089 32.4161 43.7961C32.6451 43.4195 32.9219 43.358 33.222 43.7155C33.5655 44.1243 33.8742 44.5653 34.2438 44.9477C34.8671 45.5939 35.6599 45.7638 36.3556 45.4547C37.1224 45.1133 37.2268 44.429 37.2702 43.6935C37.2934 43.2935 37.1369 43.0576 36.8021 42.8759C36.2237 42.5624 35.7222 42.1389 35.2773 41.6539C34.6772 41.0004 34.6728 40.2078 35.2773 39.5587C36.202 38.5638 37.4065 38.2942 38.5052 38.2385L38.5037 38.2371Z" fill="#662E87"/>
<path d="M31.1898 29.6336C31.1927 31.0461 30.884 32.1508 30.0404 33.049C28.9171 34.2461 27.3256 34.312 26.0849 33.2351C24.3079 31.6908 23.9485 28.5362 25.3356 26.6314C26.4806 25.0577 28.4127 24.8878 29.7897 26.2621C30.7681 27.2394 31.1695 28.4644 31.1898 29.6351V29.6336Z" fill="#662E87"/>
<path d="M47.8032 29.582C48.7091 29.7637 49.5759 29.8238 50.3687 30.1901C50.9891 30.4772 51.5819 30.8011 51.8907 31.4604C51.9791 31.6494 52.1284 31.8619 51.9747 32.0758C51.7979 32.3219 51.5544 32.2282 51.3167 32.1637C50.0847 31.8355 48.857 31.4956 47.5626 31.5C46.7597 31.5029 45.9828 31.626 45.2146 31.8414C44.4855 32.0465 44.1028 31.7153 44.2362 30.9666C44.2724 30.7586 44.3507 30.5285 44.4811 30.3688C45.6842 28.9051 47.0669 27.6889 48.9469 27.1937C49.1092 27.1512 49.2759 27.1175 49.4426 27.1117C49.6962 27.1029 50.0165 26.9974 50.1397 27.3256C50.276 27.6889 49.9832 27.8399 49.7237 27.9835C49.0019 28.3805 48.37 28.8846 47.8032 29.5776V29.582Z" fill="#662E87"/>
<path d="M29.8491 28.7397C29.8447 29.6408 29.2954 30.3383 28.5953 30.3295C27.8547 30.3192 27.2372 29.4972 27.256 28.5434C27.272 27.6775 27.7981 27.0035 28.4692 26.9873C29.2099 26.9698 29.8534 27.7888 29.8491 28.7397Z" fill="#FEFCFE"/>
</g>
</svg>
