<svg width="188" height="129" viewBox="0 0 188 129" fill="none" xmlns="http://www.w3.org/2000/svg">
<g opacity="0.1">
<path d="M-3.42845 126.39C-7.77323 121.932 -11.8462 117.249 -15.1842 111.952C-18.3232 106.972 -18.8476 101.782 -16.7078 96.2797C-12.5429 85.5685 -7.21434 75.4803 -0.913454 65.9107C-0.293318 64.9703 -0.0942612 64.1538 -0.419641 63.0587C-4.00265 51.0783 -3.24471 39.1674 0.0971375 27.2644C1.71638 21.5025 4.4266 16.5648 9.32261 13.024C14.4751 9.29756 20.2592 8.38045 26.4223 9.06538C36.6851 10.2031 46.6609 12.3778 55.8404 17.3929C56.6941 17.8611 57.4559 17.6018 58.2215 17.3503C68.7676 13.887 79.5894 12.5442 90.6408 13.1556C93.5615 13.3181 96.4861 13.6548 99.3801 14.1075C100.559 14.2933 101.397 14.1114 102.354 13.4149C111.664 6.6391 122.115 2.48696 133.315 0.393474C143.015 -1.4214 152.107 3.14867 156.762 11.898C162.554 22.7833 165.746 34.3846 164.548 46.7984C164.188 50.5442 165.195 52.9434 167.572 55.598C174.562 63.3954 180.637 71.9086 185.774 81.0836C188.396 85.7659 188.672 90.5991 186.758 95.5832C183.007 105.358 177.494 114.041 170.761 121.967C170.554 122.206 170.374 122.473 170.183 122.725C169.716 123.12 169.207 123 168.751 122.76C165.704 121.15 162.768 119.374 160.268 116.948C159.882 116.572 159.637 116.147 159.729 115.582C160.544 113.639 162.132 112.273 163.373 110.648C167.664 105.006 171.415 99.0582 174.225 92.4952C175.251 90.1038 175.109 88.1186 173.789 85.9555C169.896 79.5822 165.677 73.4488 160.934 67.6907C157.834 63.9294 154.702 60.1913 151.257 56.7396C150.404 55.8805 150.139 54.975 150.461 53.7715C153.699 41.6866 151.456 30.2788 146.151 19.289C143.992 14.8118 139.984 11.9367 134.012 13.4187C125.77 15.4619 117.923 18.3874 110.845 23.209C109.364 24.219 107.886 25.2522 106.692 26.6104C105.436 28.0383 103.97 28.2821 102.19 27.8564C96.8345 26.5678 91.3987 26.0996 85.8864 26.057C76.1289 25.9835 66.7388 27.7829 57.6664 31.3275C55.94 32.0008 54.6231 31.9041 53.0575 30.8399C46.0752 26.1112 38.1704 23.89 29.9632 22.6479C27.5745 22.288 25.1935 21.7927 22.7512 21.8236C18.2572 21.8817 14.6474 24.2228 13.208 28.5298C9.31113 40.1697 8.46514 51.8561 13.365 63.4573C14.2148 65.4695 14.0617 66.9864 12.764 68.7819C5.8889 78.2936 0.345957 88.5752 -4.20936 99.418C-5.30417 102.022 -5.14722 104.178 -3.48587 106.434C-0.852207 110.013 1.9384 113.43 5.13095 116.514C5.85445 117.211 6.7234 117.849 6.8191 119.002C6.6545 120.272 5.69367 120.988 4.82854 121.688C2.75377 123.363 0.495249 124.776 -1.7671 126.173C-2.23794 126.463 -2.80066 127.02 -3.43993 126.39H-3.42845Z" fill="#662E87"/>
<path d="M-3.42834 126.389C0.441763 124.597 3.94821 122.291 6.78476 119.029C6.93788 118.05 7.68816 117.496 8.31213 116.866C16.6993 108.352 21.3618 98.0669 22.4949 86.1483C23.1188 79.6008 23.6509 73.0534 26.2118 66.889C30.6179 56.2823 38.3619 49.7929 49.5052 47.4208C60.4303 45.0951 68.9974 49.046 75.8801 57.4819C78.0812 60.179 79.7923 63.2051 81.3886 66.297C81.6757 66.8542 81.8901 67.6204 82.6212 67.6436C83.5131 67.6746 83.628 66.7807 83.8998 66.1654C85.6798 62.1409 87.8465 58.3526 90.7289 55.0246C96.4671 48.3998 103.591 45.1338 112.407 45.8961C119.921 46.5462 126.57 49.2743 131.995 54.5564C137.193 59.6179 140.095 66.03 141.726 73.0843C142.801 77.7434 142.931 82.5418 143.892 87.2125C145.963 97.2697 150.587 105.934 157.7 113.259C158.45 114.033 159.392 114.652 159.794 115.732C162.768 118.8 166.186 121.2 170.183 122.717C170.711 123.049 171.266 123.351 171.768 123.727C173.238 124.826 173.705 126.753 172.912 128.316C172.085 129.957 170.179 130.727 168.414 130.03C167.189 129.547 166.022 128.912 164.827 128.343C162.113 127.465 160.054 125.51 157.772 123.932C156.574 123.104 155.506 122.078 154.308 121.234C142.908 111.015 136.653 98.1442 134.961 82.9133C134.448 78.2968 133.759 73.7151 132.006 69.3656C128.144 59.7766 120.901 54.7538 110.891 54.034C104.72 53.589 99.8625 56.6344 96.0958 61.487C92.0343 66.7188 89.7605 72.7748 88.1948 79.1442C87.7354 81.021 87.3335 82.9094 87.0081 84.8171C86.5909 87.2589 85.0903 88.6713 82.9734 88.7178C80.8603 88.7642 79.3789 87.5182 78.8239 84.941C77.798 80.2006 76.4849 75.5571 74.5059 71.1379C72.4158 66.4672 69.8166 62.1293 65.7512 58.8788C61.6629 55.609 57.0655 54.4558 51.9283 55.4077C41.4358 57.3581 35.223 63.8281 32.4591 74.0401C31.0504 79.241 31.1385 84.6353 30.3346 89.9096C28.3096 103.217 22.6288 114.641 12.9478 123.963C10.1151 126.346 7.35895 128.838 4.17023 130.758C3.63431 131.079 3.20941 131.632 2.49357 131.574C1.76625 131.942 1.0351 132.29 0.319267 132.673C-2.20338 134.024 -4.11738 133.733 -5.31555 131.799C-6.45629 129.957 -5.74811 127.921 -3.43217 126.381L-3.42834 126.389Z" fill="#662E87"/>
<path d="M154.565 121.018C157.987 123.463 161.409 125.909 164.831 128.354C148.857 143.767 129.717 152.757 108.131 156.603C93.6726 159.18 79.1224 159.362 64.5339 157.597C46.5882 155.427 29.7527 149.986 14.3258 140.374C10.1533 137.773 6.06502 135.026 2.4935 131.589C5.84683 129.032 9.20015 126.478 12.5535 123.92C13.3956 123.877 13.9813 124.411 14.59 124.864C29.4158 135.896 46.1671 141.968 64.2697 144.487C71.8453 145.54 79.486 146.031 87.1305 145.725C101.62 145.145 115.764 142.753 129.15 136.817C137.484 133.122 145.259 128.498 152.111 122.387C152.819 121.757 153.497 121.029 154.557 121.021L154.565 121.018Z" fill="#662E87"/>
<path d="M83.6892 100.985C86.786 101.047 89.2474 101.6 91.3681 103.199C93.7032 104.959 93.975 107.297 92.084 109.525C91.2992 110.45 90.4265 111.313 89.5192 112.118C87.8349 113.612 87.7583 116.53 89.4159 118.352C90.882 119.97 93.5846 120.001 95.265 118.41C96.4058 117.327 96.9762 115.872 97.7303 114.533C98.0939 113.887 98.3772 113.016 99.2959 113.012C100.326 113.008 100.877 113.859 101.283 114.63C101.895 115.794 101.968 117.083 101.662 118.391C100.031 125.399 91.816 128.421 86.0664 124.033C84.9601 123.185 84.516 123.247 83.5207 124.184C78.1577 129.222 69.449 126.908 67.2288 119.939C66.7579 118.46 66.7924 117.021 67.6116 115.667C68.2164 114.672 68.9476 114.51 69.74 115.454C70.6472 116.533 71.4625 117.698 72.4387 118.708C74.0847 120.415 76.1786 120.864 78.0161 120.047C80.0411 119.145 80.3167 117.338 80.4316 115.396C80.4928 114.339 80.0794 113.716 79.1951 113.236C77.6677 112.408 76.3432 111.29 75.1681 110.009C73.5833 108.283 73.5718 106.19 75.1681 104.476C77.6103 101.848 80.7914 101.136 83.693 100.989L83.6892 100.985Z" fill="#662E87"/>
<path d="M64.3731 78.2629C64.3808 81.9932 63.5654 84.911 61.3375 87.2831C58.3708 90.4446 54.1677 90.6187 50.8909 87.7745C46.1978 83.6959 45.2485 75.3645 48.9118 70.334C51.936 66.1779 57.0387 65.7291 60.6753 69.3588C63.2592 71.9399 64.3195 75.1749 64.3731 78.2668V78.2629Z" fill="#662E87"/>
<path d="M108.25 78.1268C110.642 78.6067 112.931 78.7653 115.025 79.7327C116.663 80.4912 118.229 81.3464 119.045 83.0877C119.278 83.5869 119.672 84.148 119.267 84.713C118.8 85.3631 118.156 85.1154 117.529 84.9452C114.275 84.0784 111.032 83.1806 107.614 83.1922C105.493 83.1999 103.442 83.525 101.413 84.0938C99.4873 84.6356 98.4767 83.761 98.8288 81.7837C98.9245 81.2342 99.1313 80.6266 99.4758 80.2048C102.653 76.339 106.305 73.1272 111.27 71.8193C111.699 71.7071 112.139 71.6181 112.579 71.6026C113.249 71.5794 114.095 71.3007 114.42 72.1675C114.78 73.1272 114.007 73.5258 113.322 73.905C111.415 74.9537 109.746 76.2849 108.25 78.1152V78.1268Z" fill="#662E87"/>
<path d="M60.8321 75.9023C60.8206 78.2821 59.3698 80.1241 57.5209 80.1009C55.5648 80.0738 53.9341 77.9029 53.9838 75.3837C54.0259 73.0968 55.4155 71.3167 57.1879 71.2742C59.144 71.2277 60.8436 73.3909 60.8321 75.9023Z" fill="#FEFCFE"/>
</g>
</svg>
