<svg width="61" height="54" viewBox="0 0 61 54" fill="none" xmlns="http://www.w3.org/2000/svg">
<path d="M15.0032 54C10.397 54 6.71197 52.3333 3.94822 49C1.31607 45.5333 0 41.0667 0 35.6C0 28.1333 1.97411 21.4 5.92233 15.4C10.0022 9.26666 16.1877 4.13333 24.479 0L26.6505 3.19999C22.7023 5.59999 19.0831 9 15.7929 13.4C12.6343 17.6667 11.055 22 11.055 26.4C11.055 27.6 11.384 28.6 12.0421 29.4C12.7001 30.0667 13.6872 30.4 15.0032 30.4C18.2934 30.4 21.0572 31.6 23.2945 34C25.6634 36.2667 26.8479 39.0667 26.8479 42.4C26.8479 45.7333 25.6634 48.5333 23.2945 50.8C21.0572 52.9333 18.2934 54 15.0032 54ZM49.1553 54C44.5491 54 40.8641 52.3333 38.1003 49C35.4682 45.5333 34.1521 41.0667 34.1521 35.6C34.1521 28.1333 36.1262 21.4 40.0744 15.4C44.1543 9.26666 50.3398 4.13333 58.6311 0L60.8026 3.19999C56.8544 5.59999 53.2352 9 49.945 13.4C46.7864 17.6667 45.2071 22 45.2071 26.4C45.2071 27.6 45.5361 28.6 46.1942 29.4C46.8522 30.0667 47.8393 30.4 49.1553 30.4C52.4455 30.4 55.2093 31.6 57.4466 34C59.8155 36.2667 61 39.0667 61 42.4C61 45.7333 59.8155 48.5333 57.4466 50.8C55.2093 52.9333 52.4455 54 49.1553 54Z" fill="#F5512B"/>
</svg>
